<?xml version="1.0" encoding="utf-8"?>
<!-- Generator: Adobe Illustrator 27.5.0, SVG Export Plug-In . SVG Version: 6.00 Build 0)  -->
<svg version="1.1" xmlns="http://www.w3.org/2000/svg" xmlns:xlink="http://www.w3.org/1999/xlink" x="0px" y="0px"
	 viewBox="0 0 600 600" style="enable-background:new 0 0 600 600;" xml:space="preserve">
<g id="background">
	<rect y="0" style="fill:#FFFFFF;" width="600" height="600"/>
</g>
<g id="objects">
	<g>
		<path style="fill:#4FC646;" d="M135.866,174.895c-14.793,6.357-25.141,14.735-30.451,19.678c-2.421,2.253-6.165,2.255-8.588,0.004
			l0,0c-2.549-2.367-2.704-6.348-0.342-8.902c16.686-18.039,49.381-52.643,129.512-56.5c96.565-4.647,118.192,67.096,204.192,50.096
			c0,0-41.978,3.339-122.456-52.863c-63.7-44.485-137.194-9.567-138.534-9.147c0.6-0.91,39.59-58.99,115.99-58.99
			c85,0,122,109,220,96c0,0-62,111-170,111c-71.288,0-111.748-48.898-147.552-81.646
			C173.614,170.797,153.327,167.39,135.866,174.895z"/>
		<path style="fill:#4FC646;" d="M169.2,393.719c4.441-6.611,9.699-12.66,15.319-18.324c2.82-2.826,5.736-5.564,8.783-8.154
			c1.5-1.324,3.07-2.563,4.625-3.824c1.587-1.218,3.167-2.449,4.794-3.616c12.974-9.381,27.478-16.818,42.937-21.451
			c7.723-2.317,15.658-3.954,23.678-4.917c8.027-0.96,16.09-1.301,24.273-0.853c8.147,0.609,16.213,2.232,23.994,4.707
			c7.809,2.428,15.227,5.893,22.353,9.756c7.126,3.88,13.949,8.253,20.499,12.92c6.566,4.648,12.953,9.505,19.232,14.423
			c6.293,4.902,12.5,9.865,18.763,14.695c6.272,4.809,12.618,9.467,19.115,13.835c6.516,4.331,13.229,8.28,20.144,11.743l5.233,2.48
			c1.771,0.756,3.561,1.458,5.339,2.192c1.763,0.778,3.602,1.327,5.413,1.953c1.816,0.613,3.62,1.267,5.483,1.705
			c7.337,2.203,14.931,3.273,22.521,3.837l5.713,0.269l5.726-0.149l2.862-0.084l2.856-0.293l5.711-0.577l9.335-0.944l-4.533,8.014
			c-1.204,2.129-2.362,4.018-3.593,5.971c-1.215,1.937-2.461,3.843-3.733,5.731c-2.527,3.787-5.179,7.476-7.889,11.122
			c-5.446,7.271-11.22,14.292-17.328,21.026c-12.232,13.433-25.698,25.878-40.7,36.37c-3.7,2.688-7.593,5.11-11.458,7.566
			l-5.932,3.479c-1.972,1.169-4.044,2.17-6.062,3.262c-8.156,4.205-16.586,7.97-25.351,10.838l-3.267,1.129l-3.325,0.952
			c-2.223,0.613-4.425,1.305-6.667,1.849c-4.507,0.994-8.992,2.104-13.576,2.722l-3.421,0.547c-0.571,0.085-1.139,0.195-1.712,0.259
			l-1.724,0.169l-6.897,0.669c-1.148,0.141-2.304,0.149-3.458,0.193l-3.462,0.117c-2.309,0.064-4.616,0.205-6.928,0.107
			c-9.241-0.118-18.504-1.049-27.601-2.873c-9.087-1.851-18.023-4.519-26.574-8.069c-8.56-3.525-16.782-7.791-24.604-12.618
			c-7.803-4.858-15.23-10.233-22.33-15.932c-14.192-11.418-27.052-24.118-39.896-36.382l-4.832-4.564l-2.42-2.259
			c-0.413-0.397-0.794-0.724-1.168-1.039l-1.132-0.973c-3.065-2.538-6.483-4.649-10.132-6.253c-7.294-3.22-15.509-4.365-23.43-3.254
			c-3.98,0.55-7.802,1.65-11.558,3.263c-3.909,1.689-7.718,3.621-11.404,5.768c-3.673,2.168-7.234,4.536-10.616,7.128
			c-1.69,1.295-3.341,2.64-4.935,4.035c-0.401,0.347-0.795,0.699-1.184,1.056c-0.245,0.22-1.133,1.053-1.935,1.546
			c-1.653,1.06-3.593,1.681-5.546,1.745c-3.921,0.192-7.86-1.908-9.858-5.271c-2.072-3.341-2.171-7.748-0.199-11.154
			c0.225-0.435,0.521-0.823,0.796-1.224l0.463-0.56l0.237-0.275l0.154-0.165l1.159-1.231l2.324-2.46
			c1.603-1.621,3.138-3.284,4.81-4.857c6.536-6.399,13.625-12.335,21.199-17.548c15.141-10.509,32.244-17.794,49.767-22.716
			c17.587-4.861,35.702-7.061,53.745-7.771c18.143-0.551,36.529,1.317,53.917,6.719c8.695,2.648,17.114,6.07,25.256,9.948
			c8.15,3.873,16.007,8.228,23.806,12.581c7.799,4.357,15.555,8.711,23.51,12.623c7.949,3.917,16.163,7.283,24.697,9.622
			c8.523,2.352,17.335,3.699,26.214,3.984c8.882,0.288,17.803-0.486,26.607-1.98c-8.729,1.869-17.643,3.034-26.619,3.129
			c-1.121,0.005-2.245,0.062-3.367,0.025l-3.365-0.151c-1.121-0.064-2.249-0.07-3.367-0.182l-3.355-0.353
			c-2.245-0.191-4.46-0.594-6.681-0.971c-2.234-0.319-4.413-0.894-6.616-1.372c-8.778-2.072-17.281-5.21-25.481-8.895
			c-8.22-3.658-16.158-7.846-24.074-11.962c-7.915-4.118-15.814-8.195-23.906-11.751c-8.083-3.57-16.356-6.623-24.811-8.961
			c-16.892-4.822-34.555-6.196-52.051-5.268l-13.175,1.114c-1.1,0.071-2.191,0.218-3.279,0.382l-3.267,0.459l-6.532,0.916
			l-1.632,0.233l-1.615,0.321l-3.23,0.634l-6.459,1.257c-2.144,0.453-4.248,1.062-6.374,1.584c-2.114,0.563-4.255,1.037-6.345,1.672
			c-16.73,5.008-32.811,12.195-46.885,22.319c-7.051,5.031-13.609,10.704-19.73,16.897c-1.555,1.514-3.026,3.156-4.55,4.72
			l-2.25,2.43l-1.124,1.218l-0.13,0.142l-0.031,0.046c-0.022,0.03-0.047,0.057-0.074,0.083c-0.022,0.07-0.09,0.113-0.107,0.183
			c-0.283,0.477-0.234,1.156,0.063,1.606c0.304,0.489,0.865,0.757,1.413,0.72c0.279-0.009,0.536-0.111,0.758-0.255
			c-0.074,0.113,1.153-1.056,1.954-1.759c1.749-1.563,3.547-3.057,5.385-4.496c3.677-2.876,7.537-5.5,11.528-7.91
			c4.005-2.387,8.15-4.544,12.418-6.439c4.424-1.962,9.234-3.414,14.094-4.126c9.746-1.468,19.894-0.166,28.975,3.732
			c4.542,1.941,8.816,4.521,12.657,7.637l1.419,1.195c0.481,0.402,0.948,0.801,1.344,1.174l2.498,2.286l4.921,4.613
			c13.012,12.349,25.656,24.731,39.347,35.667c6.842,5.454,13.926,10.538,21.297,15.095c7.388,4.524,15.081,8.477,23.044,11.726
			c7.954,3.273,16.219,5.704,24.627,7.389c8.408,1.695,16.98,2.603,25.59,2.737c2.151,0.103,4.305-0.03,6.458-0.082l3.23-0.097
			c1.076-0.037,2.156-0.036,3.226-0.168l6.434-0.604l1.609-0.149c0.535-0.057,1.065-0.16,1.598-0.238l3.193-0.502
			c4.278-0.554,8.469-1.59,12.684-2.496c2.097-0.501,4.159-1.148,6.241-1.712l3.116-0.877l3.065-1.051
			c8.223-2.654,16.165-6.174,23.881-10.118c1.91-1.028,3.87-1.959,5.74-3.063l5.631-3.277c3.674-2.322,7.379-4.603,10.911-7.155
			c14.3-9.947,27.414-21.681,39.319-34.54c5.953-6.433,11.6-13.162,16.929-20.129c2.65-3.493,5.247-7.029,7.712-10.645
			c1.24-1.802,2.455-3.621,3.631-5.454c1.169-1.811,2.359-3.721,3.37-5.467l4.802,7.07l-6.17,0.567l-3.084,0.28l-3.104,0.066
			c-2.069,0.032-4.138,0.086-6.207,0.094l-6.207-0.35c-8.247-0.686-16.487-2.049-24.374-4.538c-2.006-0.514-3.936-1.243-5.879-1.934
			c-1.937-0.704-3.904-1.337-5.774-2.193c-1.888-0.813-3.789-1.599-5.662-2.437l-5.509-2.722
			c-7.254-3.782-14.206-8.038-20.87-12.627c-13.293-9.234-25.595-19.508-37.865-29.568c-6.135-5.037-12.311-9.958-18.628-14.652
			c-6.302-4.714-12.81-9.091-19.573-12.977c-6.762-3.869-13.764-7.337-21.112-9.803c-7.33-2.492-14.898-4.279-22.615-5.08
			c-7.697-0.646-15.591-0.558-23.389,0.149c-7.805,0.706-15.559,2.07-23.145,4.106c-15.187,4.039-29.674,10.762-42.796,19.578
			c-3.274,2.214-6.48,4.537-9.584,6.995c-3.124,2.434-6.129,5.023-9.047,7.708C179.408,381.513,173.917,387.307,169.2,393.719z"/>
	</g>
</g>
</svg>
