<?xml version="1.0" encoding="utf-8"?>
<!-- Generator: Adobe Illustrator 27.5.0, SVG Export Plug-In . SVG Version: 6.00 Build 0)  -->
<svg version="1.1" xmlns="http://www.w3.org/2000/svg" xmlns:xlink="http://www.w3.org/1999/xlink" x="0px" y="0px"
	 viewBox="0 0 2500 2500" style="enable-background:new 0 0 2500 2500;" xml:space="preserve">
<g id="Background">
	<rect style="fill:#FFFFFF;" width="2500" height="2500"/>
</g>
<g id="Illustration">
	<g id="Global_warming_1_">
		<ellipse style="fill:#F2E6DC;" cx="1250" cy="1250" rx="914.711" ry="915"/>
		<g>
			<g>
				<polygon style="fill:#363E44;" points="460.55,759.396 634.787,759.396 626.46,608.473 582.992,551.122 620.131,493.771 
					614.635,394.161 480.702,394.161 475.206,493.771 512.346,551.122 468.877,608.473 				"/>
				<polygon style="fill:#D87355;" points="626.46,608.473 468.877,608.473 475.206,493.771 620.131,493.771 				"/>
			</g>
			<g>
				<polygon style="fill:#363E44;" points="662.07,759.396 836.308,759.396 827.981,608.473 784.512,551.122 821.652,493.771 
					816.156,394.161 682.222,394.161 676.726,493.771 713.866,551.122 670.398,608.473 				"/>
				<polygon style="fill:#D87355;" points="827.981,608.473 670.397,608.473 676.726,493.771 821.652,493.771 				"/>
			</g>
			<g>
				
					<rect x="399.047" y="759.396" transform="matrix(-1 -1.224647e-16 1.224647e-16 -1 1303.2797 1671.0793)" style="fill:#D3BBA3;" width="505.186" height="152.287"/>
				
					<rect x="412.624" y="793.826" transform="matrix(-1 -1.224647e-16 1.224647e-16 -1 1303.8632 1613.1625)" style="fill:#E6D0BE;" width="478.615" height="25.511"/>
				
					<rect x="412.624" y="849.416" transform="matrix(-1 -1.224647e-16 1.224647e-16 -1 1303.8632 1724.343)" style="fill:#E6D0BE;" width="478.615" height="25.511"/>
			</g>
			<g>
				<polygon style="fill:#D3BBA3;" points="950.274,631.322 950.274,534.994 1030.882,631.322 1030.882,534.994 1111.49,631.322 
					1111.49,534.994 1269.059,760.794 1188.451,760.794 1111.49,760.794 1107.843,760.794 1030.882,760.794 1027.234,760.794 
					950.274,760.794 869.666,760.794 869.666,534.994 				"/>
				
					<rect x="903.44" y="685.298" transform="matrix(-1 -1.224647e-16 1.224647e-16 -1 2172.1323 1596.9808)" style="fill:#E6D0BE;" width="365.253" height="226.385"/>
				
					<rect x="936.587" y="725.62" transform="matrix(-1 -1.224647e-16 1.224647e-16 -1 1953.0038 1504.3304)" style="fill:#D3BBA3;" width="79.829" height="53.09"/>
				
					<rect x="936.587" y="818.271" transform="matrix(-1 -1.224647e-16 1.224647e-16 -1 1953.0038 1689.6313)" style="fill:#D3BBA3;" width="79.829" height="53.09"/>
				
					<rect x="1046.379" y="725.62" transform="matrix(-1 -1.224647e-16 1.224647e-16 -1 2172.5862 1504.3304)" style="fill:#D3BBA3;" width="79.829" height="53.09"/>
				
					<rect x="1046.379" y="818.271" transform="matrix(-1 -1.224647e-16 1.224647e-16 -1 2172.5862 1689.6313)" style="fill:#D3BBA3;" width="79.829" height="53.09"/>
				
					<rect x="1156.17" y="725.62" transform="matrix(-1 -1.224647e-16 1.224647e-16 -1 2392.1685 1504.3304)" style="fill:#D3BBA3;" width="79.829" height="53.09"/>
				
					<rect x="1156.17" y="818.271" transform="matrix(-1 -1.224647e-16 1.224647e-16 -1 2392.1685 1689.6313)" style="fill:#D3BBA3;" width="79.829" height="53.09"/>
			</g>
		</g>
		<path style="opacity:0.4;fill:#FFD092;" d="M2041.906,663.41c0-177.536-143.876-321.457-321.355-321.457
			c-83.25,0-175.983,40.604-256.1,96.624L751.557,918.736l829.523,597.982l410.071-679.85
			C2023.273,786.828,2041.906,727.296,2041.906,663.41z"/>
		<g>
			<path style="fill:#D3BBA3;" d="M1531.763,1349.317c0,0,34.837,235.762-18.544,325.812
				c-106.892,180.32-303.916,300.713-528.615,299.419c-336.912-1.941-608.461-276.721-606.521-613.739
				c0.471-81.778,17.001-159.705,46.583-230.809c30.629-73.621,181.793-119.368,181.793-119.368s50.447-163.28,110.807-193.249
				c82.622-41.022,175.831-63.853,274.362-63.285c109.714,0.632,212.497,30.197,301.161,81.424
				c31.209,18.031,67.18,90.038,67.18,90.038s62.113,8.989,80.722,29.572c39.196,43.355,72.248,92.362,97.793,145.64
				C1577.226,1181.571,1531.763,1349.317,1531.763,1349.317z"/>
			<path style="fill:#F7F1EB;" d="M888.527,955.448c-17.466,10.522-7.954,37.885-25.357,47.694
				c-29.847,16.823-109.699-34.412-105.035-72.778c5.049-41.525,109.933-74.741,147.945-42.642
				c24.47,20.663,11.416,60.106,35.105,70.233c20.087,8.586,55.17-8.781,62.69-35.117c9.93-34.778-33.912-65.225-37.614-67.725
				c-44.344-29.94-105.411-13.555-127.883-7.525c-48.545,13.025-59.58,32.126-82.749,25.083
				c-24.47-7.438-29.521-34.01-38.346-55.258c-131.337,65.21-235.899,176.376-292.575,312.602
				c21.779,30.889,74.854,34.552,92.704,88.805c9.388,28.531,2.836,52.235,22.57,67.725c20.092,15.773,41.567,2.718,57.673,20.067
				c9.553,10.292,5.773,18.953,12.537,55.183c6.528,34.962,9.793,52.443,20.061,62.708c29.609,29.602,102.423,6.991,102.809-5.017
				c0.255-7.95-31.416-5.587-42.629-27.592c-11.693-22.951,13.329-43.994,2.508-65.216c-11.873-23.283-49.075-11.893-60.182-32.608
				c-11.465-21.384,10.408-66.665,45.136-85.283c50.94-27.309,87.262,25.417,137.914,5.017
				c63.033-25.385,44.745-122.311,120.363-158.025c38.13-18.008,67.438-5.009,72.719-20.067
				C1018.877,1007.232,923.187,934.568,888.527,955.448z"/>
			<path style="fill:#F7F1EB;" d="M817.17,1380.795c40.7-15.919,78.312-6.761,92.907-3.208c11.479,2.795,38.946,9.794,65.302,31.501
				c41.116,33.862,29.029,61.926,63.638,84.877c37.408,24.807,78.475,9.891,84.85,29.177c3.452,10.442-8.453,15.227-18.56,39.786
				c-17.937,43.583,0.41,75.038-18.562,87.53c-10.362,6.824-31.818,7.959-31.818,7.957c0.002,0,1.895,25.575-5.302,45.091
				c-5.044,13.678-10.447,13.243-23.865,31.829c-18.795,26.034-13.606,34.381-27.279,51.49
				c-20.445,25.584-39.995,16.864-52.269,34.271c-25.889,36.715,40.851,104.21,21.213,127.316
				c-14.876,17.501-75.842,5.459-102.528-31.829c-18.817-26.295-4.913-43.247-15.909-107.865
				c-9.029-53.077-28.317-99.87-35.353-116.706c-20.156-48.226-35.362-66.119-29.74-96.894
				c4.839-26.485,19.244-30.426,17.366-49.873c-3.578-37.031-57.488-40.161-63.638-74.267
				C731.461,1436.821,777.648,1396.252,817.17,1380.795z"/>
			<path style="fill:#F7F1EB;" d="M1538.463,1100.78c-84.93-20.426-106.993-26.535-143.908-16.419
				c-31.925,8.749-57.569,25.116-108.859,57.85c-48.904,31.211-57.515,44.51-61.234,51.044c-21.135,37.126-10.96,78.228,0,122.505
				c9.568,38.657,20.024,80.895,47.625,88.476c13.231,3.634,20.218-3.492,61.234-20.418c52.386-21.617,78.579-32.426,88.448-23.82
				c19.663,17.146-42.734,83.578-17.009,132.714c17.213,32.875,57.608,26.943,71.439,64.656c9.425,25.7-5.736,38.267,0,64.656
				c4.409,20.285,19.067,39.026,36.987,53.086c53.382-90.05,84.316-195.025,84.962-307.274
				C1598.699,1272.197,1577.203,1181.582,1538.463,1100.78z"/>
			<g>
				<path style="fill:#363E44;" d="M1024.855,1975.558c-1.213,0-2.42-0.003-3.634-0.01c-82.488-0.475-162.417-17.097-237.565-49.404
					c-72.584-31.204-137.677-75.652-193.47-132.109c-55.793-56.457-99.474-122.077-129.83-195.039
					c-31.43-75.539-47.124-155.679-46.649-238.193c0.475-82.514,17.092-162.468,49.388-237.64
					c31.194-72.607,75.628-137.72,132.067-193.531c56.44-55.81,122.039-99.505,194.977-129.872
					c75.517-31.439,155.599-47.138,238.119-46.664c82.488,0.475,162.417,17.097,237.565,49.404
					c72.584,31.204,137.677,75.652,193.47,132.109c55.792,56.457,99.474,122.077,129.83,195.039
					c31.429,75.539,47.124,155.679,46.649,238.193c-0.475,82.514-17.092,162.468-49.388,237.64
					c-31.195,72.607-75.629,137.72-132.067,193.531c-56.439,55.81-122.039,99.506-194.978,129.872
					C1184.936,1959.86,1106.062,1975.558,1024.855,1975.558z M1024.642,755.086c-161.339,0-313.234,62.408-428.073,175.968
					c-115.693,114.405-179.925,267.03-180.861,429.76c-1.934,335.928,269.705,610.799,605.526,612.734
					c162.688,0.915,315.984-61.553,431.679-175.958c115.693-114.405,179.925-267.03,180.861-429.76l1,0.006l-1-0.006
					c1.934-335.928-269.705-610.799-605.526-612.734C1027.046,755.089,1025.842,755.086,1024.642,755.086z"/>
			</g>
			<path style="fill:#F7F1EB;" d="M1440.676,955.144c-42.621-47.143-92.503-87.598-147.899-119.603
				c-3.871,17.367-3.598,34.422,3.124,48.047c9.388,19.03,28.895,26.48,27.214,44.238c-1.659,17.515-22.707,32.162-40.822,37.432
				c-30.901,8.99-50.528-10.101-61.234,0c-16.072,15.165,19.952,65.946,3.402,81.67c-10.836,10.295-30.43-7.53-51.028,3.403
				c-19.504,10.352-32.211,42.401-20.411,64.656c9.172,17.3,30.829,24.299,47.625,23.821c14.089-0.401,33.003-6.297,85.047-64.656
				c48.086-53.92,54.961-74.702,74.84-74.865c33.402-0.273,58.244,58.041,64.636,54.447c5.936-3.338-27.587-46.831-17.009-74.864
				C1412.634,967.019,1424.383,959.616,1440.676,955.144z"/>
		</g>
		<g>
			<path style="fill:#FFFFFF;" d="M569.458,1943.08L569.458,1943.08c-29.342,0-53.128-23.786-53.128-53.129v-472.501
				c0-29.342,23.786-53.128,53.128-53.128h0c29.342,0,53.128,23.786,53.128,53.128v472.501
				C622.586,1919.293,598.8,1943.08,569.458,1943.08z"/>
			<path style="fill:#363E44;" d="M622.587,1441.947H602.16c-0.553,0-1-0.448-1-1s0.447-1,1-1h20.427c0.553,0,1,0.448,1,1
				S623.14,1441.947,622.587,1441.947z"/>
			<path style="fill:#363E44;" d="M622.587,1508.092H602.16c-0.553,0-1-0.448-1-1s0.447-1,1-1h20.427c0.553,0,1,0.448,1,1
				S623.14,1508.092,622.587,1508.092z"/>
			<path style="fill:#363E44;" d="M622.587,1574.237H602.16c-0.553,0-1-0.448-1-1s0.447-1,1-1h20.427c0.553,0,1,0.448,1,1
				S623.14,1574.237,622.587,1574.237z"/>
			<path style="fill:#363E44;" d="M622.587,1640.381H602.16c-0.553,0-1-0.448-1-1s0.447-1,1-1h20.427c0.553,0,1,0.448,1,1
				S623.14,1640.381,622.587,1640.381z"/>
			<path style="fill:#363E44;" d="M622.587,1706.526H602.16c-0.553,0-1-0.448-1-1s0.447-1,1-1h20.427c0.553,0,1,0.448,1,1
				S623.14,1706.526,622.587,1706.526z"/>
			<path style="fill:#363E44;" d="M622.587,1772.67H602.16c-0.553,0-1-0.448-1-1s0.447-1,1-1h20.427c0.553,0,1,0.448,1,1
				S623.14,1772.67,622.587,1772.67z"/>
			<ellipse style="fill:#FFFFFF;" cx="569.458" cy="1924.593" rx="129.258" ry="129.299"/>
			<ellipse style="fill:#D87355;" cx="569.458" cy="1924.593" rx="53.129" ry="53.145"/>
			<path style="fill:#D87355;" d="M570.079,1930.251h-1.241c-5.398,0-9.774-4.376-9.774-9.774v-492.005
				c0-5.398,4.376-9.774,9.774-9.774h1.241c5.398,0,9.774,4.376,9.774,9.774v492.005
				C579.853,1925.875,575.477,1930.251,570.079,1930.251z"/>
		</g>
		<g>
			<path style="fill:#EFBC73;" d="M1507.028,1263.458c-0.101,0-0.203-0.015-0.304-0.047c-0.426-0.136-0.697-0.53-0.696-0.953
				c0-0.1,0.016-0.202,0.047-0.303l177.343-555.993l-215.381,422.553c-0.251,0.491-0.853,0.688-1.345,0.437
				c-0.346-0.176-0.545-0.526-0.546-0.89c0-0.153,0.034-0.309,0.109-0.455l212.555-417.01c-0.118-0.021-0.235-0.064-0.345-0.13
				c-0.286-0.173-0.454-0.468-0.479-0.778l-232.307,308.963c-0.331,0.441-0.959,0.531-1.399,0.198
				c-0.263-0.197-0.4-0.498-0.399-0.803c0-0.208,0.065-0.418,0.201-0.598l237.441-315.793l-360.119,315.043
				c-0.416,0.363-1.047,0.322-1.411-0.094c-0.166-0.19-0.247-0.425-0.247-0.659c0-0.278,0.116-0.554,0.342-0.752l312.482-273.369
				c0.057-0.149,0.149-0.286,0.277-0.398l49.664-43.307l-438.906,192.69c-0.504,0.221-1.095-0.007-1.318-0.514
				c-0.057-0.13-0.084-0.266-0.084-0.4c-0.001-0.385,0.223-0.753,0.598-0.918l401.387-176.217c0.098-0.122,0.226-0.223,0.38-0.29
				l31.366-13.681l-574.445,150.226c-0.535,0.139-1.08-0.18-1.221-0.715c-0.022-0.086-0.032-0.171-0.032-0.256
				c0.001-0.443,0.298-0.847,0.747-0.965l570.841-149.284l-396.682,53.947c-0.548,0.074-1.052-0.309-1.126-0.856
				c-0.006-0.045-0.009-0.089-0.009-0.133c-0.001-0.494,0.363-0.924,0.865-0.992l398.453-54.188h-339.436c-0.553,0-1-0.448-1-1
				s0.447-1,1-1h333.864l-721.728-71.122c-0.516-0.051-0.9-0.484-0.902-0.991c0-0.034,0.001-0.068,0.005-0.102
				c0.055-0.55,0.551-0.951,1.093-0.897l723.808,71.326l-89.321-18.821c-0.471-0.099-0.794-0.514-0.794-0.977
				c0-0.068,0.007-0.138,0.021-0.208c0.114-0.54,0.643-0.886,1.185-0.772l64.946,13.685l-17.593-4.567
				c-0.418-0.108-0.705-0.465-0.744-0.871L1136.13,546.291c-0.445-0.121-0.738-0.524-0.738-0.965c0-0.087,0.011-0.174,0.035-0.262
				c0.144-0.534,0.691-0.847,1.227-0.704l480.614,130.191c0.241-0.182,0.562-0.253,0.871-0.167l60.707,16.793l-491.594-250.73
				c-0.346-0.176-0.546-0.527-0.546-0.89c0-0.153,0.035-0.309,0.109-0.455c0.25-0.491,0.85-0.688,1.345-0.437l483.922,246.817
				c0.021-0.119,0.064-0.235,0.131-0.345c0.174-0.287,0.469-0.455,0.779-0.479l-377.257-283.834
				c-0.262-0.197-0.399-0.498-0.398-0.803c0.001-0.208,0.066-0.418,0.201-0.597c0.331-0.441,0.957-0.53,1.4-0.198L1674.75,683.48
				l-266.185-252.716c-0.207-0.196-0.311-0.459-0.312-0.723c-0.001-0.248,0.091-0.496,0.274-0.69c0.382-0.4,1.014-0.417,1.414-0.037
				l263.513,250.179l-33.7-38.672c-0.164-0.189-0.245-0.422-0.246-0.654c-0.001-0.28,0.115-0.559,0.343-0.757
				c0.414-0.362,1.046-0.32,1.411,0.097l40.479,46.449l-202.466-343.495c-0.095-0.16-0.139-0.335-0.139-0.508
				c0-0.342,0.176-0.675,0.492-0.861c0.474-0.28,1.088-0.122,1.369,0.354l199.618,338.664l-12.24-28.081
				c-0.057-0.131-0.083-0.267-0.083-0.4c0-0.385,0.225-0.752,0.601-0.916c0.509-0.221,1.097,0.012,1.316,0.517l16.582,38.044
				L1674.154,461.8c-0.001-0.019-0.002-0.039-0.002-0.058c0.001-0.526,0.412-0.967,0.944-0.996c0.572-0.032,1.023,0.392,1.054,0.943
				l12.592,226.627l13.799-53.185c0.139-0.531,0.683-0.85,1.208-0.72l2.807-10.153c0.147-0.532,0.698-0.845,1.23-0.697
				c0.442,0.122,0.733,0.524,0.733,0.962c0,0.089-0.012,0.178-0.036,0.268l-17.496,63.29l5.371-8.861
				c0.287-0.472,0.902-0.623,1.374-0.337c0.31,0.188,0.481,0.517,0.481,0.855c0,0.177-0.047,0.356-0.145,0.518l-5.783,9.541
				l49.749-43.382c0.415-0.363,1.047-0.321,1.411,0.096c0.166,0.19,0.247,0.425,0.246,0.659c-0.001,0.278-0.117,0.554-0.343,0.752
				l-49.702,43.341l37.185-16.219c0.508-0.221,1.096,0.011,1.316,0.517c0.057,0.13,0.083,0.266,0.083,0.4
				c0,0.385-0.225,0.752-0.601,0.916l-40.265,17.563l104.123,21.941c0.471,0.099,0.794,0.514,0.794,0.977
				c0,0.069-0.007,0.138-0.021,0.208c-0.114,0.54-0.648,0.886-1.185,0.772l-64.943-13.685l17.591,4.567
				c0.451,0.117,0.75,0.524,0.749,0.969c0,0.079-0.01,0.159-0.029,0.24l10.149,2.808c0.443,0.122,0.733,0.524,0.733,0.963
				c0,0.088-0.012,0.178-0.036,0.268c-0.147,0.533-0.703,0.844-1.23,0.697l-63.271-17.502l8.861,5.375
				c0.31,0.188,0.481,0.517,0.481,0.855c0,0.177-0.047,0.356-0.145,0.518c-0.287,0.472-0.901,0.623-1.374,0.337l-9.538-5.785
				l43.369,49.766c0.164,0.189,0.245,0.422,0.246,0.654c0.001,0.28-0.115,0.559-0.343,0.757c-0.416,0.362-1.049,0.32-1.411-0.097
				l-43.327-49.718l16.214,37.196c0.057,0.13,0.083,0.267,0.083,0.4c0,0.385-0.225,0.752-0.601,0.916
				c-0.507,0.222-1.096-0.011-1.316-0.517l-11.116-25.502l144.706,456.077c0.032,0.101,0.047,0.203,0.047,0.303
				c0,0.424-0.271,0.817-0.697,0.952c-0.527,0.168-1.089-0.125-1.256-0.651l-145.235-457.747l58.875,301.189
				c0.013,0.066,0.019,0.131,0.019,0.195c-0.001,0.468-0.332,0.885-0.809,0.978c-0.541,0.106-1.066-0.248-1.173-0.79l-59.429-304.02
				l18.686,331.16c0.001,0.019,0.002,0.039,0.002,0.058c0,0.257-0.099,0.493-0.261,0.672l5.744,103.388
				c0.001,0.019,0.002,0.039,0.002,0.058c-0.001,0.526-0.412,0.966-0.944,0.996c-0.569,0.03-1.023-0.392-1.054-0.943l-24.34-438.071
				l-40.859,358.674c-0.063,0.548-0.548,0.941-1.106,0.88c-0.51-0.058-0.887-0.49-0.887-0.992c0-0.038,0.002-0.076,0.007-0.115
				l40.586-356.281l-11.838,45.629c-0.137,0.531-0.678,0.851-1.209,0.719l-2.807,10.153c-0.147,0.533-0.697,0.844-1.23,0.697
				c-0.442-0.122-0.733-0.524-0.733-0.962c0-0.088,0.012-0.178,0.036-0.268l5.774-20.887l-165.508,518.891
				C1507.846,1263.187,1507.452,1263.458,1507.028,1263.458z"/>
			<g>
				<ellipse style="fill:#EFBC73;" cx="1691.962" cy="680.654" rx="256.1" ry="256.181"/>
			</g>
		</g>
		<g>
			<g>
				<polygon style="fill:#D87355;" points="1975.407,1151.068 1876.634,1151.068 1854.593,802.744 1997.448,802.744 				"/>
				<rect x="1876.634" y="1199.08" style="fill:#D87355;" width="98.772" height="84.277"/>
			</g>
			<g>
				<path style="fill:#363E44;" d="M1997.448,1152.068h-98.772c-0.527,0-0.965-0.41-0.998-0.937l-22.042-348.323
					c-0.018-0.276,0.08-0.546,0.269-0.748c0.189-0.201,0.453-0.316,0.729-0.316h142.855c0.276,0,0.54,0.114,0.729,0.316
					c0.188,0.201,0.286,0.472,0.269,0.748l-22.041,348.323C1998.413,1151.658,1997.976,1152.068,1997.448,1152.068z
					 M1899.614,1150.068h96.896l21.914-346.324h-140.725L1899.614,1150.068z"/>
				<path style="fill:#363E44;" d="M1997.448,1284.357h-98.772c-0.553,0-1-0.448-1-1v-84.277c0-0.552,0.447-1,1-1h98.772
					c0.553,0,1,0.448,1,1v84.277C1998.448,1283.909,1998.001,1284.357,1997.448,1284.357z M1899.676,1282.357h96.772v-82.277
					h-96.772V1282.357z"/>
			</g>
		</g>
		
			<rect x="1444.786" y="1468.235" transform="matrix(-1 -1.224647e-16 1.224647e-16 -1 3605.6189 3631.4531)" style="fill:#9E9569;" width="716.048" height="694.984"/>
		<g>
			<g>
				<path style="fill:#E2A18D;" d="M1963.758,1588.668c36.039,89.694,158.164,340.569,36.011,400.799
					c-101.039,49.82-207.53-200.784-249.92-286.943C1821.152,1664.572,1892.455,1626.619,1963.758,1588.668z"/>
				<path style="fill:#E2A18D;" d="M1477.808,1698.995c-93.34,25.036-393.133,157.101-438.263,28.569
					c-37.33-106.315,248.304-192.529,338.898-224.295C1407.56,1578.63,1448.692,1623.633,1477.808,1698.995z"/>
				<g>
					<path style="fill:#E2A18D;" d="M1050.275,1746.034c-44.56-43.922,32.707-187.106,41.439-200.039
						c60.063-88.961,185.646-236.641,232.234-205.463c43.913,29.388,31.567,149.392-70.734,279.693
						C1162.202,1736.148,1087.1,1782.332,1050.275,1746.034z"/>
					<g>
						<path style="fill:#84524D;" d="M1173.2,1463.375L1173.2,1463.375c16.93,15.706,44.79,13.192,62.226-5.615l139.313-153.853
							l-59.52-55.217l-141.102,152.194C1156.681,1419.691,1156.27,1447.669,1173.2,1463.375z"/>
						
							<ellipse transform="matrix(0.4663 -0.8846 0.8846 0.4663 -385.4073 1454.174)" style="fill:#363E44;" cx="1012.48" cy="1046.503" rx="71.052" ry="73.66"/>
						<polygon style="fill:#D87355;" points="1357.512,1152.706 1296.67,1269.184 936.927,1191.141 1088.032,901.865 						"/>
						
							<rect x="1300.376" y="1187.434" transform="matrix(0.4632 -0.8862 0.8862 0.4632 -357.9838 1871.4227)" style="fill:#EFBC73;" width="131.065" height="87.601"/>
						<g>
							
								<rect x="1339.262" y="1232.431" transform="matrix(0.4632 -0.8862 0.8862 0.4632 -394.7623 1875.4001)" style="fill:#E0AA63;" width="23.088" height="62.309"/>
							
								<rect x="1355.775" y="1200.817" transform="matrix(0.4632 -0.8862 0.8862 0.4632 -357.8791 1873.0708)" style="fill:#E0AA63;" width="23.088" height="62.309"/>
							
								<rect x="1372.289" y="1169.204" transform="matrix(0.4632 -0.8862 0.8862 0.4632 -320.9987 1870.7338)" style="fill:#E0AA63;" width="23.088" height="62.309"/>
						</g>
					</g>
					<g>
						<path style="fill:#E2A18D;" d="M1241.179,1283.147c6.91-6.797,21.234-2.97,33.436,3.876
							c19.859,11.144,32.036,34.333,21.864,45.486c-7.125,7.812-30.098,3.182-47.535-15.446
							C1237.535,1304.876,1234.17,1290.042,1241.179,1283.147z"/>
						<path style="fill:#E2A18D;" d="M1174.917,1358.726c8.209-5.152,22.704,0.36,31.821,10.976
							c13.89,16.172,23.909,40.419,11.578,49.124c-8.637,6.097-30.078-3.365-43.104-25.307
							C1166.688,1379.162,1166.589,1363.952,1174.917,1358.726z"/>
						<path style="fill:#E2A18D;" d="M1216.799,1309.448c7.628-7.191,24.564-4.793,36.913,4.101
							c18.813,13.55,35.368,36.324,24.138,48.124c-7.866,8.265-33.228,3.366-52.479-16.342
							C1212.776,1332.437,1209.061,1316.743,1216.799,1309.448z"/>
						<path style="fill:#E2A18D;" d="M1193.951,1332.855c8.431-6.23,24.961-1.828,36.16,8.476
							c17.063,15.698,30.783,40.285,18.227,50.66c-8.795,7.268-33.392-0.623-50.155-22.487
							C1187.215,1355.199,1185.398,1339.174,1193.951,1332.855z"/>
					</g>
					<path style="fill:#E2A18D;" d="M1326.14,1467.875c12.874-12.695,19.868-36.379,21.421-49.958
						c4.875-42.592-15.642-88.719-31.435-88.25c-8.479,0.252-20.08,8.115-20.587,23.331c-0.644,19.344,6.328,27.917,5.377,42.603
						c-1.246,19.227-23.745,25.343-28.394,46.408C1264.151,1479.939,1308.521,1485.25,1326.14,1467.875z"/>
				</g>
				<path style="fill:#363E44;" d="M1860.579,1776.236l167.166-164.823c0,0-151.928-136.85-355.057-155.932
					c-211.34-19.854-401.206,55.067-401.206,55.067l26.318,270.76c0,0,20.638-5.071,69.798-36.454l12.821,418.365h525.88
					L1860.579,1776.236z"/>
				<g>
					<g>
						<path style="fill:#E2A18D;" d="M1961.136,1788.425c0-0.005-0.004-0.011-0.01-0.011
							c-198.069-34.265-337.94-62.375-381.461-69.355c-4.557-0.731-12.596-2.058-23.12-0.885
							c-38.996,4.343-49.63,36.032-88.551,59.315c-44.162,26.418-83.981,16.283-86.089,29.257
							c-1.467,9.025,12.478,17.078,44.585,21.806c0.003,0,0.003,0.005,0,0.005c-24.807-0.787-58.495-0.386-58.891,13.328
							c0.39,15.86,40.026,20.038,64.127,21.393c-29.172-1.64-45.175,6.218-43.491,13.919c2.652,12.122,24.978,18.664,63.617,19.336
							c0.002,0,0.002,0.002,0.001,0.003c-26.809,6.992-32.271,12.685-29.123,19.129c5.748,11.766,37.525,11.721,65.611,7.372
							c31.618-4.895,54.442-19.663,68.611-29.318c0.004-0.002,0.009-0.003,0.013-0.002
							c136.236,38.386,298.861,82.379,407.683,101.716C1987.679,1999.526,1960.196,1863.32,1961.136,1788.425z"/>
						<path style="fill:#E2A18D;" d="M1508.673,1764.461c-49.512-11.87-64.856-26.647-62.725-34.436
							c3.583-13.099,50-20.273,124.547-12.044C1554.431,1732.475,1524.735,1749.967,1508.673,1764.461z"/>
					</g>
					<path style="fill:#363E44;" d="M1958.883,1789.025c-0.057,0-0.114-0.005-0.172-0.015
						c-43.729-7.571-87.205-15.284-132.912-23.58c-0.543-0.099-0.904-0.619-0.806-1.162c0.1-0.544,0.619-0.904,1.163-0.805
						c45.701,8.294,89.172,16.006,132.896,23.577c0.544,0.094,0.908,0.612,0.814,1.156
						C1959.783,1788.682,1959.36,1789.025,1958.883,1789.025z"/>
					<g>
						<path style="fill:#363E44;" d="M1493.089,1762.156c-0.277,0-0.554-0.115-0.751-0.34c-0.365-0.415-0.324-1.047,0.091-1.411
							c4.577-4.019,8.773-8.039,12.831-11.927c8.668-8.304,16.855-16.147,26.589-21.78c0.479-0.277,1.089-0.113,1.366,0.365
							c0.277,0.478,0.113,1.09-0.364,1.366c-9.525,5.512-17.629,13.275-26.207,21.493c-4.073,3.902-8.286,7.937-12.895,11.985
							C1493.559,1762.074,1493.323,1762.156,1493.089,1762.156z"/>
						<path style="fill:#363E44;" d="M1427.376,1828.364c-0.53,0-0.973-0.417-0.998-0.953c-0.025-0.552,0.4-1.02,0.952-1.046
							c8.919-0.418,17.722-2.021,26.164-4.762c5.816-1.888,11.498-4.335,16.888-7.271c0.487-0.265,1.093-0.085,1.356,0.4
							c0.265,0.485,0.086,1.092-0.399,1.357c-5.497,2.996-11.294,5.491-17.228,7.418c-8.611,2.796-17.591,4.43-26.688,4.857
							C1427.408,1828.364,1427.392,1828.364,1427.376,1828.364z"/>
						<path style="fill:#363E44;" d="M1428.841,1862.74c-0.53,0-0.973-0.417-0.998-0.953c-0.025-0.552,0.4-1.02,0.952-1.046
							c8.919-0.418,17.722-2.021,26.164-4.762c5.815-1.888,11.497-4.335,16.889-7.272c0.486-0.265,1.093-0.085,1.356,0.4
							c0.265,0.485,0.086,1.092-0.399,1.357c-5.499,2.996-11.296,5.491-17.229,7.418c-8.611,2.796-17.591,4.43-26.688,4.857
							C1428.873,1862.74,1428.856,1862.74,1428.841,1862.74z"/>
						<path style="fill:#363E44;" d="M1452.557,1897.227c-0.53,0-0.973-0.417-0.998-0.953c-0.025-0.552,0.4-1.02,0.952-1.046
							c8.919-0.418,17.722-2.021,26.164-4.762c5.816-1.889,11.499-4.335,16.888-7.271c0.487-0.265,1.093-0.085,1.356,0.4
							c0.265,0.485,0.086,1.092-0.399,1.357c-5.497,2.995-11.293,5.491-17.228,7.417c-8.611,2.796-17.591,4.43-26.688,4.857
							C1452.589,1897.227,1452.572,1897.227,1452.557,1897.227z"/>
					</g>
				</g>
			</g>
			<g>
				<path style="fill:#E2A18D;" d="M1660.882,1538.649L1660.882,1538.649c30.151-8.229,47.924-39.341,39.7-69.493l-31.307-114.778
					c-8.226-30.159-39.346-47.937-69.504-39.706l0,0c-30.151,8.229-47.924,39.34-39.7,69.493l31.307,114.778
					C1599.604,1529.102,1630.724,1546.88,1660.882,1538.649z"/>
				<path style="fill:#E2A18D;" d="M1680.237,1238.39c-3.81-2.415-40.646-24.997-77.077-10.421
					c-27.109,10.845-41.865,34.902-60.517,78.996c-21.965,51.926-27.843,86.035-18.406,103.251
					c14.911,27.201,101.008,26.781,148.885-4.042c34.558-22.249,53.04-64.07,49.239-105.294
					C1718.569,1259.771,1682.668,1239.931,1680.237,1238.39z"/>
				<g>
					<g>
						<path style="fill:#FFFFFF;" d="M1555.361,1259.409c-0.125,0.354-0.469,0.52-0.593,0.874c-0.006,0.015-0.004,0.029-0.009,0.044
							c-3.204,4.186-6.595,8.594-10.509,12.122c-1.733,1.562-3.582,2.017-5.382,3.304c-1.321,0.945-2.581,1.854-3.919,2.731
							c-5.548-16.573-2.659-32.849-2.659-32.849S1544.44,1249.852,1555.361,1259.409z"/>
						<path style="fill:#363E44;" d="M1539.512,1288.573c-1.919-3.243-3.389-6.607-4.521-9.96c0.454-1.373,0.979-2.735,1.651-4.065
							c3.943-7.802,10.903-13.051,18.74-15.112c4.07,3.596,7.986,7.958,11.075,13.176c10.392,17.553,7.86,38.675,7.314,42.369
							c-0.267,0.107-0.537,0.208-0.808,0.309C1569.043,1313.815,1549.749,1305.863,1539.512,1288.573z"/>
					</g>
					<g>
						<path style="fill:#FFFFFF;" d="M1627.477,1335.4c-2.712,5.609-5.799,9.344-11.041,12.196
							c-12.825-7.482-20.583-17.931-20.583-17.931s17.312-8.984,36.539-7.367C1631.909,1326.862,1629.402,1331.419,1627.477,1335.4z
							"/>
						<path style="fill:#363E44;" d="M1632.443,1322.308c2.138,0.197,4.301,0.521,6.473,1.011
							c21.882,4.933,36.179,24.212,36.179,24.212s-21.182,11.279-43.063,6.346c-5.656-1.275-10.793-3.516-15.319-6.127
							C1616.909,1337.207,1622.806,1327.334,1632.443,1322.308z"/>
					</g>
				</g>
				<path style="fill:#84524D;" d="M1740.962,1264.163c12.847,5.257,29.871,27.47,28.479,51.625
					c-2.953,51.236-28.036,79.302-86.516,94.389c6.883-16.99,3.465-45.206,1.345-60.234c-2.639-18.704,1.512-33.665,13.453-46.856
					c-54.426-21.856-71.904-32.48-70.621-36.96c1.342-4.684,23.284-4.353,23.284-4.353s-48.398-4.21-48.955-11.114
					c-0.173-2.144,1.913-7.623,24.479-13.259c-46.449,5.63-49.202,2.194-49.913-0.224c-2.101-7.141,19.298-31.753,50.938-44.336
					c17.852-7.1,42.197-6.147,64.827,4.253C1732.023,1215.597,1742.755,1250.802,1740.962,1264.163z"/>
				<g>
					<path style="fill:#E2A18D;" d="M1669.548,1361.365c-14.277,11.107-18.242,29.896-8.858,41.967
						c9.385,12.071,28.566,12.853,42.843,1.746c14.277-11.106,18.242-29.896,8.857-41.966
						C1703.006,1351.04,1683.825,1350.258,1669.548,1361.365z"/>
					<path style="fill:#363E44;" d="M1692.354,1397.162c-0.357,0-0.703-0.192-0.883-0.53c-0.261-0.487-0.076-1.093,0.411-1.353
						c0.933-0.497,1.834-1.083,2.679-1.741c6.81-5.297,8.75-14.234,4.326-19.924c-1.069-1.375-2.426-2.463-4.035-3.232
						c-0.498-0.238-0.709-0.835-0.471-1.333c0.239-0.498,0.835-0.709,1.334-0.471c1.892,0.905,3.49,2.186,4.751,3.809
						c5.1,6.56,3.002,16.756-4.677,22.729c-0.935,0.728-1.933,1.376-2.966,1.927
						C1692.674,1397.124,1692.513,1397.162,1692.354,1397.162z"/>
				</g>
				<path style="fill:#363E44;" d="M1556.883,1341.277c-0.499,0-0.931-0.373-0.992-0.881c-0.412-3.437,0.179-6.227,1.757-8.293
					c1.72-2.255,4.014-2.89,6.67-3.626c1.835-0.509,3.915-1.085,6.203-2.314c2.908-1.563,5.499-3.842,7.7-6.772
					c0.332-0.441,0.959-0.531,1.4-0.199s0.53,0.959,0.199,1.4c-2.377,3.163-5.188,5.63-8.354,7.332
					c-2.485,1.335-4.68,1.943-6.615,2.479c-2.497,0.692-4.302,1.192-5.614,2.913c-1.252,1.638-1.709,3.939-1.36,6.841
					c0.065,0.548-0.325,1.046-0.874,1.112C1556.963,1341.275,1556.922,1341.277,1556.883,1341.277z"/>
				<path style="fill:#363E44;" d="M1587.161,1430.864c-4.716,0-9.677-0.187-14.872-0.607c-0.55-0.045-0.96-0.527-0.916-1.077
					c0.045-0.551,0.51-0.96,1.078-0.916c45.76,3.704,73.013-10.868,73.283-11.015c0.484-0.265,1.091-0.087,1.356,0.397
					c0.266,0.485,0.088,1.092-0.397,1.357C1646.449,1419.137,1624.526,1430.864,1587.161,1430.864z"/>
				<path style="fill:#363E44;" d="M1560.11,1377.907c1.769,7.693,9.437,12.494,17.128,10.724c7.69-1.77,12.49-9.44,10.721-17.133
					c-1.769-7.693-6.234,1.435-13.924,3.204C1566.344,1376.473,1558.341,1370.215,1560.11,1377.907z"/>
				<g>
					<path style="fill:#84524D;" d="M1694.969,1301.505c-16.91-55.609-59.733-78.993-71.386-87.222
						c1.532-20.359,10.362-29.808,13.833-33.018c19.828-18.35,63.432-17.061,99.666,12.825c-3.393-1.232-21.769-2.722-26.174,0.625
						c18.535,0.15,30.096,8.004,35.982,11.911c26.987,17.907,38.375,56.689,27.038,99.136c0.057-2.818-1.584-15.806-7.254-22.676
						c1.556,6.732,2.579,14.489,2.349,23.053c-1.002,37.254-24.99,63.199-33.965,71.997
						C1734.328,1368.015,1730.891,1327.323,1694.969,1301.505z"/>
					<path style="fill:#363E44;" d="M1715.532,1259.699c-0.178,0-0.358-0.047-0.521-0.147c-7.206-4.414-14.813-8.261-22.608-11.436
						c-9.747-3.971-19.956-6.963-30.346-8.894c-0.386-0.072-0.694-0.363-0.788-0.744s0.043-0.782,0.352-1.025
						c5.035-3.968,13.447-8.915,24.932-9.95c10.511-0.947,19.041,1.841,24.341,4.346c0.499,0.236,0.712,0.832,0.477,1.331
						c-0.235,0.499-0.828,0.714-1.332,0.477c-5.076-2.399-13.238-5.069-23.306-4.162c-9.733,0.877-17.163,4.691-22.086,8.19
						c9.755,1.959,19.336,4.841,28.511,8.578c7.896,3.215,15.601,7.112,22.899,11.582c0.471,0.288,0.619,0.904,0.33,1.375
						C1716.197,1259.529,1715.869,1259.699,1715.532,1259.699z"/>
				</g>
			</g>
		</g>
	</g>
</g>
</svg>
