<?xml version="1.0" encoding="utf-8"?>
<!-- Generator: Adobe Illustrator 27.5.0, SVG Export Plug-In . SVG Version: 6.00 Build 0)  -->
<svg version="1.1" xmlns="http://www.w3.org/2000/svg" xmlns:xlink="http://www.w3.org/1999/xlink" x="0px" y="0px"
	 viewBox="0 0 500 500" style="enable-background:new 0 0 500 500;" xml:space="preserve">
<g id="Sun">
	<g>
		<g>
			<g>
				<path style="fill:#263238;" d="M348.107,26.885c-0.276,0-0.5-0.224-0.5-0.5v-8.351c0-0.276,0.224-0.5,0.5-0.5
					c0.276,0,0.5,0.224,0.5,0.5v8.351C348.607,26.662,348.383,26.885,348.107,26.885z"/>
				<path style="fill:#263238;" d="M348.107,136.643c-0.276,0-0.5-0.224-0.5-0.5v-6.921c0-0.276,0.224-0.5,0.5-0.5
					c0.276,0,0.5,0.224,0.5,0.5v6.921C348.607,136.419,348.383,136.643,348.107,136.643z"/>
			</g>
			<g>
				<path style="fill:#263238;" d="M407.154,78.304h-7.629c-0.276,0-0.5-0.224-0.5-0.5c0-0.276,0.224-0.5,0.5-0.5h7.629
					c0.276,0,0.5,0.224,0.5,0.5C407.654,78.08,407.43,78.304,407.154,78.304z"/>
				<path style="fill:#263238;" d="M296.688,78.304h-7.628c-0.276,0-0.5-0.224-0.5-0.5c0-0.276,0.224-0.5,0.5-0.5h7.628
					c0.276,0,0.5,0.224,0.5,0.5C297.188,78.08,296.965,78.304,296.688,78.304z"/>
			</g>
			<g>
				<path style="fill:#263238;" d="M384.465,41.945c-0.128,0-0.256-0.049-0.354-0.146c-0.195-0.195-0.195-0.512,0-0.707l5.75-5.75
					c0.195-0.195,0.512-0.195,0.707,0c0.195,0.195,0.195,0.512,0,0.707l-5.75,5.75C384.721,41.896,384.593,41.945,384.465,41.945z"
					/>
				<path style="fill:#263238;" d="M306.712,119.706c-0.128,0-0.256-0.049-0.353-0.146c-0.196-0.195-0.196-0.512-0.001-0.707
					l5.036-5.044c0.195-0.196,0.512-0.195,0.707-0.001c0.195,0.195,0.195,0.512,0,0.707l-5.035,5.044
					C306.969,119.657,306.84,119.706,306.712,119.706z"/>
			</g>
			<g>
				<path style="fill:#263238;" d="M311.748,41.945c-0.128,0-0.256-0.049-0.354-0.146l-5.75-5.75c-0.195-0.195-0.195-0.512,0-0.707
					c0.195-0.195,0.512-0.195,0.707,0l5.75,5.75c0.195,0.195,0.195,0.512,0,0.707C312.004,41.896,311.876,41.945,311.748,41.945z"/>
				<path style="fill:#263238;" d="M389.5,119.706c-0.128,0-0.256-0.049-0.353-0.147l-5.035-5.044c-0.195-0.195-0.195-0.512,0-0.707
					c0.195-0.194,0.512-0.195,0.707,0.001l5.035,5.044c0.195,0.195,0.195,0.512,0,0.707
					C389.756,119.657,389.628,119.706,389.5,119.706z"/>
			</g>
		</g>
		<g>
			<circle style="fill:#92E3A9;" cx="348.107" cy="77.091" r="20.72"/>
			<path style="fill:#263238;" d="M348.107,98.312c-11.7,0-21.22-9.52-21.22-21.22s9.52-21.22,21.22-21.22s21.22,9.52,21.22,21.22
				S359.807,98.312,348.107,98.312z M348.107,56.871c-11.149,0-20.22,9.071-20.22,20.22s9.07,20.22,20.22,20.22
				c11.149,0,20.22-9.071,20.22-20.22S359.256,56.871,348.107,56.871z"/>
		</g>
		<g>
			<g>
				<path style="fill:#263238;" d="M348.107,52.108c-0.276,0-0.5-0.224-0.5-0.5V36.366c0-0.276,0.224-0.5,0.5-0.5
					c0.276,0,0.5,0.224,0.5,0.5v15.242C348.607,51.884,348.383,52.108,348.107,52.108z"/>
				<path style="fill:#263238;" d="M348.107,119.746c-0.276,0-0.5-0.224-0.5-0.5v-15.242c0-0.276,0.224-0.5,0.5-0.5
					c0.276,0,0.5,0.224,0.5,0.5v15.242C348.607,119.522,348.383,119.746,348.107,119.746z"/>
			</g>
			<g>
				<path style="fill:#263238;" d="M389.547,78.306h-15.242c-0.276,0-0.5-0.224-0.5-0.5c0-0.276,0.224-0.5,0.5-0.5h15.242
					c0.276,0,0.5,0.224,0.5,0.5C390.047,78.082,389.823,78.306,389.547,78.306z"/>
				<path style="fill:#263238;" d="M321.908,78.306h-15.242c-0.276,0-0.5-0.224-0.5-0.5c0-0.276,0.224-0.5,0.5-0.5h15.242
					c0.276,0,0.5,0.224,0.5,0.5C322.408,78.082,322.185,78.306,321.908,78.306z"/>
			</g>
			<g>
				<path style="fill:#263238;" d="M366.631,59.781c-0.128,0-0.256-0.049-0.353-0.146c-0.195-0.195-0.195-0.512,0-0.707
					l10.778-10.778c0.195-0.195,0.512-0.195,0.707,0c0.195,0.195,0.195,0.512,0,0.707l-10.778,10.778
					C366.887,59.732,366.759,59.781,366.631,59.781z"/>
				<path style="fill:#263238;" d="M318.804,107.608c-0.128,0-0.256-0.049-0.354-0.146c-0.195-0.195-0.195-0.512,0-0.707
					l10.778-10.778c0.195-0.195,0.512-0.195,0.707,0c0.195,0.195,0.195,0.512,0,0.707l-10.778,10.778
					C319.06,107.56,318.932,107.608,318.804,107.608z"/>
			</g>
			<g>
				<path style="fill:#263238;" d="M329.582,59.781c-0.128,0-0.256-0.049-0.353-0.146L318.45,48.857
					c-0.195-0.195-0.195-0.512,0-0.707c0.195-0.195,0.512-0.195,0.707,0l10.778,10.778c0.195,0.195,0.195,0.512,0,0.707
					C329.838,59.732,329.71,59.781,329.582,59.781z"/>
				<path style="fill:#263238;" d="M377.409,107.608c-0.128,0-0.256-0.049-0.354-0.146l-10.778-10.778
					c-0.195-0.195-0.195-0.512,0-0.707c0.195-0.195,0.512-0.195,0.707,0l10.778,10.778c0.195,0.195,0.195,0.512,0,0.707
					C377.665,107.56,377.537,107.608,377.409,107.608z"/>
			</g>
		</g>
	</g>
</g>
<g id="Smoke_clouds">
	<g>
		<path style="opacity:0.19;" d="M272.964,117.76c0,0-3.482-7.351-11.993-8.511c-8.511-1.161-11.993,7.351-14.701,11.993
			c-2.708,4.643-8.511-1.161-15.088-0.774c-6.577,0.387-7.351,4.256-9.672,6.964c-2.321,2.708-8.898-0.387-12.38,1.547
			c-3.482,1.934-3.869,4.643-3.869,4.643h97.494c0,0,3.095-10.833-5.03-11.993c-8.124-1.161-10.446,3.095-13.154,2.321
			c-2.708-0.774-1.547-5.803-5.416-6.964C275.285,115.825,272.964,117.76,272.964,117.76z"/>
		<path style="opacity:0.19;" d="M176.837,142.279c0,0-3.482-7.351-11.993-8.511c-8.511-1.161-11.993,7.351-14.701,11.993
			c-2.708,4.643-8.511-1.161-15.088-0.774c-6.577,0.387-7.351,4.256-9.672,6.964c-2.321,2.708-8.898-0.387-12.38,1.547
			c-3.482,1.934-3.869,4.643-3.869,4.643h97.494c0,0,3.095-10.833-5.029-11.993c-8.125-1.161-10.446,3.095-13.154,2.321
			c-2.708-0.774-1.548-5.803-5.416-6.964C179.158,140.345,176.837,142.279,176.837,142.279z"/>
		<path style="opacity:0.19;" d="M358.863,142.279c0,0-3.482-7.351-11.993-8.511c-8.511-1.161-11.993,7.351-14.702,11.993
			c-2.708,4.643-8.511-1.161-15.088-0.774c-6.577,0.387-7.351,4.256-9.672,6.964c-2.321,2.708-8.898-0.387-12.38,1.547
			c-3.482,1.934-3.869,4.643-3.869,4.643h97.494c0,0,3.095-10.833-5.029-11.993c-8.125-1.161-10.446,3.095-13.154,2.321
			c-2.708-0.774-1.548-5.803-5.416-6.964C361.184,140.345,358.863,142.279,358.863,142.279z"/>
		<path style="opacity:0.19;" d="M406.027,218.137c0,0-1.871-3.95-6.444-4.573c-4.573-0.624-6.444,3.95-7.899,6.444
			c-1.455,2.494-4.573-0.624-8.107-0.416c-3.534,0.208-3.95,2.287-5.197,3.742c-1.247,1.455-4.781-0.208-6.652,0.832
			c-1.871,1.039-2.079,2.494-2.079,2.494h52.385c0,0,1.663-5.82-2.702-6.444c-4.365-0.624-5.613,1.663-7.068,1.247
			c-1.455-0.416-0.831-3.118-2.91-3.742C407.274,217.098,406.027,218.137,406.027,218.137z"/>
		<path style="opacity:0.19;" d="M120.693,218.137c0,0-1.871-3.95-6.444-4.573c-4.573-0.624-6.444,3.95-7.899,6.444
			c-1.455,2.494-4.573-0.624-8.107-0.416c-3.534,0.208-3.95,2.287-5.197,3.742c-1.247,1.455-4.781-0.208-6.652,0.832
			c-1.871,1.039-2.079,2.494-2.079,2.494H136.7c0,0,1.663-5.82-2.702-6.444c-4.365-0.624-5.613,1.663-7.068,1.247
			c-1.455-0.416-0.831-3.118-2.91-3.742C121.94,217.098,120.693,218.137,120.693,218.137z"/>
	</g>
</g>
<g id="Buildings_2">
	<g>
		<g>
			
				<rect x="342.697" y="125.335" transform="matrix(0.7574 0.6529 -0.6529 0.7574 184.1338 -192.3969)" style="fill:#263238;" width="16.608" height="52.558"/>
			<path style="fill:#263238;" d="M340.185,177.645l-13.337-11.496l34.969-40.566l13.337,11.497L340.185,177.645z M328.258,166.045
				l11.821,10.19l33.664-39.051l-11.821-10.191L328.258,166.045z"/>
		</g>
		<g>
			
				<rect x="356.539" y="148.022" transform="matrix(0.7574 0.6529 -0.6529 0.7574 201.0083 -196.3455)" style="fill:#263238;" width="16.426" height="48.657"/>
			<path style="fill:#263238;" d="M355.141,196.845l-13.199-11.377l32.422-37.611l13.199,11.377L355.141,196.845z M343.352,185.363
				l11.684,10.072l31.117-36.097l-11.684-10.071L343.352,185.363z"/>
		</g>
		<g>
			<polygon style="fill:#263238;" points="284.486,174.931 292.358,165.8 299.861,172.268 317.524,151.778 363.987,191.83 
				370.952,183.749 379.033,190.715 366.346,205.433 371.252,209.662 352.434,231.491 			"/>
			<path style="fill:#263238;" d="M352.492,232.19l-68.717-57.2l8.53-9.896l7.503,6.468l17.662-20.49l46.464,40.052l6.965-8.081
				l8.839,7.618l-12.688,14.718l4.905,4.229L352.492,232.19z M285.197,174.872l67.18,55.92l18.169-21.078l-4.905-4.229
				l12.688-14.718l-7.323-6.313l-6.966,8.081l-46.463-40.052l-17.663,20.49l-7.503-6.468L285.197,174.872z"/>
		</g>
		<g>
			<g>
				
					<rect x="333.105" y="154.741" transform="matrix(0.7574 0.6529 -0.6529 0.7574 203.2621 -178.8242)" style="fill:#FFFFFF;" width="18.383" height="58.804"/>
				<path style="fill:#263238;" d="M330.114,213.119l-14.682-12.655l39.047-45.297l14.682,12.656L330.114,213.119z M316.843,200.359
					l13.166,11.35l37.742-43.782l-13.166-11.35L316.843,200.359z"/>
			</g>
			<g>
				
					<rect x="337.619" y="158.632" transform="matrix(0.7574 0.6529 -0.6529 0.7574 206.8974 -180.8275)" style="fill:#FFFFFF;" width="18.383" height="58.804"/>
				<path style="fill:#263238;" d="M334.628,217.01l-14.682-12.656l39.047-45.297l14.682,12.655L334.628,217.01z M321.357,204.25
					l13.166,11.35l37.742-43.783l-13.166-11.35L321.357,204.25z"/>
			</g>
			<g>
				
					<rect x="350.722" y="161.221" transform="matrix(0.7574 0.6529 -0.6529 0.7574 194.9287 -198.2661)" style="fill:#FFFFFF;" width="27.148" height="3.973"/>
				<path style="fill:#263238;" d="M373.333,174.279l-21.32-18.378l3.246-3.767l21.32,18.378L373.333,174.279z M353.423,155.797
					l19.805,17.072l1.941-2.252l-19.805-17.072L353.423,155.797z"/>
			</g>
			<g>
				
					<rect x="356.047" y="163.199" transform="matrix(0.7574 0.6529 -0.6529 0.7574 196.7764 -199.2843)" style="fill:#FFFFFF;" width="21.087" height="3.973"/>
				<path style="fill:#263238;" d="M373.333,174.279l-16.73-14.421l3.248-3.767l16.729,14.421L373.333,174.279z M358.013,159.754
					l15.215,13.115l1.941-2.252l-15.215-13.115L358.013,159.754z"/>
			</g>
			<g>
				
					<rect x="354.869" y="164.545" transform="matrix(0.7574 0.6529 -0.6529 0.7574 195.7952 -192.2929)" style="fill:#263238;" width="3.642" height="5.628"/>
				
					<rect x="359.633" y="168.652" transform="matrix(0.7574 0.6529 -0.6529 0.7574 199.6314 -194.4069)" style="fill:#263238;" width="3.642" height="5.628"/>
				
					<rect x="364.398" y="172.759" transform="matrix(0.7574 0.6529 -0.6529 0.7574 203.4697 -196.5219)" style="fill:#263238;" width="3.642" height="5.628"/>
			</g>
			<g>
				
					<rect x="350.801" y="159.925" transform="matrix(0.7574 0.6529 -0.6529 0.7574 191.4897 -189.9192)" style="fill:#263238;" width="1.059" height="5.628"/>
				
					<rect x="352.186" y="161.119" transform="matrix(0.7575 0.6529 -0.6529 0.7575 192.58 -190.5226)" style="fill:#263238;" width="1.059" height="5.628"/>
			</g>
			<g>
				
					<rect x="345.165" y="166.463" transform="matrix(0.7574 0.6529 -0.6529 0.7574 194.3914 -184.6532)" style="fill:#263238;" width="1.059" height="5.628"/>
				
					<rect x="346.55" y="167.657" transform="matrix(0.7575 0.6529 -0.6529 0.7575 195.4817 -185.2571)" style="fill:#263238;" width="1.059" height="5.628"/>
			</g>
			<g>
				
					<rect x="339.529" y="173.001" transform="matrix(0.7574 0.6529 -0.6529 0.7574 197.2713 -179.3784)" style="fill:#263238;" width="1.059" height="5.628"/>
				
					<rect x="340.914" y="174.195" transform="matrix(0.7575 0.6529 -0.6529 0.7575 198.3833 -179.9917)" style="fill:#263238;" width="1.059" height="5.628"/>
			</g>
			<g>
				
					<rect x="333.893" y="179.539" transform="matrix(0.7574 0.6529 -0.6529 0.7574 200.1729 -174.1128)" style="fill:#263238;" width="1.059" height="5.628"/>
				
					<rect x="335.278" y="180.733" transform="matrix(0.7574 0.6529 -0.6529 0.7574 201.3106 -174.7359)" style="fill:#263238;" width="1.059" height="5.628"/>
			</g>
			<g>
				
					<rect x="328.257" y="186.077" transform="matrix(0.7574 0.6529 -0.6529 0.7574 203.0746 -168.8473)" style="fill:#263238;" width="1.059" height="5.628"/>
				
					<rect x="329.642" y="187.271" transform="matrix(0.7574 0.6529 -0.6529 0.7574 204.2088 -169.4686)" style="fill:#263238;" width="1.059" height="5.628"/>
			</g>
			<g>
				
					<rect x="349.233" y="171.083" transform="matrix(0.7574 0.6529 -0.6529 0.7574 198.6973 -187.0273)" style="fill:#263238;" width="3.642" height="5.628"/>
				
					<rect x="353.998" y="175.19" transform="matrix(0.7574 0.6529 -0.6529 0.7574 202.5407 -189.1444)" style="fill:#263238;" width="3.642" height="5.628"/>
				
					<rect x="358.762" y="179.297" transform="matrix(0.7574 0.6529 -0.6529 0.7574 206.3704 -191.2558)" style="fill:#263238;" width="3.642" height="5.628"/>
			</g>
			<g>
				
					<rect x="343.597" y="177.621" transform="matrix(0.7574 0.6529 -0.6529 0.7574 201.5986 -181.7614)" style="fill:#263238;" width="3.642" height="5.628"/>
				
					<rect x="348.362" y="181.728" transform="matrix(0.7574 0.6529 -0.6529 0.7574 205.4282 -183.8729)" style="fill:#263238;" width="3.642" height="5.628"/>
				
					<rect x="353.126" y="185.835" transform="matrix(0.7574 0.6529 -0.6529 0.7574 209.2803 -185.9933)" style="fill:#263238;" width="3.642" height="5.628"/>
			</g>
			<g>
				
					<rect x="337.961" y="184.159" transform="matrix(0.7574 0.6529 -0.6529 0.7574 204.5003 -176.4956)" style="fill:#263238;" width="3.642" height="5.628"/>
				
					<rect x="342.726" y="188.267" transform="matrix(0.7574 0.6529 -0.6529 0.7574 208.3442 -178.6125)" style="fill:#263238;" width="3.642" height="5.628"/>
				
					<rect x="347.49" y="192.374" transform="matrix(0.7574 0.6529 -0.6529 0.7574 212.1738 -180.7243)" style="fill:#263238;" width="3.642" height="5.628"/>
			</g>
			<g>
				
					<rect x="332.325" y="190.698" transform="matrix(0.7574 0.6529 -0.6529 0.7574 207.402 -171.2298)" style="fill:#263238;" width="3.642" height="5.628"/>
				
					<rect x="337.09" y="194.805" transform="matrix(0.7574 0.6529 -0.6529 0.7574 211.2377 -173.3438)" style="fill:#263238;" width="3.642" height="5.628"/>
				
					<rect x="341.854" y="198.912" transform="matrix(0.7574 0.6529 -0.6529 0.7574 215.0766 -175.4589)" style="fill:#263238;" width="3.642" height="5.628"/>
			</g>
		</g>
		<g>
			<g>
				
					<rect x="306.971" y="152.209" transform="matrix(0.7574 0.6529 -0.6529 0.7574 190.6025 -165.5796)" style="fill:#FFFFFF;" width="22.344" height="43.039"/>
				<path style="fill:#263238;" d="M312.608,198.028l-17.682-15.242l28.753-33.356l17.682,15.242L312.608,198.028z M296.336,182.682
					l16.166,13.936l27.448-31.842l-16.166-13.936L296.336,182.682z"/>
			</g>
			<g>
				
					<rect x="312.458" y="156.938" transform="matrix(0.7574 0.6529 -0.6529 0.7574 195.021 -168.0144)" style="fill:#FFFFFF;" width="22.344" height="43.039"/>
				<path style="fill:#263238;" d="M318.093,202.757l-17.681-15.241l28.753-33.356l17.682,15.241L318.093,202.757z M301.822,187.411
					l16.165,13.936l27.449-31.842l-16.166-13.936L301.822,187.411z"/>
			</g>
			<g>
				
					<rect x="318.843" y="157.897" transform="matrix(0.7574 0.6529 -0.6529 0.7574 185.3867 -180.2959)" style="fill:#FFFFFF;" width="32.996" height="2.908"/>
				<path style="fill:#263238;" d="M346.94,171.929l-25.749-22.196l2.551-2.96l25.75,22.197L346.94,171.929z M322.601,149.628
					l24.234,20.891l1.246-1.445l-24.234-20.891L322.601,149.628z"/>
			</g>
			<g>
				
					<rect x="325.315" y="160.301" transform="matrix(0.7574 0.6529 -0.6529 0.7574 187.6341 -181.5343)" style="fill:#FFFFFF;" width="25.63" height="2.908"/>
				<path style="fill:#263238;" d="M346.94,171.929l-20.17-17.387l2.552-2.96l20.17,17.387L346.94,171.929z M328.18,154.437
					l18.655,16.082l1.246-1.445l-18.656-16.081L328.18,154.437z"/>
			</g>
			<g>
				
					<rect x="326.444" y="159.367" transform="matrix(0.7574 0.6529 -0.6529 0.7574 185.1217 -175.4286)" style="fill:#263238;" width="4.426" height="4.119"/>
				
					<rect x="332.234" y="164.359" transform="matrix(0.7574 0.6529 -0.6529 0.7574 189.79 -178.0004)" style="fill:#263238;" width="4.426" height="4.119"/>
				
					<rect x="338.025" y="169.351" transform="matrix(0.7574 0.6529 -0.6529 0.7574 194.4489 -180.5684)" style="fill:#263238;" width="4.426" height="4.119"/>
			</g>
			<g>
				
					<rect x="321.499" y="153.752" transform="matrix(0.7574 0.6529 -0.6529 0.7574 179.8724 -172.5362)" style="fill:#263238;" width="1.287" height="4.119"/>
				
					<rect x="323.182" y="155.203" transform="matrix(0.7574 0.653 -0.653 0.7574 181.2452 -173.2907)" style="fill:#263238;" width="1.287" height="4.119"/>
			</g>
			<g>
				
					<rect x="317.374" y="158.537" transform="matrix(0.7574 0.6529 -0.6529 0.7574 181.9989 -168.6833)" style="fill:#263238;" width="1.287" height="4.119"/>
				
					<rect x="319.057" y="159.988" transform="matrix(0.7574 0.6529 -0.6529 0.7574 183.3511 -169.429)" style="fill:#263238;" width="1.287" height="4.119"/>
			</g>
			<g>
				
					<rect x="313.249" y="163.322" transform="matrix(0.7575 0.6529 -0.6529 0.7575 184.1032 -164.8217)" style="fill:#263238;" width="1.287" height="4.119"/>
				
					<rect x="314.932" y="164.773" transform="matrix(0.7574 0.6529 -0.6529 0.7574 185.4722 -165.574)" style="fill:#263238;" width="1.287" height="4.119"/>
			</g>
			<g>
				
					<rect x="309.124" y="168.107" transform="matrix(0.7574 0.653 -0.653 0.7574 186.2632 -160.9815)" style="fill:#263238;" width="1.287" height="4.119"/>
				
					<rect x="310.807" y="169.559" transform="matrix(0.7574 0.6529 -0.6529 0.7574 187.6156 -161.7273)" style="fill:#263238;" width="1.287" height="4.119"/>
			</g>
			<g>
				
					<rect x="304.999" y="172.893" transform="matrix(0.7574 0.6529 -0.6529 0.7574 188.3675 -157.1202)" style="fill:#263238;" width="1.287" height="4.119"/>
				
					<rect x="306.682" y="174.344" transform="matrix(0.7575 0.6529 -0.6529 0.7575 189.7038 -157.8605)" style="fill:#263238;" width="1.287" height="4.119"/>
			</g>
			<g>
				
					<rect x="322.319" y="164.152" transform="matrix(0.7574 0.6529 -0.6529 0.7574 187.2505 -171.5765)" style="fill:#263238;" width="4.426" height="4.119"/>
				
					<rect x="328.11" y="169.144" transform="matrix(0.7574 0.6529 -0.6529 0.7574 191.9086 -174.1443)" style="fill:#263238;" width="4.426" height="4.119"/>
				
					<rect x="333.9" y="174.136" transform="matrix(0.7574 0.6529 -0.6529 0.7574 196.5726 -176.7144)" style="fill:#263238;" width="4.426" height="4.119"/>
			</g>
			<g>
				
					<rect x="318.194" y="168.938" transform="matrix(0.7574 0.6529 -0.6529 0.7574 189.369 -167.7204)" style="fill:#263238;" width="4.426" height="4.119"/>
				
					<rect x="323.985" y="173.93" transform="matrix(0.7574 0.6529 -0.6529 0.7574 194.0325 -170.2903)" style="fill:#263238;" width="4.426" height="4.119"/>
				
					<rect x="329.775" y="178.921" transform="matrix(0.7574 0.6529 -0.6529 0.7574 198.6904 -172.8581)" style="fill:#263238;" width="4.426" height="4.119"/>
			</g>
			<g>
				
					<rect x="314.069" y="173.723" transform="matrix(0.7574 0.6529 -0.6529 0.7574 191.4927 -163.8663)" style="fill:#263238;" width="4.426" height="4.119"/>
				
					<rect x="319.86" y="178.715" transform="matrix(0.7574 0.6529 -0.6529 0.7574 196.1562 -166.4362)" style="fill:#263238;" width="4.426" height="4.119"/>
				
					<rect x="325.65" y="183.707" transform="matrix(0.7574 0.6529 -0.6529 0.7574 200.8202 -169.0063)" style="fill:#263238;" width="4.426" height="4.119"/>
			</g>
			<g>
				
					<rect x="309.944" y="178.508" transform="matrix(0.7574 0.6529 -0.6529 0.7574 193.6165 -160.0123)" style="fill:#263238;" width="4.426" height="4.119"/>
				
					<rect x="315.735" y="183.5" transform="matrix(0.7574 0.6529 -0.6529 0.7574 198.2851 -162.584)" style="fill:#263238;" width="4.426" height="4.119"/>
				
					<rect x="321.526" y="188.492" transform="matrix(0.7574 0.6529 -0.6529 0.7574 202.944 -165.1523)" style="fill:#263238;" width="4.426" height="4.119"/>
			</g>
		</g>
		<g>
			<g>
				
					<rect x="342.183" y="182.562" transform="matrix(0.7574 0.6529 -0.6529 0.7574 218.9628 -181.2074)" style="fill:#FFFFFF;" width="22.344" height="43.039"/>
				<path style="fill:#263238;" d="M347.818,228.38l-17.682-15.241l28.755-33.357l17.68,15.241L347.818,228.38z M331.547,213.035
					l16.166,13.936l27.448-31.842l-16.165-13.936L331.547,213.035z"/>
			</g>
			<g>
				
					<rect x="347.669" y="187.291" transform="matrix(0.7574 0.6529 -0.6529 0.7574 223.38 -183.6417)" style="fill:#FFFFFF;" width="22.344" height="43.039"/>
				<path style="fill:#263238;" d="M353.305,233.109l-17.682-15.241l28.753-33.356l17.682,15.241L353.305,233.109z M337.033,217.764
					l16.166,13.936l27.448-31.842l-16.166-13.936L337.033,217.764z"/>
			</g>
			<g>
				
					<rect x="354.054" y="188.25" transform="matrix(0.7574 0.6529 -0.6529 0.7574 213.7474 -195.9239)" style="fill:#FFFFFF;" width="32.996" height="2.908"/>
				<path style="fill:#263238;" d="M382.151,202.282l-25.75-22.197l2.551-2.96l25.75,22.197L382.151,202.282z M357.812,179.98
					l24.234,20.891l1.246-1.445l-24.234-20.891L357.812,179.98z"/>
			</g>
			<g>
				
					<rect x="360.526" y="190.654" transform="matrix(0.7574 0.6529 -0.6529 0.7574 215.9933 -197.1616)" style="fill:#FFFFFF;" width="25.63" height="2.908"/>
				<path style="fill:#263238;" d="M382.151,202.282l-20.171-17.387l2.551-2.96l20.171,17.387L382.151,202.282z M363.391,184.79
					l18.655,16.082l1.246-1.445l-18.655-16.082L363.391,184.79z"/>
			</g>
			<g>
				
					<rect x="361.655" y="189.72" transform="matrix(0.7574 0.6529 -0.6529 0.7574 213.4743 -191.0533)" style="fill:#263238;" width="4.426" height="4.119"/>
				
					<rect x="367.446" y="194.712" transform="matrix(0.7574 0.6529 -0.6529 0.7574 218.1435 -193.6255)" style="fill:#263238;" width="4.426" height="4.119"/>
				
					<rect x="373.237" y="199.704" transform="matrix(0.7574 0.6529 -0.6529 0.7574 222.8079 -196.1958)" style="fill:#263238;" width="4.426" height="4.119"/>
			</g>
			<g>
				
					<rect x="356.71" y="184.104" transform="matrix(0.7575 0.6529 -0.6529 0.7575 208.2123 -188.156)" style="fill:#263238;" width="1.287" height="4.119"/>
				
					<rect x="358.394" y="185.556" transform="matrix(0.7574 0.6529 -0.6529 0.7574 209.5872 -188.9108)" style="fill:#263238;" width="1.287" height="4.119"/>
			</g>
			<g>
				
					<rect x="352.585" y="188.89" transform="matrix(0.7574 0.6529 -0.6529 0.7574 210.355 -184.3095)" style="fill:#263238;" width="1.287" height="4.119"/>
				
					<rect x="354.269" y="190.341" transform="matrix(0.7574 0.653 -0.653 0.7574 211.7302 -185.064)" style="fill:#263238;" width="1.287" height="4.119"/>
			</g>
			<g>
				
					<rect x="348.46" y="193.675" transform="matrix(0.7574 0.653 -0.653 0.7574 212.5009 -180.4636)" style="fill:#263238;" width="1.287" height="4.119"/>
				
					<rect x="350.144" y="195.126" transform="matrix(0.7574 0.653 -0.653 0.7574 213.854 -181.2097)" style="fill:#263238;" width="1.287" height="4.119"/>
			</g>
			<g>
				
					<rect x="344.335" y="198.46" transform="matrix(0.7575 0.6529 -0.6529 0.7575 214.5835 -176.5949)" style="fill:#263238;" width="1.287" height="4.119"/>
				
					<rect x="346.019" y="199.911" transform="matrix(0.7575 0.6529 -0.6529 0.7575 215.9362 -177.341)" style="fill:#263238;" width="1.287" height="4.119"/>
			</g>
			<g>
				
					<rect x="340.21" y="203.245" transform="matrix(0.7574 0.6529 -0.6529 0.7574 216.7294 -172.7485)" style="fill:#263238;" width="1.287" height="4.119"/>
				
					<rect x="341.894" y="204.697" transform="matrix(0.7574 0.6529 -0.6529 0.7574 218.0824 -173.4948)" style="fill:#263238;" width="1.287" height="4.119"/>
			</g>
			<g>
				
					<rect x="357.53" y="194.505" transform="matrix(0.7574 0.6529 -0.6529 0.7574 215.6047 -187.2019)" style="fill:#263238;" width="4.426" height="4.119"/>
				
					<rect x="363.321" y="199.497" transform="matrix(0.7574 0.6529 -0.6529 0.7574 220.2673 -189.7715)" style="fill:#263238;" width="4.426" height="4.119"/>
				
					<rect x="369.112" y="204.489" transform="matrix(0.7574 0.6529 -0.6529 0.7574 224.9317 -192.3417)" style="fill:#263238;" width="4.426" height="4.119"/>
			</g>
			<g>
				
					<rect x="353.405" y="199.29" transform="matrix(0.7574 0.6529 -0.6529 0.7574 217.7284 -183.3478)" style="fill:#263238;" width="4.426" height="4.119"/>
				
					<rect x="359.196" y="204.282" transform="matrix(0.7574 0.6529 -0.6529 0.7574 222.391 -185.9174)" style="fill:#263238;" width="4.426" height="4.119"/>
				
					<rect x="364.987" y="209.274" transform="matrix(0.7574 0.6529 -0.6529 0.7574 227.0614 -188.4898)" style="fill:#263238;" width="4.426" height="4.119"/>
			</g>
			<g>
				
					<rect x="349.28" y="204.076" transform="matrix(0.7574 0.6529 -0.6529 0.7574 219.8579 -179.4957)" style="fill:#263238;" width="4.426" height="4.119"/>
				
					<rect x="355.071" y="209.068" transform="matrix(0.7574 0.6529 -0.6529 0.7574 224.5153 -182.0636)" style="fill:#263238;" width="4.426" height="4.119"/>
				
					<rect x="360.862" y="214.06" transform="matrix(0.7574 0.6529 -0.6529 0.7574 229.172 -184.6312)" style="fill:#263238;" width="4.426" height="4.119"/>
			</g>
			<g>
				
					<rect x="345.155" y="208.861" transform="matrix(0.7574 0.6529 -0.6529 0.7574 221.976 -175.6397)" style="fill:#263238;" width="4.426" height="4.119"/>
				
					<rect x="350.946" y="213.853" transform="matrix(0.7574 0.6529 -0.6529 0.7574 226.639 -178.2095)" style="fill:#263238;" width="4.426" height="4.119"/>
				
					<rect x="356.737" y="218.845" transform="matrix(0.7574 0.6529 -0.6529 0.7574 231.3026 -180.7795)" style="fill:#263238;" width="4.426" height="4.119"/>
			</g>
		</g>
	</g>
</g>
<g id="Buildings_1">
	<g>
		<g>
			<polygon style="fill:#263238;" points="149.664,236.609 141.341,227.887 148.508,221.048 129.833,201.477 174.214,159.129 
				166.849,151.411 174.567,144.046 187.982,158.105 192.668,153.633 212.564,174.484 			"/>
			<path style="fill:#263238;" d="M149.653,237.323l-9.019-9.452l7.168-6.839l-18.675-19.571l44.381-42.348l-7.365-7.719
				l8.442-8.055l13.415,14.059l4.686-4.472l20.581,21.568l-0.35,0.346L149.653,237.323z M142.048,227.904l7.626,7.992l62.188-61.422
				l-19.211-20.134l-4.686,4.472l-13.415-14.059l-6.995,6.674l7.365,7.719l-44.381,42.348l18.675,19.571L142.048,227.904z"/>
		</g>
		<g>
			<g>
				
					<rect x="144.539" y="209.428" transform="matrix(0.7235 -0.6903 0.6903 0.7235 -109.2707 165.5049)" style="fill:#FFFFFF;" width="14.844" height="19.45"/>
				<path style="fill:#263238;" d="M153.289,232.02l-14.118-14.796l11.463-10.938l14.118,14.796L153.289,232.02z M140.585,217.257
					l12.737,13.349l10.016-9.557L150.601,207.7L140.585,217.257z"/>
			</g>
			<g>
				
					<rect x="150.599" y="207.001" transform="matrix(0.7235 -0.6903 0.6903 0.7235 -106.8918 166.5897)" style="fill:#FFFFFF;" width="7.813" height="19.45"/>
				<path style="fill:#263238;" d="M158.376,227.165l-14.118-14.795l6.376-6.084l14.118,14.796L158.376,227.165z M145.672,212.403
					l12.737,13.348l4.929-4.703L150.601,207.7L145.672,212.403z"/>
			</g>
		</g>
		<g>
			<g>
				<polygon style="fill:#FFFFFF;" points="124.617,167.871 130.381,179.167 167.292,217.85 177.572,208.041 132.272,160.567 				
					"/>
				<path style="fill:#263238;" d="M167.275,218.557l-37.34-39.163l-5.934-11.627l8.286-7.907l45.99,48.198L167.275,218.557z
					 M130.793,178.874l36.516,38.269l9.556-9.118l-44.609-46.751l-7.023,6.702L130.793,178.874z"/>
			</g>
			<g>
				<polygon style="fill:#FFFFFF;" points="121.1,171.227 126.864,182.522 163.775,221.206 174.055,211.397 128.755,163.922 				"/>
				<path style="fill:#263238;" d="M163.759,221.913l-37.34-39.163l-5.934-11.627l8.287-7.907l45.99,48.198L163.759,221.913z
					 M127.276,182.23l36.516,38.269l9.556-9.118l-44.609-46.751l-7.024,6.702L127.276,182.23z"/>
			</g>
			<g>
				<line style="fill:#FFFFFF;" x1="126.714" y1="166.387" x2="171.756" y2="213.591"/>
				
					<rect x="148.735" y="157.366" transform="matrix(0.7235 -0.6903 0.6903 0.7235 -89.8912 155.5573)" style="fill:#263238;" width="1" height="65.245"/>
			</g>
			<g>
				<line style="fill:#FFFFFF;" x1="124.511" y1="175.724" x2="129.381" y2="171.077"/>
				
					<rect x="123.581" y="172.901" transform="matrix(0.7235 -0.6903 0.6903 0.7235 -84.6016 135.5761)" style="fill:#263238;" width="6.73" height="1"/>
			</g>
			<g>
				<line style="fill:#FFFFFF;" x1="128.383" y1="179.781" x2="133.252" y2="175.135"/>
				
					<rect x="127.453" y="176.958" transform="matrix(0.7235 -0.6903 0.6903 0.7235 -86.3322 139.3717)" style="fill:#263238;" width="6.73" height="1"/>
			</g>
			<g>
				<line style="fill:#FFFFFF;" x1="132.255" y1="183.839" x2="137.124" y2="179.193"/>
				
					<rect x="131.325" y="181.016" transform="matrix(0.7235 -0.6903 0.6903 0.7235 -88.0626 143.1655)" style="fill:#263238;" width="6.73" height="1"/>
			</g>
			<g>
				<line style="fill:#FFFFFF;" x1="136.127" y1="187.896" x2="140.996" y2="183.25"/>
				
					<rect x="135.196" y="185.073" transform="matrix(0.7235 -0.6903 0.6903 0.7235 -89.7931 146.9601)" style="fill:#263238;" width="6.73" height="1"/>
			</g>
			<g>
				<line style="fill:#FFFFFF;" x1="139.999" y1="191.954" x2="144.868" y2="187.308"/>
				
					<rect x="139.068" y="189.131" transform="matrix(0.7235 -0.6903 0.6903 0.7235 -91.5236 150.7548)" style="fill:#263238;" width="6.73" height="1"/>
			</g>
			<g>
				<line style="fill:#FFFFFF;" x1="143.87" y1="196.012" x2="148.74" y2="191.366"/>
				
					<rect x="142.94" y="193.189" transform="matrix(0.7235 -0.6904 0.6904 0.7235 -93.257 154.5666)" style="fill:#263238;" width="6.73" height="1"/>
			</g>
			<g>
				<line style="fill:#FFFFFF;" x1="147.742" y1="200.07" x2="152.611" y2="195.423"/>
				
					<rect x="146.812" y="197.246" transform="matrix(0.7235 -0.6903 0.6903 0.7235 -94.9848 158.3442)" style="fill:#263238;" width="6.73" height="1"/>
			</g>
			<g>
				<line style="fill:#FFFFFF;" x1="151.614" y1="204.127" x2="156.483" y2="199.481"/>
				
					<rect x="150.683" y="201.304" transform="matrix(0.7236 -0.6903 0.6903 0.7236 -96.7126 162.1214)" style="fill:#263238;" width="6.73" height="1"/>
			</g>
			<g>
				<line style="fill:#FFFFFF;" x1="155.486" y1="208.185" x2="160.355" y2="203.539"/>
				
					<rect x="154.555" y="205.362" transform="matrix(0.7236 -0.6903 0.6903 0.7236 -98.4431 165.9158)" style="fill:#263238;" width="6.73" height="1"/>
			</g>
			<g>
				<line style="fill:#FFFFFF;" x1="159.357" y1="212.243" x2="164.227" y2="207.596"/>
				
					<rect x="158.427" y="209.419" transform="matrix(0.7235 -0.6904 0.6904 0.7235 -100.1793 169.747)" style="fill:#263238;" width="6.73" height="1"/>
			</g>
			<g>
				<line style="fill:#FFFFFF;" x1="163.229" y1="216.3" x2="168.098" y2="211.654"/>
				
					<rect x="162.299" y="213.477" transform="matrix(0.7235 -0.6904 0.6904 0.7235 -101.9101 173.5425)" style="fill:#263238;" width="6.73" height="1"/>
			</g>
		</g>
		<g>
			<g>
				
					<rect x="155.262" y="150.567" transform="matrix(0.7235 -0.6903 0.6903 0.7235 -78.7656 163.2932)" style="fill:#FFFFFF;" width="18.383" height="58.804"/>
				<path style="fill:#263238;" d="M178.085,208.293l-41.285-43.268l14.023-13.381l41.286,43.268L178.085,208.293z M138.214,165.059
					l39.904,41.82l12.577-12l-39.905-41.82L138.214,165.059z"/>
			</g>
			<g>
				
					<rect x="159.574" y="146.453" transform="matrix(0.7235 -0.6903 0.6903 0.7235 -74.7335 165.132)" style="fill:#FFFFFF;" width="18.383" height="58.804"/>
				<path style="fill:#263238;" d="M182.396,204.179l-41.285-43.268l14.023-13.381l41.285,43.267L182.396,204.179z M142.525,160.945
					l39.904,41.82l12.576-12.001l-39.904-41.82L142.525,160.945z"/>
			</g>
			<g>
				
					<rect x="132.183" y="154.052" transform="matrix(0.7235 -0.6903 0.6903 0.7235 -67.4154 143.7697)" style="fill:#FFFFFF;" width="27.147" height="3.973"/>
				<path style="fill:#263238;" d="M137.291,167.553l-3.433-3.598l20.364-19.431l3.433,3.598L137.291,167.553z M135.272,163.988
					l2.052,2.151l18.917-18.051l-2.052-2.15L135.272,163.988z"/>
			</g>
			<g>
				
					<rect x="137.405" y="151.96" transform="matrix(0.7235 -0.6903 0.6903 0.7235 -65.3651 144.7045)" style="fill:#FFFFFF;" width="21.087" height="3.973"/>
				<path style="fill:#263238;" d="M141.675,163.369l-3.433-3.598l15.98-15.248l3.433,3.598L141.675,163.369z M139.657,159.804
					l2.052,2.151l14.533-13.867l-2.052-2.15L139.657,159.804z"/>
			</g>
			<g>
				
					<rect x="147.329" y="161.198" transform="matrix(0.7235 -0.6903 0.6903 0.7235 -71.9818 148.3161)" style="fill:#263238;" width="3.642" height="5.628"/>
				
					<rect x="151.88" y="156.855" transform="matrix(0.7235 -0.6903 0.6903 0.7235 -67.7257 150.2568)" style="fill:#263238;" width="3.642" height="5.628"/>
				
					<rect x="156.431" y="152.513" transform="matrix(0.7235 -0.6903 0.6903 0.7235 -63.4694 152.1977)" style="fill:#263238;" width="3.642" height="5.628"/>
			</g>
			<g>
				
					<rect x="143.501" y="166.083" transform="matrix(0.7235 -0.6903 0.6903 0.7235 -76.7697 146.1311)" style="fill:#263238;" width="1.059" height="5.628"/>
				
					<rect x="144.824" y="164.82" transform="matrix(0.7234 -0.6904 0.6904 0.7234 -75.5337 146.7098)" style="fill:#263238;" width="1.059" height="5.628"/>
			</g>
			<g>
				
					<rect x="149.46" y="172.328" transform="matrix(0.7234 -0.6904 0.6904 0.7234 -79.4348 151.9873)" style="fill:#263238;" width="1.059" height="5.628"/>
				
					<rect x="150.783" y="171.065" transform="matrix(0.7235 -0.6903 0.6903 0.7235 -78.1957 152.5359)" style="fill:#263238;" width="1.059" height="5.628"/>
			</g>
			<g>
				
					<rect x="155.419" y="178.573" transform="matrix(0.7235 -0.6903 0.6903 0.7235 -82.0967 157.8125)" style="fill:#263238;" width="1.059" height="5.628"/>
				
					<rect x="156.742" y="177.31" transform="matrix(0.7235 -0.6903 0.6903 0.7235 -80.8591 158.3757)" style="fill:#263238;" width="1.059" height="5.628"/>
			</g>
			<g>
				
					<rect x="161.378" y="184.818" transform="matrix(0.7235 -0.6903 0.6903 0.7235 -84.7601 163.6527)" style="fill:#263238;" width="1.059" height="5.628"/>
				
					<rect x="162.701" y="183.555" transform="matrix(0.7234 -0.6904 0.6904 0.7234 -83.5241 164.2331)" style="fill:#263238;" width="1.059" height="5.628"/>
			</g>
			<g>
				
					<rect x="167.336" y="191.063" transform="matrix(0.7235 -0.6903 0.6903 0.7235 -87.4236 169.494)" style="fill:#263238;" width="1.059" height="5.628"/>
				
					<rect x="168.66" y="189.801" transform="matrix(0.7235 -0.6903 0.6903 0.7235 -86.1861 170.0575)" style="fill:#263238;" width="1.059" height="5.628"/>
			</g>
			<g>
				
					<rect x="153.288" y="167.443" transform="matrix(0.7235 -0.6903 0.6903 0.7235 -74.6453 154.1567)" style="fill:#263238;" width="3.642" height="5.628"/>
				
					<rect x="157.839" y="163.1" transform="matrix(0.7235 -0.6903 0.6903 0.7235 -70.3891 156.0973)" style="fill:#263238;" width="3.642" height="5.628"/>
				
					<rect x="162.39" y="158.758" transform="matrix(0.7235 -0.6903 0.6903 0.7235 -66.1329 158.0383)" style="fill:#263238;" width="3.642" height="5.628"/>
			</g>
			<g>
				
					<rect x="159.247" y="173.688" transform="matrix(0.7235 -0.6903 0.6903 0.7235 -77.3087 159.9972)" style="fill:#263238;" width="3.642" height="5.628"/>
				
					<rect x="163.798" y="169.345" transform="matrix(0.7235 -0.6903 0.6903 0.7235 -73.0526 161.9379)" style="fill:#263238;" width="3.642" height="5.628"/>
				
					<rect x="168.349" y="165.003" transform="matrix(0.7235 -0.6903 0.6903 0.7235 -68.7964 163.8788)" style="fill:#263238;" width="3.642" height="5.628"/>
			</g>
			<g>
				
					<rect x="165.206" y="179.933" transform="matrix(0.7235 -0.6904 0.6904 0.7235 -79.9725 165.8425)" style="fill:#263238;" width="3.642" height="5.628"/>
				
					<rect x="169.757" y="175.59" transform="matrix(0.7235 -0.6903 0.6903 0.7235 -75.716 167.7785)" style="fill:#263238;" width="3.642" height="5.628"/>
				
					<rect x="174.308" y="171.248" transform="matrix(0.7235 -0.6904 0.6904 0.7235 -71.4599 169.7242)" style="fill:#263238;" width="3.642" height="5.628"/>
			</g>
			<g>
				
					<rect x="171.165" y="186.178" transform="matrix(0.7235 -0.6903 0.6903 0.7235 -82.6357 171.6784)" style="fill:#263238;" width="3.642" height="5.628"/>
				
					<rect x="175.716" y="181.835" transform="matrix(0.7235 -0.6903 0.6903 0.7235 -78.3795 173.6193)" style="fill:#263238;" width="3.642" height="5.628"/>
				
					<rect x="180.267" y="177.493" transform="matrix(0.7235 -0.6903 0.6903 0.7235 -74.1233 175.5598)" style="fill:#263238;" width="3.642" height="5.628"/>
			</g>
		</g>
		<g>
			<g>
				
					<rect x="185.035" y="176.287" transform="matrix(0.7235 -0.6903 0.6903 0.7235 -72.2809 184.413)" style="fill:#FFFFFF;" width="18.047" height="12.293"/>
				<path style="fill:#263238;" d="M191.756,193.816l-9.176-9.617l13.78-13.149l9.177,9.617L191.756,193.816z M183.994,184.232
					l7.795,8.17l12.333-11.768l-7.796-8.17L183.994,184.232z"/>
			</g>
			<g>
				
					<rect x="187.988" y="175.104" transform="matrix(0.7235 -0.6903 0.6903 0.7235 -71.1213 184.9408)" style="fill:#FFFFFF;" width="14.619" height="12.293"/>
				<path style="fill:#263238;" d="M194.236,191.45l-9.177-9.617l11.3-10.783l9.177,9.617L194.236,191.45z M186.473,181.866
					l7.796,8.17l9.853-9.402l-7.796-8.17L186.473,181.866z"/>
			</g>
			<g>
				
					<rect x="177.709" y="174.826" transform="matrix(0.7235 -0.6903 0.6903 0.7235 -69.8112 179.0123)" style="fill:#FFFFFF;" width="21.687" height="3.648"/>
				<path style="fill:#263238;" d="M181.95,186.163l-3.209-3.363l16.414-15.662l3.209,3.363L181.95,186.163z M180.155,182.833
					l1.828,1.915l14.967-14.281l-1.828-1.916L180.155,182.833z"/>
			</g>
			<g>
				
					<rect x="180.818" y="173.581" transform="matrix(0.7235 -0.6903 0.6903 0.7235 -68.5908 179.5682)" style="fill:#FFFFFF;" width="18.08" height="3.648"/>
				<path style="fill:#263238;" d="M184.56,183.672l-3.209-3.363l13.804-13.171l3.209,3.363L184.56,183.672z M182.765,180.343
					l1.828,1.915l12.357-11.79l-1.828-1.916L182.765,180.343z"/>
			</g>
			
				<rect x="187.15" y="178.241" transform="matrix(0.7235 -0.6904 0.6904 0.7235 -70.0712 182.5526)" style="fill:#263238;" width="11.361" height="1"/>
			
				<rect x="188.719" y="179.885" transform="matrix(0.7236 -0.6903 0.6903 0.7236 -70.773 184.0533)" style="fill:#263238;" width="11.361" height="1"/>
			
				<rect x="190.287" y="181.529" transform="matrix(0.7235 -0.6904 0.6904 0.7235 -71.4736 185.6277)" style="fill:#263238;" width="11.361" height="1"/>
			
				<rect x="191.856" y="183.173" transform="matrix(0.7236 -0.6903 0.6903 0.7236 -72.1752 187.1271)" style="fill:#263238;" width="11.361" height="1"/>
		</g>
	</g>
</g>
<g id="Factory">
	<g>
		<path style="opacity:0.19;" d="M247.703,94.928c0,0,0.519,2.018,1.425-10.358c0.906-12.375-7.244-14.79-12.073-11.771
			c-4.829,3.018-6.64,0.604-11.772-7.848c-5.131-8.451-18.412-13.885-24.147-8.15c-5.735,5.735-7.244,10.564-11.168,7.546
			c-3.924-3.018-9.055-10.866-15.997-9.659c-6.942,1.207-8.753,10.866-11.47,12.073c-2.717,1.207-9.055-7.848-16.299-3.924
			c-7.244,3.924-7.244,7.848-8.15,9.357c-0.905,1.509-4.226-3.924-9.357-3.32c-5.131,0.604-6.942,5.735-6.942,5.735h96.285
			c0,0,5.433,1.207,12.073,5.433c6.64,4.226,10.255,1.285,12.368,0.983c2.113-0.302,1.781,13.902,1.781,13.902H247.703z"/>
		<path style="opacity:0.19;" d="M260.999,94.928c0,0,0.517,2.018,1.417-10.358c0.901-12.375-7.208-14.79-12.013-11.771
			c-4.805,3.018-6.607,0.604-11.713-7.848c-5.106-8.451-18.32-13.885-24.026-8.15c-5.706,5.735-7.208,10.564-11.112,7.546
			c-3.904-3.018-9.01-10.866-15.917-9.659c-6.908,1.207-8.71,10.866-11.412,12.073c-2.703,1.207-9.01-7.848-16.218-3.924
			c-7.208,3.924-7.208,7.848-8.109,9.357c-0.901,1.509-4.205-3.924-9.31-3.32c-5.106,0.604-6.908,5.735-6.908,5.735h95.805
			c0,0,5.406,1.207,12.013,5.433c6.607,4.226,10.204,1.285,12.306,0.983c2.102-0.302,1.772,13.902,1.772,13.902H260.999z"/>
		<path style="opacity:0.19;" d="M274.856,94.928c0,0,0.516,2.018,1.417-10.358c0.901-12.375-7.208-14.79-12.013-11.771
			c-4.805,3.018-6.607,0.604-11.713-7.848c-5.106-8.451-18.32-13.885-24.026-8.15c-5.706,5.735-7.208,10.564-11.112,7.546
			c-3.904-3.018-9.01-10.866-15.917-9.659c-6.908,1.207-8.71,10.866-11.412,12.073c-2.703,1.207-9.01-7.848-16.218-3.924
			c-7.208,3.924-7.208,7.848-8.109,9.357s-4.205-3.924-9.31-3.32c-5.105,0.604-6.908,5.735-6.908,5.735h95.805
			c0,0,5.406,1.207,12.013,5.433c6.607,4.226,10.204,1.285,12.306,0.983c2.102-0.302,1.772,13.902,1.772,13.902H274.856z"/>
		<g>
			<g>
				<g>
					<g>
						<g>
							<polygon style="fill:#92E3A9;" points="248.367,94.747 243.231,94.747 240.663,158.681 250.934,158.681 							"/>
							<path style="fill:#263238;" d="M251.455,159.181h-11.313l2.608-64.934h6.097L251.455,159.181z M241.184,158.181h9.23
								l-2.528-62.934h-4.175L241.184,158.181z"/>
						</g>
						<g>
							<path style="fill:#FFFFFF;" d="M248.334,95.308h-5.07c-0.304,0-0.551-0.247-0.551-0.551l0,0c0-0.304,0.247-0.551,0.551-0.551
								h5.07c0.304,0,0.551,0.247,0.551,0.551l0,0C248.885,95.062,248.638,95.308,248.334,95.308z"/>
							<path style="fill:#263238;" d="M248.334,95.809h-5.07c-0.58,0-1.051-0.472-1.051-1.051c0-0.58,0.472-1.051,1.051-1.051h5.07
								c0.58,0,1.051,0.472,1.051,1.051C249.385,95.337,248.913,95.809,248.334,95.809z M243.264,94.706v0.103h5.07
								c0.028,0,0.051-0.023,0.051-0.051L243.264,94.706z"/>
						</g>
						<g>
							<g>
								<polygon style="fill:#FFFFFF;" points="243.113,97.681 243.02,99.987 248.577,99.987 248.484,97.681 								"/>
								<path style="fill:#263238;" d="M249.098,100.487H242.5l0.132-3.306h6.333L249.098,100.487z M243.541,99.487h4.516
									l-0.053-1.306h-4.411L243.541,99.487z"/>
							</g>
							<g>
								<polygon style="fill:#FFFFFF;" points="250.581,149.877 250.488,147.571 241.109,147.571 241.017,149.877 								"/>
								<path style="fill:#263238;" d="M251.101,150.376h-10.605l0.133-3.306h10.34L251.101,150.376z M241.537,149.376h8.523
									l-0.052-1.306h-8.418L241.537,149.376z"/>
							</g>
							<g>
								<polygon style="fill:#FFFFFF;" points="241.682,133.317 241.589,135.623 250.008,135.623 249.916,133.317 								"/>
								<path style="fill:#263238;" d="M250.529,136.123h-9.46l0.133-3.306h9.195L250.529,136.123z M242.109,135.123h7.378
									l-0.053-1.306h-7.273L242.109,135.123z"/>
							</g>
							<g>
								<polygon style="fill:#FFFFFF;" points="241.396,140.444 241.303,142.75 250.295,142.75 250.202,140.444 								"/>
								<path style="fill:#263238;" d="M250.815,143.249h-10.033l0.133-3.306h9.767L250.815,143.249z M241.823,142.249h7.951
									l-0.053-1.306h-7.845L241.823,142.249z"/>
							</g>
							<g>
								<polygon style="fill:#FFFFFF;" points="241.968,126.19 241.875,128.495 249.722,128.495 249.63,126.19 								"/>
								<path style="fill:#263238;" d="M250.243,128.996h-8.888l0.132-3.306h8.623L250.243,128.996z M242.396,127.996h6.806
									l-0.053-1.306h-6.701L242.396,127.996z"/>
							</g>
							<g>
								<polygon style="fill:#FFFFFF;" points="242.827,104.809 242.734,107.114 248.863,107.114 248.771,104.809 								"/>
								<path style="fill:#263238;" d="M249.384,107.614h-7.17l0.133-3.306h6.905L249.384,107.614z M243.255,106.614h5.088
									l-0.053-1.306h-4.983L243.255,106.614z"/>
							</g>
							<g>
								<polygon style="fill:#FFFFFF;" points="242.254,119.063 242.162,121.368 249.436,121.368 249.343,119.063 								"/>
								<path style="fill:#263238;" d="M249.956,121.869h-8.315l0.133-3.306h8.05L249.956,121.869z M242.682,120.869h6.233
									l-0.052-1.306h-6.128L242.682,120.869z"/>
							</g>
							<g>
								<polygon style="fill:#FFFFFF;" points="242.541,111.936 242.448,114.241 249.15,114.241 249.057,111.936 								"/>
								<path style="fill:#263238;" d="M249.67,114.741h-7.743l0.133-3.306h7.477L249.67,114.741z M242.968,113.741h5.661
									l-0.053-1.306h-5.555L242.968,113.741z"/>
							</g>
						</g>
					</g>
					<g>
						<g>
							<polygon style="fill:#92E3A9;" points="262.202,94.747 257.066,94.747 254.498,158.681 264.769,158.681 							"/>
							<path style="fill:#263238;" d="M265.29,159.181h-11.312l2.608-64.934h6.096L265.29,159.181z M255.019,158.181h9.23
								l-2.528-62.934h-4.174L255.019,158.181z"/>
						</g>
						<g>
							<path style="fill:#FFFFFF;" d="M262.169,95.308h-5.07c-0.304,0-0.551-0.247-0.551-0.551l0,0c0-0.304,0.247-0.551,0.551-0.551
								h5.07c0.304,0,0.551,0.247,0.551,0.551l0,0C262.72,95.062,262.473,95.308,262.169,95.308z"/>
							<path style="fill:#263238;" d="M262.169,95.809h-5.07c-0.58,0-1.051-0.472-1.051-1.051c0-0.58,0.472-1.051,1.051-1.051h5.07
								c0.58,0,1.051,0.472,1.051,1.051C263.22,95.337,262.748,95.809,262.169,95.809z M257.099,94.706v0.103h5.07
								c0.028,0,0.051-0.023,0.051-0.051L257.099,94.706z"/>
						</g>
						<g>
							<g>
								<polygon style="fill:#FFFFFF;" points="256.948,97.681 256.855,99.987 262.412,99.987 262.319,97.681 								"/>
								<path style="fill:#263238;" d="M262.932,100.487h-6.597l0.132-3.306h6.332L262.932,100.487z M257.376,99.487h4.515
									l-0.052-1.306h-4.411L257.376,99.487z"/>
							</g>
							<g>
								<polygon style="fill:#FFFFFF;" points="264.416,149.877 264.323,147.571 254.944,147.571 254.852,149.877 								"/>
								<path style="fill:#263238;" d="M264.936,150.376h-10.605l0.132-3.306h10.34L264.936,150.376z M255.372,149.376h8.523
									l-0.052-1.306h-8.418L255.372,149.376z"/>
							</g>
							<g>
								<polygon style="fill:#FFFFFF;" points="255.517,133.317 255.424,135.623 263.843,135.623 263.751,133.317 								"/>
								<path style="fill:#263238;" d="M264.364,136.123h-9.46l0.133-3.306h9.195L264.364,136.123z M255.944,135.123h7.378
									l-0.053-1.306h-7.273L255.944,135.123z"/>
							</g>
							<g>
								<polygon style="fill:#FFFFFF;" points="255.23,140.444 255.138,142.75 264.13,142.75 264.037,140.444 								"/>
								<path style="fill:#263238;" d="M264.65,143.249h-10.033l0.133-3.306h9.767L264.65,143.249z M255.658,142.249h7.951
									l-0.053-1.306h-7.845L255.658,142.249z"/>
							</g>
							<g>
								<polygon style="fill:#FFFFFF;" points="255.803,126.19 255.71,128.495 263.557,128.495 263.464,126.19 								"/>
								<path style="fill:#263238;" d="M264.077,128.996h-8.887l0.132-3.306h8.623L264.077,128.996z M256.231,127.996h6.805
									l-0.052-1.306h-6.701L256.231,127.996z"/>
							</g>
							<g>
								<polygon style="fill:#FFFFFF;" points="256.662,104.809 256.569,107.114 262.698,107.114 262.606,104.809 								"/>
								<path style="fill:#263238;" d="M263.219,107.614h-7.17l0.133-3.306h6.905L263.219,107.614z M257.09,106.614h5.088
									l-0.053-1.306h-4.983L257.09,106.614z"/>
							</g>
							<g>
								<polygon style="fill:#FFFFFF;" points="256.089,119.063 255.997,121.368 263.271,121.368 263.178,119.063 								"/>
								<path style="fill:#263238;" d="M263.791,121.869h-8.315l0.132-3.306h8.05L263.791,121.869z M256.517,120.869h6.233
									l-0.052-1.306h-6.128L256.517,120.869z"/>
							</g>
							<g>
								<polygon style="fill:#FFFFFF;" points="256.375,111.936 256.283,114.241 262.984,114.241 262.892,111.936 								"/>
								<path style="fill:#263238;" d="M263.505,114.741h-7.743l0.133-3.306h7.477L263.505,114.741z M256.803,113.741h5.661
									l-0.053-1.306h-5.555L256.803,113.741z"/>
							</g>
						</g>
					</g>
					<g>
						<g>
							<polygon style="fill:#92E3A9;" points="276.036,94.747 270.901,94.747 268.333,158.681 278.604,158.681 							"/>
							<path style="fill:#263238;" d="M279.125,159.181h-11.313l2.608-64.934h6.096L279.125,159.181z M268.853,158.181h9.23
								l-2.528-62.934h-4.174L268.853,158.181z"/>
						</g>
						<g>
							<path style="fill:#FFFFFF;" d="M276.004,95.308h-5.07c-0.304,0-0.551-0.247-0.551-0.551l0,0c0-0.304,0.247-0.551,0.551-0.551
								h5.07c0.304,0,0.551,0.247,0.551,0.551l0,0C276.555,95.062,276.308,95.308,276.004,95.308z"/>
							<path style="fill:#263238;" d="M276.004,95.809h-5.07c-0.58,0-1.051-0.472-1.051-1.051c0-0.58,0.472-1.051,1.051-1.051h5.07
								c0.579,0,1.051,0.472,1.051,1.051C277.055,95.337,276.583,95.809,276.004,95.809z M270.934,94.706v0.103h5.07
								c0.028,0,0.051-0.023,0.051-0.051L270.934,94.706z"/>
						</g>
						<g>
							<g>
								<polygon style="fill:#FFFFFF;" points="270.783,97.681 270.69,99.987 276.247,99.987 276.154,97.681 								"/>
								<path style="fill:#263238;" d="M276.767,100.487h-6.598l0.133-3.306h6.332L276.767,100.487z M271.211,99.487h4.516
									l-0.052-1.306h-4.411L271.211,99.487z"/>
							</g>
							<g>
								<polygon style="fill:#FFFFFF;" points="278.251,149.877 278.158,147.571 268.779,147.571 268.686,149.877 								"/>
								<path style="fill:#263238;" d="M278.771,150.376h-10.605l0.132-3.306h10.34L278.771,150.376z M269.207,149.376h8.523
									l-0.052-1.306h-8.418L269.207,149.376z"/>
							</g>
							<g>
								<polygon style="fill:#FFFFFF;" points="269.352,133.317 269.259,135.623 277.678,135.623 277.586,133.317 								"/>
								<path style="fill:#263238;" d="M278.199,136.123h-9.46l0.133-3.306h9.195L278.199,136.123z M269.779,135.123h7.378
									l-0.053-1.306h-7.273L269.779,135.123z"/>
							</g>
							<g>
								<polygon style="fill:#FFFFFF;" points="269.065,140.444 268.973,142.75 277.965,142.75 277.872,140.444 								"/>
								<path style="fill:#263238;" d="M278.485,143.249h-10.033l0.133-3.306h9.767L278.485,143.249z M269.493,142.249h7.951
									l-0.053-1.306h-7.845L269.493,142.249z"/>
							</g>
							<g>
								<polygon style="fill:#FFFFFF;" points="269.638,126.19 269.545,128.495 277.392,128.495 277.299,126.19 								"/>
								<path style="fill:#263238;" d="M277.912,128.996h-8.888l0.133-3.306h8.622L277.912,128.996z M270.066,127.996h6.806
									l-0.052-1.306h-6.701L270.066,127.996z"/>
							</g>
							<g>
								<polygon style="fill:#FFFFFF;" points="270.497,104.809 270.404,107.114 276.533,107.114 276.441,104.809 								"/>
								<path style="fill:#263238;" d="M277.054,107.614h-7.17l0.133-3.306h6.905L277.054,107.614z M270.924,106.614h5.088
									l-0.053-1.306h-4.983L270.924,106.614z"/>
							</g>
							<g>
								<polygon style="fill:#FFFFFF;" points="269.924,119.063 269.831,121.368 277.106,121.368 277.013,119.063 								"/>
								<path style="fill:#263238;" d="M277.626,121.869h-8.315l0.132-3.306h8.05L277.626,121.869z M270.352,120.869h6.233
									l-0.052-1.306h-6.128L270.352,120.869z"/>
							</g>
							<g>
								<polygon style="fill:#FFFFFF;" points="270.21,111.936 270.118,114.241 276.819,114.241 276.727,111.936 								"/>
								<path style="fill:#263238;" d="M277.34,114.741h-7.743l0.133-3.306h7.477L277.34,114.741z M270.638,113.741h5.661
									l-0.053-1.306h-5.555L270.638,113.741z"/>
							</g>
						</g>
					</g>
					<g>
						<g>
							<g>
								<rect x="199.418" y="144.06" style="fill:#263238;" width="20.438" height="43.598"/>
								<path style="fill:#263238;" d="M219.855,188.158h-20.438c-0.276,0-0.5-0.224-0.5-0.5V144.06c0-0.276,0.224-0.5,0.5-0.5
									h20.438c0.276,0,0.5,0.224,0.5,0.5v43.598C220.355,187.934,220.132,188.158,219.855,188.158z M199.918,187.158h19.438
									V144.56h-19.438V187.158z"/>
							</g>
							<g>
								<polygon style="fill:#FFFFFF;" points="218.945,138.243 230.012,144.708 227.884,144.708 216.888,139.21 								"/>
								<path style="fill:#263238;" d="M231.859,145.208h-4.093l-12.024-6.013l3.229-1.517L231.859,145.208z M228.002,144.208h0.163
									l-9.245-5.401l-0.886,0.417L228.002,144.208z"/>
							</g>
							<g>
								<polygon style="fill:#92E3A9;" points="228.85,187.658 208.412,187.658 208.412,144.06 218.945,138.243 228.85,144.06 
																	"/>
								<path style="fill:#263238;" d="M228.85,188.158h-20.438c-0.276,0-0.5-0.224-0.5-0.5V144.06c0-0.182,0.099-0.35,0.258-0.438
									l10.533-5.817c0.154-0.086,0.343-0.083,0.495,0.006l9.905,5.817c0.153,0.09,0.246,0.254,0.246,0.431v43.598
									C229.35,187.934,229.127,188.158,228.85,188.158z M208.912,187.158h19.438v-42.812l-9.413-5.528l-10.025,5.537V187.158z"/>
							</g>
						</g>
						<g>
							<polygon style="fill:#8F8F8F;" points="197.845,145.003 206.84,145.003 218.945,138.243 209.827,138.243 							"/>
							<path style="fill:#263238;" d="M206.84,145.503h-8.995c-0.227,0-0.426-0.153-0.483-0.373c-0.058-0.22,0.04-0.451,0.238-0.563
								l11.981-6.76c0.075-0.042,0.16-0.064,0.246-0.064h9.119c0.228,0,0.427,0.154,0.484,0.374c0.057,0.22-0.041,0.452-0.24,0.563
								l-12.105,6.76C207.009,145.481,206.925,145.503,206.84,145.503z M199.749,144.503h6.96l10.315-5.76h-7.066L199.749,144.503z"
								/>
						</g>
						<g>
							<rect x="217.216" y="142.016" style="fill:#263238;" width="3.301" height="2.987"/>
							<path style="fill:#263238;" d="M221.018,145.503h-4.302v-3.987h4.302V145.503z M217.716,144.503h2.302v-1.987h-2.302V144.503
								z"/>
						</g>
					</g>
					<g>
						<rect x="211.68" y="150.833" style="fill:#263238;" width="66.078" height="36.825"/>
						<path style="fill:#263238;" d="M277.758,188.158H211.68c-0.276,0-0.5-0.224-0.5-0.5v-36.825c0-0.276,0.224-0.5,0.5-0.5h66.078
							c0.276,0,0.5,0.224,0.5,0.5v36.825C278.258,187.934,278.035,188.158,277.758,188.158z M212.18,187.158h65.078v-35.825H212.18
							V187.158z"/>
					</g>
					<g>
						<rect x="240.761" y="150.833" style="fill:#FFFFFF;" width="69.956" height="36.825"/>
						<path style="fill:#263238;" d="M310.717,188.158h-69.955c-0.276,0-0.5-0.224-0.5-0.5v-36.825c0-0.276,0.224-0.5,0.5-0.5
							h69.955c0.276,0,0.5,0.224,0.5,0.5v36.825C311.217,187.934,310.993,188.158,310.717,188.158z M241.261,187.158h68.955v-35.825
							h-68.955V187.158z"/>
					</g>
					<g>
						<g>
							<rect x="249.71" y="164.943" style="fill:#FFFFFF;" width="11.529" height="22.714"/>
							<path style="fill:#263238;" d="M261.239,188.158H249.71c-0.276,0-0.5-0.224-0.5-0.5v-22.714c0-0.276,0.224-0.5,0.5-0.5
								h11.529c0.276,0,0.5,0.224,0.5,0.5v22.714C261.739,187.934,261.515,188.158,261.239,188.158z M250.21,187.158h10.529v-21.714
								H250.21V187.158z"/>
						</g>
						<g>
							<rect x="249.71" y="164.943" style="fill:#263238;" width="9.636" height="22.714"/>
							<path style="fill:#263238;" d="M259.346,188.158h-9.636c-0.276,0-0.5-0.224-0.5-0.5v-22.714c0-0.276,0.224-0.5,0.5-0.5h9.636
								c0.276,0,0.5,0.224,0.5,0.5v22.714C259.846,187.934,259.622,188.158,259.346,188.158z M250.21,187.158h8.636v-21.714h-8.636
								V187.158z"/>
						</g>
					</g>
					<g>
						<g>
							<rect x="270.359" y="164.943" style="fill:#FFFFFF;" width="11.529" height="22.714"/>
							<path style="fill:#263238;" d="M281.888,188.158h-11.529c-0.276,0-0.5-0.224-0.5-0.5v-22.714c0-0.276,0.224-0.5,0.5-0.5
								h11.529c0.276,0,0.5,0.224,0.5,0.5v22.714C282.388,187.934,282.165,188.158,281.888,188.158z M270.859,187.158h10.529
								v-21.714h-10.529V187.158z"/>
						</g>
						<g>
							<rect x="270.359" y="164.943" style="fill:#263238;" width="9.636" height="22.714"/>
							<path style="fill:#263238;" d="M279.995,188.158h-9.636c-0.276,0-0.5-0.224-0.5-0.5v-22.714c0-0.276,0.224-0.5,0.5-0.5h9.636
								c0.276,0,0.5,0.224,0.5,0.5v22.714C280.495,187.934,280.272,188.158,279.995,188.158z M270.859,187.158h8.636v-21.714h-8.636
								V187.158z"/>
						</g>
					</g>
					<g>
						<g>
							<rect x="291.008" y="164.943" style="fill:#FFFFFF;" width="11.529" height="22.714"/>
							<path style="fill:#263238;" d="M302.538,188.158h-11.529c-0.276,0-0.5-0.224-0.5-0.5v-22.714c0-0.276,0.224-0.5,0.5-0.5
								h11.529c0.276,0,0.5,0.224,0.5,0.5v22.714C303.038,187.934,302.814,188.158,302.538,188.158z M291.508,187.158h10.529
								v-21.714h-10.529V187.158z"/>
						</g>
						<g>
							<rect x="291.008" y="164.943" style="fill:#263238;" width="9.636" height="22.714"/>
							<path style="fill:#263238;" d="M300.645,188.158h-9.636c-0.276,0-0.5-0.224-0.5-0.5v-22.714c0-0.276,0.224-0.5,0.5-0.5h9.636
								c0.276,0,0.5,0.224,0.5,0.5v22.714C301.145,187.934,300.921,188.158,300.645,188.158z M291.508,187.158h8.636v-21.714h-8.636
								V187.158z"/>
						</g>
					</g>
					<g>
						<rect x="214.334" y="155.048" style="fill:#FFFFFF;" width="6.289" height="5.768"/>
						<path style="fill:#263238;" d="M220.623,161.316h-6.289c-0.276,0-0.5-0.224-0.5-0.5v-5.768c0-0.276,0.224-0.5,0.5-0.5h6.289
							c0.276,0,0.5,0.224,0.5,0.5v5.768C221.123,161.092,220.899,161.316,220.623,161.316z M214.834,160.316h5.289v-4.768h-5.289
							V160.316z"/>
					</g>
					<g>
						<rect x="222.836" y="155.048" style="fill:#FFFFFF;" width="6.289" height="5.768"/>
						<path style="fill:#263238;" d="M229.125,161.316h-6.289c-0.276,0-0.5-0.224-0.5-0.5v-5.768c0-0.276,0.224-0.5,0.5-0.5h6.289
							c0.276,0,0.5,0.224,0.5,0.5v5.768C229.625,161.092,229.401,161.316,229.125,161.316z M223.336,160.316h5.289v-4.768h-5.289
							V160.316z"/>
					</g>
					<g>
						<rect x="231.338" y="155.048" style="fill:#FFFFFF;" width="6.289" height="5.768"/>
						<path style="fill:#263238;" d="M237.627,161.316h-6.289c-0.276,0-0.5-0.224-0.5-0.5v-5.768c0-0.276,0.224-0.5,0.5-0.5h6.289
							c0.276,0,0.5,0.224,0.5,0.5v5.768C238.127,161.092,237.903,161.316,237.627,161.316z M231.838,160.316h5.289v-4.768h-5.289
							V160.316z"/>
					</g>
					<g>
						<rect x="250.637" y="155.048" style="fill:#FFFFFF;" width="9.395" height="5.768"/>
						<path style="fill:#263238;" d="M260.032,161.316h-9.395c-0.276,0-0.5-0.224-0.5-0.5v-5.768c0-0.276,0.224-0.5,0.5-0.5h9.395
							c0.276,0,0.5,0.224,0.5,0.5v5.768C260.532,161.092,260.309,161.316,260.032,161.316z M251.137,160.316h8.395v-4.768h-8.395
							V160.316z"/>
					</g>
					<g>
						<rect x="250.103" y="155.048" style="fill:#FFFFFF;" width="9.395" height="5.768"/>
						<path style="fill:#263238;" d="M259.498,161.316h-9.395c-0.276,0-0.5-0.224-0.5-0.5v-5.768c0-0.276,0.224-0.5,0.5-0.5h9.395
							c0.276,0,0.5,0.224,0.5,0.5v5.768C259.998,161.092,259.774,161.316,259.498,161.316z M250.603,160.316h8.395v-4.768h-8.395
							V160.316z"/>
					</g>
					<g>
						<rect x="271.268" y="155.048" style="fill:#FFFFFF;" width="9.395" height="5.768"/>
						<path style="fill:#263238;" d="M280.663,161.316h-9.395c-0.276,0-0.5-0.224-0.5-0.5v-5.768c0-0.276,0.224-0.5,0.5-0.5h9.395
							c0.276,0,0.5,0.224,0.5,0.5v5.768C281.163,161.092,280.939,161.316,280.663,161.316z M271.768,160.316h8.395v-4.768h-8.395
							V160.316z"/>
					</g>
					<g>
						<rect x="270.733" y="155.048" style="fill:#FFFFFF;" width="9.395" height="5.768"/>
						<path style="fill:#263238;" d="M280.128,161.316h-9.395c-0.276,0-0.5-0.224-0.5-0.5v-5.768c0-0.276,0.224-0.5,0.5-0.5h9.395
							c0.276,0,0.5,0.224,0.5,0.5v5.768C280.628,161.092,280.404,161.316,280.128,161.316z M271.233,160.316h8.395v-4.768h-8.395
							V160.316z"/>
					</g>
					<g>
						<rect x="291.899" y="155.048" style="fill:#FFFFFF;" width="9.395" height="5.768"/>
						<path style="fill:#263238;" d="M301.294,161.316h-9.395c-0.276,0-0.5-0.224-0.5-0.5v-5.768c0-0.276,0.224-0.5,0.5-0.5h9.395
							c0.276,0,0.5,0.224,0.5,0.5v5.768C301.794,161.092,301.57,161.316,301.294,161.316z M292.399,160.316h8.395v-4.768h-8.395
							V160.316z"/>
					</g>
					<g>
						<rect x="291.364" y="155.048" style="fill:#FFFFFF;" width="9.395" height="5.768"/>
						<path style="fill:#263238;" d="M300.759,161.316h-9.394c-0.276,0-0.5-0.224-0.5-0.5v-5.768c0-0.276,0.224-0.5,0.5-0.5h9.394
							c0.276,0,0.5,0.224,0.5,0.5v5.768C301.259,161.092,301.035,161.316,300.759,161.316z M291.864,160.316h8.394v-4.768h-8.394
							V160.316z"/>
					</g>
					<g>
						<rect x="202.393" y="160.753" style="fill:#92E3A9;" width="8.368" height="4.845"/>
						<path style="fill:#263238;" d="M210.76,166.098h-8.368c-0.276,0-0.5-0.224-0.5-0.5v-4.845c0-0.276,0.224-0.5,0.5-0.5h8.368
							c0.276,0,0.5,0.224,0.5,0.5v4.845C211.26,165.874,211.037,166.098,210.76,166.098z M202.893,165.098h7.368v-3.845h-7.368
							V165.098z"/>
					</g>
					<g>
						<rect x="205.029" y="160.753" style="fill:#92E3A9;" width="8.368" height="4.845"/>
						<path style="fill:#263238;" d="M213.398,166.098h-8.368c-0.276,0-0.5-0.224-0.5-0.5v-4.845c0-0.276,0.224-0.5,0.5-0.5h8.368
							c0.276,0,0.5,0.224,0.5,0.5v4.845C213.898,165.874,213.674,166.098,213.398,166.098z M205.529,165.098h7.368v-3.845h-7.368
							V165.098z"/>
					</g>
					<g>
						<g>
							<rect x="200.358" y="163.478" style="fill:#263238;" width="20.631" height="24.18"/>
							<path style="fill:#263238;" d="M220.989,188.158h-20.63c-0.276,0-0.5-0.224-0.5-0.5v-24.18c0-0.276,0.224-0.5,0.5-0.5h20.63
								c0.276,0,0.5,0.224,0.5,0.5v24.18C221.489,187.934,221.265,188.158,220.989,188.158z M200.858,187.158h19.63v-23.18h-19.63
								V187.158z"/>
						</g>
						<g>
							<rect x="215.665" y="163.478" style="fill:#92E3A9;" width="20.631" height="24.18"/>
							<path style="fill:#263238;" d="M236.296,188.158h-20.631c-0.276,0-0.5-0.224-0.5-0.5v-24.18c0-0.276,0.224-0.5,0.5-0.5
								h20.631c0.276,0,0.5,0.224,0.5,0.5v24.18C236.796,187.934,236.572,188.158,236.296,188.158z M216.165,187.158h19.631v-23.18
								h-19.631V187.158z"/>
						</g>
						<g>
							<rect x="223.207" y="178.784" style="fill:#263238;" width="5.546" height="8.873"/>
							<path style="fill:#263238;" d="M228.754,188.158h-5.546c-0.276,0-0.5-0.224-0.5-0.5v-8.874c0-0.276,0.224-0.5,0.5-0.5h5.546
								c0.276,0,0.5,0.224,0.5,0.5v8.874C229.254,187.934,229.03,188.158,228.754,188.158z M223.708,187.158h4.546v-7.874h-4.546
								V187.158z"/>
						</g>
						<g>
							<g>
								<rect x="210.237" y="166.362" style="fill:#92E3A9;" width="3.432" height="16.416"/>
								<path style="fill:#263238;" d="M213.669,183.277h-3.432c-0.276,0-0.5-0.224-0.5-0.5v-16.415c0-0.276,0.224-0.5,0.5-0.5
									h3.432c0.276,0,0.5,0.224,0.5,0.5v16.415C214.169,183.054,213.945,183.277,213.669,183.277z M210.737,182.277h2.432v-15.415
									h-2.432V182.277z"/>
							</g>
							<g>
								<rect x="205.852" y="166.362" style="fill:#92E3A9;" width="3.431" height="16.416"/>
								<path style="fill:#263238;" d="M209.284,183.277h-3.432c-0.276,0-0.5-0.224-0.5-0.5v-16.415c0-0.276,0.224-0.5,0.5-0.5
									h3.432c0.276,0,0.5,0.224,0.5,0.5v16.415C209.784,183.054,209.56,183.277,209.284,183.277z M206.352,182.277h2.432v-15.415
									h-2.432V182.277z"/>
							</g>
							<g>
								<rect x="201.468" y="166.362" style="fill:#92E3A9;" width="3.431" height="16.416"/>
								<path style="fill:#263238;" d="M204.899,183.277h-3.432c-0.276,0-0.5-0.224-0.5-0.5v-16.415c0-0.276,0.224-0.5,0.5-0.5
									h3.432c0.276,0,0.5,0.224,0.5,0.5v16.415C205.399,183.054,205.175,183.277,204.899,183.277z M201.967,182.277h2.432v-15.415
									h-2.432V182.277z"/>
							</g>
						</g>
					</g>
				</g>
			</g>
			<g>
				<g>
					<rect x="243.065" y="154.592" style="fill:#FFFFFF;" width="4.937" height="32.916"/>
					<path style="fill:#263238;" d="M248.003,188.008h-4.938c-0.276,0-0.5-0.224-0.5-0.5v-32.917c0-0.276,0.224-0.5,0.5-0.5h4.938
						c0.276,0,0.5,0.224,0.5,0.5v32.917C248.503,187.785,248.279,188.008,248.003,188.008z M243.565,187.008h3.938v-31.917h-3.938
						V187.008z"/>
				</g>
				<g>
					<rect x="243.839" y="154.592" style="fill:#92E3A9;" width="4.937" height="32.916"/>
					<path style="fill:#263238;" d="M249.277,188.008h-5.938v-33.917h5.938V188.008z M244.339,187.008h3.938v-31.917h-3.938V187.008
						z"/>
				</g>
			</g>
			<g>
				<g>
					<rect x="263.202" y="154.592" style="fill:#FFFFFF;" width="4.938" height="32.916"/>
					<path style="fill:#263238;" d="M268.14,188.008h-4.938c-0.276,0-0.5-0.224-0.5-0.5v-32.917c0-0.276,0.224-0.5,0.5-0.5h4.938
						c0.276,0,0.5,0.224,0.5,0.5v32.917C268.64,187.785,268.416,188.008,268.14,188.008z M263.702,187.008h3.938v-31.917h-3.938
						V187.008z"/>
				</g>
				<g>
					<rect x="263.977" y="154.592" style="fill:#92E3A9;" width="4.938" height="32.916"/>
					<path style="fill:#263238;" d="M269.414,188.008h-5.938v-33.917h5.938V188.008z M264.477,187.008h3.938v-31.917h-3.938V187.008
						z"/>
				</g>
			</g>
			<g>
				<g>
					<rect x="283.823" y="154.592" style="fill:#FFFFFF;" width="4.937" height="32.916"/>
					<path style="fill:#263238;" d="M288.761,188.008h-4.938c-0.276,0-0.5-0.224-0.5-0.5v-32.917c0-0.276,0.224-0.5,0.5-0.5h4.938
						c0.276,0,0.5,0.224,0.5,0.5v32.917C289.261,187.785,289.037,188.008,288.761,188.008z M284.323,187.008h3.938v-31.917h-3.938
						V187.008z"/>
				</g>
				<g>
					<rect x="284.598" y="154.592" style="fill:#92E3A9;" width="4.937" height="32.916"/>
					<path style="fill:#263238;" d="M290.035,188.008h-5.938v-33.917h5.938V188.008z M285.098,187.008h3.938v-31.917h-3.938V187.008
						z"/>
				</g>
			</g>
			<g>
				<g>
					<rect x="304.471" y="154.592" style="fill:#FFFFFF;" width="4.938" height="32.916"/>
					<path style="fill:#263238;" d="M309.408,188.008h-4.938c-0.276,0-0.5-0.224-0.5-0.5v-32.917c0-0.276,0.224-0.5,0.5-0.5h4.938
						c0.276,0,0.5,0.224,0.5,0.5v32.917C309.908,187.785,309.685,188.008,309.408,188.008z M304.971,187.008h3.938v-31.917h-3.938
						V187.008z"/>
				</g>
				<g>
					<rect x="305.245" y="154.592" style="fill:#92E3A9;" width="4.938" height="32.916"/>
					<path style="fill:#263238;" d="M310.683,188.008h-5.938v-33.917h5.938V188.008z M305.745,187.008h3.938v-31.917h-3.938V187.008
						z"/>
				</g>
			</g>
		</g>
	</g>
</g>
<g id="Shadow">
	<ellipse style="fill:#263238;" cx="260.671" cy="454.588" rx="61.38" ry="5.556"/>
</g>
<g id="Earth">
	<g>
		
			<ellipse transform="matrix(0.7071 -0.7071 0.7071 0.7071 -135.3083 269.877)" style="fill:#92E3A9;" cx="258.116" cy="298.27" rx="125.536" ry="125.536"/>
		<g>
			<polygon style="fill:#FFFFFF;" points="237.472,243.757 250.416,245.559 255.066,249.786 260.799,250.283 262.96,255.549 
				261.878,259.28 258.125,261.309 248.543,260.386 248.208,259.242 252.484,255.819 249.012,250.315 240.455,249.713 
				235.685,246.141 			"/>
			<path style="fill:#FFFFFF;" d="M348.168,354.799l-10.238-1.042l-12.323-0.742l-8.865,2.592l-8.795,0.709l-8.565,4.678
				l-5.064,1.791l-3.146,0.92l-5.002,5.188l-5.05,3.96l-9.143-2.603l-0.34-8.592l-5.447-0.58l-5.719,1.672l-1.611-2.323
				l-0.933-5.315l-2.838-2.274l-3.836,1.743l-0.308,3.194l-4.778,1.708l-5.795-3.893l-3.723-6.361l1.948-9.262l8.46-1.853
				l2.873,1.333l3.432-1.004l3.537-3.828l4.052,0.057l7.74,7.36l1.918-0.871l-2.495-6.41l-2.719-2.93l-1.017-5.601l9.243-7.669
				l-1.664-10.999l3.488-5.056l1.795-7.664l2.692-1.408l5.323-6.213l-0.383-2.371l-4.492,1.624l-1.527-2.037l-3.146,0.92
				l-4.527,2.565l1.2-4.386l9.173-5.786l1.535-3.243l5.843,5.121l3.327,1.821l3.669-2.314l-2.803-3.215l-7.26-2.534l-9.121-5.714
				l-8.571-2.771l-7.198,0.863l-4.435-2.428l-4.91,0.194l-0.237,1.311l1.853,8.46l1.98,2.525l0.103,9.904l-7.057-2.903l-0.313-4.254
				l-6.841-1.104l-3.493-2.393l-0.661-7.567l6.537-8.43l-1.435-7.031l-3.062,1.206l-2.754-1.988l-2.112-4.038l-2.085,0.299
				l0.194,4.91l-2.978,1.492l-4.357-9.591l-2.706-0.761l-4.505-0.545l-3.907,3.626l7.308,3.761l2.565,4.527l-12.552-4.711
				l-9.407-5.631l-2.83-7.554l-8.104-0.113l-4.632,5.39c0,0-2.358,2.552-3.621,3.542c-1.263,0.99-6.529,3.151-6.529,3.151
				l0.278,5.196l-6.494,2.209l1.492,2.978l11.083-1.378l7.189,4.417l2.927,10.009l-0.553,9.785l3.332,9.27l-3.91,16.354
				l4.389,21.377l6.086,11.258l6.393,8.064l4.457-0.682l-2.768-4.157l-3.291-2.763l-3.27-5.873l2.407-1.325l7.014,9.124l5.536,8.315
				l2.174,7.435l7.357,4.989l11.813,4.306l16.041-0.345l5.83,2.952l4.769,3.572l6.067,1.64l6.793-0.124l6.207-2.125
				c0,0,0.55,2.943,0.969,4.373c0.418,1.43-2.164,7.462-2.164,7.462l-1.473,6.639l4.127,5.622l7.044,0.734l11.541,6.559l4.505,0.545
				l1.254,4.29l1.084,1.851c21.682-10.324,39.368-26.393,51.721-45.773l-0.458-2.117l3.624-16.27l-4.47-1.487L348.168,354.799z"/>
			<path style="fill:#FFFFFF;" d="M344.878,233.146l-4.734-4.513l-5.843-5.12l-3.652-8.244l5.398-0.647l-0.55-2.943l-3.801,0.801
				l2.728-2.35l2.846-3.005l-0.836-2.86l-4.769-3.572l-2.533-5.94c-29.995-20.551-68.627-27.973-106.248-16.972
				c-17.102,5.001-32.323,13.328-45.18,24.061l7.96,2.743l-2.498,6.318l-5.099,2.733l1.686,7.888l-2.037,1.527l-1.94,3.982
				l1.791,5.064l5.029-0.85l-0.58,5.447l4.861-1.422l5.199-13.006l-0.48-4.826l7.839-2.913l0.998-4.017l8.042-3.283l-0.563-5.112
				l5.922-2.042c0,0,3.62-3.542,4.478-3.793c0.858-0.251,5.279,0.008,5.279,0.008l5.293,2.177l6.005-1.756l4.227-4.651l6.744-1.352
				c0,0,2.05,0.642,3.48,0.224c1.43-0.418,5.134-3.674,5.134-3.674l9.798,2.722l4.184,1.57l1.254,4.289l4.457-0.682l0.677-2.991
				l4.219,0.628l0.383,2.371l-7.91,4.797l6.701,4.87l11.967,2.709l5.962,4.465l6.458-1.268l0.594-3.278l2.121-1.241l-9.108-3.545
				l-4.743,0.766l3.383-2.231l-4.853-3.858l4.778-1.708l7.295,1.592l3.437,6.445l4.233,2.798l4.999,7.54l7.63,2.736l2.76,9.437
				l7.831,2.366l0.634,3.229l0.229,3.969l3.221,4.646l1.324,2.406l5.112-0.564l0.866-5.53L344.878,233.146z"/>
			<path style="fill:#FFFFFF;" d="M340.171,203.251l0.48,1.642l-0.092,4.993l2.029,3.753l3.48,0.224l1.589,5.433l-3.85-0.426
				l3.658,15.693l-1.592,7.295l4.629,7.338l4.721,2.344l4.516,15.442l7.23,10.923l6.679,7.98l7.079-0.208l0.615-6.388l0.719-1.002
				c-0.827-5.087-1.971-10.178-3.454-15.252C371.552,238.913,357.889,218.523,340.171,203.251z"/>
			<polygon style="fill:#FFFFFF;" points="265.741,347.861 264.932,349.34 274.263,349.404 278.866,352.404 284.466,351.388 
				285.548,347.657 278.636,348.436 			"/>
			<polygon style="fill:#FFFFFF;" points="292.781,345.852 287.277,349.324 288.804,351.361 296.239,349.186 297,346.481 
				294.51,347.519 			"/>
		</g>
		<path style="opacity:0.19;" d="M351.521,372.09c-66.545,19.459-136.265-18.711-155.724-85.256
			c-10.897-37.265-3.718-75.522,16.392-105.394c-59.863,23.454-92.953,89.173-74.562,152.065
			c19.459,66.545,89.179,104.715,155.724,85.256c29.28-8.562,53.063-26.858,68.864-50.33
			C358.737,369.793,355.174,371.022,351.521,372.09z"/>
		<g>
			<path style="fill:#263238;" d="M258.083,417.622c-5.862,0-11.747-0.437-17.537-1.303c-0.273-0.04-0.461-0.295-0.421-0.568
				c0.041-0.273,0.299-0.462,0.568-0.42c6.768,1.011,13.663,1.436,20.503,1.249c0.235-0.025,0.506,0.21,0.513,0.486
				s-0.21,0.506-0.487,0.514C260.178,417.607,259.13,417.622,258.083,417.622z"/>
			<path style="fill:#263238;" d="M235.549,415.454c-0.032,0-0.064-0.003-0.096-0.009c-3.562-0.692-7.136-1.559-10.622-2.574
				c-0.265-0.078-0.417-0.355-0.34-0.62c0.077-0.266,0.352-0.415,0.62-0.341c3.458,1.008,7.002,1.866,10.533,2.553
				c0.271,0.053,0.448,0.315,0.396,0.587C235.993,415.288,235.783,415.454,235.549,415.454z"/>
			<path style="fill:#263238;" d="M220.57,411.515c-0.052,0-0.106-0.008-0.158-0.025c-37.13-12.402-65.849-42.207-76.821-79.729
				c-5.563-19.024-6.313-39.256-2.167-58.508c0.058-0.27,0.321-0.437,0.594-0.384c0.27,0.059,0.441,0.324,0.383,0.595
				c-4.11,19.09-3.367,39.151,2.149,58.016c10.88,37.208,39.358,66.764,76.178,79.062c0.262,0.088,0.403,0.371,0.316,0.633
				C220.975,411.383,220.78,411.515,220.57,411.515z"/>
			<path style="fill:#263238;" d="M145.975,259.464c-0.055,0-0.111-0.009-0.166-0.028c-0.261-0.092-0.398-0.377-0.306-0.638
				c2.538-7.223,5.79-14.24,9.666-20.858c0.14-0.238,0.446-0.319,0.684-0.179c0.238,0.14,0.318,0.446,0.179,0.685
				c-3.844,6.562-7.069,13.521-9.586,20.684C146.375,259.335,146.182,259.464,145.975,259.464z"/>
		</g>
		<path style="fill:#263238;" d="M258.172,424.32c-54.554,0-104.96-35.734-121.026-90.676
			c-19.505-66.703,18.893-136.839,85.596-156.345c32.314-9.448,66.371-5.749,95.9,10.418c29.529,16.167,50.996,42.866,60.444,75.178
			c19.506,66.703-18.893,136.839-85.596,156.345C281.729,422.68,269.851,424.32,258.172,424.32z M258.29,173.176
			c-11.786,0-23.64,1.684-35.268,5.084c-66.173,19.351-104.267,88.93-84.916,155.104c19.351,66.175,88.926,104.268,155.104,84.918
			c66.174-19.352,104.267-88.932,84.917-155.105c-9.374-32.056-30.67-58.543-59.966-74.582
			C299.492,178.374,278.997,173.176,258.29,173.176z"/>
	</g>
	<g>
		<path style="fill:#263238;" d="M239.204,334.276c0.078,6.041-3.384,10.985-7.734,11.041c-4.35,0.056-7.939-4.795-8.018-10.837
			c-0.078-6.041,3.384-10.985,7.734-11.041C235.536,323.383,239.125,328.234,239.204,334.276z"/>
		<path style="fill:#FFFFFF;" d="M236.038,329.247c0.314,2.334-0.57,4.379-1.974,4.568s-2.798-1.549-3.112-3.883
			c-0.314-2.334,0.57-4.379,1.974-4.568C234.33,325.175,235.724,326.913,236.038,329.247z"/>
		<path style="fill:#263238;" d="M293.271,333.064c0.078,6.041-3.384,10.985-7.734,11.041c-4.35,0.056-7.94-4.795-8.018-10.837
			c-0.078-6.041,3.384-10.985,7.734-11.041C289.603,322.171,293.193,327.023,293.271,333.064z"/>
		<path style="fill:#FFFFFF;" d="M289.799,327.425c0.314,2.334-0.57,4.379-1.974,4.568c-1.405,0.189-2.798-1.549-3.112-3.883
			c-0.314-2.334,0.57-4.379,1.974-4.568C288.091,323.353,289.484,325.091,289.799,327.425z"/>
		<path style="fill:#263238;" d="M289.741,385.806c-0.709,0-1.339-0.504-1.473-1.227c-2.559-13.789-14.329-23.927-27.986-24.104
			c-0.123-0.002-0.246-0.003-0.368-0.003c-13.003,0-24.434,8.948-27.876,21.876c-0.213,0.802-1.04,1.282-1.835,1.064
			c-0.801-0.213-1.277-1.034-1.064-1.835c3.793-14.244,16.413-24.104,30.774-24.104c0.137,0,0.271,0.001,0.408,0.003
			c15.083,0.195,28.078,11.364,30.896,26.557c0.151,0.815-0.386,1.597-1.201,1.748C289.923,385.798,289.831,385.806,289.741,385.806
			z"/>
		<path style="fill:#263238;" d="M212.428,325.143c-1.974,0-3.692-1.461-3.96-3.472c-0.292-2.189,1.246-4.2,3.434-4.493l0,0
			c0.214-0.028,21.518-2.984,34.29-12.65c1.762-1.333,4.271-0.985,5.604,0.775c1.333,1.762,0.986,4.271-0.775,5.604
			c-14.473,10.952-37.103,14.074-38.059,14.201C212.782,325.132,212.604,325.143,212.428,325.143z"/>
		<path style="fill:#263238;" d="M303.801,329.991c-0.38,0-0.768-0.055-1.151-0.17c-19.089-5.727-37.37-19.061-38.139-19.626
			c-1.78-1.308-2.163-3.811-0.855-5.591c1.307-1.779,3.81-2.163,5.591-0.857c0.178,0.131,17.961,13.09,35.702,18.412
			c2.116,0.635,3.317,2.864,2.682,4.98C307.111,328.872,305.522,329.991,303.801,329.991z"/>
	</g>
</g>
<g id="Drops">
	<g>
		<g>
			<path style="fill:#FFFFFF;" d="M344.599,297.173c0,5.204-4.046,9.424-9.036,9.424s-9.036-4.219-9.036-9.424
				s9.036-20.783,9.036-20.783S344.599,291.969,344.599,297.173z"/>
			<path style="fill:#263238;" d="M335.563,307.097c-5.258,0-9.536-4.452-9.536-9.924c0-5.278,8.731-20.394,9.104-21.034
				l0.433-0.745l0.433,0.745c0.372,0.641,9.104,15.756,9.104,21.034C345.1,302.645,340.821,307.097,335.563,307.097z
				 M335.563,277.399c-1.792,3.174-8.536,15.406-8.536,19.773c0,4.921,3.829,8.924,8.536,8.924c4.707,0,8.537-4.003,8.537-8.924
				C344.1,292.806,337.356,280.573,335.563,277.399z"/>
		</g>
		<g>
			<path style="fill:#FFFFFF;" d="M358.48,316.98c0,3.534-2.747,6.399-6.136,6.399s-6.136-2.865-6.136-6.399
				s6.136-14.112,6.136-14.112S358.48,313.446,358.48,316.98z"/>
			<path style="fill:#263238;" d="M352.345,323.878c-3.659,0-6.636-3.095-6.636-6.898c0-3.627,5.95-13.927,6.203-14.363l0.433-0.745
				l0.433,0.745c0.253,0.436,6.203,10.736,6.203,14.363C358.981,320.783,356.004,323.878,352.345,323.878z M352.345,303.88
				c-1.388,2.474-5.636,10.274-5.636,13.1c0,3.252,2.528,5.898,5.636,5.898c3.107,0,5.636-2.646,5.636-5.898
				C357.981,314.154,353.733,306.353,352.345,303.88z"/>
		</g>
		<g>
			<path style="fill:#FFFFFF;" d="M196.337,358.933c0,3.534-2.747,6.399-6.136,6.399s-6.136-2.865-6.136-6.399
				c0-3.534,6.136-14.112,6.136-14.112S196.337,355.4,196.337,358.933z"/>
			<path style="fill:#263238;" d="M190.201,365.832c-3.659,0-6.636-3.095-6.636-6.898c0-3.627,5.95-13.927,6.203-14.363l0.433-0.745
				l0.433,0.745c0.253,0.436,6.203,10.736,6.203,14.363C196.837,362.737,193.861,365.832,190.201,365.832z M190.201,345.834
				c-1.388,2.474-5.636,10.274-5.636,13.1c0,3.252,2.528,5.898,5.636,5.898c3.107,0,5.636-2.647,5.636-5.898
				C195.837,356.108,191.589,348.308,190.201,345.834z"/>
		</g>
		<g>
			<path style="fill:#FFFFFF;" d="M293.419,246.547c0,3.534-2.747,6.399-6.136,6.399s-6.136-2.865-6.136-6.399
				s6.136-14.112,6.136-14.112S293.419,243.013,293.419,246.547z"/>
			<path style="fill:#263238;" d="M287.284,253.446c-3.659,0-6.636-3.095-6.636-6.899c0-3.627,5.95-13.927,6.204-14.363l0.433-0.746
				l0.433,0.746c0.253,0.437,6.203,10.736,6.203,14.363C293.919,250.352,290.943,253.446,287.284,253.446z M287.284,233.448
				c-1.388,2.473-5.636,10.274-5.636,13.1c0,3.252,2.528,5.899,5.636,5.899c3.107,0,5.635-2.646,5.635-5.899
				C292.919,243.722,288.672,235.921,287.284,233.448z"/>
		</g>
		<g>
			<path style="fill:#FFFFFF;" d="M223.621,233.427c0,3.534-2.747,6.399-6.136,6.399s-6.136-2.865-6.136-6.399
				s6.136-14.112,6.136-14.112S223.621,229.893,223.621,233.427z"/>
			<path style="fill:#263238;" d="M217.485,240.326c-3.659,0-6.636-3.095-6.636-6.899c0-3.626,5.95-13.926,6.203-14.363l0.433-0.746
				l0.433,0.746c0.253,0.437,6.203,10.736,6.203,14.363C224.121,237.231,221.145,240.326,217.485,240.326z M217.485,220.328
				c-1.388,2.473-5.636,10.274-5.636,13.099c0,3.253,2.528,5.899,5.636,5.899c3.107,0,5.636-2.646,5.636-5.899
				C223.121,230.602,218.873,222.801,217.485,220.328z"/>
		</g>
		<g>
			<path style="fill:#FFFFFF;" d="M270.061,435.935c0,3.534-2.747,6.399-6.136,6.399c-3.389,0-6.136-2.865-6.136-6.399
				c0-3.534,6.136-14.112,6.136-14.112S270.061,432.401,270.061,435.935z"/>
			<path style="fill:#263238;" d="M263.925,442.833c-3.659,0-6.636-3.095-6.636-6.898c0-3.627,5.95-13.927,6.203-14.363l0.433-0.745
				l0.433,0.745c0.253,0.437,6.203,10.736,6.203,14.363C270.561,439.738,267.585,442.833,263.925,442.833z M263.925,422.835
				c-1.388,2.474-5.636,10.274-5.636,13.1c0,3.252,2.528,5.898,5.636,5.898c3.107,0,5.636-2.647,5.636-5.898
				C269.561,433.109,265.313,425.309,263.925,422.835z"/>
		</g>
		<g>
			<path style="fill:#FFFFFF;" d="M198.868,293.485c0,3.534-2.747,6.399-6.136,6.399s-6.136-2.865-6.136-6.399
				c0-3.534,6.136-14.112,6.136-14.112S198.868,289.951,198.868,293.485z"/>
			<path style="fill:#263238;" d="M192.732,300.384c-3.659,0-6.636-3.095-6.636-6.898c0-3.627,5.95-13.927,6.203-14.363l0.433-0.745
				l0.433,0.745c0.253,0.436,6.203,10.736,6.203,14.363C199.368,297.289,196.391,300.384,192.732,300.384z M192.732,280.386
				c-1.388,2.474-5.636,10.274-5.636,13.1c0,3.252,2.528,5.898,5.636,5.898c3.107,0,5.636-2.646,5.636-5.898
				C198.368,290.66,194.12,282.859,192.732,280.386z"/>
		</g>
	</g>
</g>
<g id="Thermometer">
	<g>
		<g>
			<path style="fill:#FFFFFF;" d="M119.581,355.191V250.345c0-5.414-4.389-9.802-9.802-9.802l0,0c-5.414,0-9.802,4.389-9.802,9.802
				v104.24c-6.764,3.674-11.115,11.228-10.063,19.676c1.099,8.825,8.273,15.897,17.111,16.888
				c11.792,1.321,21.778-7.871,21.778-19.396C128.803,364.757,125.111,358.638,119.581,355.191z"/>
			<path style="fill:#263238;" d="M109.312,391.778c-0.775,0-1.557-0.044-2.343-0.132c-9.045-1.014-16.427-8.299-17.551-17.323
				c-1.021-8.192,2.922-16.021,10.059-20.032V250.345c0-5.681,4.622-10.302,10.302-10.302c5.681,0,10.302,4.622,10.302,10.302
				v104.571c5.78,3.712,9.222,9.985,9.222,16.837c0,5.692-2.435,11.134-6.681,14.931
				C118.902,390.01,114.245,391.778,109.312,391.778z M109.779,241.043c-5.129,0-9.302,4.173-9.302,9.302v104.539l-0.261,0.142
				c-6.938,3.768-10.787,11.294-9.805,19.175c1.068,8.57,8.079,15.489,16.67,16.452c5.502,0.616,10.786-1.057,14.875-4.714
				c4.034-3.607,6.348-8.777,6.348-14.186c0-6.597-3.359-12.629-8.987-16.138l-0.235-0.146V250.345
				C119.081,245.216,114.908,241.043,109.779,241.043z"/>
		</g>
		<g>
			<path style="fill:#92E3A9;" d="M113.332,357.19v-84.109h-7.105v83.852c-6.891,1.413-12.074,7.511-12.074,14.819
				c0,8.355,6.773,15.128,15.128,15.128s15.128-6.773,15.128-15.128C124.409,364.803,119.716,358.963,113.332,357.19z"/>
			<path style="fill:#263238;" d="M109.28,387.381c-8.617,0-15.628-7.011-15.628-15.628c0-7.252,5.053-13.588,12.074-15.222v-83.95
				h8.106v84.234c6.541,1.989,11.077,8.077,11.077,14.938C124.908,380.37,117.898,387.381,109.28,387.381z M106.726,273.581v83.761
				l-0.399,0.082c-6.765,1.387-11.674,7.413-11.674,14.329c0,8.065,6.562,14.628,14.628,14.628s14.628-6.563,14.628-14.628
				c0-6.54-4.404-12.33-10.71-14.081l-0.366-0.102v-83.989H106.726z"/>
		</g>
		<circle style="fill:#FFFFFF;" cx="103.156" cy="366.011" r="4.211"/>
		<path style="fill:#263238;" d="M108.132,262.007h-5.359c-0.276,0-0.5-0.224-0.5-0.5c0-0.276,0.224-0.5,0.5-0.5h5.359
			c0.276,0,0.5,0.224,0.5,0.5C108.632,261.783,108.408,262.007,108.132,262.007z"/>
		<path style="fill:#263238;" d="M108.132,270.045h-5.359c-0.276,0-0.5-0.224-0.5-0.5c0-0.276,0.224-0.5,0.5-0.5h5.359
			c0.276,0,0.5,0.224,0.5,0.5C108.632,269.821,108.408,270.045,108.132,270.045z"/>
		<path style="fill:#263238;" d="M108.132,278.084h-5.359c-0.276,0-0.5-0.224-0.5-0.5c0-0.276,0.224-0.5,0.5-0.5h5.359
			c0.276,0,0.5,0.224,0.5,0.5C108.632,277.86,108.408,278.084,108.132,278.084z"/>
		<path style="fill:#263238;" d="M108.132,286.123h-5.359c-0.276,0-0.5-0.224-0.5-0.5c0-0.276,0.224-0.5,0.5-0.5h5.359
			c0.276,0,0.5,0.224,0.5,0.5C108.632,285.899,108.408,286.123,108.132,286.123z"/>
		<path style="fill:#263238;" d="M108.132,294.162h-5.359c-0.276,0-0.5-0.224-0.5-0.5s0.224-0.5,0.5-0.5h5.359
			c0.276,0,0.5,0.224,0.5,0.5S108.408,294.162,108.132,294.162z"/>
		<path style="fill:#263238;" d="M108.132,302.2h-5.359c-0.276,0-0.5-0.224-0.5-0.5s0.224-0.5,0.5-0.5h5.359
			c0.276,0,0.5,0.224,0.5,0.5S108.408,302.2,108.132,302.2z"/>
		<path style="fill:#263238;" d="M108.132,310.239h-5.359c-0.276,0-0.5-0.224-0.5-0.5c0-0.276,0.224-0.5,0.5-0.5h5.359
			c0.276,0,0.5,0.224,0.5,0.5C108.632,310.016,108.408,310.239,108.132,310.239z"/>
		<path style="fill:#263238;" d="M108.132,318.278h-5.359c-0.276,0-0.5-0.224-0.5-0.5c0-0.276,0.224-0.5,0.5-0.5h5.359
			c0.276,0,0.5,0.224,0.5,0.5C108.632,318.055,108.408,318.278,108.132,318.278z"/>
		<path style="fill:#263238;" d="M108.132,326.317h-5.359c-0.276,0-0.5-0.224-0.5-0.5c0-0.276,0.224-0.5,0.5-0.5h5.359
			c0.276,0,0.5,0.224,0.5,0.5C108.632,326.094,108.408,326.317,108.132,326.317z"/>
		<path style="fill:#263238;" d="M108.132,334.355h-5.359c-0.276,0-0.5-0.224-0.5-0.5c0-0.276,0.224-0.5,0.5-0.5h5.359
			c0.276,0,0.5,0.224,0.5,0.5C108.632,334.132,108.408,334.355,108.132,334.355z"/>
		<path style="fill:#263238;" d="M108.132,342.395h-5.359c-0.276,0-0.5-0.224-0.5-0.5c0-0.276,0.224-0.5,0.5-0.5h5.359
			c0.276,0,0.5,0.224,0.5,0.5C108.632,342.171,108.408,342.395,108.132,342.395z"/>
		<path style="fill:#263238;" d="M108.132,350.434h-5.359c-0.276,0-0.5-0.224-0.5-0.5s0.224-0.5,0.5-0.5h5.359
			c0.276,0,0.5,0.224,0.5,0.5S108.408,350.434,108.132,350.434z"/>
	</g>
</g>
<g id="Arrow">
	<polygon style="fill:#263238;" points="96.368,290.947 84.803,270.916 73.238,290.947 81.545,290.947 81.545,354.955 
		88.061,354.955 88.061,290.947 	"/>
</g>
</svg>
