<?xml version="1.0" encoding="utf-8"?>
<!-- Generator: Adobe Illustrator 27.5.0, SVG Export Plug-In . SVG Version: 6.00 Build 0)  -->
<svg version="1.1" xmlns="http://www.w3.org/2000/svg" xmlns:xlink="http://www.w3.org/1999/xlink" x="0px" y="0px"
	 viewBox="0 0 500 500" style="enable-background:new 0 0 500 500;" xml:space="preserve">
<g id="Mountains">
	<g>
		<path style="fill:none;stroke:#263238;stroke-linecap:round;stroke-linejoin:round;stroke-miterlimit:10;" d="M18.585,282.563
			c0,0,99.652-58.268,120.29-54.381c20.638,3.887,105.03,18.005,105.03,18.005"/>
		<path style="fill:none;stroke:#263238;stroke-linecap:round;stroke-linejoin:round;stroke-miterlimit:10;" d="M184.302,272.947
			c0,0,150.129-70.897,166.123-68.305c15.994,2.591,133.492,85.93,133.492,85.93"/>
	</g>
</g>
<g id="Floor">
	<g>
		<path style="fill:#92E3A9;" d="M99.961,476.719c106.112,15.222,312.348,0.07,313.295,0c32.321-2.379,54.72-35.932,67.786-61.667
			c17.227-33.931,21.815-72.102,16.466-109.202H23.093C-4.594,356.115-0.542,462.302,99.961,476.719z"/>
		<path style="fill:none;stroke:#263238;stroke-linecap:round;stroke-linejoin:round;stroke-miterlimit:10;" d="M66.913,306.313
			l-7.476,12.077c0,0-9.776,4.026-11.502,4.601c-1.725,0.575-8.626,6.326-8.626,6.326l-1.725,8.051l-5.176,6.326l-11.502,5.176
			l-11.674,7.015"/>
		<polyline style="fill:none;stroke:#263238;stroke-linecap:round;stroke-linejoin:round;stroke-miterlimit:10;" points="
			59.437,318.389 80.78,324.779 92.134,323.36 107.272,311.534 114.84,306.33 114.84,306.33 		"/>
		<polyline style="fill:none;stroke:#263238;stroke-linecap:round;stroke-linejoin:round;stroke-miterlimit:10;" points="
			101.595,317.211 110.11,322.414 123.829,322.414 137.547,312.007 130.845,305.822 		"/>
		<polyline style="fill:none;stroke:#263238;stroke-linecap:round;stroke-linejoin:round;stroke-miterlimit:10;" points="
			80.78,324.779 82.673,336.133 91.661,341.336 100.176,342.283 106.326,338.498 119.098,329.037 123.829,322.414 		"/>
		
			<line style="fill:none;stroke:#263238;stroke-linecap:round;stroke-linejoin:round;stroke-miterlimit:10;" x1="137.547" y1="312.007" x2="159.308" y2="322.887"/>
		<polyline style="fill:none;stroke:#263238;stroke-linecap:round;stroke-linejoin:round;stroke-miterlimit:10;" points="
			147.488,316.651 152.212,312.48 156.943,311.534 160.254,306.803 		"/>
		<path style="fill:none;stroke:#263238;stroke-linecap:round;stroke-linejoin:round;stroke-miterlimit:10;" d="M217.035,305.947
			l-6.558,13.887l-6.558,11.958c0,0,6.943,6.943,8.101,6.943c1.157,0,30.86,8.486,30.86,8.486l18.902,15.43l1.543,7.715
			l-8.101,9.644l-20.83,7.329l-45.132,2.7l-3.857,3.472l-28.931,14.273l-6.558,15.43l2.314,13.501l-13.887,25.073l-10.801,16.973"/>
		<path style="fill:none;stroke:#263238;stroke-linecap:round;stroke-linejoin:round;stroke-miterlimit:10;" d="M171.134,312.953
			c0,0-1.546,5.724-1.931,7.267c-0.386,1.543-6.172,11.187-6.172,11.187l-4.629,7.715c0,0,1.157,5.786,1.929,7.715
			c0.771,1.929,12.344,12.73,12.344,14.273s3.086,6.172,3.086,6.172l-23.916,5.786c0,0-38.96,13.501-40.889,13.887
			c-1.929,0.386-22.759,13.115-22.759,13.115l-6.943,12.73c0,0-0.386,20.059-2.314,22.759c-1.929,2.7-18.13,15.044-18.13,15.044
			l-10.029,6.943"/>
		<polyline style="fill:none;stroke:#263238;stroke-linecap:round;stroke-linejoin:round;stroke-miterlimit:10;" points="
			53.094,361.881 109.798,362.266 130.243,346.451 114.041,333.721 		"/>
		<polyline style="fill:none;stroke:#263238;stroke-linecap:round;stroke-linejoin:round;stroke-miterlimit:10;" points="
			168.046,356.094 149.53,360.338 130.243,346.451 138.729,343.75 158.402,339.122 		"/>
		<polyline style="fill:none;stroke:#263238;stroke-linecap:round;stroke-linejoin:round;stroke-miterlimit:10;" points="
			109.798,362.266 88.196,400.069 65.052,386.954 57.722,377.696 53.094,361.881 82.673,336.133 		"/>
		<path style="fill:none;stroke:#263238;stroke-linecap:round;stroke-linejoin:round;stroke-miterlimit:10;" d="M53.094,361.881
			l-5.4-8.101c0,0-5.015-4.629-6.558-4.629s-8.727-5.458-8.727-5.458"/>
		<polyline style="fill:none;stroke:#263238;stroke-linecap:round;stroke-linejoin:round;stroke-miterlimit:10;" points="
			47.936,322.99 29.177,319.063 26.091,314.434 42.678,307.876 46.037,305.822 		"/>
		<polyline style="fill:none;stroke:#263238;stroke-linecap:round;stroke-linejoin:round;stroke-miterlimit:10;" points="
			29.177,319.063 21.077,326.392 14.519,326.778 		"/>
		<path style="fill:none;stroke:#263238;stroke-linecap:round;stroke-linejoin:round;stroke-miterlimit:10;" d="M65.052,386.954
			l-19.673,14.273c0,0-14.273-2.7-15.43-2.7c-1.157,0-9.258,1.157-9.258,1.157l-7.715,4.629"/>
		<polyline style="fill:none;stroke:#263238;stroke-linecap:round;stroke-linejoin:round;stroke-miterlimit:10;" points="
			163.031,331.407 179.232,323.692 191.962,325.62 205.077,327.163 		"/>
		<polyline style="fill:none;stroke:#263238;stroke-linecap:round;stroke-linejoin:round;stroke-miterlimit:10;" points="
			179.232,323.692 194.662,320.22 193.505,313.662 191.476,306.33 171.134,312.953 159.308,322.887 150.32,334.714 141.332,334.714 
			119.098,329.037 		"/>
		
			<line style="fill:none;stroke:#263238;stroke-linecap:round;stroke-linejoin:round;stroke-miterlimit:10;" x1="194.662" y1="320.22" x2="213.95" y2="310.962"/>
		<polyline style="fill:none;stroke:#263238;stroke-linecap:round;stroke-linejoin:round;stroke-miterlimit:10;" points="
			163.031,349.151 174.218,348.379 196.591,344.908 203.92,331.792 256.767,332.178 250.595,318.291 239.023,305.947 		"/>
		<polyline style="fill:none;stroke:#263238;stroke-linecap:round;stroke-linejoin:round;stroke-miterlimit:10;" points="
			196.591,344.908 209.321,355.323 236.709,355.323 242.88,347.222 256.382,339.893 276.055,332.95 294.185,327.163 294.57,305.176 
					"/>
		<polyline style="fill:none;stroke:#263238;stroke-linecap:round;stroke-linejoin:round;stroke-miterlimit:10;" points="
			209.321,355.323 194.276,373.839 175.761,367.281 		"/>
		<polyline style="fill:none;stroke:#263238;stroke-linecap:round;stroke-linejoin:round;stroke-miterlimit:10;" points="
			156.473,407.784 156.088,383.868 134.486,379.239 149.53,360.338 		"/>
		<polyline style="fill:none;stroke:#263238;stroke-linecap:round;stroke-linejoin:round;stroke-miterlimit:10;" points="
			252.138,353.78 256.767,353.008 256.767,332.178 266.797,306.333 		"/>
		<polyline style="fill:none;stroke:#263238;stroke-linecap:round;stroke-linejoin:round;stroke-miterlimit:10;" points="
			256.767,353.008 279.905,352.056 284.73,330.121 		"/>
		<polyline style="fill:none;stroke:#263238;stroke-linecap:round;stroke-linejoin:round;stroke-miterlimit:10;" points="
			279.905,352.056 290.433,366.094 310.613,370.042 322.458,358.197 324.212,339.772 294.185,327.163 		"/>
		<polyline style="fill:none;stroke:#263238;stroke-linecap:round;stroke-linejoin:round;stroke-miterlimit:10;" points="
			353.605,305.993 349.218,330.56 324.212,339.772 337.812,349.423 349.218,351.178 358.43,342.405 349.218,330.56 		"/>
		<polyline style="fill:none;stroke:#263238;stroke-linecap:round;stroke-linejoin:round;stroke-miterlimit:10;" points="
			321.58,306.432 316.316,313.012 325.09,321.347 349.218,330.56 378.61,331.876 387.503,305.855 		"/>
		
			<line style="fill:none;stroke:#263238;stroke-linecap:round;stroke-linejoin:round;stroke-miterlimit:10;" x1="413.706" y1="330.56" x2="383.874" y2="341.088"/>
		<polyline style="fill:none;stroke:#263238;stroke-linecap:round;stroke-linejoin:round;stroke-miterlimit:10;" points="
			368.082,366.971 354.043,377.5 326.406,373.113 322.458,358.197 		"/>
		
			<line style="fill:none;stroke:#263238;stroke-linecap:round;stroke-linejoin:round;stroke-miterlimit:10;" x1="364.133" y1="358.197" x2="374.223" y2="353.372"/>
		<path style="fill:none;stroke:#263238;stroke-linecap:round;stroke-linejoin:round;stroke-miterlimit:10;" d="M422.918,349.423
			l18.738-5.533c0,0,4.346-11.517,4.346-12.169c0-0.652-8.258-11.3-8.258-11.3l-10.44-1.707"/>
		<polyline style="fill:none;stroke:#263238;stroke-linecap:round;stroke-linejoin:round;stroke-miterlimit:10;" points="
			437.745,320.422 447.741,319.77 450.783,312.816 453.608,306.297 		"/>
		<polyline style="fill:none;stroke:#263238;stroke-linecap:round;stroke-linejoin:round;stroke-miterlimit:10;" points="
			447.741,319.77 457.954,329.114 454.26,332.591 446.002,331.722 		"/>
		<polyline style="fill:none;stroke:#263238;stroke-linecap:round;stroke-linejoin:round;stroke-miterlimit:10;" points="
			454.26,332.591 462.735,356.929 470.341,357.146 486.204,345.412 484.683,327.593 479.902,324.333 464.039,324.768 
			457.954,329.114 		"/>
		<polyline style="fill:none;stroke:#263238;stroke-linecap:round;stroke-linejoin:round;stroke-miterlimit:10;" points="
			472.296,306.297 478.815,311.512 479.902,324.333 488.594,314.989 491.854,311.295 493.375,306.514 		"/>
		<polyline style="fill:none;stroke:#263238;stroke-linecap:round;stroke-linejoin:round;stroke-miterlimit:10;" points="
			486.204,345.412 493.375,350.627 495.983,358.45 497.286,362.796 		"/>
		<polyline style="fill:none;stroke:#263238;stroke-linecap:round;stroke-linejoin:round;stroke-miterlimit:10;" points="
			462.735,356.929 454.26,372.575 438.831,377.356 432.964,367.36 422.479,375.306 		"/>
		<polyline style="fill:none;stroke:#263238;stroke-linecap:round;stroke-linejoin:round;stroke-miterlimit:10;" points="
			441.656,343.891 450.566,357.798 432.964,367.36 		"/>
		<polyline style="fill:none;stroke:#263238;stroke-linecap:round;stroke-linejoin:round;stroke-miterlimit:10;" points="
			450.566,357.798 454.26,372.575 468.168,388.221 472.948,386.048 477.729,376.921 		"/>
		<polyline style="fill:none;stroke:#263238;stroke-linecap:round;stroke-linejoin:round;stroke-miterlimit:10;" points="
			438.831,377.356 439.483,386.483 465.777,399.086 470.775,399.956 481.641,385.613 491.854,386.265 		"/>
		
			<line style="fill:none;stroke:#263238;stroke-linecap:round;stroke-linejoin:round;stroke-miterlimit:10;" x1="470.341" y1="357.146" x2="481.641" y2="385.613"/>
		
			<line style="fill:none;stroke:#263238;stroke-linecap:round;stroke-linejoin:round;stroke-miterlimit:10;" x1="472.948" y1="386.048" x2="477.946" y2="390.394"/>
		
			<line style="fill:none;stroke:#263238;stroke-linecap:round;stroke-linejoin:round;stroke-miterlimit:10;" x1="493.375" y1="350.627" x2="499.46" y2="344.977"/>
		<polyline style="fill:none;stroke:#263238;stroke-linecap:round;stroke-linejoin:round;stroke-miterlimit:10;" points="
			484.683,327.593 492.288,331.939 499.025,322.595 		"/>
		
			<line style="fill:none;stroke:#263238;stroke-linecap:round;stroke-linejoin:round;stroke-miterlimit:10;" x1="492.288" y1="331.939" x2="499.46" y2="337.372"/>
		
			<line style="fill:none;stroke:#263238;stroke-linecap:round;stroke-linejoin:round;stroke-miterlimit:10;" x1="194.276" y1="373.839" x2="189.262" y2="390.04"/>
		<polyline style="fill:none;stroke:#263238;stroke-linecap:round;stroke-linejoin:round;stroke-miterlimit:10;" points="
			263.325,370.367 273.288,377.797 287.913,375.011 290.433,366.094 		"/>
		<polyline style="fill:none;stroke:#263238;stroke-linecap:round;stroke-linejoin:round;stroke-miterlimit:10;" points="
			287.913,375.011 288.261,391.378 308.109,397.297 323.431,396.601 326.406,373.113 		"/>
		<path style="fill:none;stroke:#263238;stroke-linecap:round;stroke-linejoin:round;stroke-miterlimit:10;" d="M310.613,370.042
			l-4.245,8.8l10.098,12.884l6.964-3.482l16.366,0.348c0,0,3.482,1.045,4.179-0.348c0.697-1.393,10.068-10.744,10.068-10.744
			l10.09-19.302l-5.703-15.793l16.67-1.316l3.51-9.213l5.264,9.213l-9.651,12.283l-6.142,13.599l21.057,11.406l33.34-3.071
			c0,0,1.755-23.689,0.439-25.883c-1.316-2.193-9.212-18.864-9.212-18.864l13.599-11.845l-11.406-12.283"/>
		
			<line style="fill:none;stroke:#263238;stroke-linecap:round;stroke-linejoin:round;stroke-miterlimit:10;" x1="316.467" y1="391.726" x2="308.109" y2="397.297"/>
		<polyline style="fill:none;stroke:#263238;stroke-linecap:round;stroke-linejoin:round;stroke-miterlimit:10;" points="
			343.976,388.244 345.717,405.655 329.003,413.315 322.386,403.217 323.431,396.601 		"/>
		<polyline style="fill:none;stroke:#263238;stroke-linecap:round;stroke-linejoin:round;stroke-miterlimit:10;" points="
			273.288,377.797 263.538,392.422 272.243,408.092 289.654,408.44 294.877,400.083 299.056,394.86 		"/>
		<polyline style="fill:none;stroke:#263238;stroke-linecap:round;stroke-linejoin:round;stroke-miterlimit:10;" points="
			289.654,408.44 290.35,435.601 309.154,440.825 322.386,438.387 327.61,422.369 329.003,413.315 		"/>
		<polyline style="fill:none;stroke:#263238;stroke-linecap:round;stroke-linejoin:round;stroke-miterlimit:10;" points="
			272.243,408.092 253.091,432.467 256.921,439.78 274.332,446.048 284.779,442.217 290.35,435.601 		"/>
		<polyline style="fill:none;stroke:#263238;stroke-linecap:round;stroke-linejoin:round;stroke-miterlimit:10;" points="
			263.538,392.422 248.912,400.431 234.394,387.34 234.635,384.762 236.028,371.877 236.709,355.323 		"/>
		<polyline style="fill:none;stroke:#263238;stroke-linecap:round;stroke-linejoin:round;stroke-miterlimit:10;" points="
			248.912,400.431 230.457,417.494 207.474,413.315 191.456,390.333 		"/>
		<polyline style="fill:none;stroke:#263238;stroke-linecap:round;stroke-linejoin:round;stroke-miterlimit:10;" points="
			207.474,413.315 185.188,433.164 166.036,429.333 173.001,412.619 166.733,403.565 		"/>
		<polyline style="fill:none;stroke:#263238;stroke-linecap:round;stroke-linejoin:round;stroke-miterlimit:10;" points="
			193.894,426.199 201.903,443.262 188.671,458.236 171.608,454.753 166.036,429.333 152.23,436.715 133.329,440.958 
			122.913,430.543 100.155,423.986 78.938,435.558 87.79,456.485 120.219,463.479 135.797,465.069 		"/>
		<polyline style="fill:none;stroke:#263238;stroke-linecap:round;stroke-linejoin:round;stroke-miterlimit:10;" points="
			143.75,453.012 171.608,454.753 171.956,472.513 198.769,479.129 199.813,482.263 		"/>
		
			<line style="fill:none;stroke:#263238;stroke-linecap:round;stroke-linejoin:round;stroke-miterlimit:10;" x1="171.956" y1="472.513" x2="157.679" y2="481.566"/>
		<polyline style="fill:none;stroke:#263238;stroke-linecap:round;stroke-linejoin:round;stroke-miterlimit:10;" points="
			201.903,443.262 217.573,458.932 231.85,445.003 230.457,417.494 		"/>
		<polyline style="fill:none;stroke:#263238;stroke-linecap:round;stroke-linejoin:round;stroke-miterlimit:10;" points="
			231.85,445.003 246.127,450.575 256.921,439.78 		"/>
		<polyline style="fill:none;stroke:#263238;stroke-linecap:round;stroke-linejoin:round;stroke-miterlimit:10;" points="
			217.573,458.932 217.573,468.334 235.68,472.861 242.296,470.075 246.475,459.977 246.127,450.575 		"/>
		
			<line style="fill:none;stroke:#263238;stroke-linecap:round;stroke-linejoin:round;stroke-miterlimit:10;" x1="217.573" y1="468.334" x2="198.769" y2="479.129"/>
		
			<line style="fill:none;stroke:#263238;stroke-linecap:round;stroke-linejoin:round;stroke-miterlimit:10;" x1="235.68" y1="472.861" x2="236.028" y2="482.611"/>
		<polyline style="fill:none;stroke:#263238;stroke-linecap:round;stroke-linejoin:round;stroke-miterlimit:10;" points="
			246.475,459.977 252.046,464.852 275.029,463.459 285.475,475.995 288.957,482.263 		"/>
		
			<line style="fill:none;stroke:#263238;stroke-linecap:round;stroke-linejoin:round;stroke-miterlimit:10;" x1="275.029" y1="463.459" x2="274.332" y2="446.048"/>
		<polyline style="fill:none;stroke:#263238;stroke-linecap:round;stroke-linejoin:round;stroke-miterlimit:10;" points="
			309.154,440.825 308.109,459.28 295.225,466.941 281.297,470.771 		"/>
		<polyline style="fill:none;stroke:#263238;stroke-linecap:round;stroke-linejoin:round;stroke-miterlimit:10;" points="
			308.109,459.28 316.467,465.548 337.708,464.852 348.851,479.477 		"/>
		
			<line style="fill:none;stroke:#263238;stroke-linecap:round;stroke-linejoin:round;stroke-miterlimit:10;" x1="316.467" y1="465.548" x2="311.94" y2="481.914"/>
		<polyline style="fill:none;stroke:#263238;stroke-linecap:round;stroke-linejoin:round;stroke-miterlimit:10;" points="
			322.386,438.387 338.753,432.467 362.083,453.709 347.11,463.807 337.708,464.852 		"/>
		<polyline style="fill:none;stroke:#263238;stroke-linecap:round;stroke-linejoin:round;stroke-miterlimit:10;" points="
			338.753,432.467 344.324,420.976 345.717,405.655 356.164,411.226 370.789,419.932 378.798,437.691 371.485,445.003 
			362.083,453.709 373.574,473.905 373.574,478.78 		"/>
		<polyline style="fill:none;stroke:#263238;stroke-linecap:round;stroke-linejoin:round;stroke-miterlimit:10;" points="
			378.798,437.691 395.164,434.557 407.352,450.575 413.968,464.155 400.039,475.298 395.861,477.736 		"/>
		<polyline style="fill:none;stroke:#263238;stroke-linecap:round;stroke-linejoin:round;stroke-miterlimit:10;" points="
			370.789,419.932 384.021,408.789 386.459,389.985 389.139,378.377 		"/>
		<polyline style="fill:none;stroke:#263238;stroke-linecap:round;stroke-linejoin:round;stroke-miterlimit:10;" points="
			384.021,408.789 402.477,409.137 410.137,402.521 414.664,395.208 422.479,375.306 		"/>
		<polyline style="fill:none;stroke:#263238;stroke-linecap:round;stroke-linejoin:round;stroke-miterlimit:10;" points="
			402.477,409.137 413.968,422.369 402.128,437.691 395.164,434.557 		"/>
		<polyline style="fill:none;stroke:#263238;stroke-linecap:round;stroke-linejoin:round;stroke-miterlimit:10;" points="
			413.968,422.369 432.772,419.932 439.483,386.483 		"/>
		<polyline style="fill:none;stroke:#263238;stroke-linecap:round;stroke-linejoin:round;stroke-miterlimit:10;" points="
			432.772,419.932 451.227,432.816 462.37,425.503 459.236,404.61 462.083,397.348 468.168,388.221 		"/>
		
			<line style="fill:none;stroke:#263238;stroke-linecap:round;stroke-linejoin:round;stroke-miterlimit:10;" x1="462.37" y1="425.503" x2="473.165" y2="427.941"/>
		<polyline style="fill:none;stroke:#263238;stroke-linecap:round;stroke-linejoin:round;stroke-miterlimit:10;" points="
			451.227,432.816 444.263,454.057 428.245,455.102 413.968,464.155 		"/>
		
			<line style="fill:none;stroke:#263238;stroke-linecap:round;stroke-linejoin:round;stroke-miterlimit:10;" x1="444.263" y1="454.057" x2="446.352" y2="460.325"/>
		<polyline style="fill:none;stroke:#263238;stroke-linecap:round;stroke-linejoin:round;stroke-miterlimit:10;" points="
			134.486,379.239 117.993,404.027 131.664,425.01 149.916,423.214 		"/>
		
			<line style="fill:none;stroke:#263238;stroke-linecap:round;stroke-linejoin:round;stroke-miterlimit:10;" x1="131.664" y1="425.01" x2="122.913" y2="430.543"/>
		
			<line style="fill:none;stroke:#263238;stroke-linecap:round;stroke-linejoin:round;stroke-miterlimit:10;" x1="81.253" y1="412.799" x2="45.379" y2="401.227"/>
		
			<line style="fill:none;stroke:#263238;stroke-linecap:round;stroke-linejoin:round;stroke-miterlimit:10;" x1="87.79" y1="456.485" x2="83.021" y2="472.381"/>
		<polyline style="fill:none;stroke:#263238;stroke-linecap:round;stroke-linejoin:round;stroke-miterlimit:10;" points="
			29.949,398.526 35.968,381.772 45.188,375.731 57.722,377.696 		"/>
	</g>
</g>
<g id="Trees">
	<path style="fill:#263238;" d="M128.739,284.814c0,0,2.64,11.402,2.64,12.669c0,1.099-0.744,6.96-0.942,8.494h6.363l-0.731-9.355
		l-2.024-8.492l3.486-2.447l9.222-8.924l0.45-5.469l3.149-9.499l-3.711,6.045l-0.225-4.75l-3.036-4.894c0,0,1.574,5.901,1.574,6.333
		c0,0.432,0.45,10.795,0.45,10.795l-6.635,5.901l-6.86,4.318l-1.237-3.022l-0.337-2.879l3.486-1.439l3.824-1.583l2.137-3.742
		l-4.161,2.879l-4.499,1.151l1.012-2.159l5.848-6.333l0.562-3.886l-1.35,2.879l-6.411,7.052l-3.261,4.606l-3.149-4.606l-1.912-3.742
		l1.912-2.303l5.286-3.886l-5.623,1.727l0.9-3.022l3.037-3.598l-0.562-8.636l-0.9,8.06l-5.174,6.189l-1.462,2.735l-3.262-6.045
		l-2.723-7.525l1.32,8.023l8.249,14.78L128.739,284.814z"/>
	<polygon style="fill:#263238;" points="420.966,181.829 425.01,200.636 431.075,209.715 446.574,222.686 440.509,244.087 
		425.01,263.542 416.249,284.944 412.206,305.696 429.727,305.696 429.053,284.944 432.422,265.488 444.552,260.3 465.442,255.76 
		475.551,244.087 462.931,253.424 439.362,257.602 444.945,247.455 450.527,231.339 461.071,227.758 466.343,217.312 
		458.28,224.773 453.318,226.266 452.387,220.296 469.754,206.27 472.235,198.808 464.172,206.866 451.457,198.808 460.45,208.956 
		448.976,218.506 435.951,209.851 428.508,199.405 434.401,192.839 427.888,194.332 	"/>
</g>
<g id="Clouds">
	<path style="fill:none;stroke:#263238;stroke-linecap:round;stroke-linejoin:round;stroke-miterlimit:10;" d="M280.1,27.031
		c0,0-7.715-13.716-15.431-12.001c-7.715,1.715-12.43,8.573-12.43,8.573s-5.144-3.858-9.43-2.143
		c-4.286,1.715-8.144,7.287-8.144,7.287s-3.858-3.858-6.858-1.715c-3,2.143-6.001,4.715-6.001,4.715s-7.715,0-8.573,1.286
		c-0.857,1.286-0.857,1.286-0.857,1.286h82.296c0,0-2.572-7.715-7.287-8.144S280.1,27.031,280.1,27.031z"/>
	<path style="fill:none;stroke:#263238;stroke-linecap:round;stroke-linejoin:round;stroke-miterlimit:10;" d="M107.158,165.096
		c0,0-5.893-10.477-11.787-9.167c-5.893,1.31-9.495,6.548-9.495,6.548s-3.929-2.947-7.203-1.637
		c-3.274,1.31-6.221,5.566-6.221,5.566s-2.947-2.947-5.239-1.31c-2.292,1.637-4.584,3.601-4.584,3.601s-5.893,0-6.548,0.982
		c-0.655,0.982-0.655,0.982-0.655,0.982h62.862c0,0-1.965-5.893-5.566-6.221C109.122,164.113,107.158,165.096,107.158,165.096z"/>
	<path style="fill:none;stroke:#263238;stroke-linecap:round;stroke-linejoin:round;stroke-miterlimit:10;" d="M449.305,165.096
		c0,0-5.893-10.477-11.787-9.167c-5.893,1.31-9.495,6.548-9.495,6.548s-3.929-2.947-7.203-1.637
		c-3.274,1.31-6.221,5.566-6.221,5.566s-2.947-2.947-5.238-1.31c-2.292,1.637-4.584,3.601-4.584,3.601s-5.893,0-6.548,0.982
		c-0.655,0.982-0.655,0.982-0.655,0.982h62.862c0,0-1.964-5.893-5.566-6.221C451.269,164.113,449.305,165.096,449.305,165.096z"/>
	<path style="fill:none;stroke:#263238;stroke-linecap:round;stroke-linejoin:round;stroke-miterlimit:10;" d="M298.665,194.193
		c0,0-12.908-22.947-25.816-20.079c-12.908,2.868-20.796,14.342-20.796,14.342s-8.605-6.454-15.776-3.586
		c-7.171,2.868-13.625,12.191-13.625,12.191s-6.454-6.454-11.474-2.868c-5.02,3.586-10.04,7.888-10.04,7.888s-12.908,0-14.342,2.151
		c-1.434,2.151-1.434,2.151-1.434,2.151h137.684c0,0-4.303-12.908-12.191-13.625C302.968,192.042,298.665,194.193,298.665,194.193z"
		/>
</g>
<g id="Sun">
	<g>
		
			<circle style="fill:#92E3A9;stroke:#263238;stroke-linecap:round;stroke-linejoin:round;stroke-miterlimit:10;" cx="90.069" cy="46.233" r="16.968"/>
		
			<line style="fill:none;stroke:#263238;stroke-linecap:round;stroke-linejoin:round;stroke-miterlimit:10;" x1="90.069" y1="70.27" x2="90.069" y2="85.824"/>
		
			<line style="fill:none;stroke:#263238;stroke-linecap:round;stroke-linejoin:round;stroke-miterlimit:10;" x1="90.069" y1="8.763" x2="90.069" y2="24.317"/>
		
			<line style="fill:none;stroke:#263238;stroke-linecap:round;stroke-linejoin:round;stroke-miterlimit:10;" x1="67.092" y1="47.293" x2="51.539" y2="47.293"/>
		
			<line style="fill:none;stroke:#263238;stroke-linecap:round;stroke-linejoin:round;stroke-miterlimit:10;" x1="128.6" y1="47.293" x2="113.046" y2="47.293"/>
		
			<line style="fill:none;stroke:#263238;stroke-linecap:round;stroke-linejoin:round;stroke-miterlimit:10;" x1="73.822" y1="63.541" x2="62.824" y2="74.539"/>
		
			<line style="fill:none;stroke:#263238;stroke-linecap:round;stroke-linejoin:round;stroke-miterlimit:10;" x1="117.314" y1="20.048" x2="106.316" y2="31.046"/>
		
			<line style="fill:none;stroke:#263238;stroke-linecap:round;stroke-linejoin:round;stroke-miterlimit:10;" x1="73.822" y1="31.046" x2="62.824" y2="20.048"/>
		
			<line style="fill:none;stroke:#263238;stroke-linecap:round;stroke-linejoin:round;stroke-miterlimit:10;" x1="117.314" y1="74.539" x2="106.316" y2="63.541"/>
	</g>
</g>
<g id="Character">
	<g>
		<ellipse style="fill:#263238;" cx="377.738" cy="322.526" rx="52.648" ry="7.814"/>
		<g>
			<path style="fill:#BABABA;stroke:#263238;stroke-linecap:round;stroke-linejoin:round;stroke-miterlimit:10;" d="M350.641,74.812
				c0,0-2.826,4.295-3.956,7.121c-1.13,2.826-2.035,4.634-2.035,4.634s-13.564,12.433-17.406,17.407
				c-3.843,4.973-6.217,10.06-7.573,14.581c-1.356,4.521-1.809,6.104-0.565,7.008c1.243,0.904,2.826,1.469,2.826,1.469
				s1.582,1.017,4.069,1.695c2.487,0.678,5.086,1.469,5.086,1.469s4.747-10.851,5.764-11.981s4.182-7.008,6.895-15.824
				s7.121-14.355,7.573-15.033c0.452-0.678,4.634-1.922,6.104-2.713c1.469-0.791,5.378-3.768,5.878-4.86
				c0.499-1.092,3.956-1.356,3.956-1.356l-0.544-5.089l-4.429-0.788l-5.764,1.695c0,0-3.877-2.129-4.764-1.064
				C350.867,74.247,350.641,74.812,350.641,74.812z"/>
			<path style="fill:#666666;stroke:#263238;stroke-linecap:round;stroke-linejoin:round;stroke-miterlimit:10;" d="
				M350.536,321.364c0,0-1.247-0.519-0.608,1.4c0.64,1.919,4.371,2.665,9.702,2.239c5.331-0.427,8.636-2.559,9.809-2.879
				c1.173-0.32,6.184,0,7.676-1.066c1.493-1.066-0.474-4.209-0.474-4.209s1.008-1.548-5.816,0.904
				c-6.823,2.452-16.312,3.305-17.378,3.518C352.381,321.484,350.536,321.364,350.536,321.364z"/>
			<path style="fill:#BABABA;stroke:#263238;stroke-linecap:round;stroke-linejoin:round;stroke-miterlimit:10;" d="
				M356.744,222.446c0,0,3.923,21.234,4.924,27.642c1.001,6.408-1.52,6.799,1.283,13.807c2.803,7.008,1.7,12.645,2.1,20.854
				c0.4,8.21-0.098,22.197-0.098,22.197s-3.204,4.205-3.805,4.806s-2.803,2.803-7.208,4.806c-4.405,2.002-4.605,3.805-3.404,4.806
				c1.201,1.001,3.604,1.802,6.608,1.802c3.004,0,9.611-2.203,12.214-3.204c2.603-1.001,3.805,1.402,6.207-1.201
				c2.403-2.603,2.002-10.012,1.802-12.615c-0.2-2.603,0.792-13.987,0.792-13.987s0.609-14.247,1.41-18.052
				c0.801-3.805,0.801-6.207,0.801-10.612c0-4.405-1.802-20.024-1.802-20.024l2.803-18.021L356.744,222.446z"/>
			<path style="fill:none;stroke:#263238;stroke-linecap:round;stroke-linejoin:round;stroke-miterlimit:10;" d="M350.536,321.364
				c0,0,0.395-1.856,1.803-2.119c1.407-0.264,2.286,0.264,2.638,0.176c0.352-0.088,1.319-0.616,1.319-0.616"/>
			<path style="fill:#666666;stroke:#263238;stroke-linecap:round;stroke-linejoin:round;stroke-miterlimit:10;" d="
				M372.318,325.962c0,0-2.345,2.772,3.838,4.478c6.184,1.706,9.809,0.426,12.474-1.599c2.665-2.026,3.092-3.838,2.879-5.437
				c-0.213-1.599-1.173-4.798-1.173-4.798L372.318,325.962z"/>
			<g>
				<path style="fill:#BABABA;stroke:#263238;stroke-linecap:round;stroke-linejoin:round;stroke-miterlimit:10;" d="
					M372.773,226.363c0,0,0.85,11.484,1.851,16.49c1.001,5.006,2.524,9.759,2.544,12.833c0.01,1.614-0.601,3.204-0.2,5.607
					c0.401,2.403,2.603,6.808,2.603,6.808s1.316,13.125,1.201,16.62c-0.176,5.349-0.2,21.626-1.402,24.63
					c-1.201,3.004-1.602,6.207-3.805,9.411c-2.203,3.204-6.408,7.609,0.601,9.812c7.008,2.203,12.214-1.001,13.416-3.004
					c1.201-2.002,1.201-10.412,1.201-14.417s3.189-20.626,4.19-25.832c1.001-5.206,1.216-17.62-0.386-22.225
					c-1.602-4.605-2.603-6.007-2.603-8.41c0-2.403,4.205-29.435,4.205-29.435L372.773,226.363z"/>
				<path style="fill:none;stroke:#263238;stroke-linecap:round;stroke-linejoin:round;stroke-miterlimit:10;" d="M374.764,328.127
					c0,0-0.792-2.55,0-3.606c0.792-1.055,2.374-2.023,2.374-2.023l0.616-0.792"/>
				<path style="fill:none;stroke:#263238;stroke-linecap:round;stroke-linejoin:round;stroke-miterlimit:10;" d="M377.491,328.918
					c0,0-0.704-2.375,0.264-3.078c0.967-0.704,1.407-0.792,1.671-1.143c0.264-0.352,1.143-1.935,1.143-1.935"/>
				<path style="fill:none;stroke:#263238;stroke-linecap:round;stroke-linejoin:round;stroke-miterlimit:10;" d="M380.657,328.918
					c0,0-0.264-1.143,0.176-1.671c0.44-0.528,1.583-1.407,1.583-1.407l0.967-1.847"/>
				<path style="fill:none;stroke:#263238;stroke-linecap:round;stroke-linejoin:round;stroke-miterlimit:10;" d="M383.911,328.566
					c0,0-0.176-1.319,0.176-1.759c0.352-0.44,0.967-1.407,0.967-1.407"/>
			</g>
			<g>
				<path style="fill:#92E3A9;stroke:#263238;stroke-linecap:round;stroke-linejoin:round;stroke-miterlimit:10;" d="
					M352.739,201.822c0,0,0,11.013-0.801,13.015c-0.801,2.002-1.802,7.209-1.802,7.209s7.008,4.205,9.812,5.006
					c2.803,0.801,7.809,1.402,7.809,1.402s6.408,2.603,15.218,2.403c8.81-0.2,17.821-2.603,17.821-2.603s10.012-2.203,9.812-4.205
					c-0.2-2.002-4.806-26.231-4.806-26.231s-2.603-8.009-7.208-9.211c-4.605-1.201-9.011,4.405-21.826,4.806
					c-12.815,0.4-20.224-1.802-22.026,0.4C352.939,196.015,352.739,201.822,352.739,201.822z"/>
				<path style="fill:none;stroke:#263238;stroke-linecap:round;stroke-linejoin:round;stroke-miterlimit:10;" d="M367.835,214.334
					c-0.076-0.595-0.168-1.165-0.278-1.699"/>
				<path style="fill:none;stroke:#263238;stroke-linecap:round;stroke-linejoin:round;stroke-miterlimit:10;" d="M367.757,228.453
					c0,0,0.602-6.018,0.312-11.429"/>
				<path style="fill:none;stroke:#263238;stroke-linecap:round;stroke-linejoin:round;stroke-miterlimit:10;" d="M406.202,207.829
					c0,0-3.204,13.816-4.806,18.021"/>
				
					<line style="fill:none;stroke:#263238;stroke-linecap:round;stroke-linejoin:round;stroke-miterlimit:10;" x1="401.396" y1="219.242" x2="398.793" y2="224.849"/>
			</g>
			<path style="fill:#FFFFFF;stroke:#263238;stroke-linecap:round;stroke-linejoin:round;stroke-miterlimit:10;" d="
				M361.944,107.252c0,0-3.956,0.678-6.782,2.6c-2.826,1.921-10.851,6.217-10.851,6.217s-3.844-2.127-5.803-1.882
				c-5.31,0.664-9.343,9.455-9.682,13.186c-0.339,3.73,1.243,6.669,1.243,6.669l11.981,1.469l8.477,0.791
				c0,0-2.669,29.347-0.928,39.16c1.741,9.813,2.057,18.359,2.057,18.359l-1.741,9.654c0,0,10.287,7.439,25.165,4.432
				c14.877-3.007,21.525-3.798,21.525-3.798l2.69-8.705l2.532,7.913c0,0,3.957-1.583,5.065-1.899c1.108-0.317,1.899-0.95,1.899-0.95
				s-5.539-12.82-5.539-23.107s0.475-16.143,0.475-16.143s2.216-36.56-1.266-41.15c-3.482-4.59-2.849-3.324-5.065-6.489
				c-2.216-3.165-7.439-7.439-8.547-8.23c-1.108-0.791-11.728-2.703-11.728-2.703L361.944,107.252z"/>
			<g>
				<path style="fill:#BABABA;stroke:#263238;stroke-linecap:round;stroke-linejoin:round;stroke-miterlimit:10;" d="
					M389.087,95.912l0.724,11.393c0,0-2.978,3.755-6.992,7.769c-4.014,4.014-7.51,8.546-10.617,7.121
					c-3.108-1.424-2.978-5.956-2.849-7.51c0.129-1.554-1.165-4.273-1.165-4.273s6.474-3.237,8.934-7.769
					c2.46-4.532,9.452-24.342,11.783-24.731c2.331-0.388,4.143,2.978,4.273,7.251C393.307,89.437,389.087,95.912,389.087,95.912z"/>
				<g>
					<path style="fill:#BABABA;stroke:#263238;stroke-linecap:round;stroke-linejoin:round;stroke-miterlimit:10;" d="
						M375.587,62.259c0,0-4.753,0.285-5.134,1.806c-0.38,1.521,0.951,1.996,0.951,1.996s-2.662,4.373-3.803,6.369
						c-1.141,1.996-0.38,3.327-0.38,3.613c0,0.285-2.567,3.612-3.422,5.514c-0.856,1.901-1.616,2.757-0.951,3.137
						c0.665,0.38,2.187,1.711,2.187,1.711s-1.711,2.757-1.996,3.232c-0.285,0.475-0.285,1.141-0.095,1.426
						c0.19,0.285-2.187,6.56-2.662,9.031c-0.475,2.472-0.76,6.465,0.951,8.746s3.803,3.042,7.986,3.042s14.45-10.838,15.021-12.834
						c0.57-1.996,2.186-9.221,2.662-10.838c0.475-1.616,1.616-4.658,2.282-4.848c0.665-0.19,3.422-1.806,3.137,1.901
						c-0.285,3.708-2.472,5.894-2.852,6.179c-0.38,0.285-0.57,3.708-0.38,4.468c0.19,0.76,2.852-0.665,2.852-0.665
						s2.377-1.616,5.229-3.327c2.852-1.711,3.612-2.377,3.612-5.704c0-3.327,0-5.133,0-5.133s0.856-2.187,0.475-4.943
						c-0.38-2.757-1.331-5.039-4.658-8.176s-7.891-7.795-12.359-7.415C379.77,60.928,375.587,62.259,375.587,62.259z"/>
					<path style="fill:#263238;stroke:#263238;stroke-linecap:round;stroke-linejoin:round;stroke-miterlimit:10;" d="
						M396.597,67.963c-3.327-3.137-7.891-7.795-12.359-7.415c-4.468,0.38-8.651,1.711-8.651,1.711s-4.753,0.285-5.134,1.806
						c-0.38,1.521,0.951,1.996,0.951,1.996s1.331,0.951,5.134-0.475c3.803-1.426,7.415,1.046,8.841,2.091
						c1.426,1.046,2.852,2.377,0.665,3.708c-2.186,1.331-5.419,2.852-4.468,5.134c0.951,2.282,2.947,4.278,3.422,6.274
						c0.475,1.996-0.285,2.472-0.665,4.183c-0.38,1.711-1.996,2.757-1.996,2.757s-4.183,1.996-5.419,3.898
						c-1.236,1.901-2.282,2.947-2.757,3.327c-0.475,0.38-0.285-1.331-2.757-3.613c-2.472-2.282-4.088-4.943-5.134-5.514
						c-1.046-0.571-1.236-1.426-1.236-1.426s-1.711,2.757-1.996,3.232c-0.285,0.475-0.285,1.141-0.095,1.426
						c0.19,0.285-2.187,6.56-2.662,9.031c-0.475,2.472-0.76,6.465,0.951,8.746s3.803,3.042,7.986,3.042
						c4.183,0,14.45-10.838,15.02-12.834c0.57-1.996,2.186-9.221,2.662-10.838c0.475-1.616,1.616-4.658,2.282-4.848
						c0.665-0.19,3.422-1.806,3.137,1.901c-0.285,3.708-2.472,5.894-2.852,6.179c-0.38,0.285-0.57,3.708-0.38,4.468
						c0.19,0.76,2.852-0.665,2.852-0.665s2.377-1.616,5.229-3.327c2.852-1.711,3.612-2.377,3.612-5.704s0-5.134,0-5.134
						s0.856-2.187,0.475-4.943C400.875,73.382,399.924,71.1,396.597,67.963z"/>
					<path style="fill:#FFFFFF;stroke:#263238;stroke-linecap:round;stroke-linejoin:round;stroke-miterlimit:10;" d="
						M389.467,91.444c0,0-1.616,1.426-2.662,1.141"/>
				</g>
				<path style="fill:#263238;" d="M370.504,79.691c-0.149,0.741-0.571,1.281-0.941,1.206c-0.37-0.075-0.55-0.736-0.4-1.477
					c0.149-0.741,0.571-1.281,0.941-1.206C370.474,78.289,370.654,78.95,370.504,79.691z"/>
				<path style="fill:none;stroke:#263238;stroke-linecap:round;stroke-linejoin:round;stroke-miterlimit:10;" d="M368.237,81.38
					c0,0,0.152,0.912,2.129,2.585"/>
				<path style="fill:none;stroke:#263238;stroke-linecap:round;stroke-linejoin:round;stroke-miterlimit:10;" d="M373.407,76.971
					c0,0-4.271-2.028-6.773-0.482"/>
			</g>
			<g>
				<path style="fill:#BABABA;stroke:#263238;stroke-linecap:round;stroke-linejoin:round;stroke-miterlimit:10;" d="
					M349.314,77.198c0,0,2.126-3.385,2.44-4.015c0.315-0.63,1.102-0.945,2.362-0.945c1.26,0,4.881,5.275,6.062,5.983
					c1.181,0.708,2.126,1.889,1.811,2.362c-0.315,0.472-1.968,0.708-2.755,0.315s-2.44-2.362-3.228-2.992
					c-0.787-0.63-2.677-1.889-2.677-1.889"/>
				<path style="fill:#BABABA;stroke:#263238;stroke-linecap:round;stroke-linejoin:round;stroke-miterlimit:10;" d="
					M354.903,72.317c0,0,0.945-1.102,1.968-1.023c1.023,0.079,4.172,2.44,5.59,3.385c1.417,0.945,4.96,2.519,3.936,3.385
					c-1.023,0.866-1.968,0.945-2.598,0.63c-0.63-0.315-1.811-1.181-2.362-1.575c-0.551-0.394-3.779-2.126-3.779-2.126
					L354.903,72.317z"/>
				<path style="fill:#BABABA;stroke:#263238;stroke-linecap:round;stroke-linejoin:round;stroke-miterlimit:10;" d="
					M357.973,71.451c0,0,2.362-2.126,3.464-2.126c1.102,0,4.487,3.464,5.275,4.015c0.787,0.551,3.621,2.047,3.857,2.598
					c0.236,0.551-0.472,0.787-1.417,1.023c-0.945,0.236-1.732,0.079-2.519-0.472c-0.787-0.551-3.464-2.126-4.566-2.834
					c-1.102-0.708-2.283-1.023-2.283-1.023L357.973,71.451z"/>
				<path style="fill:#BABABA;stroke:#263238;stroke-linecap:round;stroke-linejoin:round;stroke-miterlimit:10;" d="
					M362.776,69.876c0,0,0.551-1.653,1.496-1.653c0.945,0,3.149,2.755,4.015,3.543c0.866,0.787,2.283,2.677,2.283,3.149
					c0,0.472,0,1.024,0,1.024s-1.338-1.181-1.811-1.496c-0.472-0.315-2.598-1.575-3.07-2.047
					C365.216,71.923,362.776,69.876,362.776,69.876z"/>
			</g>
			<path style="fill:none;stroke:#263238;stroke-linecap:round;stroke-linejoin:round;stroke-miterlimit:10;" d="M351.182,135.102
				c0,0,1.899-14.402,3.957-19.309"/>
			<path style="fill:none;stroke:#263238;stroke-linecap:round;stroke-linejoin:round;stroke-miterlimit:10;" d="M350.391,117.376
				c0,0-0.158,10.129-0.158,15.827"/>
			<path style="fill:none;stroke:#263238;stroke-linecap:round;stroke-linejoin:round;stroke-miterlimit:10;" d="M344.377,119.275
				c0,0,1.741,6.014,2.374,6.964"/>
			<path style="fill:none;stroke:#263238;stroke-linecap:round;stroke-linejoin:round;stroke-miterlimit:10;" d="M341.37,123.865
				c0,0,5.381,6.805,7.122,8.072"/>
			<path style="fill:none;stroke:#263238;stroke-linecap:round;stroke-linejoin:round;stroke-miterlimit:10;" d="M380.62,127.663
				c0,0,2.216,9.021,5.539,13.928"/>
			
				<line style="fill:none;stroke:#263238;stroke-linecap:round;stroke-linejoin:round;stroke-miterlimit:10;" x1="377.613" y1="130.195" x2="380.62" y2="135.735"/>
			<path style="fill:#FFFFFF;stroke:#263238;stroke-linecap:round;stroke-linejoin:round;stroke-miterlimit:10;" d="
				M397.397,116.742c0,0-6.964,4.273-8.23,13.295c-1.266,9.021-1.583,17.726-2.374,19.942c-0.791,2.216-1.583,5.856-1.583,5.856
				s2.69,2.849,12.345,3.798c9.654,0.95,16.143-2.374,16.143-2.374s-0.633-3.482-1.899-14.402
				c-1.266-10.921-0.791-18.992-4.906-23.107C402.778,115.635,400.404,114.685,397.397,116.742z"/>
			
				<line style="fill:none;stroke:#263238;stroke-width:4;stroke-linecap:round;stroke-linejoin:round;stroke-miterlimit:10;" x1="368.564" y1="123.407" x2="325.959" y2="321.615"/>
			<g>
				<path style="fill:none;stroke:#263238;stroke-linecap:round;stroke-linejoin:round;stroke-miterlimit:10;" d="M380.146,139.85
					c0,0,3.324,3.324,7.597,5.381"/>
				<path style="fill:#BABABA;stroke:#263238;stroke-linecap:round;stroke-linejoin:round;stroke-miterlimit:10;" d="
					M385.21,155.835c0,0-7.439-2.216-10.129-4.906c-2.691-2.691-7.913-10.921-8.388-12.503c-0.475-1.583-1.899-1.583-1.899-1.583
					s-9.338,5.381-9.18,6.489c0.158,1.108,1.583,2.216,1.583,2.216s-0.633,1.899-0.475,2.849c0.158,0.95,2.057,1.266,2.849,1.266
					c0.791,0,2.374,0.158,2.374,0.158s-2.057,1.108-3.324,1.266c-1.266,0.158-2.532,0.317-2.532,1.266c0,0.95,0.95,1.583,3.64,1.424
					c2.691-0.158,3.957,0.316,3.957,0.316s0.316,0.475,3.324,1.583c3.007,1.108,5.539,1.583,5.539,1.583s9.971,9.338,17.884,12.345
					c7.913,3.007,13.453,5.381,15.827,3.798S408.634,159,408.634,159L385.21,155.835z"/>
				
					<line style="fill:none;stroke:#263238;stroke-linecap:round;stroke-linejoin:round;stroke-miterlimit:10;" x1="361.945" y1="149.82" x2="365.262" y2="149.049"/>
				<path style="fill:none;stroke:#263238;stroke-linecap:round;stroke-linejoin:round;stroke-miterlimit:10;" d="M357.038,147.13
					c0,0,5.539-2.374,8.23-2.374"/>
				<path style="fill:none;stroke:#263238;stroke-linecap:round;stroke-linejoin:round;stroke-miterlimit:10;" d="M357.197,145.547
					c0,0,5.223-4.273,7.755-4.431"/>
			</g>
			<path style="fill:#263238;stroke:#263238;stroke-linecap:round;stroke-linejoin:round;stroke-miterlimit:10;" d="M353.94,316.558
				c0,0,3.233-0.594,4.56,0.291c1.327,0.885,2.876,5.752,2.876,5.752l6.416-2.212c0,0-1.327-3.982-3.54-5.752
				c-2.212-1.77-3.104-2.884-3.104-2.884L353.94,316.558z"/>
			<path style="fill:#263238;stroke:#263238;stroke-linecap:round;stroke-linejoin:round;stroke-miterlimit:10;" d="
				M373.544,321.716c0,0,4.867-1.991,7.743-1.327c2.876,0.664,5.973,7.301,5.973,7.301l2.322-2.121c0,0-1.658-7.392-5.862-8.941
				c-4.203-1.549-7.079,0.221-7.079,0.221L373.544,321.716z"/>
		</g>
	</g>
</g>
</svg>
