<?xml version="1.0" encoding="utf-8"?>
<!-- Generator: Adobe Illustrator 27.5.0, SVG Export Plug-In . SVG Version: 6.00 Build 0)  -->
<svg version="1.1" xmlns="http://www.w3.org/2000/svg" xmlns:xlink="http://www.w3.org/1999/xlink" x="0px" y="0px"
	 viewBox="0 0 3710 3710" style="enable-background:new 0 0 3710 3710;" xml:space="preserve">
<g id="Illustration">
	<g>
		<path style="fill:#F4F7FA;" d="M1916.938,466.85c-729.43-21.242-1361.27,500.714-1456.73,1185.586
			C355.836,2401.25,930.285,3075.003,1637.121,3182.914c879.185,134.225,1731.944-642.277,1655.375-1484.665
			C3234.809,1063.583,2658.417,488.442,1916.938,466.85z"/>
		<g>
			<g style="opacity:0.9;">
				<linearGradient id="SVGID_1_" gradientUnits="userSpaceOnUse" x1="2137.1233" y1="-1290.224" x2="1998.9069" y2="578.4418">
					<stop  offset="0" style="stop-color:#FFC444"/>
					<stop  offset="0.3138" style="stop-color:#FBA94A"/>
					<stop  offset="0.9964" style="stop-color:#F36F56"/>
				</linearGradient>
				<path style="fill:url(#SVGID_1_);" d="M788.996,2161.827c0,0-153.035-147.418-83.362-328.073
					c43.043,76.904,83.362,77.555,83.362,77.555s9.735-100.185-39.866-394.996c-49.601-294.811,85.226-270.711,221.983-487.614
					c36.151,150.627-25.302,212.886,0,208.869s92.372-126.526,366.572-208.869s297.143-198.827,302.439-208.869
					s124.642,94.393,100.97,263.095c112.442-138.577-29.135-303.492,37.215-495.175c66.35-191.683,217.259-119.382,217.259-119.382
					s-129.932,289.203,56.353,370.542s294.885,144.602,302.724,241.003c0,0,111.762-72.301,52.403-213.89
					c183.278,48.201,343.626,174.727,294.522,361.504c0,0,211.287,30.125,208.328-138.577
					c139.073,189.79,199.652,490.483,71.016,704.118c62.139-5.209,96.609-55.26,96.609-55.26s98.685,246.028-37.429,306.197
					c-136.114,60.169-133.155,138.576-133.155,138.576s-626.65,112.135-706.871,107.24c-80.221-4.895-80.221,48.489-269.597,42.885
					c-189.376-5.604-357.003-83.759-418.18-74.807C1451.113,2266.852,788.996,2161.827,788.996,2161.827z"/>
				
					<linearGradient id="SVGID_00000147918480795851365970000000365866928401544895_" gradientUnits="userSpaceOnUse" x1="1807.5127" y1="3209.6292" x2="1690.0503" y2="4797.7021">
					<stop  offset="0" style="stop-color:#FFC444"/>
					<stop  offset="0.3138" style="stop-color:#FBA94A"/>
					<stop  offset="0.9964" style="stop-color:#F36F56"/>
				</linearGradient>
				<path style="fill:url(#SVGID_00000147918480795851365970000000365866928401544895_);" d="M852.094,2171.784
					c-11.413-1.775-68.48-138.889-65.521-184.587c82.852,64.259,82.975,64.259,82.975,64.259s-27.063-235.162-32.98-313.647
					c-5.918-78.485-65.067-313.463-31.517-385.795c21.301-45.916,49.037-89.382,80.85-128.471
					c-24.137,29.658-26.813,187.62,22.246,190.637c34.985,2.152,69.007-67.174,87.789-91.32
					c34.703-44.613,73.496-87.106,123.009-114.834c85.875-48.091,188.521-59.482,280.05-93.602
					c36.584-13.638,232.95-83.448,216.836-147.98c27.082,108.452,33.216,224.269-28.117,320.198
					c95.783,12.003,201.252-106.47,263.184-167.907c86.311-85.62,22.836-172.721-4.119-275.78
					c-14.704-56.22-24.034-112.58-21.056-170.861c-0.905,17.702,46.125,71.019,56.474,87.449
					c20.424,32.425,40.418,65.384,63.681,95.82c45.169,59.098,100.386,108.542,169.038,137.187
					c120.332,50.209,155.649,142.593,115.305,224.936c-40.344,82.343-39.659,143.733-39.659,143.733
					s275.729-179.883,282.775-278.293V974.474c0,0,191.998,108.695,153.109,217.029c-23.879,66.519-54.401,133.304-72.887,201.6
					c69.814-23.131,137.093-60.382,203.224-92.693c40.392-19.735,108.441-41.518,137.213-78.882
					c-17.314,22.484,47.057,163.922,54.09,192.255c21.003,84.626,27.498,181.542,1.066,265.743
					c-21.719,69.187-113.082,168.808-48.932,239.9c50.874-32.683,104.397-63.651,155.649-94.724c0,0-5.915,146.515-57.204,183.371
					c-51.289,36.856-173.566,161.179-164.702,187.385c8.864,26.206-782.173,10.139-821.626,28.215
					c-39.453,18.075,98.634,11.125-53.261,40.709s-134.141-24.642-199.239-66.817c-65.098-42.176-399.435-28.117-445.314-28.117
					C1268.642,2169.447,852.094,2171.784,852.094,2171.784z"/>
			</g>
			<g>
				<g>
					
						<linearGradient id="SVGID_00000047030213668165081540000000214947134848291474_" gradientUnits="userSpaceOnUse" x1="2143.7944" y1="2926.4136" x2="2306.2502" y2="2170.7488">
						<stop  offset="0" style="stop-color:#444B8C"/>
						<stop  offset="0.9964" style="stop-color:#26264F"/>
					</linearGradient>
					<path style="fill:url(#SVGID_00000047030213668165081540000000214947134848291474_);" d="M2339.498,1789.959
						c0,0,4.541,6.588,11.649,18.521c6.985,12.016,16.855,29.328,26.016,51.569c4.55,11.119,9.108,23.417,12.238,37.103
						c1.533,6.842,2.92,13.974,3.461,21.497l0.267,2.815l0.067,0.707l-2.196,0.354l-2.213,0.177v0.531v1.348
						c0,1.8,2.213,3.608,2.206,5.425c-0.048,1.867,0.737,4.074,0.535,6.118c-0.192,2.121,0.059,4.174-0.421,6.096
						c-3.084,15.925-10.555,30.883-20.423,44.109c-2.935,3.695-4.671,6.115-7.839,9.453c-2.959,3.254-5.642,5.98-8.452,8.857
						c-5.531,5.564-10.816,11.014-15.125,16.536l-2.968,4.142l-2.268,4.135l-0.286,0.509l-0.07,0.127
						c0.382-0.81,0.066-0.126,0.133-0.263l-0.141,0.342l-0.565,1.366l-1.13,2.73c-0.772,1.846-0.918,3.033-1.445,4.552
						c-1.745,6.282-2.543,13.294-2.627,20.322c-0.188,14.183,2.163,28.848,3.92,43.874c0.447,3.761,0.839,7.576,1.142,11.429
						c0.123,1.997,0.293,3.761,0.368,5.925c0.07,1.798,0.137,3.587,0.207,5.366c0.274,7.117,0.543,14.08,0.803,20.858
						c0.524,13.557,1.017,26.374,1.473,38.205c0.911,23.662,1.671,43.381,2.204,57.184c0.342,13.999,0.539,21.999,0.539,21.999
						l-34.46-0.257c0,0,0.264-7.78,0.724-21.396c0.269-13.811,0.656-33.542,1.12-57.218c0.231-11.838,0.483-24.663,0.748-38.228
						c0.135-6.782,0.269-13.75,0.409-20.871c0.036-1.781,0.072-3.571,0.106-5.37c0.043-1.433-0.019-3.279-0.022-4.913
						c-0.07-3.403-0.221-6.905-0.438-10.511c-0.8-14.416-2.517-30.21-1.344-47.121c1.13-16.727,6.019-35.593,18.595-49.458
						c5.808-6.594,11.923-12.072,17.773-17.336c2.844-2.583,5.81-5.227,8.262-7.623c2.411-2.144,5.57-5.705,7.596-7.971
						c9.334-11.104,16.68-23.586,19.992-36.659c0.526-1.647,0.841-3.219,1.065-4.748c0.238-1.594,0.63-2.983,0.784-4.74
						c0.113-1.814,0.226-3.619,0.337-5.415l-0.753-1.345c0.002,0.106-0.832-0.474-0.832,0.195v-0.158l0.82-0.317l0.391-0.633
						l0.11-2.526c-0.079-6.712-0.869-13.368-1.922-19.821c-2.166-12.938-5.796-25.037-9.575-36.044
						c-7.613-22.063-16.312-39.705-22.497-51.921c-6.336-12.194-10.371-18.859-10.371-18.859L2339.498,1789.959z"/>
					
						<linearGradient id="SVGID_00000120526586844652941220000007012557175225913789_" gradientUnits="userSpaceOnUse" x1="2089.0996" y1="2914.6526" x2="2251.5549" y2="2158.99">
						<stop  offset="0" style="stop-color:#444B8C"/>
						<stop  offset="0.9964" style="stop-color:#26264F"/>
					</linearGradient>
					<path style="fill:url(#SVGID_00000120526586844652941220000007012557175225913789_);" d="M2339.794,2005.972
						c0,0-0.459-0.476-1.32-1.369c-0.827-0.558-0.8-0.63-2.976-2.107c-1.74-1.222-4.161-2.738-6.86-4.524
						c-2.728-1.778-5.841-3.844-9.187-6.213c-6.675-4.752-14.413-10.725-21.461-18.7c-1.752-2-3.521-4.037-5.05-6.375
						c-0.789-1.139-1.613-2.254-2.373-3.431l-2.041-3.748c-2.776-4.989-4.466-10.709-5.449-16.469
						c-0.305-2.827-0.31-6.02-0.409-8.558c0.048-2.808,0.096-4.964-0.317-7.034c-0.848-4.38-2.351-5.823-7.072-6.156
						c-4.413-0.328-9.677,0.404-14.889-1.146c-2.589-0.76-5.043-2.216-6.846-4.086c-1.714-1.913-3.002-3.985-3.776-6.033
						c-1.639-4.086-2.163-7.885-2.531-11.201c-0.291-3.321-0.365-6.195-0.332-8.55c-0.046-2.361,0.139-4.194,0.161-5.452
						c0.053-1.255,0.082-1.924,0.082-1.924l3.163,0.091c0,0,0.017,0.654,0.048,1.881c0.065,1.222,0.005,3.032,0.209,5.298
						c0.123,2.276,0.385,5.021,0.868,8.105c0.541,3.051,1.31,6.502,2.868,9.699c1.553,3.234,3.99,5.815,7.62,6.521
						c3.666,0.878,8.139,0.037,13.603-0.035c2.685,0.058,6.156,0.244,9.259,2.583c3.077,2.311,4.512,5.737,5.255,8.665
						c0.813,3.012,0.921,6.155,1.048,8.606c0.291,2.712,0.44,4.837,0.829,7.239c1.163,4.592,2.762,9.061,5.367,13.029l1.88,2.974
						l2.216,2.755c1.392,1.869,3.06,3.528,4.697,5.155c6.579,6.497,13.966,11.482,20.504,15.483c3.281,2,6.365,3.757,9.158,5.317
						c2.798,1.588,5.247,2.892,7.399,4.183c1.779,0.933,4.738,3.037,5.865,3.992c0.923,0.834,1.413,1.279,1.413,1.279
						L2339.794,2005.972z"/>
					
						<linearGradient id="SVGID_00000011024949557955016390000003574867688426527158_" gradientUnits="userSpaceOnUse" x1="2110.4812" y1="2919.2502" x2="2272.9365" y2="2163.5876">
						<stop  offset="0" style="stop-color:#444B8C"/>
						<stop  offset="0.9964" style="stop-color:#26264F"/>
					</linearGradient>
					<path style="fill:url(#SVGID_00000011024949557955016390000003574867688426527158_);" d="M2295.75,1957.416
						c0,0,0.438-0.12,1.26-0.344c0.551-0.124,1.231-0.278,2.029-0.458c0.61-0.122,1.31-0.263,2.094-0.42
						c3.026-0.584,7.183-1.466,11.81-2.887c2.327-0.705,4.658-1.673,6.947-2.684c2.199-1.005,4.199-2.417,5.175-3.349
						c0.466-0.506,0.685-0.688,0.774-0.897c0.014-0.05,0.058-0.095,0.13-0.149c0.099-0.218,0.111-0.797,0.171-1.18l0.32-2.653
						c0.51-3.902,1.164-7.335,1.87-10.948c1.498-7.115,3.228-14.125,5.327-20.594c2.077-6.468,4.3-12.428,6.589-17.405
						c1.18-2.474,2.416-4.689,3.584-6.606c1.262-1.885,2.283-3.537,3.464-4.728c0.565-0.589,1.072-1.114,1.51-1.571
						c0.519-0.4,0.993-0.702,1.353-0.955c0.723-0.488,1.108-0.748,1.108-0.748l0.546,0.813c0,0-0.272,0.331-0.777,0.952
						c-0.243,0.3-0.538,0.671-0.889,1.107c-0.269,0.512-0.577,1.101-0.923,1.76c-0.745,1.232-1.32,3.026-2.012,4.955
						c-0.623,2.001-1.236,4.275-1.75,6.824c-2.312,10.084-3.735,24.042-4.478,37.825c-0.178,3.393-0.32,6.982-0.277,10.018
						l0.055,2.532c-0.007,0.475,0.072,0.765-0.007,1.389c-0.065,0.792-0.159,1.591-0.281,2.382
						c-0.481,3.135-2.067,5.974-3.759,7.933c-3.44,4.033-7.185,5.78-10.432,7.376c-3.281,1.395-6.37,2.353-9.146,3.07
						c-5.555,1.522-10.094,2.266-13.122,2.903c-1.25,0.25-2.231,0.447-2.899,0.581c-0.777,0.211-1.19,0.324-1.19,0.324
						L2295.75,1957.416z"/>
				</g>
				
					<linearGradient id="SVGID_00000145057064923706439820000008457923663165221536_" gradientUnits="userSpaceOnUse" x1="2162.2271" y1="1762.5839" x2="2504.8157" y2="1762.5839">
					<stop  offset="0" style="stop-color:#444B8C"/>
					<stop  offset="0.9964" style="stop-color:#26264F"/>
				</linearGradient>
				<path style="fill:url(#SVGID_00000145057064923706439820000008457923663165221536_);" d="M2402.42,1694.939
					c-0.569-0.097-0.107-1.706-0.098-3.241c0.051-8.978,0.8-31.572-10.297-33.791c-12.994-2.599-16.892-46.127-40.28-36.382
					c-23.388,9.745-20.14,38.981-35.732,49.376s-40.28,3.898-46.777,24.038s13.643,25.987-22.089,37.032
					c-35.732,11.045-85.108,29.236-57.172,61.72c27.936,32.484-50.218,38.981-8.218,63.669
					c42.001,24.688-78.84,50.675,47.198,47.427c126.039-3.248,235.185,7.146,228.039-12.344s36.382,5.197,40.28-19.49
					c3.898-24.688-17.542-46.127-31.185-68.866s0-36.382-18.841-60.42C2428.408,1719.627,2463.49,1705.334,2402.42,1694.939z"/>
			</g>
			<g>
				<g>
					
						<linearGradient id="SVGID_00000151531768156385204120000006662925821767828404_" gradientUnits="userSpaceOnUse" x1="811.9686" y1="2656.5889" x2="974.424" y2="1900.9258">
						<stop  offset="0" style="stop-color:#444B8C"/>
						<stop  offset="0.9964" style="stop-color:#26264F"/>
					</linearGradient>
					<path style="fill:url(#SVGID_00000151531768156385204120000006662925821767828404_);" d="M992.108,1435.432
						c0,0,4.832,11.826,12.185,32.84c3.642,10.527,7.961,23.35,12.483,38.206c4.447,14.876,9.382,31.706,13.778,50.356
						c4.408,18.64,8.728,38.993,11.685,60.892c1.339,10.971,2.594,22.277,3.077,33.964l0.257,4.385l0.022,4.552
						c-0.005,2.893-0.01,5.801-0.014,8.723c-0.462,6.057-0.55,12.419-1.493,18.439c-2.877,24.537-10.019,48.936-21.105,72.748
						c-11.17,23.446-27.424,43.756-34.777,65.662l-1.38,4.085l-0.346,1.02c0.272-1.047,0.039-0.124,0.082-0.282l-0.063,0.291
						l-0.127,0.581l-0.505,2.325l-2.022,9.296c-1.687,6.362-1.793,11.954-2.536,17.783c-0.832,5.636-0.837,11.86-1.06,17.9
						c-0.334,6.026-0.173,12.148-0.002,18.245c0.563,24.383,3.026,48.695,4.464,72.816c0.279,6.092,0.673,12.026,0.846,18.109
						c0.137,5.842,0.274,11.628,0.411,17.352c0.272,11.448,0.536,22.648,0.796,33.551c0.517,21.806,1.007,42.422,1.457,61.452
						c0.904,38.061,1.656,69.778,2.183,91.98c0.339,22.32,0.531,35.073,0.531,35.073l-34.46-0.153c0,0,0.267-12.623,0.731-34.713
						c0.276-22.207,0.671-53.931,1.142-92.001c0.236-19.034,0.493-39.655,0.764-61.466c0.135-10.905,0.274-22.108,0.416-33.558
						c0.07-5.725,0.142-11.512,0.214-17.355c0.046-5.601-0.13-11.454-0.185-17.252c-0.534-23.411-2.156-48.152-1.834-73.74
						c0.055-6.395,0.122-12.814,0.707-19.342c0.481-6.515,0.702-12.927,1.918-19.786c1.067-6.672,1.776-13.786,3.586-19.655
						l2.356-9.216l0.589-2.305l0.457-1.72l0.454-1.221l1.827-4.874c4.978-12.949,11.964-24.409,18.87-35.162
						c3.413-5.28,6.819-10.549,10.216-15.802l4.651-7.583l4.509-8.211c10.752-21.099,18.538-44.181,21.961-66.828
						c1.11-5.712,1.327-11.185,2-16.75c0.111-2.92,0.221-5.826,0.329-8.716l0.135-4.101l-0.099-4.218
						c-0.055-11.217-0.875-22.226-1.788-32.946c-2.108-21.438-5.63-41.624-9.314-60.166c-3.671-18.558-7.954-35.403-11.829-50.308
						c-3.952-14.89-7.779-27.776-11.016-38.361c-6.562-21.163-10.908-33.009-10.908-33.009L992.108,1435.432z"/>
					
						<linearGradient id="SVGID_00000183930153172349657770000012548416055340184493_" gradientUnits="userSpaceOnUse" x1="725.2802" y1="2637.9521" x2="887.7356" y2="1882.2892">
						<stop  offset="0" style="stop-color:#444B8C"/>
						<stop  offset="0.9964" style="stop-color:#26264F"/>
					</linearGradient>
					<path style="fill:url(#SVGID_00000183930153172349657770000012548416055340184493_);" d="M968.323,1833.347
						c0,0-0.805-1.514-2.315-4.352c-1.469-2.813-3.57-6.928-6.13-12.207c-5.113-10.559-12.139-25.743-19.393-44.476
						c-7.223-18.729-14.826-40.993-20.194-65.722c-2.659-12.361-4.733-25.345-5.577-38.741c-0.8-13.376-0.502-27.223,2.324-40.872
						c0.865-3.386,1.433-6.817,2.632-10.13l3.07-9.461l3.041-9.342c0.904-3.08,1.483-6.074,2.247-9.102
						c1.649-5.953,2.382-12.244,3.416-18.344c0.764-6.143,1.288-12.267,1.599-18.292c0.079-6.038,0.397-11.989-0.026-17.809
						c-0.151-2.91-0.195-5.798-0.428-8.639c-0.296-2.837-0.584-5.641-0.87-8.406c-0.44-5.553-1.62-10.854-2.351-16.046
						c-1.087-5.122-2.053-10.108-3.276-14.816c-2.469-9.408-5.084-17.972-8.024-25.31c-1.349-3.725-2.839-7.106-4.257-10.215
						c-1.324-3.162-2.812-5.913-4.103-8.43c-1.238-2.556-2.567-4.685-3.692-6.559c-1.106-1.892-2.077-3.479-2.981-4.66
						c-1.728-2.439-2.651-3.74-2.651-3.74l3.908-3.175c0,0,1.031,1.352,2.969,3.886c1.017,1.245,2.091,2.872,3.317,4.806
						c1.247,1.923,2.721,4.119,4.091,6.712c1.433,2.564,3.079,5.38,4.558,8.586c1.579,3.163,3.238,6.606,4.759,10.388
						c3.293,7.469,6.293,16.174,9.175,25.788c1.428,4.81,2.606,9.91,3.909,15.166c0.947,5.328,2.349,10.777,3.009,16.507
						c0.394,2.857,0.796,5.752,1.202,8.684c0.344,2.939,0.5,5.936,0.762,8.957c0.642,6.04,0.541,12.251,0.671,18.566
						c-0.25,12.658-1.178,25.64-3.976,38.891c-0.704,3.287-1.291,6.716-2.118,9.929c-0.904,3.139-1.808,6.288-2.716,9.443
						l-2.695,9.402c-0.966,2.92-1.344,6.047-2.022,9.064c-2.108,12.28-1.971,25.039-0.786,37.49
						c1.221,12.474,3.603,24.706,6.548,36.403c5.94,23.412,14.023,44.692,21.651,62.575c7.654,17.895,14.99,32.403,20.278,42.421
						c2.646,5.01,4.805,8.894,6.288,11.507c1.481,2.568,2.271,3.937,2.271,3.937L968.323,1833.347z"/>
					
						<linearGradient id="SVGID_00000040558555535369741430000003244063740491459495_" gradientUnits="userSpaceOnUse" x1="647.7366" y1="2621.282" x2="810.1917" y2="1865.6201">
						<stop  offset="0" style="stop-color:#444B8C"/>
						<stop  offset="0.9964" style="stop-color:#26264F"/>
					</linearGradient>
					<path style="fill:url(#SVGID_00000040558555535369741430000003244063740491459495_);" d="M928.046,1620.871
						c0,0-0.973,0.113-2.803,0.324c-1.781,0.18-4.363,0.405-7.649,0.569c-6.572,0.282-15.973,0.532-27.386-1.157
						c-5.694-0.873-11.918-2.212-18.355-4.886c-6.358-2.611-13.204-6.824-18.119-13.625c-2.404-3.395-4.173-7.315-5.221-11.38
						c-0.945-4.358-1.142-7.539-1.62-11.1c-0.856-7.023-1.726-14.157-2.594-21.291c-0.925-7.113-1.553-14.336-2.334-21.384
						c-0.74-7.061-1.469-14.01-2.173-20.734c-0.673-6.728-1.072-13.269-1.584-19.448c-0.478-6.183-0.933-12.029-1.351-17.426
						c-0.546-5.367-0.43-10.419-0.589-14.836c-0.096-4.429-0.183-8.289-0.252-11.469c-0.135-6.352-0.214-9.983-0.214-9.983
						l7.538,0.137c0,0,0.192,3.551,0.526,9.765c0.166,3.104,0.37,6.873,0.601,11.196c0.293,4.326,0.32,9.179,1.034,14.527
						c0.584,5.336,1.214,11.117,1.882,17.231c0.702,6.111,1.296,12.562,2.175,19.217c0.911,6.652,1.851,13.526,2.805,20.51
						c0.995,6.987,1.832,14.066,2.985,21.175c1.091,7.103,2.185,14.207,3.259,21.199c0.546,3.437,1.041,7.253,1.671,9.657
						c0.796,2.624,1.964,4.984,3.514,7.048c3.159,4.086,7.863,6.985,12.925,8.86c5.048,1.924,10.358,2.933,15.326,3.526
						c9.983,1.168,18.656,0.697,24.607,0.244c2.988-0.244,5.322-0.522,6.887-0.73c1.512-0.222,2.32-0.341,2.32-0.341
						L928.046,1620.871z"/>
					
						<linearGradient id="SVGID_00000052803283857222707640000017323925367075875479_" gradientUnits="userSpaceOnUse" x1="869.9911" y1="2669.063" x2="1032.4465" y2="1913.4004">
						<stop  offset="0" style="stop-color:#444B8C"/>
						<stop  offset="0.9964" style="stop-color:#26264F"/>
					</linearGradient>
					<path style="fill:url(#SVGID_00000052803283857222707640000017323925367075875479_);" d="M1135.444,1775.15
						c0,0-0.442,3.281-1.599,8.866c-1.173,5.588-3.031,13.544-6.235,22.866c-1.613,4.656-3.57,9.652-6.072,14.793
						c-2.526,5.122-5.517,10.454-9.567,15.471c-4.034,4.973-9.086,9.843-15.701,12.89c-3.252,1.558-6.868,2.608-10.557,2.96
						c-1.94,0.223-3.574,0.285-5.142,0.337l-4.841,0.188c-25.737,0.937-51.469,2.062-69.925,5.152
						c-9.137,1.479-16.596,3.667-19.92,5.74c-1.704,1.017-1.947,1.681-1.805,1.528c0.065-0.105,0.209-0.463,0.132-0.421
						l-14.663-1.769c0.087,0.106,0.089-2.022,1.637-4.768c1.514-2.836,4.509-5.447,7.779-7.108
						c6.608-3.402,15.048-5.02,25.023-6.215c19.893-2.281,45.825-2.044,71.62-1.694l4.824,0.057c1.654,0.033,3.233,0.035,4.493-0.06
						c2.711-0.107,5.372-0.728,7.894-1.784c5.098-2.007,9.55-5.761,13.307-9.952c3.776-4.209,6.807-8.987,9.411-13.662
						c2.591-4.699,4.704-9.374,6.478-13.771c3.538-8.809,5.75-16.484,7.168-21.866c1.404-5.402,1.978-8.492,1.978-8.492
						L1135.444,1775.15z"/>
				</g>
				
					<linearGradient id="SVGID_00000005949575099475137770000007380347178045995191_" gradientUnits="userSpaceOnUse" x1="680.8163" y1="1331.093" x2="1372.2222" y2="1331.093">
					<stop  offset="0" style="stop-color:#444B8C"/>
					<stop  offset="0.9964" style="stop-color:#26264F"/>
				</linearGradient>
				<path style="fill:url(#SVGID_00000005949575099475137770000007380347178045995191_);" d="M1309.296,1419.524
					c0,0,45.947-85.33-44.306-134.559c-90.253-49.229-72.202-118.149-116.508-127.995c-44.306-9.846-41.024-91.894-111.585-59.075
					c-70.561,32.819-90.253,80.407-141.123,103.381c-50.87,22.973-98.458,82.048-75.484,98.458
					c22.974,16.41-103.381,44.306-88.612,88.612c14.769,44.306-89.38,85.74-1.205,97.842s194.838-43.691,214.53-23.999
					c19.692,19.692,37.742,52.511,90.253,68.92c52.511,16.41,52.511,54.16,116.508,36.105
					c63.997-18.055,127.995,8.201,149.328-39.387S1412.677,1485.163,1309.296,1419.524z"/>
				
					<linearGradient id="SVGID_00000001652959711782895780000010491476382469396647_" gradientUnits="userSpaceOnUse" x1="1040.6772" y1="1756.4164" x2="1225.9264" y2="1756.4164">
					<stop  offset="0" style="stop-color:#444B8C"/>
					<stop  offset="0.9964" style="stop-color:#26264F"/>
				</linearGradient>
				<path style="fill:url(#SVGID_00000001652959711782895780000010491476382469396647_);" d="M1077.1,1756.332
					c0,0,41.229-57.844,68.92-47.383c27.691,10.461,26.46,7.35,49.229,23.059c22.768,15.709,46.152,24.939,17.23,34.17
					c-28.922,9.23,1.231,41.844-84.304,38.768S1008.795,1770.485,1077.1,1756.332z"/>
			</g>
			<g>
				<g>
					
						<linearGradient id="SVGID_00000098194436591856762200000006038760204674047676_" gradientUnits="userSpaceOnUse" x1="2397.9075" y1="2981.042" x2="2560.363" y2="2225.3789">
						<stop  offset="0" style="stop-color:#444B8C"/>
						<stop  offset="0.9964" style="stop-color:#26264F"/>
					</linearGradient>
					<path style="fill:url(#SVGID_00000098194436591856762200000006038760204674047676_);" d="M2640.028,1471.583
						c0,0,4.832,11.826,12.185,32.84c3.642,10.527,7.961,23.35,12.483,38.206c4.447,14.876,9.382,31.706,13.778,50.356
						c4.408,18.64,8.728,38.992,11.685,60.891c1.339,10.971,2.594,22.277,3.077,33.964l0.257,4.385l0.021,4.552
						c-0.005,2.893-0.01,5.801-0.014,8.723c-0.461,6.057-0.551,12.419-1.493,18.44c-2.877,24.537-10.019,48.936-21.105,72.748
						c-11.17,23.446-27.424,43.756-34.778,65.662l-1.38,4.086l-0.346,1.02c0.272-1.047,0.039-0.124,0.082-0.282l-0.063,0.291
						l-0.127,0.581l-0.505,2.325l-2.022,9.296c-1.687,6.362-1.793,11.954-2.536,17.783c-0.832,5.636-0.836,11.86-1.06,17.9
						c-0.334,6.026-0.173,12.148-0.002,18.245c0.563,24.383,3.026,48.695,4.464,72.816c0.279,6.092,0.673,12.026,0.846,18.109
						c0.137,5.842,0.274,11.628,0.411,17.352c0.272,11.448,0.536,22.648,0.796,33.551c0.517,21.806,1.007,42.422,1.457,61.452
						c0.904,38.061,1.656,69.778,2.183,91.98c0.339,22.32,0.531,35.073,0.531,35.073l-34.46-0.153c0,0,0.267-12.623,0.731-34.713
						c0.276-22.207,0.671-53.931,1.142-92.001c0.236-19.034,0.493-39.655,0.764-61.466c0.135-10.905,0.274-22.108,0.416-33.558
						c0.07-5.725,0.142-11.512,0.214-17.355c0.046-5.601-0.13-11.454-0.185-17.251c-0.534-23.411-2.156-48.153-1.834-73.74
						c0.055-6.395,0.123-12.813,0.707-19.342c0.481-6.515,0.702-12.927,1.918-19.786c1.067-6.672,1.776-13.786,3.586-19.655
						l2.356-9.216l0.589-2.305l0.457-1.72l0.454-1.22l1.827-4.874c4.978-12.949,11.964-24.409,18.87-35.162
						c3.413-5.28,6.819-10.549,10.216-15.802l4.651-7.583l4.509-8.211c10.752-21.099,18.538-44.181,21.961-66.828
						c1.111-5.712,1.327-11.185,2-16.751c0.111-2.92,0.221-5.826,0.329-8.716l0.135-4.101l-0.098-4.218
						c-0.055-11.217-0.875-22.226-1.789-32.946c-2.108-21.438-5.629-41.624-9.314-60.166c-3.671-18.558-7.954-35.403-11.829-50.308
						c-3.952-14.89-7.779-27.776-11.016-38.361c-6.562-21.163-10.908-33.009-10.908-33.009L2640.028,1471.583z"/>
					
						<linearGradient id="SVGID_00000062174257600029243260000004099795576587674270_" gradientUnits="userSpaceOnUse" x1="2422.4678" y1="2986.323" x2="2584.9233" y2="2230.6599">
						<stop  offset="0" style="stop-color:#444B8C"/>
						<stop  offset="0.9964" style="stop-color:#26264F"/>
					</linearGradient>
					<path style="fill:url(#SVGID_00000062174257600029243260000004099795576587674270_);" d="M2671.019,1758.479
						c0,0,2.228-3.252,5.997-9.276c3.743-5.992,8.971-14.661,14.728-25.331c5.74-10.669,12.045-23.346,17.572-37.334
						c2.692-7.008,5.271-14.322,7.233-21.861c0.962-3.772,1.942-7.574,2.498-11.419l0.507-2.881l0.223-1.255l0.144-1.527l0.57-6.113
						c0.442-7.79,0.394-15.601-0.271-23.543c-0.529-7.865-1.563-15.661-2.534-23.227c-2.053-15.15-4.142-29.528-4.529-42.193
						c-0.144-3.153,0.005-6.232-0.002-9.127c0.108-2.912,0.435-5.697,0.627-8.299c0.745-5.213,1.555-9.767,2.8-13.42
						c0.933-3.723,2.344-6.447,3.149-8.349c0.839-1.89,1.286-2.899,1.286-2.899l8.004,4.135c0,0-0.368,0.87-1.058,2.5
						c-0.661,1.641-1.868,3.945-2.625,7.213c-1.058,3.149-1.711,7.198-2.339,11.859c-0.139,2.374-0.416,4.875-0.485,7.554
						c0.046,2.7-0.072,5.513,0.098,8.492c0.49,11.907,2.663,25.923,4.906,41.163c1.067,7.648,2.212,15.579,2.861,23.794
						c0.779,8.115,0.954,16.719,0.534,25.275l-0.502,6.119l-0.127,1.528l-0.264,1.77l-0.514,3.156
						c-0.577,4.244-1.574,8.324-2.563,12.375c-2.012,8.087-4.632,15.787-7.367,23.136c-5.598,14.642-11.939,27.743-17.711,38.762
						c-5.788,11.016-11.038,19.946-14.817,26.148c-3.762,6.168-6.122,9.701-6.122,9.701L2671.019,1758.479z"/>
					
						<linearGradient id="SVGID_00000142149477500794680620000014390468119252833710_" gradientUnits="userSpaceOnUse" x1="2446.4753" y1="2991.4844" x2="2608.9307" y2="2235.8213">
						<stop  offset="0" style="stop-color:#444B8C"/>
						<stop  offset="0.9964" style="stop-color:#26264F"/>
					</linearGradient>
					<path style="fill:url(#SVGID_00000142149477500794680620000014390468119252833710_);" d="M2721.474,1645.148
						c0,0,0.358-0.278,1.031-0.798c0.69-0.567,1.726-1.463,3.017-2.677c2.572-2.443,6.12-6.232,9.791-11.296
						c1.824-2.537,3.721-5.361,5.502-8.494c1.791-3.121,3.601-6.489,5.12-10.136c1.658-3.588,2.997-7.468,4.295-11.427
						c0.579-2.006,1.164-4.029,1.75-6.059l1.351-6.228c0.88-4.241,1.301-8.264,1.971-12.754c0.586-4.294,1.163-8.52,1.721-12.61
						c0.562-4.093,1.553-8.158,2.255-11.941c0.627-3.819,1.873-7.322,2.735-10.592c0.772-3.278,2.272-6.186,3.216-8.795
						c1.223-2.569,2.433-4.783,3.716-6.524c0.704-0.851,1.334-1.61,1.88-2.271c0.688-0.621,1.363-1.113,1.875-1.51
						c1.113-0.778,2.06-1.012,2-1.032l1.558,4.67c-0.014,0.051-0.207,0.063-0.75,0.496c-0.283,0.251-0.63,0.561-1.038,0.925
						c-0.377,0.515-0.813,1.106-1.3,1.768c-0.916,1.384-1.894,3.373-2.856,5.668c-0.745,2.476-1.978,5.044-2.57,8.25
						c-0.666,3.15-1.695,6.466-2.115,10.155c-0.5,3.683-1.255,7.424-1.625,11.531c-0.365,4.112-0.743,8.361-1.125,12.679
						c-0.426,4.101-0.712,8.875-1.423,13.29l-1.132,6.723c-0.526,2.211-1.051,4.413-1.57,6.598c-1.192,4.33-2.45,8.597-4.065,12.588
						c-1.471,4.043-3.269,7.822-5.074,11.345c-1.798,3.534-3.743,6.756-5.637,9.671c-3.817,5.822-7.61,10.295-10.483,13.294
						c-1.445,1.496-2.646,2.64-3.514,3.424c-0.923,0.788-1.416,1.208-1.416,1.208L2721.474,1645.148z"/>
				</g>
				
					<linearGradient id="SVGID_00000075857211636492034680000010050235091624112791_" gradientUnits="userSpaceOnUse" x1="2418.8047" y1="1418.6733" x2="3044.6333" y2="1418.6733">
					<stop  offset="0" style="stop-color:#444B8C"/>
					<stop  offset="0.9964" style="stop-color:#26264F"/>
				</linearGradient>
				<path style="fill:url(#SVGID_00000075857211636492034680000010050235091624112791_);" d="M2826.33,1295.223
					c0,0-38.077-124.702-79.961-92.336c-41.884,32.365-73.298,39.981-104.711,56.163c-31.413,16.183-32.365,49.5-22.846,63.779
					c9.519,14.279-81.865,18.086-106.615,40.933c-24.75,22.846-77.105,71.394-56.163,83.769
					c20.942,12.375,22.846,28.558,3.808,61.875c-19.039,33.317-64.731,65.682,25.702,49.5
					c90.433-16.183,166.586-67.586,211.326-40.933s25.94,43.342,68.776,45.231c42.836,1.889,40.695,33.302,66.396,46.867
					c25.702,13.565,66.396,49.976,65.682,14.993s-29.985-40.695-11.423-46.406c18.562-5.712,12.137-40.695,30.699-39.267
					s24.274,23.56,74.25,24.274c49.976,0.714,41.409-17.135,30.699-32.841c-10.709-15.707,35.697-57.829-12.851-74.25
					c-48.548-16.421-71.394-21.418-82.817-59.971S2881.304,1293.081,2826.33,1295.223z"/>
				
					<linearGradient id="SVGID_00000103954853301070857010000003118965921916286107_" gradientUnits="userSpaceOnUse" x1="2619.6763" y1="1806.7678" x2="2804.9253" y2="1806.7678">
					<stop  offset="0" style="stop-color:#444B8C"/>
					<stop  offset="0.9964" style="stop-color:#26264F"/>
				</linearGradient>
				<path style="fill:url(#SVGID_00000103954853301070857010000003118965921916286107_);" d="M2656.099,1806.658
					c0,0,41.229-74.7,68.92-61.19c27.691,13.509,26.46,9.491,49.229,29.778c22.768,20.287,46.152,32.207,17.23,44.127
					c-28.922,11.92,1.231,54.038-84.304,50.065C2621.639,1865.465,2587.794,1824.936,2656.099,1806.658z"/>
			</g>
			<g>
				<g>
					
						<linearGradient id="SVGID_00000067228804952701218170000016830415513272085899_" gradientUnits="userSpaceOnUse" x1="1205.5116" y1="2741.1938" x2="1367.9668" y2="1985.5319">
						<stop  offset="0" style="stop-color:#444B8C"/>
						<stop  offset="0.9964" style="stop-color:#26264F"/>
					</linearGradient>
					<path style="fill:url(#SVGID_00000067228804952701218170000016830415513272085899_);" d="M1330.585,1946.52
						c0,0-0.466,1.009-1.344,2.9c-0.839,1.946-2.096,4.825-3.418,8.604c-1.399,3.751-2.788,8.411-4.18,13.778
						c-1.156,5.396-2.517,11.522-2.829,18.198c-0.334,6.631-0.32,13.898,1.565,20.994c1.822,7.058,4.803,14.177,9.954,20.041
						c5.702,7.281,11.646,13.724,17.1,22.408l4.161,6.214l3.553,6.527l3.555,6.569c1.202,2.187,1.993,4.58,3.005,6.865
						c4.13,9.131,6.92,18.815,9.187,28.383c0.882,4.833,1.858,9.63,2.618,14.385c0.425,4.78,0.846,9.502,1.26,14.147
						c0.493,4.654,0.168,9.191,0.284,13.659c0.005,2.232,0.01,4.44,0.014,6.621c-0.026,2.053-0.051,4.082-0.075,6.083
						c-0.132,8.18-0.257,15.913-0.37,23.052c-0.188,7.18,0.228,13.426,0.284,19.133c0.087,5.665,0.265,10.594,0.579,14.643
						c0.269,4.02,0.399,7.308,0.62,9.332c0.195,2.06,0.298,3.159,0.298,3.159l-19.583,2.04c0,0-0.087-1.273-0.248-3.661
						c-0.185-2.42-0.219-5.679-0.382-9.976c-0.207-4.267-0.248-9.447-0.171-15.385c0.106-5.892-0.108-12.739,0.281-19.828
						c0.32-7.133,0.666-14.86,1.031-23.032c0.087-2.087,0.173-4.203,0.262-6.344c0.05-2.015,0.101-4.055,0.154-6.118
						c0.002-4.114,0.452-8.373,0.106-12.612c-0.252-4.254-0.512-8.579-0.772-12.958c-0.574-4.323-1.344-8.666-2-13.073
						c-1.81-8.679-4.043-17.459-7.543-25.786c-0.856-2.086-1.481-4.274-2.524-6.282l-3.065-6.043l-3.046-6.036l-3.538-5.602
						c-4.221-7.424-10.538-14.847-15.639-21.763c-6.459-7.837-10.081-17.166-12.028-25.918c-2.024-8.849-1.781-17.281-1.18-24.829
						c0.596-7.599,2.274-14.276,3.723-20.162c1.683-5.818,3.339-10.812,4.961-14.825c1.551-4.04,3-7.129,3.99-9.249
						c1.062-2.127,1.63-3.261,1.63-3.261L1330.585,1946.52z"/>
					
						<linearGradient id="SVGID_00000090261081726097913480000003335978005515666856_" gradientUnits="userSpaceOnUse" x1="1215.9398" y1="2743.531" x2="1378.3954" y2="1987.8674">
						<stop  offset="0" style="stop-color:#444B8C"/>
						<stop  offset="0.9964" style="stop-color:#26264F"/>
					</linearGradient>
					<path style="fill:url(#SVGID_00000090261081726097913480000003335978005515666856_);" d="M1344.912,2058.657
						c0,0,0.469-0.119,1.351-0.341c1.084-0.288,1.44-0.368,2.904-0.857c2.685-0.915,6.699-2.573,11.132-5.124
						c4.334-2.555,9.298-6.148,12.252-10.455c0.74-1.063,1.288-2.137,1.692-3.201l0.243-0.793l0.139-0.401l0.019-0.051l0.01-0.025
						c-0.082,1.449-0.022,0.376-0.038,0.688l0.01-0.177l0.022-0.354c0.019-0.836,0.19-2.135,0.087-2.602
						c-0.096-0.47-0.132-0.934-0.144-1.461l-0.534-2.383c-0.394-1.626-0.95-3.354-1.526-5.091
						c-2.432-7.009-5.514-14.334-7.812-21.46c-1.154-3.572-2.151-7.091-2.892-10.502c-0.704-3.416-1.312-6.675-1.466-9.76
						c-0.353-3.044-0.132-5.901-0.086-8.384c0.281-2.492,0.613-4.654,0.928-6.407c0.983-3.439,1.543-5.404,1.543-5.404l3.913,1.156
						c0,0-0.279,1.814-0.762,4.987c-0.077,1.602-0.123,3.549-0.101,5.756c0.257,2.227,0.351,4.714,1.024,7.403
						c0.469,2.69,1.394,5.563,2.418,8.557c1.058,2.995,2.38,6.103,3.872,9.288c2.988,6.398,6.795,12.96,10.396,20.209
						c0.884,1.844,1.767,3.719,2.553,5.759l1.13,3.142c0.341,1.357,0.639,2.777,0.882,4.182c0.236,1.407,0.175,2.028,0.276,3.073
						l0.024,0.354l0.012,0.177l-0.048,0.838l-0.014,0.123l-0.132,0.983l-0.303,1.963c-0.529,2.543-1.394,4.907-2.447,6.999
						c-4.341,8.355-10.314,13.443-15.401,17.512c-5.197,3.952-9.882,6.636-13.415,8.383c-1.651,0.836-3.788,1.7-4.435,1.952
						c-0.846,0.332-1.298,0.509-1.298,0.509L1344.912,2058.657z"/>
				</g>
				
					<linearGradient id="SVGID_00000113318951627983990320000005064821217876888991_" gradientUnits="userSpaceOnUse" x1="1182.7097" y1="1823.7974" x2="1507.4424" y2="1823.7974">
					<stop  offset="0" style="stop-color:#444B8C"/>
					<stop  offset="0.9964" style="stop-color:#26264F"/>
				</linearGradient>
				<path style="fill:url(#SVGID_00000113318951627983990320000005064821217876888991_);" d="M1187.865,1916.325
					c5.706-5.435,50.46-46.767,77.536-69.536s15.999-71.997,28.307-71.997c12.307,0,33.229-148.917,77.535-92.304
					s83.689,119.38,72.613,137.225c-11.077,17.846,67.69,43.691,40.614,55.998c0,0,51.69,68.92,0,70.151
					c-51.69,1.231-102.15,29.537-167.378,31.999c-65.228,2.462-49.229-48.564-75.074-49.512
					C1216.172,1927.402,1166.637,1936.546,1187.865,1916.325z"/>
			</g>
			
				<linearGradient id="SVGID_00000125566225591972644050000016953438866455803292_" gradientUnits="userSpaceOnUse" x1="2404.9585" y1="261.762" x2="2310.1711" y2="403.1784">
				<stop  offset="0" style="stop-color:#FFC444"/>
				<stop  offset="0.3138" style="stop-color:#FBA94A"/>
				<stop  offset="0.9964" style="stop-color:#F36F56"/>
			</linearGradient>
			<path style="opacity:0.9;fill:url(#SVGID_00000125566225591972644050000016953438866455803292_);" d="M2094.643,539.989
				c-130.077,151.202,70.794,253.572,74.928,250.434C2255.838,724.946,2149.035,648.024,2094.643,539.989z"/>
			
				<linearGradient id="SVGID_00000151522202908081177820000004073091846224458658_" gradientUnits="userSpaceOnUse" x1="964.4713" y1="700.2651" x2="1652.131" y2="700.2651">
				<stop  offset="0" style="stop-color:#444B8C"/>
				<stop  offset="0.9964" style="stop-color:#26264F"/>
			</linearGradient>
			<path style="fill:url(#SVGID_00000151522202908081177820000004073091846224458658_);" d="M1318.865,776.791
				c41.438,16.112,294.301,23.975,333.266-7.21c-34.677,62.4-260.931,48.792-325.542,27.129c1.691,6.991,10.451,21.425,5.571,27.007
				c-40.092-28.064-207.731,93.75-210.73-39.603c27.604,5.605,61.128,17.105,87.199,0.363
				c-85.89-75.13-189.367-123.349-244.157-231.803C1050.255,645.513,1204.33,732.26,1318.865,776.791z"/>
			<g>
				<g>
					<g>
						
							<linearGradient id="SVGID_00000176730444289115300760000012570499157255640711_" gradientUnits="userSpaceOnUse" x1="2964.0845" y1="1585.6372" x2="2980.3203" y2="1585.6372">
							<stop  offset="0" style="stop-color:#AA80F9"/>
							<stop  offset="0.9964" style="stop-color:#6165D7"/>
						</linearGradient>
						<path style="fill:url(#SVGID_00000176730444289115300760000012570499157255640711_);" d="M2980.32,1603.64
							c-0.059-0.029-0.089-0.029-0.147-0.029c-0.321-0.841-0.701-1.683-1.053-2.524c-4.826-11.228-9.858-22.398-15.036-33.452
							C2969.702,1579.53,2975.113,1591.541,2980.32,1603.64z"/>
						
							<linearGradient id="SVGID_00000137842411834467347880000002811130437760988079_" gradientUnits="userSpaceOnUse" x1="692.7503" y1="2741.2327" x2="3060.9314" y2="2741.2327">
							<stop  offset="0" style="stop-color:#AA80F9"/>
							<stop  offset="0.9964" style="stop-color:#6165D7"/>
						</linearGradient>
						<path style="fill:url(#SVGID_00000137842411834467347880000002811130437760988079_);" d="M3060.931,2253.086
							c-28.386,182.747-98.104,347.736-199.254,491.801c0,0,0,0.031-0.03,0c-0.183,0.213-1.035,0.274-1.188,0.518
							c-0.518,0.791-2.741,1.401-2.741,2.192v0.031c-213.204,307.562-573.946,505.599-980.769,505.599
							c-33.2,0-64.693-1.127-97.191-7.188c-0.061,0-0.122-0.031-0.183-0.031c-0.031,0-0.031,0-0.031,0s-0.03,0-0.03,0.031
							c-0.122,0.365-0.183,3.137-0.305,3.137c-0.669-0.061-1.34,0.305-2.009,0.273c-0.122,0-0.244-0.03-0.366-0.03
							c-15.229-1.158-30.336-1.432-45.413-3.29c-5.635-0.67-11.27-0.67-16.874-1.462c-4.964-0.671-9.899-1.005-14.863-1.736
							c-4.295-0.639-8.559-1.126-12.793-1.827c-0.213,0-0.457-0.031-0.669-0.061c-0.214-0.031-0.458-0.061-0.671-0.092
							c-0.365-0.03-0.822-0.06-1.066-0.121c-0.03,0-0.059,0-0.091-0.031c-0.122,0-0.274,0-0.396-0.031
							c-10.418-1.706-20.834-3.472-31.219-5.452c-0.061,0-0.092-0.031-0.153-0.031c-200.046-37.92-382.458-125.182-533.741-248.626
							c-2.316-1.828-4.6-3.717-6.853-5.605c-215.581-178.452-366.894-430.734-414.438-717.706c-0.61-3.625-1.188-7.249-1.767-10.873
							c-1.097-6.975-2.133-13.889-3.077-20.803c1.554-0.823,3.258-1.614,5.117-2.437c3.107,7.95,6.304,15.899,9.625,23.849H3060.931
							z"/>
						<g>
							
								<linearGradient id="SVGID_00000118366902604881915300000000830269982338757769_" gradientUnits="userSpaceOnUse" x1="1640.4838" y1="3459.9399" x2="1272.4928" y2="4008.958">
								<stop  offset="0.0036" style="stop-color:#E38DDD"/>
								<stop  offset="1" style="stop-color:#9571F6"/>
							</linearGradient>
							<path style="fill:url(#SVGID_00000118366902604881915300000000830269982338757769_);" d="M1779.54,3252.436v-0.033h0.1
								l-0.066,0.033C1779.54,3252.436,1779.54,3252.436,1779.54,3252.436z"/>
							
								<linearGradient id="SVGID_00000040540216947056203080000007393056820733604515_" gradientUnits="userSpaceOnUse" x1="1322.4365" y1="3128.7517" x2="903.5215" y2="3753.7451">
								<stop  offset="0.0036" style="stop-color:#E38DDD"/>
								<stop  offset="1" style="stop-color:#9571F6"/>
							</linearGradient>
							<path style="fill:url(#SVGID_00000040540216947056203080000007393056820733604515_);" d="M2139.526,2469.452
								c-25.683,35.889-105.132,81.991-51.221,172.512c53.445,90.289-3.713,107.204-40.484,98.761
								c-36.974-8.356-151.818-13.027-132.657,38.762c11.408,30.986,27.76,50.396,30.041,65.28
								c1.58,10.009-3.247,17.959-20.154,25.996c-42.036,19.903-59.85,71.952-102.88,143.557
								c-42.767,71.75-144.359,9.719-114.289,81.614c30.042,71.953,53.474,64.989,50.636,115.125
								c-0.556,12.011,6.377,24.313,16.44,36.15c0.731,0.87,1.491,1.769,2.253,2.64c0.79,0.842,1.55,1.712,2.34,2.553
								c-16.059-1.306-32.147-2.931-48.12-4.875c-5.645-0.638-11.291-1.364-16.877-2.147c-4.974-0.667-9.917-1.364-14.86-2.118
								c-4.301-0.609-8.571-1.277-12.812-1.973c-0.469-0.087-0.557-0.174-0.644-0.232c-0.059-0.087-1.261-0.145-1.758-0.232
								c-10.268-1.711-17.657-3.54-29.84-5.483v-0.029c0-0.465,0.208-0.958-0.23-1.451c-6.846-8.066-1.739-16.799-0.482-26.17
								c13.426-92.552-115.26-156.149-136.819-220.993c-15.269-46.537-8.603-79.584-5.619-114.4
								c1.2-13.607,1.914-27.476,0.54-42.504c-5.032-53.5,12.614-124.466-18.453-169.582
								c-31.066-44.912-156.247-59.971-180.058-150.666c-24.016-90.492,31.806-225.716,53.483-248.781
								c1.901-2.06,2.641-4.635,2.379-7.681h499.304c43.848,63.961,65.262,75.021,119.845,48.387
								c58.973-28.781,82.989-7.547,98.346,32.839c15.327,40.387,51.63,0.854,69.152,54.239
								C2173.4,2441.877,2165.063,2433.534,2139.526,2469.452z"/>
							<g>
								
									<linearGradient id="SVGID_00000120547250363393356540000008424231460001917595_" gradientUnits="userSpaceOnUse" x1="2916.3901" y1="1668.905" x2="2878.8994" y2="1724.839">
									<stop  offset="0.0036" style="stop-color:#E38DDD"/>
									<stop  offset="1" style="stop-color:#9571F6"/>
								</linearGradient>
								<path style="fill:url(#SVGID_00000120547250363393356540000008424231460001917595_);" d="M2980.32,1603.64
									c-0.059-0.029-0.089-0.029-0.147-0.029c-0.321-0.841-0.701-1.683-1.053-2.524c-4.826-11.228-9.858-22.398-15.036-33.452
									C2969.702,1579.53,2975.113,1591.541,2980.32,1603.64z"/>
								
									<linearGradient id="SVGID_00000014609777749559210250000003251567395916402090_" gradientUnits="userSpaceOnUse" x1="2332.4551" y1="3228.6611" x2="1873.8323" y2="3912.896">
									<stop  offset="0.0036" style="stop-color:#E38DDD"/>
									<stop  offset="1" style="stop-color:#9571F6"/>
								</linearGradient>
								<path style="fill:url(#SVGID_00000014609777749559210250000003251567395916402090_);" d="M2862.55,2738.492
									c4.008-27.505,8.337-54.138-3.247-64.525c-31.242-28.752-38.056-107.117-27.234-146.836
									c10.794-39.806,95.011-37.217,37.882-103.338c-49.934-57.765-95.538-125.02-90.536-170.706h282.253
									c-28.432,182.747-98.549,350.037-200.406,494.813c0.146-1.015,0.263-2.15,0.41-3.166
									C2861.966,2742.702,2862.258,2740.523,2862.55,2738.492z"/>
							</g>
						</g>
					</g>
					
						<linearGradient id="SVGID_00000133510043874761990470000017507990904714470296_" gradientUnits="userSpaceOnUse" x1="690.1923" y1="2740.5244" x2="3057.6118" y2="2740.5244">
						<stop  offset="0" style="stop-color:#AA80F9"/>
						<stop  offset="0.9964" style="stop-color:#6165D7"/>
					</linearGradient>
					<path style="opacity:0.2;fill:url(#SVGID_00000133510043874761990470000017507990904714470296_);" d="M3057.612,2253.086
						c-0.122,0.7-0.213,1.431-0.334,2.132c-28.174,178.878-95.79,341.584-194.717,483.578c0,0.031-0.03,0.031-0.061,0.061
						c-0.974,1.37-2.619,2.62-3.593,3.99c-0.579,0.792-1.188,1.401-1.188,2.193v0.031
						c-216.25,307.563-575.53,506.863-982.355,506.863c-32.101,0-64.113-5.924-95.606-5.924h-0.244
						c-1.035,0-2.101-0.015-3.138-0.015c-0.152,0-0.213,1.926-0.335,1.926c-0.243-0.03-0.486-0.178-0.73-0.301
						c-0.122-0.03-0.244-0.09-0.366-0.09c-15.656-1.249-31.219-1.796-46.692-3.684c-5.665-0.67-11.27-0.822-16.903-1.614
						c-4.964-0.639-9.869-1.035-14.804-1.797c-4.354-0.64-8.618-1.126-12.852-1.827c-0.976-0.183-1.918-0.274-2.863-0.396
						c-8.468-1.37-16.874-2.802-25.281-4.355c-0.457-0.061-0.883-0.152-1.34-0.244c-1.523-0.243-3.076-0.548-4.599-0.853
						c-0.092,0-0.122-0.03-0.183-0.03c-198.646-37.615-379.87-123.994-530.543-246.068c-2.316-1.828-4.6-3.717-6.853-5.605
						c-216.89-178.361-369.3-431.19-417.363-719.047c-0.547-3.167-1.066-6.335-1.584-9.533c-1.035-6.458-2.009-12.914-2.893-19.402
						c0.791-0.487,1.645-0.944,2.558-1.401c1.554-0.823,3.258-1.614,5.117-2.437c0.091-0.031,0.183-0.091,0.303-0.122
						c3.046,7.34,6.123,14.62,9.322,22.173c0.242,0.609,0.517,1.188,0.761,1.797c2.405,5.665,4.842,11.3,7.339,16.874
						c134.958,303.024,413.86,526.614,750.966,592.281h0.152c8.925,3.046,17.91,4.599,26.926,6.092
						c0.823,0.122,1.706,0.914,2.527,1.066c3.656,0.579,7.372,1.431,11.087,1.979c1.401,0.244,2.833,0.578,4.234,0.731
						c0.061,0.031,0.092,0.031,0.152,0.031c2.802,0.427,5.605,0.853,8.407,1.188c4.842,0.7,9.686,1.126,14.558,1.705
						c13.676,1.675,27.412,3.929,41.271,5.026c0.122,0,0.213,0.457,0.274,0.457c0,0,0,0,0.031,0c28.142,0,56.164,3.107,84.916,3.107
						c98.47,0,193.802-13.554,284.048-39.229c0.031-0.031,0.031-0.031,0.061-0.031c70.692-20.102,138.309-47.271,201.905-80.865
						c144.828-76.419,268.912-186.463,361.717-319.259c0-0.67,1.126-1.249,1.553-1.949c26.499-37.707,50.499-78.398,71.759-119.577
						c12.03-23.209,23.148-46.57,33.351-69.626H3057.612z"/>
				</g>
				
					<linearGradient id="SVGID_00000132782138323926613600000010598251141255313297_" gradientUnits="userSpaceOnUse" x1="693.0849" y1="2246.3398" x2="3062.3948" y2="2246.3398">
					<stop  offset="0" style="stop-color:#444B8C"/>
					<stop  offset="0.9964" style="stop-color:#26264F"/>
				</linearGradient>
				<path style="fill:url(#SVGID_00000132782138323926613600000010598251141255313297_);" d="M3062.395,2246.355
					c0,2.254-0.97,4.508-2.937,6.731c-0.604,0.731-1.332,1.431-2.149,2.132c-22.462,19.524-118.338,37.341-265.194,51.656
					c-60.789,5.939-130.357,11.239-207.069,15.838c-142.042,8.498-308.667,14.528-489.761,17.209
					c-70.507,1.066-143.223,1.614-217.545,1.614c-192.537,0-374.329-3.686-535.05-10.234
					c-300.795-12.244-527.725-34.509-612.883-61.342c-6.902-2.163-12.896-4.386-17.891-6.609c-0.999-0.457-1.969-0.914-2.908-1.341
					c-10.474-5.086-15.923-10.325-15.923-15.655c0-4.508,3.905-8.955,11.474-13.28c0.786-0.487,1.635-0.944,2.542-1.401
					c1.545-0.823,3.239-1.614,5.087-2.437c0.09-0.031,0.182-0.091,0.301-0.122c100.962-44.346,584.275-77.972,1165.25-77.972
					C2532.006,2151.144,3062.395,2193.785,3062.395,2246.355z"/>
			</g>
			
				<linearGradient id="SVGID_00000065074344874624742380000011164888055302643090_" gradientUnits="userSpaceOnUse" x1="678.6595" y1="2152.4561" x2="1637.5896" y2="2152.4561">
				<stop  offset="0" style="stop-color:#444B8C"/>
				<stop  offset="0.9964" style="stop-color:#26264F"/>
			</linearGradient>
			<path style="fill:url(#SVGID_00000065074344874624742380000011164888055302643090_);" d="M738.242,2215.391
				c0,0-6.564-82.048,32.819-83.689c42.665-57.434,60.716-141.123,85.33-127.995c24.614,13.128,15.179,34.46,32.409,46.767
				c17.23,12.307,84.92-20.307,103.996-4.307c19.076,15.999,21.825,90.458,62.295,81.843s50.316-41.99,67.546-19.149
				s32.409,54.019,32.409,54.019s112.679-24.615,157.259,0c44.58,24.615,93.808-1.641,147.96,16.41
				c54.152,18.051,60.716,24.615,73.843,24.615s100.099,24.614,103.381,37.742c3.282,13.128-73.843,19.692-164.096,24.615
				c-90.253,4.923-191.993,39.383-377.421,36.101c-185.429-3.282-119.79-41.024-193.633-39.383
				C828.494,2264.62,561.018,2256.415,738.242,2215.391z"/>
			
				<linearGradient id="SVGID_00000173160372124826636480000010230308572301675708_" gradientUnits="userSpaceOnUse" x1="2068.9204" y1="2127.3459" x2="3034.9973" y2="2127.3459">
				<stop  offset="0" style="stop-color:#444B8C"/>
				<stop  offset="0.9964" style="stop-color:#26264F"/>
			</linearGradient>
			<path style="fill:url(#SVGID_00000173160372124826636480000010230308572301675708_);" d="M2944.1,2102.934
				c0,0-55.793-177.224-134.559-94.911c-14.695,15.356-31.999-52.776-55.382-44.571s-27.076,36.804-25.23,58.606
				c1.846,21.802-79.35,29.277-63.366,55.077s33.567,30.722,14.109,65.183c-19.458,34.46-42.63-3.029-51.655,3.535
				s-23.595-51.123-76.106-10.099c-52.511,41.024-106.663,66.175-124.713,69.188s-97.885-33.087-150.682-13.396
				s-113.513,42.255-139.768,47.383c-26.255,5.128-126.354,23.178-19.692,26.46c106.663,3.282,131.277,29.537,310.142,26.255
				s390.549-32.819,439.778-29.537c49.229,3.282,206.761,18.051,159.173-28.717S2994.97,2107.857,2944.1,2102.934z"/>
			<g>
				
					<linearGradient id="SVGID_00000022524999726460703000000006628213256793584319_" gradientUnits="userSpaceOnUse" x1="1907.3717" y1="1533.1913" x2="1833.0723" y2="2537.7083">
					<stop  offset="0" style="stop-color:#444B8C"/>
					<stop  offset="0.9964" style="stop-color:#26264F"/>
				</linearGradient>
				<path style="fill:url(#SVGID_00000022524999726460703000000006628213256793584319_);" d="M1808.231,1811.161
					c0,0,16.844-15.193,34.019-17.835c17.175-2.642-0.661,15.854-9.908,20.478c-9.248,4.624-14.532,10.239-14.532,10.239
					s-26.423,86.534,20.147,124.186c46.57,37.652,66.387,70.35,121.874,70.35c55.487,0,68.368,20.808,62.423,49.542
					c-5.945,28.734-31.707,64.405-9.908,80.258s33.689,18.826,39.634,52.515s4.674,64.759,13.591,69.218
					c8.917,4.458,0,26.008,0,26.008s-27.495-11.889-27.495-28.238s-9.66-78.768-9.66-78.768s-94.373-36.412-98.089-57.219
					c-3.715-20.807-7.431-46.072-7.431-46.072s-130.785-14.119-142.675-33.439c-11.89-19.321-82.484-67.622-86.199-49.788
					c-3.716,17.834,3.482,41.744,2.244,43.725c-1.239,1.982,28.487,18.083,28.487,28.734s-2.973,27.744-2.973,27.744
					s-28.239-35.918-35.918-45.579c-7.679-9.661-4.211-30.964-4.211-34.927c0-3.964-41.615-51.524-16.597-48.056
					c25.019,3.468,45.083,2.527,75.304,17.984c1.486-28.14,20.312-56.875,25.266-71.738c4.954-14.863-2.973-66.882-2.973-66.882
					s-44.836-8.67-48.799-16.597c-3.963-7.927-25.019-26.01,2.229-23.533c27.248,2.477,62.423,2.973,63.91-1.982
					C1781.479,1806.537,1793.718,1802.55,1808.231,1811.161z"/>
				
					<linearGradient id="SVGID_00000128446922707728916530000009782934992806022785_" gradientUnits="userSpaceOnUse" x1="1806.9709" y1="1525.7656" x2="1732.6716" y2="2530.2805">
					<stop  offset="0" style="stop-color:#444B8C"/>
					<stop  offset="0.9964" style="stop-color:#26264F"/>
				</linearGradient>
				<path style="fill:url(#SVGID_00000128446922707728916530000009782934992806022785_);" d="M1789.736,1813.473
					c0,0,23.12-13.542,23.12-28.404s-23.45-30.056-32.698-38.313c-9.248-8.257-31.377-6.275-24.771-27.413
					s8.587-24.441,8.587-24.441s-6.275,30.386,0.661,33.028c6.936,2.642,26.753,14.532,26.753,14.532s-12.881-28.404,0.991-39.964
					c0,0,3.963,41.285,10.569,46.24c6.606,4.954,5.945,12.551,5.945,12.551s6.275-32.698,19.487-37.982
					c0,0-11.89,31.047-4.954,38.643c6.936,7.596,2.312,26.422-9.248,38.973c-11.56,12.551-13.872,23.78-13.872,23.78
					L1789.736,1813.473z"/>
				
					<linearGradient id="SVGID_00000033362766837700717900000010418137753669389445_" gradientUnits="userSpaceOnUse" x1="2068.4417" y1="1545.1041" x2="1994.1423" y2="2549.6191">
					<stop  offset="0" style="stop-color:#444B8C"/>
					<stop  offset="0.9964" style="stop-color:#26264F"/>
				</linearGradient>
				<path style="fill:url(#SVGID_00000033362766837700717900000010418137753669389445_);" d="M2011.107,2037.404
					c3.22-1.239,24.523-10.404,26.01-19.322s3.22-27.744,5.202-30.221c7.927,9.413,8.422,16.597,8.174,20.065
					c-0.248,3.468,5.45-3.22,5.45-3.22s11.147,10.156,0,22.046c-11.147,11.89-12.386,20.065-37.9,16.349
					C1992.529,2039.385,2011.107,2037.404,2011.107,2037.404z"/>
			</g>
			<g>
				<g>
					
						<linearGradient id="SVGID_00000099654153596318845190000005063122605082229178_" gradientUnits="userSpaceOnUse" x1="-2142.4187" y1="287.3145" x2="-1983.8645" y2="878.7456" gradientTransform="matrix(0.6001 -0.7999 0.7999 0.6001 1930.8295 961.5399)">
						<stop  offset="0" style="stop-color:#FF9085"/>
						<stop  offset="1" style="stop-color:#FB6FBB"/>
					</linearGradient>
					<path style="fill:url(#SVGID_00000099654153596318845190000005063122605082229178_);" d="M1440.193,3150.857
						c-3.367-37.716-163.899-3.353-242.365-110.734c-46.105-63.095-24.958-121.868-83.562-163.816
						c-53.268-38.128-95.507-7.3-129.515-44.217c-44-47.762,12.402-114.89-30.008-191.87
						c-26.292-47.724-84.574-88.366-135.386-79.546c-71.474,12.407-106.384,118.9-109.754,188.232
						c-4.819,99.163,51.291,196.265,123.911,249.737c73.758,54.311,120.831,31.422,189.793,97.71
						c56.913,54.706,43.634,88.349,87.053,120.564C1218.254,3296.972,1444.229,3196.059,1440.193,3150.857z"/>
					<path style="fill:#FFFFFF;" d="M1444.219,3153.879c-0.716,0.954-1.772,1.659-3.034,1.913
						c-78.592,15.794-160.12,5.104-242.318-31.772c-65.496-29.383-131.55-75.372-196.327-136.692
						c-110.083-104.208-179.388-218.341-180.075-219.482c-1.435-2.38-0.668-5.473,1.714-6.909c2.381-1.434,5.474-0.667,6.909,1.714
						c0.681,1.131,69.394,114.251,178.534,217.519c100.247,94.852,256.15,200.604,429.58,165.751
						c2.725-0.547,5.379,1.218,5.927,3.943C1445.422,3151.33,1445.049,3152.773,1444.219,3153.879z"/>
				</g>
				<g>
					
						<linearGradient id="SVGID_00000065768256392088917600000009683751260745078441_" gradientUnits="userSpaceOnUse" x1="-962.3074" y1="1379.5836" x2="-760.5947" y2="2132.0022" gradientTransform="matrix(0.8402 -0.5423 0.5423 0.8402 1071.4966 907.6446)">
						<stop  offset="0" style="stop-color:#FCB148"/>
						<stop  offset="0.0521" style="stop-color:#FDBA46"/>
						<stop  offset="0.1424" style="stop-color:#FFC244"/>
						<stop  offset="0.3183" style="stop-color:#FFC444"/>
						<stop  offset="0.4849" style="stop-color:#FDB946"/>
						<stop  offset="0.7754" style="stop-color:#F99C4D"/>
						<stop  offset="0.8658" style="stop-color:#F8924F"/>
						<stop  offset="1" style="stop-color:#F8924F"/>
					</linearGradient>
					<path style="fill:url(#SVGID_00000065768256392088917600000009683751260745078441_);" d="M1551.905,3199.692
						c12.614-46.494-194.112-76.281-240.394-239.029c-27.194-95.628,23.96-156.439-27.476-232.343
						c-46.753-68.992-110.755-50.831-135.058-109.884c-31.444-76.402,65.467-131.636,48.805-242.204
						c-10.33-68.546-61.958-142.75-126.484-154.633c-90.766-16.714-179.39,94.975-213.987,176.227
						c-49.482,116.212-25.345,256.834,37.735,352.67c64.069,97.34,130.338,90.785,183.401,200.303
						c43.792,90.383,13.108,124.675,50.716,182.267C1222.614,3276.183,1536.787,3255.413,1551.905,3199.692z"/>
					<path style="fill:#FFFFFF;" d="M1555.376,3205.073c-1.275,0.823-2.847,1.198-4.464,0.945
						c-100.754-15.812-193.332-64.522-275.162-144.779c-65.202-63.948-123.746-147.96-174.008-249.703
						c-85.413-172.904-117.785-339.67-118.102-341.334c-0.663-3.473,1.616-6.825,5.092-7.489c3.474-0.661,6.827,1.618,7.49,5.092
						c0.314,1.649,32.426,166.946,117.129,338.313c77.8,157.402,217.212,352.356,439.546,387.248
						c3.494,0.548,5.882,3.825,5.333,7.319C1557.936,3202.561,1556.855,3204.119,1555.376,3205.073z"/>
				</g>
			</g>
		</g>
	</g>
</g>
</svg>
