<?xml version="1.0" encoding="utf-8"?>
<!-- Generator: Adobe Illustrator 27.5.0, SVG Export Plug-In . SVG Version: 6.00 Build 0)  -->
<svg version="1.1" xmlns="http://www.w3.org/2000/svg" xmlns:xlink="http://www.w3.org/1999/xlink" x="0px" y="0px"
	 viewBox="0 0 3710 3710" style="enable-background:new 0 0 3710 3710;" xml:space="preserve">
<g id="Illustration">
	<g>
		<linearGradient id="SVGID_1_" gradientUnits="userSpaceOnUse" x1="3503.8423" y1="3677.0967" x2="1537.9818" y2="1584.4069">
			<stop  offset="0" style="stop-color:#DAE3FE"/>
			<stop  offset="1" style="stop-color:#E9EFFD"/>
		</linearGradient>
		<path style="fill:url(#SVGID_1_);" d="M2913.594,2837.518c-72.572,74.804-137.506,118.777-187.222,151.973
			c-484.871,323.753-1039.132,230.439-1210.496,198.545c-276.474-51.458-509.857-87.759-710.374-268.918
			c-455.636-411.649-433.475-1270.379-85.313-1802.325c41.281-63.073,388.916-578.375,944.376-650.986
			c13.586-1.776,23.723-2.787,32.601-3.727c85.928-9.098,618.41-57.115,1052.596,306.646
			c62.152,52.07,162.171,145.992,254.922,289.239C3343.824,1581.738,3344.898,2392.947,2913.594,2837.518z"/>
		<g>
			
				<ellipse transform="matrix(0.0439 -0.999 0.999 0.0439 223.305 3344.2183)" style="fill:#91B3FA;" cx="1858.778" cy="1555.448" rx="1045.289" ry="1128.287"/>
			<path style="fill:#7D97F4;" d="M1007.622,862.924c-24.766,39.759-43.861,84.518-40.275,131.221
				c4.152,54.078,31.523,104.72,32.926,158.94c2.38,91.953-68.603,168.922-90.746,258.201
				c-24.75,99.79,68.566,213.49,105.744,269.188c37.178,55.698,21.201-45.192,43.746-84.533
				c22.546-39.341,71.158,165.539,147.093,210.505c40.741,24.125,88.539,40.185,117.841,77.377
				c42.737,54.245,30.895,131.434,24.479,200.194c-6.416,68.759,3.195,152.556,65.12,183.122
				c36.462,17.998,82.809,11.907,115.712,35.797c57.784,41.956,30.181,133.426,53.078,201.064
				c24.901,73.556,74.274,74.524,150.665,90.118s-9.625-152.231,26.162-210.885c18.81-30.829,47.525-55.363,62.359-88.29
				c20.574-45.664,14.779-106.676,54.691-136.933c29.918-22.681,71.547-16.545,109.089-16.876
				c37.542-0.331,83.202-16.622,87.461-53.923c3.779-33.096-29.354-59.487-61.77-67.157c-32.417-7.67-66.958-4.013-98.795-13.815
				c-91.062-28.039-133.536-155.467-228.63-161.43c-81.286-5.097-149.369,86.144-229.24,70.208
				c-44.527-8.884-75.005-48.319-108.057-79.45c-42.459-39.992-95.153-70.006-128.863-117.606
				c-33.71-47.6-39.445-123.684,8.511-156.885c35.623-24.663,86.239-14.652,121.431,10.622
				c35.193,25.274,59.162,62.774,85.008,97.549c7.983,10.74,17.016,21.871,29.787,25.868c34.366,10.758,59.442-37.591,51.219-72.65
				c-8.223-35.058-32.989-65.895-34.152-101.886c-2.05-63.431,66.257-103.68,126.181-124.581
				c59.924-20.901,130.553-45.82,148.171-106.791c6.223-21.536,4.59-45.235,14.088-65.541
				c31.475-67.296,197.562-100.891,157.862-139.913c-39.7-39.022-165.707-47.504-190.245-126.092
				c-8.785-28.135-17.829-65.325-47.177-68.046c-47.805-4.432-75.082,54.74-115.179,64.897
				c-19.036,4.822-20.867,37.154-20.125,76.912c0.539,28.859-22.415,52.692-51.274,53.238c-28.858,0.546-52.7-22.402-53.25-51.26
				c-0.204-10.712,1.672-21.539,6.077-32.337c7.72-18.923,22.381-34.055,37.162-48.169
				c61.673-58.888,245.701-123.588,207.165-148.655c-38.536-25.067-223.49-94.242-251.078-56.067
				c-27.588,38.176,18.041,5.851,29.169,51.126c11.129,45.276-136.819,39.205-205.229,58.808
				c-11.295,3.237-23.823,6.389-34.398,1.269c-11.821-5.723-16.798-19.482-23.212-30.942c-34.357-61.38-148.63-21.539-148.63-21.539
				S1029.75,827.399,1007.622,862.924z"/>
			<path style="fill:#7D97F4;" d="M1524.486,584.38c-16.609,30.964,32.786,30.462,37.699,65.254
				c44.467,4.846,62.728-65.262,106.704-73.444c24.818-4.618,48.881,13.164,62.367,34.503
				c13.486,21.339,19.777,46.394,31.207,68.902c25.611,50.43,78.495,85.922,134.868,90.516c12.265,0.999,25.781,0.215,35.013-7.92
				c26.801-23.617-11.542-67.984-1.581-102.289c11.383-39.201,67.907-33.254,106.112-47.63
				c10.538-3.965,91.584-25.591,92.888-36.775c2.311-19.826-35.288-32.448-77.35-43.264
				c-71.263-18.325-196.653-17.563-257.943-12.018C1712.931,527.591,1577.077,521.63,1524.486,584.38L1524.486,584.38z"/>
			<g>
				<path style="fill:#7D97F4;" d="M2884.31,1916.051c18.477-115.664,16.939-234.498-4.525-349.645
					c-5.726-30.717-19.129-67.336-50.062-71.757c-35.778-5.114-79.579,35.985-101.976,7.619
					c-9.887-12.521-5.941-30.751-0.342-45.689c14.771-39.398,37.894-75.64,67.397-105.638
					c18.328-18.635,39.299-35.155,53.412-57.156c30.186-47.055,8.997-115.816-33.727-151.872
					c-42.722-36.056-97.837,28.603-142.746,2.936c-44.91-25.667-46.307-87.934-54.748-138.967
					c-6.252-37.802-34.105-140.217-64.872-90.339c-30.767,49.877,41.04,248.428,121.857,343.603
					c9.748,11.48,20.512,24.338,19.689,39.376c-1.966,35.91-54.295,34.313-89.5,41.665c-43.577,9.102-110.368-14.236-73.508,61.698
					c19.44,40.048,112.298,94.863,87.347,121.664c-24.951,26.801-101.658,104.433-137.65,167.214
					c-35.992,62.782-53.435,140.961-26.293,208.046c27.142,67.085,108.754,113.408,175.375,85.147
					c31.181-13.228,65.167-40.728,94.152-23.203c26.248,15.869,22.375,53.962,21.076,84.607
					c-1.298,30.644,16.366,71.324,46.182,64.125c9.811-2.369,17.527-9.807,24.152-17.421
					C2856.948,2043.853,2874.229,1979.155,2884.31,1916.051z"/>
			</g>
			<ellipse style="opacity:0.19;fill:#91B3FA;" cx="1797.713" cy="1480.031" rx="885.356" ry="836.379"/>
			<g style="opacity:0.68;">
				<path style="fill:#FFFFFF;" d="M2174.455,1573.389c-0.272,184.337-12.897,369.049-45.328,550.776
					c-8.209,45.396-17.732,90.572-29.08,135.318c-11.38,44.729-24.523,89.068-40.615,132.418
					c-16.225,43.235-35.062,85.848-60.597,124.781c-12.868,19.324-27.462,37.837-45.463,53.056
					c-8.999,7.563-18.876,14.267-29.735,19.177c-10.84,4.878-22.679,7.965-34.695,8.182c-12.003,0.354-24.019-2.001-35.072-6.454
					c-11.092-4.411-21.211-10.812-30.423-18.124c-18.43-14.745-33.345-33.053-46.445-52.224
					c-13.068-19.257-24.225-39.659-34.321-60.496c-10.06-20.866-19.003-42.223-27.157-63.854
					c-16.294-43.274-29.565-87.579-41.047-132.282c-11.462-44.716-21.077-89.872-29.359-135.253
					c-16.523-90.778-27.786-182.431-35.38-274.335c-7.534-91.92-11.302-184.131-11.744-276.355
					c-0.213-46.108,1.006-92.208,2.634-138.278c1.71-46.072,4.229-92.113,7.603-138.092c6.784-91.947,16.936-183.692,32.045-274.681
					c7.58-45.486,16.422-90.778,27.062-135.669c10.663-44.876,23.062-89.396,38.443-132.95
					c7.731-21.755,16.186-43.279,25.827-64.296c9.628-21.013,20.402-41.566,33.063-60.995
					c12.691-19.344,27.282-37.807,45.443-52.583c9.081-7.323,19.082-13.693,30.04-18.011c10.909-4.372,22.748-6.588,34.528-6.144
					c11.783,0.336,23.403,3.281,34.121,8.006c10.735,4.748,20.602,11.207,29.663,18.528c18.119,14.735,33.119,32.754,46.426,51.679
					c26.456,38.112,46.403,80.148,63.677,122.919c17.149,42.889,31.304,86.889,43.632,131.345
					c12.284,44.477,22.686,89.448,31.684,134.685C2159.487,1204.288,2173.94,1389.022,2174.455,1573.389z M2161.758,1573.389
					c0.157-91.874-3.351-183.772-10.997-275.328c-7.551-91.549-18.99-182.835-36.009-273.11
					c-8.501-45.13-18.397-90.005-30.174-134.383c-11.813-44.355-25.45-88.259-42.049-131.027
					c-16.717-42.647-36.1-84.547-61.822-122.407c-12.93-18.797-27.514-36.651-45.017-51.179c-8.753-7.22-18.25-13.565-28.533-18.238
					c-10.273-4.617-21.339-7.639-32.595-7.936c-11.243-0.359-22.479,1.897-32.883,6.175c-10.44,4.234-20.022,10.465-28.759,17.657
					c-17.474,14.507-31.629,32.752-43.933,51.936c-12.278,19.267-22.731,39.7-32.058,60.612
					c-9.34,20.917-17.513,42.36-24.969,64.045c-14.837,43.41-26.721,87.82-36.883,132.59
					c-10.132,44.786-18.479,89.98-25.572,135.364c-14.126,90.788-23.314,182.321-29.142,274.022
					c-5.88,91.713-7.96,183.638-7.8,275.521c-0.216,91.87,2.876,183.767,9.729,275.387c6.906,91.603,17.474,182.978,33.273,273.454
					c7.918,45.229,17.166,90.228,28.241,134.763c11.095,44.519,23.966,88.621,39.808,131.62
					c7.924,21.493,16.628,42.691,26.407,63.359c9.821,20.636,20.671,40.801,33.322,59.734
					c12.671,18.849,27.088,36.732,44.575,50.917c8.737,7.038,18.25,13.13,28.539,17.302c10.257,4.185,21.27,6.506,32.3,6.136
					c11.03-0.28,21.896-3.189,31.979-7.811c10.096-4.653,19.406-11.053,27.953-18.345c17.107-14.673,31.216-32.78,43.664-51.79
					c24.736-38.315,43.091-80.603,58.841-123.558c15.629-43.078,28.359-87.217,39.343-131.764
					c10.951-44.565,20.088-89.584,27.927-134.825c15.691-90.496,26.128-181.88,33.06-273.485
					C2158.547,1757.185,2161.79,1665.28,2161.758,1573.389z"/>
				<path style="fill:#FFFFFF;" d="M2639.469,1573.389c-0.626,118.677-15.865,237.406-47.622,351.854
					c-32.297,114.187-80.983,224.051-147.107,322.691c-33.067,49.268-70.527,95.643-112.392,137.721
					c-41.843,42.064-88.121,79.823-138.37,111.457c-50.291,31.511-104.612,56.737-161.475,73.852
					c-56.83,17.157-116.156,26.11-175.538,26.177c-59.382-0.016-118.724-8.92-175.581-26.033
					c-56.892-17.072-111.252-42.259-161.593-73.742c-50.298-31.602-96.638-69.331-138.547-111.378
					c-41.928-42.063-79.46-88.429-112.595-137.695c-66.248-98.653-115.026-208.561-147.464-322.8
					c-32.028-114.474-47.219-233.343-47.72-352.103c0.302-59.398,4.265-118.772,12.124-177.643
					c7.898-58.861,19.799-117.2,35.809-174.401c32.513-114.196,81.363-224.036,147.654-322.592
					c33.145-49.225,70.684-95.543,112.605-137.553c41.912-41.987,88.223-79.684,138.507-111.195
					c50.327-31.406,104.677-56.419,161.475-73.486c56.765-17.134,116.015-26.076,175.325-26.14
					c59.31,0.111,118.548,9.097,175.286,26.273c56.771,17.11,111.079,42.17,161.354,73.607
					c50.239,31.544,96.484,69.268,138.331,111.273c41.859,42.026,79.325,88.354,112.405,137.579
					c66.163,98.545,114.921,208.339,147.29,322.484C2623.454,1336.002,2638.768,1454.712,2639.469,1573.389z M2624.915,1573.389
					c-0.19-117.422-14.837-234.968-45.84-348.31c-31.183-113.165-78.143-222.403-142.753-320.634
					c-32.287-49.065-68.957-95.31-110.024-137.345c-41.079-41.969-86.457-79.932-136.073-111.49
					c-49.676-31.385-103.318-56.638-159.558-73.724c-56.214-17.102-114.905-26.089-173.7-26.282
					c-58.796,0.239-117.473,9.274-173.658,26.415c-56.217,17.128-109.817,42.428-159.44,73.845
					c-49.567,31.591-94.883,69.581-135.897,111.568c-41.001,42.052-77.602,88.305-109.821,137.371
					c-64.486,98.219-111.35,207.411-142.393,320.524c-15.459,56.624-26.662,114.359-34.249,172.529
					c-7.6,58.178-11.354,116.846-11.492,175.532c0.17,58.686,3.961,117.35,11.593,175.518
					c7.623,58.16,18.869,115.881,34.361,172.483c31.118,113.07,78.054,222.193,142.579,320.317
					c32.231,49.022,68.836,95.228,109.834,137.227c41.017,41.928,86.3,79.886,135.857,111.385
					c49.613,31.34,103.2,56.466,159.323,73.589c56.093,17.164,114.679,26.235,173.402,26.523
					c58.723-0.238,117.326-9.259,173.448-26.379c56.149-17.079,109.778-42.167,159.437-73.478
					c49.607-31.47,94.955-69.396,136.034-111.308c41.06-41.98,77.737-88.178,110.037-137.2
					c64.649-98.136,111.681-207.305,142.936-320.427C2609.927,1808.336,2624.649,1690.811,2624.915,1573.389z"/>
				<path style="fill:#FFFFFF;" d="M943.215,1168.26l235.159-1.762l235.159-1.007l470.315-0.807l470.318,0.889l235.159,1.094
					l235.159,1.908c0.354,0.003,0.639,0.293,0.635,0.647c-0.003,0.352-0.288,0.634-0.635,0.637l-235.159,1.908l-235.159,1.094
					l-470.318,0.889l-470.315-0.807l-235.159-1.007l-235.159-1.762c-0.527-0.003-0.953-0.436-0.95-0.963
					C942.268,1168.686,942.694,1168.264,943.215,1168.26z"/>
				<path style="fill:#FFFFFF;" d="M1216.027,774.39c55.651-0.821,111.305-1.173,166.955-1.767l166.955-1.002
					c55.651-0.426,111.305-0.38,166.955-0.513l166.955-0.295l333.914,0.889l166.955,1.094c55.651,0.649,111.301,1.029,166.955,1.908
					c0.354,0.005,0.639,0.298,0.632,0.652c-0.007,0.349-0.288,0.627-0.632,0.632c-55.654,0.88-111.305,1.26-166.955,1.908
					l-166.955,1.094l-333.914,0.889l-166.955-0.295c-55.651-0.133-111.305-0.085-166.955-0.513l-166.955-1.001
					c-55.651-0.596-111.305-0.948-166.955-1.769c-0.527-0.007-0.95-0.442-0.943-0.97
					C1215.09,774.814,1215.513,774.398,1216.027,774.39z"/>
				<path style="fill:#FFFFFF;" d="M861.495,1562.131l255.587-1.762l255.591-1.007l511.175-0.807l511.178,0.889l255.588,1.094
					l255.591,1.908c0.354,0.002,0.639,0.292,0.636,0.647c0,0.35-0.285,0.634-0.636,0.637l-255.591,1.908l-255.588,1.094
					l-511.178,0.889l-511.175-0.807l-255.591-1.007l-255.587-1.762c-0.527-0.003-0.953-0.434-0.95-0.963
					C860.548,1562.557,860.974,1562.134,861.495,1562.131z"/>
				<path style="fill:#FFFFFF;" d="M943.215,1956.002l235.159-1.762l235.159-1.007l470.315-0.809l470.318,0.891l235.159,1.094
					l235.159,1.908c0.354,0.002,0.639,0.292,0.635,0.647c-0.003,0.351-0.288,0.634-0.635,0.637l-235.159,1.907l-235.159,1.096
					l-470.318,0.889l-470.315-0.807l-235.159-1.009l-235.159-1.761c-0.527-0.003-0.953-0.436-0.95-0.965
					C942.268,1956.427,942.694,1956.005,943.215,1956.002z"/>
				<path style="fill:#FFFFFF;" d="M2585.323,2354.182H1249.677c-1.854,0-3.354-1.5-3.354-3.354s1.5-3.354,3.354-3.354h1335.646
					c1.854,0,3.354,1.5,3.354,3.354S2587.177,2354.182,2585.323,2354.182z"/>
			</g>
		</g>
		<g>
			
				<linearGradient id="SVGID_00000132070498666124364420000008119336346520449955_" gradientUnits="userSpaceOnUse" x1="1609.7593" y1="1958.574" x2="1616.4683" y2="1513.5444">
				<stop  offset="0" style="stop-color:#FF928E"/>
				<stop  offset="1" style="stop-color:#FE7062"/>
			</linearGradient>
			
				<rect x="1271.051" y="1535.731" style="fill:url(#SVGID_00000132070498666124364420000008119336346520449955_);" width="685.784" height="290.616"/>
			
				<linearGradient id="SVGID_00000026150845425119292200000015830284443113345696_" gradientUnits="userSpaceOnUse" x1="1692.491" y1="701.9091" x2="1634.3468" y2="1319.1376">
				<stop  offset="0" style="stop-color:#FF928E"/>
				<stop  offset="1" style="stop-color:#FE7062"/>
			</linearGradient>
			<polygon style="fill:url(#SVGID_00000026150845425119292200000015830284443113345696_);" points="1857.07,1381.24 
				1616.644,1241.234 1376.664,1380.187 1271.051,1535.731 1956.835,1535.731 			"/>
			
				<linearGradient id="SVGID_00000049223925866874183150000012877825584417260718_" gradientUnits="userSpaceOnUse" x1="1698.7896" y1="978.8406" x2="1537.7732" y2="1562.5232">
				<stop  offset="0" style="stop-color:#FEBBBA"/>
				<stop  offset="1" style="stop-color:#FF928E"/>
			</linearGradient>
			
				<rect x="1577.625" y="1257.381" style="fill:url(#SVGID_00000049223925866874183150000012877825584417260718_);" width="11.865" height="278.35"/>
			
				<linearGradient id="SVGID_00000147934927349756887090000011680890021974899638_" gradientUnits="userSpaceOnUse" x1="1647.6819" y1="964.7416" x2="1486.6654" y2="1548.4247">
				<stop  offset="0" style="stop-color:#FEBBBA"/>
				<stop  offset="1" style="stop-color:#FF928E"/>
			</linearGradient>
			
				<rect x="1520.662" y="1271.629" style="fill:url(#SVGID_00000147934927349756887090000011680890021974899638_);" width="11.865" height="264.102"/>
			
				<linearGradient id="SVGID_00000029743683070131686190000010514344978014801548_" gradientUnits="userSpaceOnUse" x1="1599.5024" y1="951.4506" x2="1438.4857" y2="1535.1348">
				<stop  offset="0" style="stop-color:#FEBBBA"/>
				<stop  offset="1" style="stop-color:#FF928E"/>
			</linearGradient>
			
				<rect x="1464.755" y="1301.075" style="fill:url(#SVGID_00000029743683070131686190000010514344978014801548_);" width="11.865" height="234.656"/>
			
				<linearGradient id="SVGID_00000005951313415098215960000011812141032001377690_" gradientUnits="userSpaceOnUse" x1="1551.4323" y1="938.1904" x2="1390.4158" y2="1521.8735">
				<stop  offset="0" style="stop-color:#FEBBBA"/>
				<stop  offset="1" style="stop-color:#FF928E"/>
			</linearGradient>
			
				<rect x="1408.048" y="1337.17" style="fill:url(#SVGID_00000005951313415098215960000011812141032001377690_);" width="11.865" height="198.562"/>
			
				<linearGradient id="SVGID_00000098912440514486082320000009828100797741836685_" gradientUnits="userSpaceOnUse" x1="1504.4551" y1="925.2302" x2="1343.4385" y2="1508.9138">
				<stop  offset="0" style="stop-color:#FEBBBA"/>
				<stop  offset="1" style="stop-color:#FF928E"/>
			</linearGradient>
			
				<rect x="1349.766" y="1393.212" style="fill:url(#SVGID_00000098912440514486082320000009828100797741836685_);" width="11.865" height="142.52"/>
			
				<linearGradient id="SVGID_00000021093459184156086090000009408896327218979207_" gradientUnits="userSpaceOnUse" x1="1748.9863" y1="992.6879" x2="1587.9701" y2="1576.37">
				<stop  offset="0" style="stop-color:#FEBBBA"/>
				<stop  offset="1" style="stop-color:#FF928E"/>
			</linearGradient>
			<polygon style="fill:url(#SVGID_00000021093459184156086090000009408896327218979207_);" points="1631.696,1535.337 
				1643.561,1535.337 1643.561,1257.381 1631.696,1257.381 			"/>
			
				<linearGradient id="SVGID_00000063632489999238863450000000838170197241964983_" gradientUnits="userSpaceOnUse" x1="1803.3779" y1="1007.6906" x2="1642.3615" y2="1591.3738">
				<stop  offset="0" style="stop-color:#FEBBBA"/>
				<stop  offset="1" style="stop-color:#FF928E"/>
			</linearGradient>
			<polygon style="fill:url(#SVGID_00000063632489999238863450000000838170197241964983_);" points="1688.658,1535.337 
				1700.523,1535.337 1700.523,1268.75 1688.658,1268.75 			"/>
			
				<linearGradient id="SVGID_00000052791521331974584200000009547409149664952472_" gradientUnits="userSpaceOnUse" x1="1859.8345" y1="1023.267" x2="1698.818" y2="1606.9503">
				<stop  offset="0" style="stop-color:#FEBBBA"/>
				<stop  offset="1" style="stop-color:#FF928E"/>
			</linearGradient>
			<polygon style="fill:url(#SVGID_00000052791521331974584200000009547409149664952472_);" points="1744.566,1535.337 
				1756.431,1535.337 1756.431,1303.883 1744.566,1303.883 			"/>
			
				<linearGradient id="SVGID_00000085948807421245162860000009621592898773151644_" gradientUnits="userSpaceOnUse" x1="1916.5597" y1="1038.9143" x2="1755.5431" y2="1622.5978">
				<stop  offset="0" style="stop-color:#FEBBBA"/>
				<stop  offset="1" style="stop-color:#FF928E"/>
			</linearGradient>
			<polygon style="fill:url(#SVGID_00000085948807421245162860000009621592898773151644_);" points="1801.272,1535.337 
				1813.137,1535.337 1813.137,1335.311 1801.272,1335.311 			"/>
			
				<linearGradient id="SVGID_00000128462710461228668620000006384468624312867516_" gradientUnits="userSpaceOnUse" x1="1978.3405" y1="1055.9575" x2="1817.3241" y2="1639.6406">
				<stop  offset="0" style="stop-color:#FEBBBA"/>
				<stop  offset="1" style="stop-color:#FF928E"/>
			</linearGradient>
			<polygon style="fill:url(#SVGID_00000128462710461228668620000006384468624312867516_);" points="1859.555,1535.337 
				1871.42,1535.337 1871.42,1394.762 1859.555,1394.762 			"/>
			
				<linearGradient id="SVGID_00000167389459717196067910000018235086104171600789_" gradientUnits="userSpaceOnUse" x1="1620.0181" y1="1511.0704" x2="1615.6034" y2="2151.2576">
				<stop  offset="0" style="stop-color:#FEBBBA"/>
				<stop  offset="1" style="stop-color:#FF928E"/>
			</linearGradient>
			
				<rect x="1453.208" y="1621.908" style="fill:url(#SVGID_00000167389459717196067910000018235086104171600789_);" width="330.681" height="204.439"/>
			
				<linearGradient id="SVGID_00000086664184721547102300000010270349761828276656_" gradientUnits="userSpaceOnUse" x1="1599.1475" y1="1578.0055" x2="1722.1459" y2="1271.6279">
				<stop  offset="0" style="stop-color:#FF928E"/>
				<stop  offset="1" style="stop-color:#FE7062"/>
			</linearGradient>
			
				<rect x="1470.688" y="1636.868" style="fill:url(#SVGID_00000086664184721547102300000010270349761828276656_);" width="138.368" height="177.576"/>
			
				<linearGradient id="SVGID_00000044140801675271020040000002708527643531474071_" gradientUnits="userSpaceOnUse" x1="1730.3298" y1="1630.67" x2="1853.3289" y2="1324.2911">
				<stop  offset="0" style="stop-color:#FF928E"/>
				<stop  offset="1" style="stop-color:#FE7062"/>
			</linearGradient>
			
				<rect x="1618.549" y="1636.868" style="fill:url(#SVGID_00000044140801675271020040000002708527643531474071_);" width="147.296" height="177.576"/>
			
				<linearGradient id="SVGID_00000010303196225271226520000001762644098325349811_" gradientUnits="userSpaceOnUse" x1="1763.578" y1="996.7113" x2="1602.5609" y2="1580.3965">
				<stop  offset="0" style="stop-color:#FEBBBA"/>
				<stop  offset="1" style="stop-color:#FF928E"/>
			</linearGradient>
			
				<rect x="1271.051" y="1531.891" style="fill:url(#SVGID_00000010303196225271226520000001762644098325349811_);" width="685.784" height="14.49"/>
			
				<linearGradient id="SVGID_00000062160751441654713230000009816136978765222288_" gradientUnits="userSpaceOnUse" x1="1462.4189" y1="1322.6809" x2="2084.9424" y2="2197.1785">
				<stop  offset="0" style="stop-color:#E1473D"/>
				<stop  offset="1" style="stop-color:#E9605A"/>
			</linearGradient>
			<path style="fill:url(#SVGID_00000062160751441654713230000009816136978765222288_);" d="M1986.278,1531.725l-122.046-168.634
				l0.014-0.019l-0.048-0.028l-0.213-0.295l-0.172,0.07l-251.013-146.1c-0.14-0.081-0.349-0.072-0.607,0.006
				c-0.885-0.043-2.357,0.492-4.894,2.161l-247.289,143.932l-0.172-0.07l-0.213,0.295l-0.047,0.028l0.014,0.019l-118.923,164.318
				c-6.761,13.03,11.523,22.212,25.17,15.525l116.703-161.251l229.37-133.503l229.37,133.503l119.198,164.698
				C1969.845,1558.171,1995.162,1548.672,1986.278,1531.725z"/>
		</g>
		
			<linearGradient id="SVGID_00000121243637394353173670000014141705445746248841_" gradientUnits="userSpaceOnUse" x1="1327.9321" y1="2842.1748" x2="2661.2788" y2="1493.7329">
			<stop  offset="0" style="stop-color:#E1473D"/>
			<stop  offset="1" style="stop-color:#E9605A"/>
		</linearGradient>
		<path style="fill:url(#SVGID_00000121243637394353173670000014141705445746248841_);" d="M467.716,2234.547
			c473.109,1413.526,2639.421,1290.202,2769.819-386.903C1959.076,1698.905,1072.322,1688.161,467.716,2234.547z"/>
		
			<linearGradient id="SVGID_00000042015203558318842830000014178068214221778588_" gradientUnits="userSpaceOnUse" x1="2134.8086" y1="816.1729" x2="1993.9266" y2="1450.1425">
			<stop  offset="0" style="stop-color:#E1473D"/>
			<stop  offset="1" style="stop-color:#E9605A"/>
		</linearGradient>
		<path style="fill:url(#SVGID_00000042015203558318842830000014178068214221778588_);" d="M485.908,2302.494
			c608.065,1389.256,2255.199,995.774,2617.407,89.136C2360.398,2574.311,1462.704,2094.891,485.908,2302.494z"/>
		<g>
			
				<linearGradient id="SVGID_00000041990840879543326390000016837127263286274231_" gradientUnits="userSpaceOnUse" x1="2769.9133" y1="877.7507" x2="3791.7" y2="107.7094">
				<stop  offset="0" style="stop-color:#FF928E"/>
				<stop  offset="1" style="stop-color:#FE7062"/>
			</linearGradient>
			
				<circle style="fill:url(#SVGID_00000041990840879543326390000016837127263286274231_);" cx="2968.832" cy="727.841" r="207.408"/>
			<g>
				
					<linearGradient id="SVGID_00000035517502408592342950000000416404548839500929_" gradientUnits="userSpaceOnUse" x1="3271.1792" y1="48.3946" x2="2868.6592" y2="944.0009">
					<stop  offset="0" style="stop-color:#FF928E"/>
					<stop  offset="1" style="stop-color:#FE7062"/>
				</linearGradient>
				
					<circle style="fill:url(#SVGID_00000035517502408592342950000000416404548839500929_);" cx="2966.155" cy="727.073" r="189.251"/>
			</g>
		</g>
		<g>
			
				<linearGradient id="SVGID_00000182515100772978892690000004485819200430599322_" gradientUnits="userSpaceOnUse" x1="976.1112" y1="1392.8102" x2="1042.0677" y2="1392.8102">
				<stop  offset="0" style="stop-color:#09005D"/>
				<stop  offset="1" style="stop-color:#1A0F91"/>
			</linearGradient>
			<polygon style="fill:url(#SVGID_00000182515100772978892690000004485819200430599322_);" points="1006.375,850.983 
				976.111,1935.783 1042.068,1935.783 1017.087,849.837 			"/>
			
				<linearGradient id="SVGID_00000119079477160943678080000016630359662110489261_" gradientUnits="userSpaceOnUse" x1="685.2745" y1="1337.0298" x2="1026.2992" y2="1337.0298">
				<stop  offset="0" style="stop-color:#09005D"/>
				<stop  offset="1" style="stop-color:#1A0F91"/>
			</linearGradient>
			<path style="fill:url(#SVGID_00000119079477160943678080000016630359662110489261_);" d="M704.622,1167.141
				c-3.258,4.791-5.798,9.459-7.759,14.582c-0.951,2.537-1.683,5.11-2.242,7.69c-0.499,2.598-0.78,5.196-0.831,7.782
				c-0.098,5.172,0.843,10.257,2.634,15.061c1.786,4.809,4.393,9.33,7.477,13.568l-1.886-1.836
				c8.449,4.693,16.912,9.404,25.163,14.532c4.198,2.445,8.221,5.178,12.306,7.831c4.114,2.61,8.135,5.368,12.088,8.243
				c8.046,5.552,15.695,11.695,23.276,17.947c7.57,6.29,14.797,13.009,21.924,19.895l10.319,10.737
				c3.315,3.704,6.485,7.543,9.737,11.326c6.262,7.758,12.341,15.73,17.843,24.126c2.918,4.091,5.434,8.439,8.023,12.757
				c2.672,4.269,5.1,8.679,7.4,13.169c2.383,4.447,4.756,8.912,6.781,13.537c2.079,4.594,4.493,9.09,6.254,13.832
				c1.856,4.699,3.899,9.367,5.615,14.139l4.891,14.428l1.049,3.047c0.369,1.161,0.6,1.486,0.88,2.273
				c0.646,1.56,1.414,3.219,2.225,4.76c1.7,3.096,3.453,6.142,5.606,8.919c2.167,2.758,4.392,5.46,6.922,7.88
				c1.264,1.21,2.587,2.346,3.953,3.433l1.018,0.829l0.507,0.418l0.126,0.104l0.063,0.049c0.413,0.289-0.495-0.332-0.364-0.24
				l0.362,0.258l2.911,2.088c4.194,3.126,6.933,4.662,10.462,7.002l5.405,3.255l5.588,2.967
				c15.053,7.708,31.631,13.359,49.366,16.965c8.852,1.898,17.983,3.126,27.308,4.232c9.342,1.142,18.843,1.615,28.621,2.494
				l0.656,3.716c-9.064,3.925-18.479,7.199-28.211,9.459c-9.718,2.279-19.727,3.98-29.926,4.484
				c-10.181,0.485-20.595,0.461-30.969-1.032c-10.371-1.431-20.721-3.894-30.8-7.426c-5.034-1.794-9.958-3.888-14.812-6.179
				c-4.8-2.316-10.377-5.497-14.039-7.807l-3.054-1.873l-4.074-2.801c-2.4-1.843-4.722-3.79-6.939-5.847
				c-4.416-4.134-8.496-8.654-11.887-13.66c-3.403-4.987-6.455-10.239-8.716-15.834c-1.15-2.807-2.142-5.589-3.045-8.544
				c-0.424-1.492-0.998-3.415-1.248-4.564l-0.834-3.863l-2.759-13.169c-1.004-4.379-2.303-8.673-3.447-13.028
				c-2.564-8.611-5.396-17.198-9.09-25.429c-1.675-4.195-3.549-8.31-5.652-12.309c-2.021-4.048-3.966-8.145-6.317-12.026
				c-4.365-7.954-9.319-15.601-14.479-23.131l-8.108-11.074l-8.57-10.798c-5.996-6.984-12.134-13.906-18.686-20.484
				c-6.542-6.578-13.309-12.991-20.352-19.139c-3.458-3.151-7.007-6.21-10.669-9.14c-3.632-2.967-7.206-6.026-10.99-8.826
				c-7.403-5.817-15.094-11.283-22.814-16.756l-1.408-1.001l-0.481-0.841c-3.047-5.325-5.571-11.062-7.087-17.137
				c-1.528-6.062-1.976-12.456-1.161-18.623c0.442-3.083,1.184-6.087,2.141-8.986c1.02-2.881,2.22-5.657,3.624-8.304
				c2.77-5.215,6.429-10.172,10.15-14.348L704.622,1167.141z"/>
			
				<linearGradient id="SVGID_00000130638744588256037530000003135781175700439970_" gradientUnits="userSpaceOnUse" x1="821.433" y1="1316.0273" x2="850.0678" y2="1316.0273">
				<stop  offset="0" style="stop-color:#09005D"/>
				<stop  offset="1" style="stop-color:#1A0F91"/>
			</linearGradient>
			<path style="fill:url(#SVGID_00000130638744588256037530000003135781175700439970_);" d="M830.338,1260.195
				c0,0,1.092,1.529,3.004,4.195c0.989,1.314,2.108,2.961,3.261,4.994c1.185,2.002,2.621,4.244,3.836,6.842
				c1.351,2.537,2.683,5.368,3.866,8.476c1.394,3.04,2.162,6.486,3.252,9.987c0.743,3.575,1.638,7.291,1.969,11.16
				c0.571,3.851,0.548,7.831,0.539,11.799l-0.273,5.97c-0.238,1.978-0.476,3.949-0.711,5.896c-0.53,3.9-1.351,7.733-2.577,11.265
				c-1.268,3.526-2.721,6.836-4.541,9.729c-1.582,3.022-3.55,5.571-5.308,7.93c-1.691,2.408-3.702,4.275-5.294,6.032
				c-1.626,1.738-3.232,3.077-4.579,4.158c-2.672,2.168-4.35,3.231-4.35,3.231l-0.998-0.762c0,0,0.513-1.966,1.678-5.092
				c1.159-3.034,2.818-7.365,4.808-12.561c0.884-2.58,2.093-5.221,3.037-8.12c1.043-2.868,2.113-5.835,3.194-8.918
				c1.169-3.047,2.326-6.21,3.432-9.465c0.484-1.658,0.971-3.323,1.459-5l0.998-5.153c0.439-3.47,0.931-6.99,0.843-10.472
				c0.155-3.501-0.24-6.928-0.491-10.282c-0.568-3.298-0.957-6.56-1.76-9.57c-0.625-3.065-1.44-5.915-2.328-8.519
				c-0.754-2.66-1.752-4.951-2.569-7.045c-0.78-2.088-1.603-3.906-2.316-5.393c-1.38-2.979-2.168-4.68-2.168-4.68L830.338,1260.195z
				"/>
			
				<linearGradient id="SVGID_00000168835345877816851600000011070404979625857419_" gradientUnits="userSpaceOnUse" x1="1009.9887" y1="997.7112" x2="1165.4626" y2="997.7112">
				<stop  offset="0" style="stop-color:#09005D"/>
				<stop  offset="1" style="stop-color:#1A0F91"/>
			</linearGradient>
			<path style="fill:url(#SVGID_00000168835345877816851600000011070404979625857419_);" d="M1165.463,974.237
				c0,0-1.427,2.294-3.925,6.311c-1.215,2.033-2.681,4.469-5.084,6.965c-2.326,2.438-4.622,5.841-7.937,8.369
				c-3.199,2.709-6.542,5.946-10.737,8.396c-2.038,1.321-4.118,2.755-6.345,4.017c-2.306,1.112-4.663,2.248-7.059,3.403
				c-2.383,1.256-4.914,2.202-7.518,3.062c-2.592,0.894-5.222,1.876-7.925,2.61c-5.447,1.219-11.004,2.733-16.679,3.274
				c-5.651,1.063-11.351,1.167-17.017,1.646c-5.634,0.055-11.285,0.215-16.615-0.762c-2.657-0.522-5.296-0.897-7.814-1.56
				c-2.506-0.762-4.943-1.548-7.269-2.432c-4.725-1.483-8.905-3.946-12.739-5.875c-3.73-2.362-7.042-4.573-9.76-6.879
				c-2.644-2.475-4.918-4.49-6.526-6.508c-3.156-4.14-4.525-6.615-4.525-6.615l1.262-1.4c0,0,2.875,0.829,7.145,2.475
				c2.193,0.743,5,1.404,7.933,2.365c2.988,0.906,6.549,1.508,10.118,2.561c1.87,0.35,3.818,0.716,5.832,1.093
				c1.949,0.513,3.988,0.946,6.151,1.201c2.147,0.276,4.304,0.688,6.497,1.148c2.251,0.221,4.504,0.663,6.813,1.02
				c2.277,0.562,4.633,0.86,7.022,1.244c2.388,0.329,4.798,0.958,7.26,1.268c4.921,0.54,9.992,1.118,15.053,0.958
				c5.104,0.144,10.09-0.642,15.093-1.124c2.472-0.353,4.852-1.001,7.279-1.422c2.432-0.421,4.814-0.924,7.048-1.738
				c2.288-0.713,4.536-1.416,6.738-2.104c2.134-0.845,4.146-1.846,6.187-2.696c4.187-1.557,7.601-3.949,10.965-5.927
				c3.53-1.843,5.844-4.416,8.427-6.299c2.549-1.849,4.476-4.026,6.078-5.768c3.231-3.455,5.078-5.427,5.078-5.427L1165.463,974.237
				z"/>
			
				<linearGradient id="SVGID_00000168100957608701707990000011618571077063917214_" gradientUnits="userSpaceOnUse" x1="1010.1039" y1="943.5269" x2="1129.101" y2="943.5269">
				<stop  offset="0" style="stop-color:#09005D"/>
				<stop  offset="1" style="stop-color:#1A0F91"/>
			</linearGradient>
			<path style="fill:url(#SVGID_00000168100957608701707990000011618571077063917214_);" d="M1129.101,925.219
				c0,0-0.866,1.95-2.382,5.362c-0.591,1.775-1.973,3.655-3.609,5.869c-0.818,1.087-1.626,2.352-2.63,3.504
				c-1.087,1.056-2.23,2.165-3.421,3.323c-2.277,2.518-5.361,4.382-8.49,6.646c-1.523,1.231-3.375,1.892-5.144,2.862
				c-1.818,0.838-3.598,1.987-5.579,2.617c-3.91,1.44-7.968,3.028-12.266,3.916c-4.244,1.241-8.674,1.704-13.109,2.386
				c-4.444,0.353-8.94,0.823-13.378,0.719c-2.228-0.052-4.439-0.104-6.624-0.154c-2.18-0.203-4.318-0.611-6.428-0.937
				c-4.221-0.605-8.146-2.269-11.814-3.596c-3.575-1.781-6.968-3.329-9.778-5.436c-2.784-2.156-5.385-3.891-7.194-6.188
				c-1.812-2.23-3.596-3.811-4.441-5.764c-1.938-3.599-2.71-5.635-2.71-5.635l1.032-0.719c0,0,2.005,1.189,4.926,3.225
				c1.328,1.133,3.584,1.849,5.645,3.04c1.993,1.299,4.826,1.95,7.455,3.151c1.291,0.645,2.862,0.949,4.39,1.388
				c1.523,0.461,3.053,1.004,4.673,1.446c3.401,0.497,6.695,1.763,10.403,2.239c1.812,0.405,3.656,0.814,5.522,1.228
				c1.903,0.316,3.828,0.636,5.771,0.955c3.891,0.774,7.942,0.749,11.982,0.989c4.025-0.184,8.12-0.132,12.046-0.838
				c4.009-0.359,7.779-1.394,11.494-2.3c3.622-1.084,7.093-2.389,10.268-3.802c3.051-1.628,6.182-2.927,8.508-4.901
				c1.245-0.9,2.437-1.766,3.572-2.586c1.041-0.9,1.864-1.886,2.744-2.749c1.723-1.744,3.32-3.277,4.232-4.963
				c2.056-3.117,3.232-4.898,3.232-4.898L1129.101,925.219z"/>
			
				<linearGradient id="SVGID_00000047761298446057540710000013441967537991148211_" gradientUnits="userSpaceOnUse" x1="1010.0424" y1="893.283" x2="1088.2539" y2="893.283">
				<stop  offset="0" style="stop-color:#09005D"/>
				<stop  offset="1" style="stop-color:#1A0F91"/>
			</linearGradient>
			<path style="fill:url(#SVGID_00000047761298446057540710000013441967537991148211_);" d="M1088.254,874.81
				c0,0-0.365,1.545-1.004,4.247c-0.372,1.351-0.545,3-1.465,4.837c-0.844,1.806-1.575,4.082-2.87,6.219
				c-1.439,2.012-2.572,4.616-4.654,6.664c-0.994,1.081-2.015,2.19-3.059,3.326c-1.141,1.032-2.432,1.947-3.699,2.954
				c-1.244,1.059-2.615,1.965-4.115,2.712c-1.479,0.765-2.921,1.735-4.516,2.352c-1.617,0.599-3.246,1.204-4.882,1.812
				c-1.657,0.568-3.401,0.808-5.124,1.216c-1.724,0.47-3.483,0.623-5.253,0.737c-1.764,0.089-3.55,0.411-5.31,0.246
				c-1.763-0.08-3.539-0.129-5.285-0.292c-1.717-0.322-3.397-0.774-5.054-1.195c-1.655-0.421-3.182-1.173-4.645-1.935
				c-1.448-0.795-2.956-1.373-4.146-2.457c-2.521-1.898-4.825-3.716-6.449-5.958c-1.843-1.984-3.091-4.131-3.994-6.124
				c-0.995-1.919-1.674-3.627-1.918-5.193c-0.674-3.01-0.769-4.686-0.769-4.686l1.144-0.522c0,0,1.451,1.072,3.484,2.871
				c0.944,0.949,2.274,1.913,3.788,2.918c0.762,0.497,1.459,1.096,2.23,1.674c0.865,0.488,1.803,0.943,2.673,1.499
				c1.712,1.167,3.839,1.959,5.884,2.979c2.164,0.798,4.384,1.744,6.758,2.466c1.187,0.387,2.398,0.759,3.609,1.265
				c1.267,0.258,2.543,0.62,3.854,0.964c1.304,0.455,2.669,0.436,4.039,0.602c1.376,0.16,2.77,0.304,4.155,0.147
				c1.379-0.129,2.815-0.071,4.183-0.329l4.106-0.854c1.371-0.292,2.607-0.921,3.919-1.351c1.333-0.408,2.569-0.98,3.702-1.704
				c1.158-0.679,2.372-1.265,3.463-1.984c1.036-0.808,2.052-1.6,3.037-2.368c2.161-1.394,3.492-3.452,5.153-4.994
				c1.514-1.661,2.458-3.455,3.572-4.944c1.144-1.44,1.698-3.123,2.36-4.324c1.218-2.494,1.915-3.919,1.915-3.919L1088.254,874.81z"
				/>
			
				<linearGradient id="SVGID_00000166669402841127764460000013404847244991689600_" gradientUnits="userSpaceOnUse" x1="997.2498" y1="1222.7208" x2="1349.1322" y2="1222.7208">
				<stop  offset="0" style="stop-color:#09005D"/>
				<stop  offset="1" style="stop-color:#1A0F91"/>
			</linearGradient>
			<path style="fill:url(#SVGID_00000166669402841127764460000013404847244991689600_);" d="M1349.132,1130.834
				c-4.573,1.585-9.19,3.163-13.349,5.196c-4.218,1.984-8.402,4.238-12.214,6.916c-1.984,1.222-3.81,2.672-5.612,4.134
				c-1.869,1.376-3.579,2.942-5.247,4.551c-3.403,3.12-6.458,6.609-9.27,10.27c-5.643,7.322-10.196,15.466-14.125,23.979
				c-3.934,8.519-7.268,17.407-10.572,26.448c-6.578,18.052-13.198,36.939-24.607,54.457c-5.688,8.71-12.661,16.934-20.9,23.869
				c-4.103,3.489-8.557,6.566-13.16,9.348c-4.614,2.801-9.451,5.08-14.34,7.266l-0.422,0.19l-1.318,0.326
				c-10.598,2.617-21.409,5.221-32.686,7.027c-11.24,1.916-22.94,3.12-34.958,2.733c-11.983-0.246-24.329-2.015-36.039-5.946
				c-5.912-1.812-11.507-4.428-17-7.156c-5.44-2.825-10.523-6.185-15.458-9.649c-4.805-3.642-9.319-7.543-13.674-11.553
				c-4.178-4.17-8.235-8.402-11.954-12.862c-3.667-4.484-7.312-8.961-10.446-13.746c-3.317-4.662-6.25-9.514-9.262-14.293
				c-2.693-4.963-5.497-9.846-7.916-14.889c-2.587-4.957-4.716-10.147-6.879-15.263c-2.274-5.061-3.917-10.423-5.85-15.601
				c-1.732-5.276-3.231-10.644-4.622-16.025l2.796-1.437c3.724,4.14,7.171,8.384,10.692,12.549l10.379,12.462
				c3.36,4.177,6.956,8.151,10.37,12.192c3.341,4.103,7.011,7.893,10.479,11.799c3.539,3.821,6.982,7.702,10.675,11.271
				c3.618,3.655,7.311,7.131,11.007,10.546c3.722,3.391,7.496,6.609,11.34,9.68c3.827,3.059,7.739,5.921,11.713,8.593l5.959,3.919
				l6.105,3.532c4.094,2.254,8.272,4.312,12.545,6.124c4.257,1.886,8.688,3.305,13.181,4.699c4.539,1.216,9.173,2.285,13.963,2.899
				c9.547,1.296,19.538,1.278,29.733,0.516c10.182-0.841,20.586-2.518,31.144-4.3l-1.738,0.51c4.028-1.536,8.052-3.096,11.84-5.098
				c3.794-1.972,7.46-4.183,10.901-6.732c6.956-4.994,13.146-11.179,18.585-18.248c10.952-14.158,18.674-31.559,26.944-49.076
				c4.129-8.783,8.387-17.677,13.347-26.319c4.954-8.624,10.651-17.001,17.508-24.427c3.415-3.71,7.09-7.217,11.09-10.288
				c1.967-1.578,3.968-3.102,6.121-4.416c2.084-1.407,4.218-2.721,6.471-3.833c4.384-2.432,8.977-4.33,13.693-5.97
				c4.759-1.726,9.439-2.782,14.147-3.882L1349.132,1130.834z"/>
			
				<linearGradient id="SVGID_00000161629765701698547570000003367595415371039140_" gradientUnits="userSpaceOnUse" x1="871.3663" y1="1059.2913" x2="1022.4165" y2="1059.2913">
				<stop  offset="0" style="stop-color:#09005D"/>
				<stop  offset="1" style="stop-color:#1A0F91"/>
			</linearGradient>
			<path style="fill:url(#SVGID_00000161629765701698547570000003367595415371039140_);" d="M872.929,1034.335
				c0,0,2.002,1.701,5.508,4.687c1.718,1.566,3.948,3.188,6.456,5.024c1.248,0.915,2.575,1.898,3.974,2.93
				c1.491,0.921,3.057,1.898,4.693,2.911c3.179,2.137,6.925,3.949,10.792,5.927c3.919,1.867,8.122,3.679,12.522,5.264
				c2.22,0.719,4.481,1.443,6.767,2.187c2.306,0.639,4.679,1.124,7.027,1.714c2.336,0.663,4.754,0.989,7.171,1.302
				c2.42,0.283,4.803,0.842,7.246,0.811l7.243,0.166c2.38-0.221,4.753-0.442,7.105-0.663c2.345-0.086,4.601-0.829,6.847-1.155
				c2.23-0.461,4.47-0.59,6.58-1.259c2.156-0.424,4.247-0.94,6.366-1.198c2.07-0.448,4.052-1.075,6.073-1.443
				c4.054-0.719,7.675-2.162,11.269-3.053c3.613-0.878,6.683-2.359,9.689-3.243c3.042-0.854,5.513-2.002,7.687-2.807
				c4.319-1.658,7.116-2.426,7.116-2.426l0.086-0.025c0.534-0.147,1.087,0.172,1.234,0.706c0.072,0.258,0.032,0.528-0.089,0.749
				c0,0-1.344,2.438-4.266,6.388c-1.453,1.99-3.255,4.422-5.798,6.689c-1.205,1.234-2.604,2.389-4.04,3.704
				c-1.42,1.339-2.984,2.672-4.818,3.741c-3.559,2.328-7.417,5.049-12.048,6.806c-2.257,1.02-4.599,2.064-7.076,2.862
				c-2.497,0.743-5.121,1.247-7.761,1.867c-2.647,0.608-5.411,0.743-8.197,0.842c-2.784,0.092-5.591,0.289-8.412-0.074
				c-2.799-0.233-5.622-0.473-8.455-0.713l-8.352-1.499c-2.799-0.344-5.474-1.271-8.177-1.941c-2.699-0.694-5.368-1.413-7.908-2.463
				c-2.554-0.989-5.133-1.824-7.556-2.936c-2.383-1.185-4.739-2.353-7.054-3.501c-4.516-2.469-8.792-5.006-12.579-7.745
				c-3.751-2.807-7.305-5.38-10.244-8.188c-1.505-1.345-2.947-2.629-4.316-3.851c-1.282-1.339-2.497-2.61-3.639-3.802
				c-2.299-2.365-4.233-4.428-5.568-6.29c-2.838-3.624-4.459-5.7-4.459-5.7c-0.324-0.411-0.25-1.007,0.161-1.327
				C872.091,1034.028,872.593,1034.046,872.929,1034.335z"/>
		</g>
		<g>
			
				<linearGradient id="SVGID_00000037668845876129300360000002207291956652904106_" gradientUnits="userSpaceOnUse" x1="1643.7928" y1="3907.5706" x2="1749.4543" y2="1950.324">
				<stop  offset="0" style="stop-color:#FF928E"/>
				<stop  offset="1" style="stop-color:#FE7062"/>
			</linearGradient>
			<polygon style="fill:url(#SVGID_00000037668845876129300360000002207291956652904106_);" points="1575.435,1869.08 
				1652.578,1853.625 1721.497,1882.244 1763.808,1850.112 1859.789,1858.894 1879.642,1915.519 1903.706,1967.552 
				1782.225,1995.34 1926.44,1976.622 1899.235,1917.515 1876.748,1859.026 1756.868,1844.74 1716.725,1869.446 1653.123,1847.669 
							"/>
			
				<linearGradient id="SVGID_00000074414014490872124880000017681322218502661516_" gradientUnits="userSpaceOnUse" x1="866.6329" y1="10227.4922" x2="972.293" y2="8270.2715" gradientTransform="matrix(0.8541 0.5201 -0.5201 0.8541 1487.6382 545.6816)">
				<stop  offset="0" style="stop-color:#FF928E"/>
				<stop  offset="1" style="stop-color:#FE7062"/>
			</linearGradient>
			<polygon style="fill:url(#SVGID_00000074414014490872124880000017681322218502661516_);" points="1919.09,2038.707 
				1985.826,2106.159 2070.133,2056.912 2166.826,2093.99 2215.742,2177.24 2331.434,2203.641 2210.032,2199.771 2156.435,2102.463 
				2071.668,2076.445 1988.323,2123.617 			"/>
			
				<linearGradient id="SVGID_00000094609440342009257810000005338769001545789341_" gradientUnits="userSpaceOnUse" x1="2437.9165" y1="3950.4504" x2="2543.5784" y2="1993.196">
				<stop  offset="0" style="stop-color:#FF928E"/>
				<stop  offset="1" style="stop-color:#FE7062"/>
			</linearGradient>
			<polygon style="fill:url(#SVGID_00000094609440342009257810000005338769001545789341_);" points="2460.483,1816.815 
				2527.059,1876.383 2642.691,1872.879 2585.821,2012.498 2619.915,1883.391 2516.512,1890.399 			"/>
			
				<linearGradient id="SVGID_00000123435072283396356460000007448769158679800498_" gradientUnits="userSpaceOnUse" x1="1435.1042" y1="3896.376" x2="1540.7664" y2="1939.1165">
				<stop  offset="0" style="stop-color:#FF928E"/>
				<stop  offset="1" style="stop-color:#FE7062"/>
			</linearGradient>
			<polygon style="fill:url(#SVGID_00000123435072283396356460000007448769158679800498_);" points="1351.719,2100.466 
				1454.578,2162.764 1613.094,2080.877 1711.428,2118.334 1623.523,2112.468 1454.799,2194.006 			"/>
			
				<linearGradient id="SVGID_00000057863406119357146880000005308782806109309880_" gradientUnits="userSpaceOnUse" x1="2092.478" y1="3931.793" x2="2198.1401" y2="1974.5355">
				<stop  offset="0" style="stop-color:#FF928E"/>
				<stop  offset="1" style="stop-color:#FE7062"/>
			</linearGradient>
			<polygon style="fill:url(#SVGID_00000057863406119357146880000005308782806109309880_);" points="2015.969,1844.302 
				2067.455,1888.287 2136.102,1844.302 2260.31,1919.934 2397.859,1779.733 2260.31,1888.287 2136.102,1823.785 2067.455,1868.719 
							"/>
			
				<linearGradient id="SVGID_00000119085768492406150900000002382213947901276348_" gradientUnits="userSpaceOnUse" x1="2978.7317" y1="3979.6382" x2="3084.3936" y2="2022.3838">
				<stop  offset="0" style="stop-color:#FF928E"/>
				<stop  offset="1" style="stop-color:#FE7062"/>
			</linearGradient>
			<polygon style="fill:url(#SVGID_00000119085768492406150900000002382213947901276348_);" points="3113.93,2157.274 
				3178.766,2062.59 3024.292,1963.101 3024.292,1859.516 2990.92,1965.519 3145.569,2066.07 			"/>
			
				<linearGradient id="SVGID_00000151537991808813327550000017836737956824846213_" gradientUnits="userSpaceOnUse" x1="1158.3392" y1="3881.364" x2="1264.0013" y2="1924.1073">
				<stop  offset="0" style="stop-color:#FF928E"/>
				<stop  offset="1" style="stop-color:#FE7062"/>
			</linearGradient>
			<polygon style="fill:url(#SVGID_00000151537991808813327550000017836737956824846213_);" points="1091.543,1935.301 
				1172.921,1880.106 1284.428,1921.931 1394.449,1891.803 1432.291,1990.141 1383.701,1918.231 1279.495,1938.771 
				1172.921,1900.946 			"/>
			
				<linearGradient id="SVGID_00000030486468852811419240000001653757719541868456_" gradientUnits="userSpaceOnUse" x1="1831.6653" y1="3917.7139" x2="1937.3271" y2="1960.4607">
				<stop  offset="0" style="stop-color:#FF928E"/>
				<stop  offset="1" style="stop-color:#FE7062"/>
			</linearGradient>
			<polygon style="fill:url(#SVGID_00000030486468852811419240000001653757719541868456_);" points="1826.735,2063.296 
				1826.735,2293.802 1944.18,2285.469 2021.745,2342.46 1964.615,2260.395 1854.694,2272.345 			"/>
			
				<linearGradient id="SVGID_00000101798261574317413800000013508351264941095081_" gradientUnits="userSpaceOnUse" x1="802.6639" y1="3862.1604" x2="908.3258" y2="1904.9071">
				<stop  offset="0" style="stop-color:#FF928E"/>
				<stop  offset="1" style="stop-color:#FE7062"/>
			</linearGradient>
			<polygon style="fill:url(#SVGID_00000101798261574317413800000013508351264941095081_);" points="730.93,2127.183 
				771.121,2155.844 856.388,2067.539 940.209,2050.895 1061.194,2136.976 929.315,2067.539 858.468,2087.087 776.723,2183.66 			
				"/>
		</g>
		<g>
			
				<linearGradient id="SVGID_00000051380984108586379270000012790338344567400890_" gradientUnits="userSpaceOnUse" x1="1514.2598" y1="1208.3514" x2="1031.2362" y2="2989.5027">
				<stop  offset="0" style="stop-color:#FF928E"/>
				<stop  offset="1" style="stop-color:#FE7062"/>
			</linearGradient>
			<polygon style="fill:url(#SVGID_00000051380984108586379270000012790338344567400890_);" points="896.062,2447.472 
				1078.358,2304.937 1396.621,2299.747 1475.94,2390.143 1233.142,2541.01 1021.531,2533.689 			"/>
			
				<linearGradient id="SVGID_00000048477595114844293350000000792189052759487634_" gradientUnits="userSpaceOnUse" x1="1854.5253" y1="1300.6243" x2="1371.5015" y2="3081.7764">
				<stop  offset="0" style="stop-color:#FF928E"/>
				<stop  offset="1" style="stop-color:#FE7062"/>
			</linearGradient>
			<polygon style="fill:url(#SVGID_00000048477595114844293350000000792189052759487634_);" points="1293.178,2533.412 
				1483.284,2413.423 1651.837,2333.242 1709.257,2420.708 1750.617,2520.966 1561.961,2561.154 			"/>
			
				<linearGradient id="SVGID_00000052806991208223961840000001988137344256240269_" gradientUnits="userSpaceOnUse" x1="1894.3247" y1="1311.4203" x2="1411.3008" y2="3092.5728">
				<stop  offset="0" style="stop-color:#FF928E"/>
				<stop  offset="1" style="stop-color:#FE7062"/>
			</linearGradient>
			<polygon style="fill:url(#SVGID_00000052806991208223961840000001988137344256240269_);" points="1249.676,2552.146 
				1531.574,2580.688 1763.763,2533.412 1900.248,2627.682 1727.302,2743.792 1157.683,2689.688 			"/>
			
				<linearGradient id="SVGID_00000181779908539913160010000013899587653556166318_" gradientUnits="userSpaceOnUse" x1="1365.2662" y1="1167.9454" x2="882.2428" y2="2949.0962">
				<stop  offset="0" style="stop-color:#FF928E"/>
				<stop  offset="1" style="stop-color:#FE7062"/>
			</linearGradient>
			<polygon style="fill:url(#SVGID_00000181779908539913160010000013899587653556166318_);" points="1214.463,2561.154 
				1008.932,2549.918 738.725,2641.196 956.981,2730.516 1119.093,2713.769 			"/>
			
				<linearGradient id="SVGID_00000095334679937856536380000003016117521591990939_" gradientUnits="userSpaceOnUse" x1="1793.854" y1="1284.1729" x2="1310.8308" y2="3065.323">
				<stop  offset="0" style="stop-color:#FF928E"/>
				<stop  offset="1" style="stop-color:#FE7062"/>
			</linearGradient>
			<polygon style="fill:url(#SVGID_00000095334679937856536380000003016117521591990939_);" points="1135.149,2730.516 
				1521.037,2743.792 1709.257,2788.219 1420.032,2948.57 1034.911,2890.683 			"/>
			
				<linearGradient id="SVGID_00000004532221881018777580000006523340843428165785_" gradientUnits="userSpaceOnUse" x1="1324.995" y1="1157.0247" x2="841.9714" y2="2938.176">
				<stop  offset="0" style="stop-color:#FF928E"/>
				<stop  offset="1" style="stop-color:#FE7062"/>
			</linearGradient>
			<polygon style="fill:url(#SVGID_00000004532221881018777580000006523340843428165785_);" points="1101.743,2733.583 
				927.79,2751.997 709.466,2673.477 976.111,2923.246 			"/>
			
				<linearGradient id="SVGID_00000001635840389629734020000008929337866344829569_" gradientUnits="userSpaceOnUse" x1="1750.8375" y1="1272.5061" x2="1267.8149" y2="3053.6538">
				<stop  offset="0" style="stop-color:#FF928E"/>
				<stop  offset="1" style="stop-color:#FE7062"/>
			</linearGradient>
			<polygon style="fill:url(#SVGID_00000001635840389629734020000008929337866344829569_);" points="1000.347,2923.246 
				1396.621,2979.603 1552.468,3120.692 1464.075,3163.094 			"/>
			
				<linearGradient id="SVGID_00000087370356312410683010000009266437289520091550_" gradientUnits="userSpaceOnUse" x1="2224.1987" y1="1400.8767" x2="1741.1754" y2="3182.0266">
				<stop  offset="0" style="stop-color:#FF928E"/>
				<stop  offset="1" style="stop-color:#FE7062"/>
			</linearGradient>
			<polygon style="fill:url(#SVGID_00000087370356312410683010000009266437289520091550_);" points="1432.291,2988.943 
				1589.478,2890.683 1808.9,2988.943 2022.006,2962.372 2137.346,3053.244 1794.611,3150.041 1575.435,3120.692 			"/>
			
				<linearGradient id="SVGID_00000031183112186801150550000007680281936788463540_" gradientUnits="userSpaceOnUse" x1="2307.2048" y1="1423.3851" x2="1824.1816" y2="3204.5356">
				<stop  offset="0" style="stop-color:#FF928E"/>
				<stop  offset="1" style="stop-color:#FE7062"/>
			</linearGradient>
			<polygon style="fill:url(#SVGID_00000031183112186801150550000007680281936788463540_);" points="1613.677,2880.266 
				1693.632,2839.198 1711.428,2815.55 1770.987,2768.175 1926.44,2641.196 2168.106,2689.688 2219.749,2846.387 2022.006,2948.57 
				1808.9,2975.295 			"/>
			
				<linearGradient id="SVGID_00000163791782680094999850000010811909051550091927_" gradientUnits="userSpaceOnUse" x1="2688.2271" y1="1526.7148" x2="2205.2034" y2="3307.8665">
				<stop  offset="0" style="stop-color:#FF928E"/>
				<stop  offset="1" style="stop-color:#FE7062"/>
			</linearGradient>
			<polygon style="fill:url(#SVGID_00000163791782680094999850000010811909051550091927_);" points="2041.58,2962.372 
				2219.749,2871.167 2451.367,2932.98 2549.007,2988.943 2266.518,3124.511 			"/>
			
				<linearGradient id="SVGID_00000024724628803666925110000014526577696216031909_" gradientUnits="userSpaceOnUse" x1="2344.4958" y1="1433.4985" x2="1861.4724" y2="3214.6489">
				<stop  offset="0" style="stop-color:#FF928E"/>
				<stop  offset="1" style="stop-color:#FE7062"/>
			</linearGradient>
			<path style="fill:url(#SVGID_00000024724628803666925110000014526577696216031909_);" d="M1504.849,3173.508l57.112-39.979
				l235.752,29.565l355.223-92.033l96.16,70.417C1996.57,3224.469,1749.076,3225.569,1504.849,3173.508z"/>
			
				<linearGradient id="SVGID_00000168831743052782426760000000185988551691921840_" gradientUnits="userSpaceOnUse" x1="2188.2722" y1="1391.1335" x2="1705.2488" y2="3172.2842">
				<stop  offset="0" style="stop-color:#FF928E"/>
				<stop  offset="1" style="stop-color:#FE7062"/>
			</linearGradient>
			<polygon style="fill:url(#SVGID_00000168831743052782426760000000185988551691921840_);" points="1683.017,2333.242 
				1740.921,2418.457 1769.874,2518.739 1900.248,2609.494 2126.21,2541.01 2092.804,2436.021 			"/>
			
				<linearGradient id="SVGID_00000106830112059385247130000003530978805587272856_" gradientUnits="userSpaceOnUse" x1="2597.2588" y1="1502.0447" x2="2114.2351" y2="3283.196">
				<stop  offset="0" style="stop-color:#FF928E"/>
				<stop  offset="1" style="stop-color:#FE7062"/>
			</linearGradient>
			<polygon style="fill:url(#SVGID_00000106830112059385247130000003530978805587272856_);" points="1941.361,2617.987 
				2146.254,2549.918 2279.88,2567.091 2518.18,2533.412 2626.927,2695.324 2181.888,2673.477 			"/>
			
				<linearGradient id="SVGID_00000107568380558282736700000016879525406814039952_" gradientUnits="userSpaceOnUse" x1="2781.8877" y1="1552.1136" x2="2298.8638" y2="3333.2656">
				<stop  offset="0" style="stop-color:#FF928E"/>
				<stop  offset="1" style="stop-color:#FE7062"/>
			</linearGradient>
			<polygon style="fill:url(#SVGID_00000107568380558282736700000016879525406814039952_);" points="2242.323,2845.353 
				2186.342,2693.9 2415.734,2693.9 2551.587,2703.199 2704.848,2890.488 2551.587,2975.198 2460.483,2908.946 			"/>
			
				<linearGradient id="SVGID_00000003094657355475705960000009143083505016471427_" gradientUnits="userSpaceOnUse" x1="1169.6188" y1="1114.8877" x2="686.595" y2="2896.0398">
				<stop  offset="0" style="stop-color:#FF928E"/>
				<stop  offset="1" style="stop-color:#FE7062"/>
			</linearGradient>
			<polygon style="fill:url(#SVGID_00000003094657355475705960000009143083505016471427_);" points="694.471,2636.158 
				988.344,2541.01 861.495,2447.198 653.609,2413.423 588.535,2499.965 			"/>
			
				<linearGradient id="SVGID_00000049215544915864455800000009711527476421634729_" gradientUnits="userSpaceOnUse" x1="1108.468" y1="1098.3057" x2="625.4445" y2="2879.4565">
				<stop  offset="0" style="stop-color:#FF928E"/>
				<stop  offset="1" style="stop-color:#FE7062"/>
			</linearGradient>
			<polygon style="fill:url(#SVGID_00000049215544915864455800000009711527476421634729_);" points="578.844,2465.88 
				645.187,2374.787 872.351,2420.708 1061.194,2289.825 861.495,2256.16 498.451,2330.549 			"/>
			
				<linearGradient id="SVGID_00000071518374811091142700000011761862263138754436_" gradientUnits="userSpaceOnUse" x1="2626.1572" y1="1509.8821" x2="2143.1338" y2="3291.0325">
				<stop  offset="0" style="stop-color:#FF928E"/>
				<stop  offset="1" style="stop-color:#FE7062"/>
			</linearGradient>
			<polygon style="fill:url(#SVGID_00000071518374811091142700000011761862263138754436_);" points="2103.939,2386.163 
				2150.708,2524.791 2284.144,2549.918 2518.18,2533.412 2656.553,2447.198 			"/>
			
				<linearGradient id="SVGID_00000135652259409056866360000011896276885274181805_" gradientUnits="userSpaceOnUse" x1="3035.3916" y1="1620.8593" x2="2552.3677" y2="3402.0112">
				<stop  offset="0" style="stop-color:#FF928E"/>
				<stop  offset="1" style="stop-color:#FE7062"/>
			</linearGradient>
			<polygon style="fill:url(#SVGID_00000135652259409056866360000011896276885274181805_);" points="2668.381,2456.373 
				2549.385,2539.764 2642.691,2683.837 2739.777,2683.837 3051.255,2435.61 			"/>
			
				<linearGradient id="SVGID_00000134954044611545733960000001490209009298216089_" gradientUnits="userSpaceOnUse" x1="3083.5334" y1="1633.9142" x2="2600.5103" y2="3415.0642">
				<stop  offset="0" style="stop-color:#FF928E"/>
				<stop  offset="1" style="stop-color:#FE7062"/>
			</linearGradient>
			<polygon style="fill:url(#SVGID_00000134954044611545733960000001490209009298216089_);" points="2731.866,2859.486 
				2593.258,2721.405 2755.626,2695.324 3052.023,2470.511 			"/>
		</g>
		<g>
			
				<linearGradient id="SVGID_00000000920860791636209340000000661377811257730978_" gradientUnits="userSpaceOnUse" x1="-3688.3472" y1="2063.9253" x2="-3689.6892" y2="2077.0667" gradientTransform="matrix(-1 0 0 1 -1034.4589 0)">
				<stop  offset="0" style="stop-color:#CE1567"/>
				<stop  offset="1" style="stop-color:#7A1DBC"/>
			</linearGradient>
			<path style="fill:url(#SVGID_00000000920860791636209340000000661377811257730978_);" d="M2653.152,2064.763
				C2658.33,2057.864,2652.03,2078.607,2653.152,2064.763L2653.152,2064.763z"/>
			<g>
				<path style="fill:#BDD0FB;" d="M2441.582,2146.914c95.935,17.771,159.837-47.625,207.29-87.12
					c62.651-52.145,110.199-25.218,110.199-25.218l-68.259,136.54c-100.074,99.741-200.417,75.144-263.341,40.917
					C2426.969,2185.387,2433.848,2163.233,2441.582,2146.914z"/>
				
					<linearGradient id="SVGID_00000004531351532987093390000009247586099156235693_" gradientUnits="userSpaceOnUse" x1="-4377.751" y1="1821.7196" x2="-4843.9751" y2="2418.2124" gradientTransform="matrix(-0.9998 -0.0189 -0.0189 0.9998 -2138.2549 -2.4894)">
					<stop  offset="0" style="stop-color:#FEBBBA"/>
					<stop  offset="1" style="stop-color:#FF928E"/>
				</linearGradient>
				<path style="fill:url(#SVGID_00000004531351532987093390000009247586099156235693_);" d="M2307.474,2081.196l31.572,19.487
					c37.81,26.342,71.812,40.541,102.537,46.231c-7.734,16.32-14.613,38.473-14.111,65.119
					c-40.056-21.786-64.955-47.474-64.955-47.474C2291.079,2115.799,2307.474,2081.196,2307.474,2081.196z"/>
			</g>
			
				<linearGradient id="SVGID_00000086667274015346374490000016713626574855660427_" gradientUnits="userSpaceOnUse" x1="-4056.3425" y1="2372.8" x2="-3863.406" y2="2432.9963" gradientTransform="matrix(-1 0 0 1 -1034.4589 0)">
				<stop  offset="0" style="stop-color:#FEBBBA"/>
				<stop  offset="1" style="stop-color:#FF928E"/>
			</linearGradient>
			<path style="fill:url(#SVGID_00000086667274015346374490000016713626574855660427_);" d="M2957.906,2331.521
				c12.773,14.16,36.076,30.331,49.441,38.083c-20.642,24.551-54.984,54.142-91.578,77.898l-10.779,23.01l-32.383-40.336
				C2872.607,2430.176,2934.859,2392.791,2957.906,2331.521z"/>
			<path style="fill:#BDD0FB;" d="M2629.89,2108.357c11.604-13.994,21.821-29.037,30.425-44.573
				c12.015-21.699,0.665,14.207,4.302-10.485c88.06-61.052,218.281-26.85,268.763-19.52c16.553,2.404,31.573,10.87,42.268,23.731
				c42.414,50.999,134.97,190.179,20.361,326.5c-14.181-8.225-34.306-21.369-47.859-36.393
				c13.05-34.694,14.907-79.311-10.026-134.535c-0.969,4.322-2.147,8.596-3.56,12.798
				c-37.931,112.709-41.622,207.028-41.953,228.775c-0.044,2.953-1.868,5.578-4.63,6.625c-47.46,17.985-137.92,5.039-168.272-0.071
				c-5.565-0.937-9.221-6.204-8.345-11.779c16.982-107.942-56.321-287.424-75.728-332.399
				C2634.239,2113.796,2632.279,2110.871,2629.89,2108.357z"/>
			<g>
				<polygon style="fill:#BDD0FB;" points="2426.532,1971.995 2440.077,1971.995 2434.96,1734.509 2431.048,1734.509 				"/>
				<polygon style="fill:#BDD0FB;" points="2242.323,1975.606 2255.868,1975.606 2252.256,1738.12 2247.44,1738.12 				"/>
				<polygon style="fill:#BDD0FB;" points="2301.017,1975.606 2314.562,1975.606 2310.047,1738.12 2304.93,1738.12 				"/>
				<polygon style="fill:#BDD0FB;" points="2362.872,1975.606 2376.417,1975.606 2372.654,1738.12 2367.537,1738.12 				"/>
				
					<rect x="2317.941" y="2053.897" transform="matrix(-1 -1.224647e-16 1.224647e-16 -1 4680.7495 5272.3154)" style="fill:#91B3FA;" width="44.867" height="1164.521"/>
				<rect x="2316.82" y="1971.995" style="fill:#BDD0FB;" width="47.858" height="209.795"/>
				<path style="fill:#BDD0FB;" d="M2270.575,1992.004h139.781c17.246,0,31.226-13.98,31.226-31.226l0,0
					c0-4.856-3.936-8.792-8.792-8.792h-190.467v11.766C2242.323,1979.355,2254.972,1992.004,2270.575,1992.004z"/>
			</g>
			
				<linearGradient id="SVGID_00000009560689657457585080000012717646518600022158_" gradientUnits="userSpaceOnUse" x1="2249.5442" y1="-1626.8401" x2="2450.8545" y2="-1093.3674" gradientTransform="matrix(0.3776 0.9259 -0.9259 0.3776 39.9826 541.7782)">
				<stop  offset="0" style="stop-color:#FEBBBA"/>
				<stop  offset="1" style="stop-color:#FF928E"/>
			</linearGradient>
			<path style="fill:url(#SVGID_00000009560689657457585080000012717646518600022158_);" d="M2298.827,2060.138
				c-0.801-7.346,1.591-14.64,6.446-19.999c9.408-10.383,25.465-24.449,36.052-13.877c15.767,15.746-4.943,65.79-4.943,65.79
				l-19.833,28.664l-1.222,18.878C2306.04,2126.811,2301.653,2096.305,2298.827,2060.138z"/>
			
				<linearGradient id="SVGID_00000134220034783071992610000006465371264207789199_" gradientUnits="userSpaceOnUse" x1="-2850.3308" y1="3040.4592" x2="-3278.0156" y2="3376.2786" gradientTransform="matrix(-1 0 0 1 -266.6903 0)">
				<stop  offset="0" style="stop-color:#09005D"/>
				<stop  offset="1" style="stop-color:#1A0F91"/>
			</linearGradient>
			<path style="fill:url(#SVGID_00000134220034783071992610000006465371264207789199_);" d="M2873.893,3223.887
				c-1.064,3.87,0.184,5.948-3.473,6.717c-28.019,5.892-83.324,0.483-102.021-1.962c-4.125-0.539-7.141-4.354-7.209-8.661
				C2806.988,3225.194,2854.197,3225.647,2873.893,3223.887z"/>
			
				<linearGradient id="SVGID_00000003100717550483599390000005174600809177064631_" gradientUnits="userSpaceOnUse" x1="-3105.6951" y1="3058.8838" x2="-3126.2854" y2="3238.5811" gradientTransform="matrix(-1 0 0 1 -266.6903 0)">
				<stop  offset="0" style="stop-color:#FEBBBA"/>
				<stop  offset="1" style="stop-color:#FF928E"/>
			</linearGradient>
			<path style="fill:url(#SVGID_00000003100717550483599390000005174600809177064631_);" d="M2867.314,3105.742l-10.113,48.684
				c-0.741,3.567-3.482,6.239-6.802,6.55c-4.064,0.382-9.849,0.605-15.667-0.249c-5.217-0.767-8.85-6.069-7.925-11.758l7.029-43.227
				H2867.314z"/>
			
				<linearGradient id="SVGID_00000167363254088903072350000015364910548476603827_" gradientUnits="userSpaceOnUse" x1="-2796.156" y1="3143.1565" x2="-3188.3066" y2="3451.0742" gradientTransform="matrix(-1 0 0 1 -266.6903 0)">
				<stop  offset="0" style="stop-color:#09005D"/>
				<stop  offset="1" style="stop-color:#1A0F91"/>
			</linearGradient>
			<path style="fill:url(#SVGID_00000167363254088903072350000015364910548476603827_);" d="M2657.779,3221.796
				c26.371-0.739,40.011-3.844,47.063-6.727c0.017,2.622,0.002,5.29-0.083,8.055c-0.091,2.953-2.279,5.312-4.969,5.294
				l-144.794-0.934c-4.621-0.03-7.321-5.389-5.318-9.626C2568.662,3219.427,2617.014,3222.937,2657.779,3221.796z"/>
			
				<linearGradient id="SVGID_00000087397961100802120000000004362019919698010774_" gradientUnits="userSpaceOnUse" x1="-2937.9729" y1="3078.1021" x2="-2958.563" y2="3257.7983" gradientTransform="matrix(-1 0 0 1 -266.6903 0)">
				<stop  offset="0" style="stop-color:#FEBBBA"/>
				<stop  offset="1" style="stop-color:#FF928E"/>
			</linearGradient>
			<path style="fill:url(#SVGID_00000087397961100802120000000004362019919698010774_);" d="M2696.56,3100.126
				c-0.343,2.301-4.575,37.277-6.213,50.839c-0.389,3.222-2.723,5.717-5.666,6.068c-5.257,0.628-13.764,1.2-21.207-0.326
				c-4.015-0.823-6.921-4.68-6.921-9.165v-54.903L2696.56,3100.126z"/>
			
				<linearGradient id="SVGID_00000111909467068447918520000013872643042503124371_" gradientUnits="userSpaceOnUse" x1="-3824.5027" y1="1349.4471" x2="-3819.8713" y2="2432.9221" gradientTransform="matrix(-1 0 0 1 -1034.4589 0)">
				<stop  offset="0" style="stop-color:#4F52FF"/>
				<stop  offset="1" style="stop-color:#4042E2"/>
			</linearGradient>
			<path style="fill:url(#SVGID_00000111909467068447918520000013872643042503124371_);" d="M2705.478,2372.313
				c0,0-56.737,373.294-55.391,729.41c0.025,6.493,2.707,11.309,9.061,12.647c9.362,1.972,23.125,4.313,34.519,3.994
				c6.082-0.171,11.167-4.681,12.19-10.679c10.441-61.23,70.359-406.17,104.499-462.17c0,0,22.461,307.219,15.281,466.606
				c-0.178,3.964,2.724,7.401,6.665,7.857c5.978,0.691,15.542,1.216,27.713-0.077c4.62-0.491,8.347-3.983,9.007-8.582
				c7.437-51.821,50.243-360.277,48.424-582.477c-0.103-12.53-7.231-156.529-7.231-156.529H2705.478z"/>
			
				<linearGradient id="SVGID_00000163059580823197592530000004205983622117495714_" gradientUnits="userSpaceOnUse" x1="-3644.9404" y1="2403.0962" x2="-3847.6514" y2="2585.2275" gradientTransform="matrix(-1 0 0 1 -1034.4589 0)">
				<stop  offset="0" style="stop-color:#53D8FF"/>
				<stop  offset="1" style="stop-color:#3840F7"/>
			</linearGradient>
			<path style="fill:url(#SVGID_00000163059580823197592530000004205983622117495714_);" d="M2813.092,2638.301
				c1.247,0,2.388-0.837,2.714-2.103c6.175-23.816,52.416-49.99,52.882-50.252c1.352-0.758,1.835-2.469,1.075-3.822
				c-0.759-1.352-2.462-1.836-3.822-1.075c-1.988,1.115-48.796,27.612-55.568,53.74c-0.389,1.501,0.513,3.034,2.012,3.422
				C2812.62,2638.272,2812.859,2638.301,2813.092,2638.301z"/>
			
				<linearGradient id="SVGID_00000125562069214610702430000011894150708253611182_" gradientUnits="userSpaceOnUse" x1="7114.7529" y1="-12657.0703" x2="6863.1782" y2="-12289.7705" gradientTransform="matrix(-1 0 0 1 -1034.4589 0)">
				<stop  offset="0" style="stop-color:#09005D"/>
				<stop  offset="1" style="stop-color:#1A0F91"/>
			</linearGradient>
			<path style="fill:url(#SVGID_00000125562069214610702430000011894150708253611182_);" d="M2550.25,3216.767
				c12.008-16.778,41.462-49.171,98.294-65.836v-186.146c0-1.699,1.701-2.854,3.291-2.252c27.528,10.429,55.024,15.497,77.406,10.65
				c1.453-0.315,2.756,0.953,2.509,2.419l-32.534,193.417l-0.181-0.064c2.997,11.273,5.695,26.743,5.808,46.115
				c-7.052,2.883-20.691,5.988-47.063,6.727c-40.765,1.14-89.118-2.369-108.102-3.937
				C2549.851,3217.49,2550.001,3217.115,2550.25,3216.767z"/>
			
				<linearGradient id="SVGID_00000098930438564595646080000007902568583015698856_" gradientUnits="userSpaceOnUse" x1="6995.2969" y1="-12738.9023" x2="6743.7212" y2="-12371.6016" gradientTransform="matrix(-1 0 0 1 -1034.4589 0)">
				<stop  offset="0" style="stop-color:#09005D"/>
				<stop  offset="1" style="stop-color:#1A0F91"/>
			</linearGradient>
			<path style="fill:url(#SVGID_00000098930438564595646080000007902568583015698856_);" d="M2761.437,3217.546
				c8.137-32.262,53.771-66.831,53.771-66.831l2.241-157.491c0.043-3.062,3.133-5.087,5.984-3.971
				c19.373,7.58,41.462,10.184,61.149,8.115c3.94-0.414,7.182,3.064,6.566,6.977l-23.835,146.19l-1.613,14.03
				c5.445,26.239,9.869,50.512,8.193,59.322c-0.061,0.325-7.164-0.28-7.25,0.034c-19.697,1.759-59.655,1.349-105.453-3.863
				C2761.177,3219.256,2761.231,3218.366,2761.437,3217.546z"/>
			<g>
				
					<linearGradient id="SVGID_00000126290023441361920180000017447617024527852204_" gradientUnits="userSpaceOnUse" x1="-3842.5466" y1="1349.522" x2="-3837.9153" y2="2432.9993" gradientTransform="matrix(-1 0 0 1 -1034.4589 0)">
					<stop  offset="0" style="stop-color:#4F52FF"/>
					<stop  offset="1" style="stop-color:#4042E2"/>
				</linearGradient>
				<path style="fill:url(#SVGID_00000126290023441361920180000017447617024527852204_);" d="M2726.264,2378.155
					c39.472,18.085,95.096,12.468,146.343-1.873l21.475-198.426c1.025-9.526-10.802-26.628-20.383-26.628
					c-51.564-4.844-100.275-5.665-144.382,0c-7.917,0-14.155,6.746-13.536,14.639
					C2712.828,2238.931,2716.675,2318.915,2726.264,2378.155z"/>
				
					<linearGradient id="SVGID_00000121273152569134705930000009799936740815935676_" gradientUnits="userSpaceOnUse" x1="-3922.6768" y1="1349.8643" x2="-3918.0457" y2="2433.3403" gradientTransform="matrix(-1 0 0 1 -1034.4589 0)">
					<stop  offset="0" style="stop-color:#4F52FF"/>
					<stop  offset="1" style="stop-color:#4042E2"/>
				</linearGradient>
				<path style="fill:url(#SVGID_00000121273152569134705930000009799936740815935676_);" d="M2863.014,2163.193l25.056,9.41
					l18.942-142.204c0.187-1.405-0.668-2.696-1.935-2.918l-19.239-3.38c-1.183-0.208-2.312,0.696-2.506,2.006L2863.014,2163.193z"/>
				
					<linearGradient id="SVGID_00000106139260908378815780000001023054828714974887_" gradientUnits="userSpaceOnUse" x1="-3778.562" y1="1349.2488" x2="-3773.9309" y2="2432.7251" gradientTransform="matrix(-1 0 0 1 -1034.4589 0)">
					<stop  offset="0" style="stop-color:#4F52FF"/>
					<stop  offset="1" style="stop-color:#4042E2"/>
				</linearGradient>
				<path style="fill:url(#SVGID_00000106139260908378815780000001023054828714974887_);" d="M2726.264,2153.652l26.388,1.269
					l2.973-132.401c0.036-1.598-1.323-2.862-2.891-2.689l-20.143,2.221L2726.264,2153.652z"/>
			</g>
			
				<linearGradient id="SVGID_00000109733201195372552340000006317069720214596515_" gradientUnits="userSpaceOnUse" x1="2804.8833" y1="2400.9185" x2="2885.3914" y2="1989.4329">
				<stop  offset="0" style="stop-color:#4F52FF"/>
				<stop  offset="1" style="stop-color:#4042E2"/>
			</linearGradient>
			<path style="fill:url(#SVGID_00000109733201195372552340000006317069720214596515_);" d="M2904.578,2366.022
				c-68.028,10.431-133.51,11.839-193.241,4.088c-3.576-0.464-6.843,2.067-7.241,5.652l-3.082,27.787
				c67.217,5.303,137.506,2.945,210.093-5.144l1.761-24.782C2913.196,2369.012,2909.148,2365.322,2904.578,2366.022z"/>
			<path style="fill:#7D97F4;" d="M2953.452,2215.709c20.241-55.394,12.899-122.284,12.822-122.953l-5.577,0.637
				c0.074,0.657,7.26,66.264-12.52,120.389L2953.452,2215.709z"/>
			
				<linearGradient id="SVGID_00000139273917948209661110000008076266928767697060_" gradientUnits="userSpaceOnUse" x1="-3060.2073" y1="1910.1304" x2="-3138.8245" y2="2249.8687" gradientTransform="matrix(-1 0 0 1 -266.6903 0)">
				<stop  offset="0" style="stop-color:#FEBBBA"/>
				<stop  offset="1" style="stop-color:#FF928E"/>
			</linearGradient>
			<path style="fill:url(#SVGID_00000139273917948209661110000008076266928767697060_);" d="M2852.922,1936.586l9.679,98.888
				c0,0-55.63,16.756-96.092-11.793l28.443-89.874L2852.922,1936.586z"/>
			<g>
				
					<linearGradient id="SVGID_00000016070307539374154500000003153557157257003931_" gradientUnits="userSpaceOnUse" x1="-3415.3728" y1="-2861.3354" x2="-3554.8503" y2="-2676.8181" gradientTransform="matrix(-0.6854 -0.7281 -0.7281 0.6854 -1617.6895 1318.7853)">
					<stop  offset="0" style="stop-color:#FEBBBA"/>
					<stop  offset="1" style="stop-color:#FF928E"/>
				</linearGradient>
				<path style="fill:url(#SVGID_00000016070307539374154500000003153557157257003931_);" d="M2788.372,1823.877
					c-1.339,1.26-56.506,109.596-56.506,109.596l62.527,30.185l67.542-94.911
					C2861.936,1868.746,2810.787,1802.777,2788.372,1823.877z"/>
				
					<linearGradient id="SVGID_00000131368624367432929750000012350801833917117313_" gradientUnits="userSpaceOnUse" x1="-3521.894" y1="-2817.0234" x2="-3358.4233" y2="-2817.0234" gradientTransform="matrix(-0.6854 -0.7281 -0.7281 0.6854 -1617.6895 1318.7853)">
					<stop  offset="0" style="stop-color:#09005D"/>
					<stop  offset="1" style="stop-color:#1A0F91"/>
				</linearGradient>
				<path style="fill:url(#SVGID_00000131368624367432929750000012350801833917117313_);" d="M2834.271,1871.375
					c1.116,2.886,0.842,6.106-0.75,8.76l-31.185,51.985c-0.473,0.789-1.037,1.502-1.71,2.129
					c-3.712,3.455-16.414,13.506-26.233-0.178c-8.369-11.663-16.222-22.265-24.636-26.638c-4.913-2.554-10.96-0.515-13.455,4.429
					c-5.138,10.184-15.09,30.943-21.343,50.627c-1.567,4.933,0.98,10.231,5.778,12.174c12.661,5.13,37.684,14.406,59.89,17.471
					c3.647,0.504,7.259-1.035,9.429-4.009c9.554-13.088,36.48-49.662,45.67-58.817c8.538-8.505,24.295-5.298,31.396-3.257
					c2.695,0.775,5.565,0.401,7.968-1.046c7.204-4.339,19.776-15.144,8.275-33.439c-2.86-4.548-1.402-10.607,3.087-13.56
					c8.043-5.291,16.771-15.222,8.456-31.304c-8.418-16.281-23.45-17.742-33.688-16.491c-4.53,0.554-9.129-1.822-10.867-6.041
					c-0.773-1.877-2.301-3.477-5.146-4.054c-5.366-1.089-8.888-5.996-7.835-11.369c1.806-9.213,8.53-11.418-6.18-19.505
					c-26.979-14.833-41.674,31.127-64.704,19.975c-19.144-9.27,24.155,34.822,43.13,37.228
					C2823.554,1848.212,2831.196,1863.424,2834.271,1871.375z"/>
				
					<linearGradient id="SVGID_00000134208397118958044750000015392466567229676697_" gradientUnits="userSpaceOnUse" x1="-3617.5718" y1="-2715.0588" x2="-3506.5386" y2="-2828.9758" gradientTransform="matrix(-0.6854 -0.7281 -0.7281 0.6854 -1617.6895 1318.7853)">
					<stop  offset="0" style="stop-color:#FEBBBA"/>
					<stop  offset="1" style="stop-color:#FF928E"/>
				</linearGradient>
				<path style="fill:url(#SVGID_00000134208397118958044750000015392466567229676697_);" d="M2820.873,1947.058
					c0,0,15.135-33.761,30.491-32.472c15.357,1.289,27.443,16.586,8.411,33.783
					C2836.103,1969.76,2820.873,1947.058,2820.873,1947.058z"/>
			</g>
			
				<linearGradient id="SVGID_00000006697447717951553160000000135796125131979908_" gradientUnits="userSpaceOnUse" x1="2919.814" y1="1756.3881" x2="3372.6487" y2="1303.5532">
				<stop  offset="0" style="stop-color:#4F52FF"/>
				<stop  offset="1" style="stop-color:#4042E2"/>
			</linearGradient>
			<path style="fill:url(#SVGID_00000006697447717951553160000000135796125131979908_);" d="M2692.688,1806.185
				c-5.249,16.408,50.647,48.951,124.848,72.687c74.2,23.736,138.606,29.676,143.855,13.268
				c5.249-16.408-50.648-48.951-124.848-72.687C2762.343,1795.717,2697.937,1789.777,2692.688,1806.185z"/>
			
				<linearGradient id="SVGID_00000011017035103587589390000010422213445617550226_" gradientUnits="userSpaceOnUse" x1="2917.9971" y1="1754.5723" x2="3370.8323" y2="1301.7372">
				<stop  offset="0" style="stop-color:#4F52FF"/>
				<stop  offset="1" style="stop-color:#4042E2"/>
			</linearGradient>
			<path style="fill:url(#SVGID_00000011017035103587589390000010422213445617550226_);" d="M2887.637,1875.055
				c5.802,0.746,11.053-3.684,11.577-9.777l5.549-64.585c0-4.002-2.254-7.595-5.681-9.059l-73.628-31.446
				c-3.861-1.649-8.254-0.662-11.197,2.516l-47.747,61.308C2807.066,1853.219,2840.252,1868.96,2887.637,1875.055z"/>
			
				<linearGradient id="SVGID_00000065037466390113579470000014494190706864900252_" gradientUnits="userSpaceOnUse" x1="-4067.0251" y1="2387.1057" x2="-3865.9998" y2="2449.8257" gradientTransform="matrix(-1 0 0 1 -1034.4589 0)">
				<stop  offset="0" style="stop-color:#FEBBBA"/>
				<stop  offset="1" style="stop-color:#FF928E"/>
			</linearGradient>
			<path style="fill:url(#SVGID_00000065037466390113579470000014494190706864900252_);" d="M2879.979,2401.868
				c11.282,21.931,22.575,43.366,34.065,55.061c4.657-22.381,6.297-43.223-2.937-58.524L2879.979,2401.868z"/>
			
				<linearGradient id="SVGID_00000109708682448861421070000005744032328300141468_" gradientUnits="userSpaceOnUse" x1="-3930.9578" y1="2513.0637" x2="-3961.8279" y2="2980.2275" gradientTransform="matrix(-1 0 0 1 -1034.4589 0)">
				<stop  offset="0" style="stop-color:#09005D"/>
				<stop  offset="1" style="stop-color:#1A0F91"/>
			</linearGradient>
			<path style="fill:url(#SVGID_00000109708682448861421070000005744032328300141468_);" d="M2912.39,2465.88l0.993-1.18
				c-22.251-18.731-36.16-37.88-42.523-58.538l-1.476,0.454C2875.838,2427.567,2889.905,2446.952,2912.39,2465.88z"/>
		</g>
		<g>
			<path style="fill:#FFFFFF;" d="M2542.91,1616.715l64.081,133.646c4.796,10.003,19.039,10.003,23.835,0l64.081-133.646H2542.91z"
				/>
			<ellipse style="fill:#FFFFFF;" cx="2524.868" cy="1357.977" rx="380.076" ry="291.853"/>
			<g>
				
					<linearGradient id="SVGID_00000041264843259029668870000017096917822979918764_" gradientUnits="userSpaceOnUse" x1="2576.3677" y1="1081.6956" x2="2878.3027" y2="-5.2709">
					<stop  offset="0" style="stop-color:#4F52FF"/>
					<stop  offset="1" style="stop-color:#4042E2"/>
				</linearGradient>
				<path style="fill:url(#SVGID_00000041264843259029668870000017096917822979918764_);" d="M2340.069,1286.773
					c-11.504-32.424-4-61.238,36.225-55.714c3.35-71.387,82.214-93.862,111.685-46.705c9.139-77.06,120.608-87.028,113.246,0
					c25.993-27.422,80.898-5.472,80.054,46.989c51.419,17.181,41.451,83.464-17.436,89.852l-272.775,1.341
					C2368.202,1322.648,2347.715,1308.323,2340.069,1286.773z"/>
				<g>
					<path style="fill:#91B3FA;" d="M2449.569,1499.872c-1.045-1.571-3.351-1.571-4.396,0c-6.95,10.45-27.99,43.295-27.99,57.929
						c0,17.529,13.516,31.739,30.188,31.739s30.189-14.21,30.189-31.739C2477.56,1543.167,2456.519,1510.322,2449.569,1499.872z"/>
					<path style="fill:#91B3FA;" d="M2536.454,1371.404c-1.134-1.705-3.637-1.705-4.771,0c-7.542,11.34-30.375,46.983-30.375,62.863
						c0,19.022,14.667,34.442,32.76,34.442s32.76-15.42,32.76-34.442C2566.829,1418.387,2543.996,1382.744,2536.454,1371.404z"/>
					<path style="fill:#91B3FA;" d="M2651.765,1356.768c-1.024-1.54-3.284-1.54-4.308,0c-6.81,10.239-27.427,42.423-27.427,56.763
						c0,17.176,13.244,31.1,29.581,31.1s29.581-13.924,29.581-31.1C2679.192,1399.191,2658.575,1367.007,2651.765,1356.768z"/>
					<path style="fill:#91B3FA;" d="M2423.907,1344.249c-0.876-1.317-2.809-1.317-3.685,0c-5.826,8.76-23.464,36.295-23.464,48.562
						c0,14.694,11.33,26.607,25.307,26.607c13.977,0,25.307-11.912,25.307-26.607
						C2447.371,1380.543,2429.733,1353.009,2423.907,1344.249z"/>
				</g>
			</g>
		</g>
	</g>
</g>
</svg>
