<?xml version="1.0" encoding="utf-8"?>
<!-- Generator: Adobe Illustrator 27.5.0, SVG Export Plug-In . SVG Version: 6.00 Build 0)  -->
<svg version="1.1" xmlns="http://www.w3.org/2000/svg" xmlns:xlink="http://www.w3.org/1999/xlink" x="0px" y="0px"
	 viewBox="0 0 750 500" style="enable-background:new 0 0 750 500;" xml:space="preserve">
<g id="Background_Simple">
	<g>
		<path style="fill:#92E3A9;" d="M114.007,428.583c2.321,4.061,4.638,8.436,6.249,11.543h543.647
			c4.612-9.449,22.105-50.957,15.705-125.922c-7.346-86.047-100.738-194.13-192.032-226.66
			c-91.294-32.53-124.873,27.283-177.341,61.912c-52.468,34.629-123.824-1.049-195.18,43.023
			C43.7,236.552,39.503,321.549,62.589,365.622C85.675,409.695,109.81,421.238,114.007,428.583z"/>
		<path style="opacity:0.7;fill:#FFFFFF;" d="M114.007,428.583c2.321,4.061,4.638,8.436,6.249,11.543h543.647
			c4.612-9.449,22.105-50.957,15.705-125.922c-7.346-86.047-100.738-194.13-192.032-226.66
			c-91.294-32.53-124.873,27.283-177.341,61.912c-52.468,34.629-123.824-1.049-195.18,43.023
			C43.7,236.552,39.503,321.549,62.589,365.622C85.675,409.695,109.81,421.238,114.007,428.583z"/>
	</g>
</g>
<g id="Window">
	<g>
		<g>
			<rect x="41.481" y="250.739" style="fill:#263238;" width="649.146" height="3.388"/>
			
				<line style="fill:none;stroke:#263238;stroke-linecap:round;stroke-linejoin:round;stroke-miterlimit:10;" x1="485" y1="196.174" x2="485" y2="64.904"/>
			
				<line style="fill:none;stroke:#263238;stroke-linecap:round;stroke-linejoin:round;stroke-miterlimit:10;" x1="485" y1="252.739" x2="485" y2="202.553"/>
			
				<line style="fill:none;stroke:#263238;stroke-linecap:round;stroke-linejoin:round;stroke-miterlimit:10;" x1="317" y1="101.901" x2="317" y2="66.072"/>
			
				<line style="fill:none;stroke:#263238;stroke-linecap:round;stroke-linejoin:round;stroke-miterlimit:10;" x1="317" y1="252.739" x2="317" y2="108.28"/>
			
				<line style="fill:none;stroke:#263238;stroke-linecap:round;stroke-linejoin:round;stroke-miterlimit:10;" x1="653.338" y1="93.395" x2="653.338" y2="64.904"/>
			
				<line style="fill:none;stroke:#263238;stroke-linecap:round;stroke-linejoin:round;stroke-miterlimit:10;" x1="653.338" y1="252.739" x2="653.338" y2="99.775"/>
			
				<line style="fill:none;stroke:#263238;stroke-linecap:round;stroke-linejoin:round;stroke-miterlimit:10;" x1="148.662" y1="252.739" x2="148.662" y2="66.072"/>
			
				<line style="fill:none;stroke:#263238;stroke-linecap:round;stroke-linejoin:round;stroke-miterlimit:10;" x1="643.739" y1="160.531" x2="674.566" y2="160.531"/>
			
				<line style="fill:none;stroke:#263238;stroke-linecap:round;stroke-linejoin:round;stroke-miterlimit:10;" x1="228.372" y1="160.531" x2="638.777" y2="160.531"/>
			
				<line style="fill:none;stroke:#263238;stroke-linecap:round;stroke-linejoin:round;stroke-miterlimit:10;" x1="82" y1="160.531" x2="223.41" y2="160.531"/>
		</g>
		<g>
			
				<line style="fill:none;stroke:#263238;stroke-width:0.5;stroke-linecap:round;stroke-linejoin:round;stroke-miterlimit:10;" x1="422.657" y1="126.576" x2="420.354" y2="127.995"/>
			
				<line style="fill:none;stroke:#263238;stroke-width:0.5;stroke-linecap:round;stroke-linejoin:round;stroke-miterlimit:10;" x1="461.477" y1="102.651" x2="425.751" y2="124.669"/>
			
				<line style="fill:none;stroke:#263238;stroke-width:0.5;stroke-linecap:round;stroke-linejoin:round;stroke-miterlimit:10;" x1="466.191" y1="104.139" x2="437.568" y2="121.779"/>
			
				<line style="fill:none;stroke:#263238;stroke-width:0.5;stroke-linecap:round;stroke-linejoin:round;stroke-miterlimit:10;" x1="478.691" y1="96.435" x2="470.047" y2="101.763"/>
		</g>
		<g>
			
				<line style="fill:none;stroke:#263238;stroke-width:0.5;stroke-linecap:round;stroke-linejoin:round;stroke-miterlimit:10;" x1="194.699" y1="126.576" x2="192.396" y2="127.995"/>
			
				<line style="fill:none;stroke:#263238;stroke-width:0.5;stroke-linecap:round;stroke-linejoin:round;stroke-miterlimit:10;" x1="233.519" y1="102.651" x2="197.793" y2="124.669"/>
			
				<line style="fill:none;stroke:#263238;stroke-width:0.5;stroke-linecap:round;stroke-linejoin:round;stroke-miterlimit:10;" x1="238.233" y1="104.139" x2="209.61" y2="121.779"/>
			
				<line style="fill:none;stroke:#263238;stroke-width:0.5;stroke-linecap:round;stroke-linejoin:round;stroke-miterlimit:10;" x1="250.733" y1="96.435" x2="242.089" y2="101.763"/>
		</g>
		<g>
			
				<line style="fill:none;stroke:#263238;stroke-width:0.5;stroke-linecap:round;stroke-linejoin:round;stroke-miterlimit:10;" x1="558.73" y1="126.576" x2="556.427" y2="127.995"/>
			
				<line style="fill:none;stroke:#263238;stroke-width:0.5;stroke-linecap:round;stroke-linejoin:round;stroke-miterlimit:10;" x1="597.551" y1="102.651" x2="561.825" y2="124.669"/>
			
				<line style="fill:none;stroke:#263238;stroke-width:0.5;stroke-linecap:round;stroke-linejoin:round;stroke-miterlimit:10;" x1="602.264" y1="104.139" x2="573.642" y2="121.779"/>
			
				<line style="fill:none;stroke:#263238;stroke-width:0.5;stroke-linecap:round;stroke-linejoin:round;stroke-miterlimit:10;" x1="614.765" y1="96.435" x2="606.12" y2="101.763"/>
		</g>
		<g>
			
				<line style="fill:none;stroke:#263238;stroke-width:0.5;stroke-linecap:round;stroke-linejoin:round;stroke-miterlimit:10;" x1="275.396" y1="205.8" x2="207.977" y2="247.349"/>
			
				<line style="fill:none;stroke:#263238;stroke-width:0.5;stroke-linecap:round;stroke-linejoin:round;stroke-miterlimit:10;" x1="284.291" y1="208.608" x2="230.277" y2="241.895"/>
			
				<line style="fill:none;stroke:#263238;stroke-width:0.5;stroke-linecap:round;stroke-linejoin:round;stroke-miterlimit:10;" x1="307.881" y1="194.07" x2="291.568" y2="204.123"/>
		</g>
		<g>
			
				<line style="fill:none;stroke:#263238;stroke-width:0.5;stroke-linecap:round;stroke-linejoin:round;stroke-miterlimit:10;" x1="445.78" y1="247.404" x2="441.434" y2="250.082"/>
			
				<line style="fill:none;stroke:#263238;stroke-width:0.5;stroke-linecap:round;stroke-linejoin:round;stroke-miterlimit:10;" x1="551.524" y1="190.526" x2="535.211" y2="200.579"/>
		</g>
	</g>
</g>
<g id="Floor">
	<g>
		
			<line style="fill:none;stroke:#263238;stroke-linecap:round;stroke-linejoin:round;stroke-miterlimit:10;" x1="48" y1="440.126" x2="715.865" y2="440.126"/>
		
			<line style="fill:none;stroke:#263238;stroke-linecap:round;stroke-linejoin:round;stroke-miterlimit:10;" x1="17.752" y1="440.126" x2="39" y2="440.126"/>
	</g>
</g>
<g id="Trash_Can">
	<path style="fill:#263238;stroke:#263238;stroke-linecap:round;stroke-linejoin:round;stroke-miterlimit:10;" d="M75,333.126v107
		h78v-107H75z M150.596,353.126v8.687l-1.738,1.738l-6.4-6.399l4.026-4.026H150.596z M148.108,429.126l-5.65-5.65l6.4-6.4
		l1.738,1.738v10.311H148.108z M77.404,429.126v-6.921l5.129-5.129l6.399,6.4l-5.65,5.65H77.404z M84.907,353.126l4.026,4.026
		l-6.399,6.399l-5.129-5.129v-5.297H84.907z M109.539,353.126l-2.135,2.135l-2.135-2.135H109.539z M113.804,365.443l-6.399,6.4
		l-6.4-6.4l6.4-6.4L113.804,365.443z M126.12,353.126l-2.135,2.135l-2.135-2.135H126.12z M130.385,365.443l-6.399,6.4l-6.4-6.4
		l6.399-6.4L130.385,365.443z M97.223,398.605l-6.399,6.399l-6.399-6.399l6.399-6.4L97.223,398.605z M84.424,382.024l6.399-6.4
		l6.399,6.399l-6.399,6.4L84.424,382.024z M92.715,390.314l6.399-6.399l6.399,6.399l-6.399,6.4L92.715,390.314z M101.005,382.024
		l6.4-6.4l6.399,6.4l-6.399,6.399L101.005,382.024z M107.405,392.205l6.399,6.4l-6.399,6.399l-6.4-6.399L107.405,392.205z
		 M109.296,390.314l6.399-6.399l6.399,6.399l-6.399,6.4L109.296,390.314z M117.586,382.024l6.399-6.4l6.399,6.4l-6.399,6.399
		L117.586,382.024z M123.986,392.205l6.399,6.4l-6.399,6.399l-6.399-6.399L123.986,392.205z M125.877,390.314l6.399-6.399l6.4,6.399
		l-6.4,6.4L125.877,390.314z M125.877,373.733l6.399-6.4l6.399,6.4l-6.399,6.4L125.877,373.733z M122.095,373.733l-6.399,6.4
		l-6.399-6.4l6.399-6.4L122.095,373.733z M105.513,373.733l-6.399,6.4l-6.399-6.4l6.399-6.4L105.513,373.733z M90.824,371.842
		l-6.399-6.4l6.399-6.4l6.399,6.4L90.824,371.842z M88.932,373.733l-6.399,6.4l-5.129-5.129v-2.542l5.129-5.129L88.932,373.733z
		 M88.932,390.314l-6.399,6.4l-5.129-5.129v-2.542l5.129-5.129L88.932,390.314z M88.932,406.895l-6.399,6.4l-5.129-5.129v-2.542
		l5.129-5.129L88.932,406.895z M90.824,408.786l6.399,6.4l-6.399,6.399l-6.399-6.399L90.824,408.786z M92.715,406.895l6.399-6.4
		l6.399,6.4l-6.399,6.4L92.715,406.895z M107.405,408.786l6.399,6.4l-6.399,6.399l-6.4-6.399L107.405,408.786z M109.296,406.895
		l6.399-6.4l6.399,6.4l-6.399,6.4L109.296,406.895z M123.986,408.786l6.399,6.4l-6.4,6.4l-6.399-6.399L123.986,408.786z
		 M125.877,406.895l6.399-6.4l6.399,6.4l-6.399,6.4L125.877,406.895z M140.567,408.786l6.399,6.4l-6.399,6.399l-6.4-6.399
		L140.567,408.786z M134.167,398.605l6.4-6.4l6.399,6.4l-6.399,6.399L134.167,398.605z M134.167,382.024l6.4-6.4l6.399,6.4
		l-6.399,6.399L134.167,382.024z M134.167,365.443l6.4-6.4l6.399,6.4l-6.399,6.4L134.167,365.443z M132.276,363.552l-6.4-6.399
		l4.026-4.026h4.747l4.026,4.026L132.276,363.552z M122.095,357.152l-6.399,6.399l-6.399-6.399l4.026-4.026h4.747L122.095,357.152z
		 M105.513,357.152l-6.399,6.399l-6.4-6.399l4.026-4.026h4.747L105.513,357.152z M90.824,355.261l-2.135-2.135h4.27L90.824,355.261z
		 M80.642,365.443l-3.237,3.238v-6.475L80.642,365.443z M80.642,382.024l-3.237,3.238v-6.475L80.642,382.024z M80.642,398.605
		l-3.237,3.237v-6.475L80.642,398.605z M80.642,415.186l-3.237,3.237v-6.475L80.642,415.186z M90.824,425.367l3.759,3.759h-7.517
		L90.824,425.367z M98.364,429.126l-5.65-5.65l6.4-6.4l6.399,6.4l-5.65,5.65H98.364z M107.405,425.367l3.759,3.759h-7.517
		L107.405,425.367z M109.296,423.476l6.399-6.4l6.399,6.4l-5.65,5.65h-1.499L109.296,423.476z M123.986,425.367l3.759,3.759h-7.518
		L123.986,425.367z M125.877,423.476l6.4-6.4l6.399,6.4l-5.65,5.65h-1.499L125.877,423.476z M140.567,425.367l3.759,3.759h-7.518
		L140.567,425.367z M148.857,413.295l-6.4-6.4l6.4-6.399l1.738,1.738v9.322L148.857,413.295z M148.857,396.714l-6.4-6.4l6.4-6.399
		l1.738,1.738v9.322L148.857,396.714z M148.857,380.133l-6.4-6.4l6.4-6.4l1.738,1.738v9.322L148.857,380.133z M140.567,355.261
		l-2.135-2.135h4.27L140.567,355.261z"/>
</g>
<g id="Paper">
	<g>
		<g>
			<path style="fill:#FFFFFF;stroke:#263238;stroke-linecap:round;stroke-linejoin:round;stroke-miterlimit:10;" d="M133.46,242.277
				l4.487-1.329l2.799-5.285c0,0,1.074-5.125,0.393-6.222c-0.681-1.097-4.279-6.565-4.541-7.314
				c-0.262-0.749-3.574-1.023-3.574-1.023l-1.865,0.933l4.144,9.102l0.389,4.217L133.46,242.277z"/>
			<path style="fill:#FFFFFF;stroke:#263238;stroke-linecap:round;stroke-linejoin:round;stroke-miterlimit:10;" d="
				M121.274,223.385l-7.369,5.031l2.841,11.922c0,0,4.905,1.288,6.24,1.6c1.334,0.312,10.475,0.339,10.475,0.339l4.66-6.087
				l-0.478-5.178l-2.675-5.41l-3.81-3.565L121.274,223.385z"/>
			<path style="fill:#FFFFFF;stroke:#263238;stroke-linecap:round;stroke-linejoin:round;stroke-miterlimit:10;" d="
				M121.274,223.385l-1.282,9.691c0,0,3.379,3.605,4.713,3.917c1.334,0.312,6.671,1.56,6.671,1.56l1.68-5.377l-0.518-5.609
				c0,0-3.651-1.839-4.394-0.465c-0.744,1.374-3.372,1.182-3.253,2.476c0.119,1.294-0.073,3.923-0.073,3.923
				s0.903,0.352,2.197,0.232c1.294-0.119,2.43-1.965,2.43-1.965l-1.301-4.667"/>
			
				<line style="fill:#FFFFFF;stroke:#263238;stroke-linecap:round;stroke-linejoin:round;stroke-miterlimit:10;" x1="119.992" y1="233.076" x2="116.746" y2="240.338"/>
		</g>
		<g>
			<g>
				<path style="fill:none;stroke:#263238;stroke-linecap:round;stroke-linejoin:round;" d="M138.379,215.067
					c0,0,0.313-0.414,0.922-1.178"/>
				<path style="fill:none;stroke:#263238;stroke-linecap:round;stroke-linejoin:round;stroke-dasharray:3.0026,3.0026;" d="
					M141.199,211.567c9.121-10.926,39.628-44.486,80.619-58.168"/>
				<path style="fill:none;stroke:#263238;stroke-linecap:round;stroke-linejoin:round;" d="M223.255,152.928
					c0.476-0.153,0.953-0.302,1.432-0.449"/>
			</g>
		</g>
	</g>
</g>
<g id="Plant">
	<g>
		<g>
			
				<line style="fill:none;stroke:#263238;stroke-width:2;stroke-miterlimit:10;" x1="672.59" y1="226.543" x2="689.424" y2="387.852"/>
			<g>
				<g>
					
						<line style="fill:none;stroke:#263238;stroke-width:2;stroke-miterlimit:10;" x1="686.711" y1="356.981" x2="679.08" y2="348.921"/>
					<path style="fill:#92E3A9;stroke:#263238;stroke-miterlimit:10;" d="M681.398,351.336c0,0,0.219-3.566-3.037-6.474
						c-1.959-1.75-12.268-6.087-13.247-2.456C664.05,346.356,674.602,354.112,681.398,351.336z"/>
					
						<line style="fill:none;stroke:#263238;stroke-width:0.5;stroke-miterlimit:10;" x1="681.398" y1="351.336" x2="671.583" y2="345.22"/>
				</g>
				<g>
					
						<line style="fill:none;stroke:#263238;stroke-width:2;stroke-miterlimit:10;" x1="688.626" y1="375.327" x2="680.994" y2="367.266"/>
					<path style="fill:#92E3A9;stroke:#263238;stroke-miterlimit:10;" d="M683.313,369.681c0,0,0.219-3.566-3.038-6.473
						c-1.959-1.75-12.268-6.087-13.247-2.456C665.964,364.701,676.517,372.457,683.313,369.681z"/>
					
						<line style="fill:none;stroke:#263238;stroke-width:0.5;stroke-miterlimit:10;" x1="683.313" y1="369.681" x2="673.498" y2="363.565"/>
				</g>
				<g>
					
						<line style="fill:none;stroke:#263238;stroke-width:2;stroke-miterlimit:10;" x1="682.039" y1="312.215" x2="674.408" y2="304.155"/>
					<path style="fill:#92E3A9;stroke:#263238;stroke-miterlimit:10;" d="M676.726,306.57c0,0,0.218-3.566-3.037-6.474
						c-1.959-1.749-12.268-6.087-13.247-2.456C659.378,301.59,669.93,309.346,676.726,306.57z"/>
					
						<line style="fill:none;stroke:#263238;stroke-width:0.5;stroke-miterlimit:10;" x1="676.726" y1="306.57" x2="666.912" y2="300.453"/>
				</g>
				<g>
					
						<line style="fill:none;stroke:#263238;stroke-width:2;stroke-miterlimit:10;" x1="683.954" y1="330.56" x2="676.322" y2="322.5"/>
					<path style="fill:#92E3A9;stroke:#263238;stroke-miterlimit:10;" d="M678.641,324.915c0,0,0.218-3.566-3.038-6.474
						c-1.959-1.749-12.268-6.086-13.247-2.456C661.293,319.935,671.845,327.691,678.641,324.915z"/>
					
						<line style="fill:none;stroke:#263238;stroke-width:0.5;stroke-miterlimit:10;" x1="678.641" y1="324.915" x2="668.826" y2="318.799"/>
				</g>
				<g>
					
						<line style="fill:none;stroke:#263238;stroke-width:2;stroke-miterlimit:10;" x1="678.929" y1="282.414" x2="671.297" y2="274.354"/>
					<path style="fill:#92E3A9;stroke:#263238;stroke-miterlimit:10;" d="M673.616,276.769c0,0,0.218-3.566-3.037-6.474
						c-1.959-1.749-12.269-6.086-13.247-2.455C656.268,271.789,666.82,279.545,673.616,276.769z"/>
					
						<line style="fill:none;stroke:#263238;stroke-width:0.5;stroke-miterlimit:10;" x1="673.616" y1="276.769" x2="663.801" y2="270.653"/>
				</g>
				<g>
					
						<line style="fill:none;stroke:#263238;stroke-width:2;stroke-miterlimit:10;" x1="675.805" y1="252.483" x2="668.174" y2="244.423"/>
					<path style="fill:#92E3A9;stroke:#263238;stroke-miterlimit:10;" d="M670.493,246.838c0,0,0.218-3.566-3.038-6.473
						c-1.959-1.75-12.268-6.087-13.247-2.456C653.144,241.858,663.697,249.614,670.493,246.838z"/>
					
						<line style="fill:none;stroke:#263238;stroke-width:0.5;stroke-miterlimit:10;" x1="670.493" y1="246.838" x2="660.678" y2="240.722"/>
				</g>
				<g>
					
						<line style="fill:none;stroke:#263238;stroke-width:2;stroke-miterlimit:10;" x1="685.428" y1="346.127" x2="691.232" y2="336.664"/>
					<path style="fill:#92E3A9;stroke:#263238;stroke-miterlimit:10;" d="M689.461,339.506c0,0-0.95-3.444,1.636-6.961
						c1.555-2.116,10.747-8.489,12.454-5.138C705.408,331.051,696.684,340.819,689.461,339.506z"/>
					
						<line style="fill:none;stroke:#263238;stroke-width:0.5;stroke-miterlimit:10;" x1="689.461" y1="339.506" x2="698.299" y2="331.059"/>
				</g>
				<g>
					
						<line style="fill:none;stroke:#263238;stroke-width:2;stroke-miterlimit:10;" x1="680.39" y1="297.851" x2="686.193" y2="288.388"/>
					<path style="fill:#92E3A9;stroke:#263238;stroke-miterlimit:10;" d="M684.423,291.23c0,0-0.95-3.444,1.636-6.961
						c1.555-2.117,10.747-8.489,12.454-5.138C700.369,282.775,691.646,292.543,684.423,291.23z"/>
					
						<line style="fill:none;stroke:#263238;stroke-width:0.5;stroke-miterlimit:10;" x1="684.423" y1="291.23" x2="693.261" y2="282.783"/>
				</g>
				<g>
					
						<line style="fill:none;stroke:#263238;stroke-width:2;stroke-miterlimit:10;" x1="678.176" y1="276.635" x2="683.979" y2="267.172"/>
					<path style="fill:#92E3A9;stroke:#263238;stroke-miterlimit:10;" d="M682.209,270.014c0,0-0.95-3.444,1.635-6.961
						c1.555-2.116,10.747-8.489,12.454-5.138C698.155,261.56,689.432,271.327,682.209,270.014z"/>
					
						<line style="fill:none;stroke:#263238;stroke-width:0.5;stroke-miterlimit:10;" x1="682.209" y1="270.014" x2="691.047" y2="261.567"/>
				</g>
				<g>
					
						<line style="fill:none;stroke:#263238;stroke-width:2;stroke-miterlimit:10;" x1="674.93" y1="245.533" x2="680.733" y2="236.07"/>
					<path style="fill:#92E3A9;stroke:#263238;stroke-miterlimit:10;" d="M678.963,238.912c0,0-0.95-3.444,1.636-6.961
						c1.555-2.116,10.747-8.488,12.454-5.138C694.909,230.458,686.186,240.225,678.963,238.912z"/>
					
						<line style="fill:none;stroke:#263238;stroke-width:0.5;stroke-miterlimit:10;" x1="678.963" y1="238.912" x2="687.801" y2="230.465"/>
					<path style="fill:#92E3A9;stroke:#263238;stroke-miterlimit:10;" d="M672.448,225.648c0,0-0.95-3.444,1.635-6.961
						c1.555-2.116,10.747-8.489,12.454-5.138C688.395,217.193,679.671,226.96,672.448,225.648z"/>
					
						<line style="fill:none;stroke:#263238;stroke-width:0.5;stroke-miterlimit:10;" x1="672.448" y1="225.648" x2="681.286" y2="217.201"/>
					<path style="fill:#92E3A9;stroke:#263238;stroke-miterlimit:10;" d="M672.961,226.012c0,0-3.524,0.583-6.751-2.357
						c-1.942-1.769-7.315-11.578-3.803-12.924C666.225,209.267,675.023,218.967,672.961,226.012z"/>
					
						<line style="fill:none;stroke:#263238;stroke-width:0.5;stroke-miterlimit:10;" x1="672.961" y1="226.012" x2="665.487" y2="216.337"/>
				</g>
			</g>
		</g>
		<g>
			
				<line style="fill:none;stroke:#263238;stroke-width:2;stroke-miterlimit:10;" x1="716.991" y1="248.758" x2="700.252" y2="410.077"/>
			<g>
				<g>
					
						<line style="fill:none;stroke:#263238;stroke-width:2;stroke-miterlimit:10;" x1="703.953" y1="379.309" x2="698.144" y2="369.85"/>
					<path style="fill:#92E3A9;stroke:#263238;stroke-miterlimit:10;" d="M699.916,372.69c0,0,0.948-3.444-1.639-6.96
						c-1.557-2.115-10.753-8.482-12.457-5.131C683.965,364.245,692.694,374.008,699.916,372.69z"/>
					
						<line style="fill:none;stroke:#263238;stroke-width:0.5;stroke-miterlimit:10;" x1="699.916" y1="372.69" x2="691.571" y2="364.685"/>
				</g>
				<g>
					
						<line style="fill:none;stroke:#263238;stroke-width:2;stroke-miterlimit:10;" x1="708.599" y1="334.54" x2="702.79" y2="325.081"/>
					<path style="fill:#92E3A9;stroke:#263238;stroke-miterlimit:10;" d="M704.562,327.921c0,0,0.948-3.444-1.64-6.96
						c-1.557-2.115-10.752-8.482-12.457-5.131C688.61,319.476,697.34,329.239,704.562,327.921z"/>
					
						<line style="fill:none;stroke:#263238;stroke-width:0.5;stroke-miterlimit:10;" x1="704.562" y1="327.921" x2="696.216" y2="319.915"/>
				</g>
				<g>
					
						<line style="fill:none;stroke:#263238;stroke-width:2;stroke-miterlimit:10;" x1="706.695" y1="352.887" x2="700.886" y2="343.427"/>
					<path style="fill:#92E3A9;stroke:#263238;stroke-miterlimit:10;" d="M702.658,346.268c0,0,0.948-3.444-1.64-6.96
						c-1.557-2.115-10.752-8.482-12.457-5.13C686.707,337.823,695.436,347.585,702.658,346.268z"/>
					
						<line style="fill:none;stroke:#263238;stroke-width:0.5;stroke-miterlimit:10;" x1="702.658" y1="346.268" x2="694.313" y2="338.262"/>
				</g>
				<g>
					
						<line style="fill:none;stroke:#263238;stroke-width:2;stroke-miterlimit:10;" x1="711.691" y1="304.737" x2="705.882" y2="295.278"/>
					<path style="fill:#92E3A9;stroke:#263238;stroke-miterlimit:10;" d="M707.654,298.119c0,0,0.948-3.444-1.639-6.96
						c-1.557-2.115-10.752-8.482-12.458-5.131C691.703,289.673,700.432,299.436,707.654,298.119z"/>
					
						<line style="fill:none;stroke:#263238;stroke-width:0.5;stroke-miterlimit:10;" x1="707.654" y1="298.119" x2="699.309" y2="290.113"/>
				</g>
				<g>
					
						<line style="fill:none;stroke:#263238;stroke-width:2;stroke-miterlimit:10;" x1="714.797" y1="274.805" x2="708.988" y2="265.345"/>
					<path style="fill:#92E3A9;stroke:#263238;stroke-miterlimit:10;" d="M710.76,268.186c0,0,0.948-3.444-1.64-6.96
						c-1.557-2.115-10.752-8.483-12.457-5.131C694.809,259.741,703.538,269.503,710.76,268.186z"/>
					
						<line style="fill:none;stroke:#263238;stroke-width:0.5;stroke-miterlimit:10;" x1="710.76" y1="268.186" x2="702.415" y2="260.18"/>
				</g>
				<g>
					
						<line style="fill:none;stroke:#263238;stroke-width:2;stroke-miterlimit:10;" x1="704.932" y1="368.423" x2="712.56" y2="360.358"/>
					<path style="fill:#92E3A9;stroke:#263238;stroke-miterlimit:10;" d="M710.242,362.774c0,0-0.221-3.566,3.034-6.476
						c1.958-1.751,12.264-6.094,13.245-2.463C727.588,357.784,717.04,365.546,710.242,362.774z"/>
					
						<line style="fill:none;stroke:#263238;stroke-width:0.5;stroke-miterlimit:10;" x1="710.242" y1="362.774" x2="720.63" y2="356.328"/>
				</g>
				<g>
					
						<line style="fill:none;stroke:#263238;stroke-width:2;stroke-miterlimit:10;" x1="709.942" y1="320.144" x2="717.569" y2="312.078"/>
					<path style="fill:#92E3A9;stroke:#263238;stroke-miterlimit:10;" d="M715.252,314.495c0,0-0.221-3.565,3.034-6.475
						c1.958-1.751,12.265-6.094,13.245-2.463C732.597,309.505,722.05,317.267,715.252,314.495z"/>
					
						<line style="fill:none;stroke:#263238;stroke-width:0.5;stroke-miterlimit:10;" x1="715.252" y1="314.495" x2="725.64" y2="308.049"/>
				</g>
				<g>
					
						<line style="fill:none;stroke:#263238;stroke-width:2;stroke-miterlimit:10;" x1="712.144" y1="298.927" x2="719.771" y2="290.862"/>
					<path style="fill:#92E3A9;stroke:#263238;stroke-miterlimit:10;" d="M717.453,293.278c0,0-0.22-3.566,3.034-6.475
						c1.958-1.751,12.265-6.094,13.245-2.464C734.799,288.288,724.251,296.05,717.453,293.278z"/>
					
						<line style="fill:none;stroke:#263238;stroke-width:0.5;stroke-miterlimit:10;" x1="717.453" y1="293.278" x2="727.841" y2="286.832"/>
				</g>
				<g>
					
						<line style="fill:none;stroke:#263238;stroke-width:2;stroke-miterlimit:10;" x1="715.371" y1="267.823" x2="722.998" y2="259.758"/>
					<path style="fill:#92E3A9;stroke:#263238;stroke-miterlimit:10;" d="M720.681,262.174c0,0-0.221-3.565,3.034-6.475
						c1.958-1.751,12.265-6.094,13.245-2.464C738.026,257.184,727.479,264.946,720.681,262.174z"/>
					
						<line style="fill:none;stroke:#263238;stroke-width:0.5;stroke-miterlimit:10;" x1="720.681" y1="262.174" x2="731.069" y2="255.728"/>
					<path style="fill:#92E3A9;stroke:#263238;stroke-miterlimit:10;" d="M717.037,247.852c0,0-0.22-3.566,3.034-6.476
						c1.958-1.75,12.265-6.094,13.245-2.463C734.382,242.862,723.835,250.624,717.037,247.852z"/>
					
						<line style="fill:none;stroke:#263238;stroke-width:0.5;stroke-miterlimit:10;" x1="717.037" y1="247.852" x2="727.425" y2="241.406"/>
					<path style="fill:#92E3A9;stroke:#263238;stroke-miterlimit:10;" d="M717.463,248.314c0,0-3.569-0.155-6.121-3.696
						c-1.536-2.131-4.774-12.836-1.061-13.43C714.32,230.542,720.933,241.845,717.463,248.314z"/>
					
						<line style="fill:none;stroke:#263238;stroke-width:0.5;stroke-miterlimit:10;" x1="717.463" y1="248.314" x2="712.142" y2="237.308"/>
				</g>
			</g>
		</g>
		
			<line style="fill:none;stroke:#263238;stroke-width:2;stroke-miterlimit:10;" x1="697.809" y1="183.069" x2="697.809" y2="387.066"/>
		<g>
			<g>
				
					<line style="fill:none;stroke:#263238;stroke-width:2;stroke-miterlimit:10;" x1="697.971" y1="356.393" x2="691.217" y2="347.584"/>
				<path style="fill:#92E3A9;stroke:#263238;stroke-miterlimit:10;" d="M693.273,350.227c0,0,0.587-3.524-2.349-6.754
					c-1.767-1.943-11.57-7.327-12.92-3.817C676.535,343.473,686.225,352.283,693.273,350.227z"/>
				
					<line style="fill:none;stroke:#263238;stroke-width:0.5;stroke-miterlimit:10;" x1="693.273" y1="350.227" x2="684.146" y2="343.125"/>
			</g>
			<g>
				
					<line style="fill:none;stroke:#263238;stroke-width:2;stroke-miterlimit:10;" x1="697.971" y1="318.057" x2="691.217" y2="309.248"/>
				<path style="fill:#92E3A9;stroke:#263238;stroke-miterlimit:10;" d="M693.273,311.891c0,0,0.587-3.524-2.349-6.754
					c-1.767-1.943-11.57-7.327-12.92-3.818C676.535,305.137,686.225,313.946,693.273,311.891z"/>
				
					<line style="fill:none;stroke:#263238;stroke-width:0.5;stroke-miterlimit:10;" x1="693.273" y1="311.891" x2="684.146" y2="304.789"/>
			</g>
			<g>
				
					<line style="fill:none;stroke:#263238;stroke-width:2;stroke-miterlimit:10;" x1="697.971" y1="273.048" x2="691.217" y2="264.238"/>
				<path style="fill:#92E3A9;stroke:#263238;stroke-miterlimit:10;" d="M693.273,266.881c0,0,0.587-3.524-2.349-6.754
					c-1.767-1.943-11.57-7.327-12.92-3.817C676.535,260.127,686.225,268.937,693.273,266.881z"/>
				
					<line style="fill:none;stroke:#263238;stroke-width:0.5;stroke-miterlimit:10;" x1="693.273" y1="266.881" x2="684.146" y2="259.779"/>
			</g>
			<g>
				
					<line style="fill:none;stroke:#263238;stroke-width:2;stroke-miterlimit:10;" x1="697.971" y1="243.085" x2="691.217" y2="234.276"/>
				<path style="fill:#92E3A9;stroke:#263238;stroke-miterlimit:10;" d="M693.273,236.919c0,0,0.587-3.524-2.349-6.754
					c-1.767-1.943-11.57-7.327-12.92-3.817C676.535,230.165,686.225,238.974,693.273,236.919z"/>
				
					<line style="fill:none;stroke:#263238;stroke-width:0.5;stroke-miterlimit:10;" x1="693.273" y1="236.919" x2="684.146" y2="229.817"/>
			</g>
			<g>
				
					<line style="fill:none;stroke:#263238;stroke-width:2;stroke-miterlimit:10;" x1="697.971" y1="212.992" x2="691.217" y2="204.182"/>
				<path style="fill:#92E3A9;stroke:#263238;stroke-miterlimit:10;" d="M693.273,206.825c0,0,0.587-3.524-2.349-6.754
					c-1.767-1.943-11.57-7.327-12.92-3.817C676.535,200.071,686.225,208.881,693.273,206.825z"/>
				
					<line style="fill:none;stroke:#263238;stroke-width:0.5;stroke-miterlimit:10;" x1="693.273" y1="206.825" x2="684.146" y2="199.723"/>
			</g>
			<g>
				
					<line style="fill:none;stroke:#263238;stroke-width:2;stroke-miterlimit:10;" x1="697.822" y1="368.1" x2="704.576" y2="359.291"/>
				<path style="fill:#92E3A9;stroke:#263238;stroke-miterlimit:10;" d="M702.52,361.934c0,0-0.587-3.524,2.349-6.754
					c1.767-1.944,11.57-7.327,12.92-3.817C719.258,355.18,709.568,363.989,702.52,361.934z"/>
				
					<line style="fill:none;stroke:#263238;stroke-width:0.5;stroke-miterlimit:10;" x1="702.52" y1="361.934" x2="712.187" y2="354.449"/>
			</g>
			<g>
				
					<line style="fill:none;stroke:#263238;stroke-width:2;stroke-miterlimit:10;" x1="697.822" y1="307.128" x2="704.576" y2="298.319"/>
				<path style="fill:#92E3A9;stroke:#263238;stroke-miterlimit:10;" d="M702.52,300.961c0,0-0.587-3.524,2.349-6.754
					c1.767-1.943,11.57-7.327,12.92-3.817C719.258,294.208,709.568,303.017,702.52,300.961z"/>
				
					<line style="fill:none;stroke:#263238;stroke-width:0.5;stroke-miterlimit:10;" x1="702.52" y1="300.961" x2="712.187" y2="293.478"/>
			</g>
			<g>
				
					<line style="fill:none;stroke:#263238;stroke-width:2;stroke-miterlimit:10;" x1="697.822" y1="277.035" x2="704.576" y2="268.225"/>
				<path style="fill:#92E3A9;stroke:#263238;stroke-miterlimit:10;" d="M702.52,270.868c0,0-0.587-3.524,2.349-6.754
					c1.767-1.943,11.57-7.327,12.92-3.817C719.258,264.114,709.568,272.924,702.52,270.868z"/>
				
					<line style="fill:none;stroke:#263238;stroke-width:0.5;stroke-miterlimit:10;" x1="702.52" y1="270.868" x2="712.187" y2="263.384"/>
			</g>
			<g>
				
					<line style="fill:none;stroke:#263238;stroke-width:2;stroke-miterlimit:10;" x1="697.822" y1="237.259" x2="704.576" y2="228.45"/>
				<path style="fill:#92E3A9;stroke:#263238;stroke-miterlimit:10;" d="M702.52,231.092c0,0-0.587-3.524,2.349-6.754
					c1.767-1.943,11.57-7.327,12.92-3.818C719.258,224.339,709.568,233.148,702.52,231.092z"/>
				
					<line style="fill:none;stroke:#263238;stroke-width:0.5;stroke-miterlimit:10;" x1="702.52" y1="231.092" x2="712.187" y2="223.608"/>
			</g>
			<g>
				
					<line style="fill:none;stroke:#263238;stroke-width:2;stroke-miterlimit:10;" x1="697.822" y1="205.988" x2="704.576" y2="197.178"/>
				<path style="fill:#92E3A9;stroke:#263238;stroke-miterlimit:10;" d="M702.52,199.821c0,0-0.587-3.524,2.349-6.754
					c1.767-1.944,11.57-7.327,12.92-3.818C719.258,193.068,709.568,201.877,702.52,199.821z"/>
				
					<line style="fill:none;stroke:#263238;stroke-width:0.5;stroke-miterlimit:10;" x1="702.52" y1="199.821" x2="712.187" y2="192.337"/>
				<path style="fill:#92E3A9;stroke:#263238;stroke-miterlimit:10;" d="M697.417,185.952c0,0-0.587-3.524,2.349-6.754
					c1.766-1.943,11.57-7.327,12.92-3.817C714.155,179.198,704.465,188.008,697.417,185.952z"/>
				
					<line style="fill:none;stroke:#263238;stroke-width:0.5;stroke-miterlimit:10;" x1="697.417" y1="185.952" x2="707.084" y2="178.468"/>
				<path style="fill:#92E3A9;stroke:#263238;stroke-miterlimit:10;" d="M697.889,186.368c0,0-3.566,0.215-6.47-3.044
					c-1.747-1.961-6.073-12.275-2.441-13.249C692.928,169.014,700.672,179.575,697.889,186.368z"/>
				
					<line style="fill:none;stroke:#263238;stroke-width:0.5;stroke-miterlimit:10;" x1="697.889" y1="186.368" x2="691.46" y2="175.969"/>
			</g>
		</g>
		<polygon style="fill:#263238;stroke:#263238;stroke-miterlimit:10;" points="706.201,439.975 684.597,439.975 681.896,385.413 
			708.901,385.413 		"/>
	</g>
</g>
<g id="Character">
	<g>
		<g>
			<path style="fill:#FFFFFF;stroke:#263238;stroke-linecap:round;stroke-linejoin:round;stroke-miterlimit:10;" d="M347.37,401.473
				c0,0-49.945,23.018-51.682,26.927c-1.737,3.909,0,8.686,0,8.686h2.606v-6.08c0,0,35.396-15.635,42.127-18.241
				c6.732-2.606,9.555-3.474,9.555-3.474L347.37,401.473z"/>
			
				<circle style="fill:#263238;stroke:#263238;stroke-linecap:round;stroke-linejoin:round;stroke-miterlimit:10;" cx="300.031" cy="434.915" r="5.212"/>
		</g>
		<g>
			<path style="fill:#FFFFFF;stroke:#263238;stroke-linecap:round;stroke-linejoin:round;stroke-miterlimit:10;" d="
				M366.995,400.256c0,0,51.518,23.743,53.31,27.775s0,8.96,0,8.96h-2.688v-6.272c0,0-36.51-16.127-43.454-18.815
				c-6.944-2.688-9.856-3.584-9.856-3.584L366.995,400.256z"/>
			<path style="fill:#263238;stroke:#263238;stroke-linecap:round;stroke-linejoin:round;stroke-miterlimit:10;" d="M410.449,434.75
				c0,2.969,2.407,5.376,5.376,5.376c2.969,0,5.376-2.407,5.376-5.376c0-2.969-2.407-5.376-5.376-5.376
				C412.856,429.375,410.449,431.781,410.449,434.75z"/>
		</g>
		
			<rect x="353.776" y="338.5" style="fill:#FFFFFF;stroke:#263238;stroke-linecap:round;stroke-linejoin:round;stroke-miterlimit:10;" width="7.383" height="61.671"/>
		
			<rect x="343.57" y="327.208" style="fill:#263238;stroke:#263238;stroke-linecap:round;stroke-linejoin:round;stroke-miterlimit:10;" width="27.795" height="13.898"/>
		
			<rect x="347.153" y="396.262" style="fill:#263238;stroke:#263238;stroke-linecap:round;stroke-linejoin:round;stroke-miterlimit:10;" width="20.629" height="13.898"/>
		<path style="fill:#92E3A9;stroke:#263238;stroke-linecap:round;stroke-linejoin:round;stroke-miterlimit:10;" d="M360.467,190.126
			h-40.088c-11.23,0-20.333,9.104-20.333,20.333v102.241H380.8V210.46C380.8,199.23,371.696,190.126,360.467,190.126z"/>
		<path style="fill:#92E3A9;stroke:#263238;stroke-linecap:round;stroke-linejoin:round;stroke-miterlimit:10;" d="M414.667,330.726
			H309.44c-7.18,0-13-5.82-13-13v-2.12c0-7.18,5.82-13,13-13h105.227c7.18,0,13,5.82,13,13v2.12
			C427.667,324.906,421.846,330.726,414.667,330.726z"/>
	</g>
	<g>
		<g>
			<path style="fill:#263238;stroke:#263238;stroke-linecap:round;stroke-linejoin:round;stroke-miterlimit:10;" d="M336.39,242.802
				c0,0-20.71,36.435-20.71,44.489c0,8.054,5.369,16.875,19.943,20.71c14.574,3.835,42.955,7.671,59.063,6.903
				c16.108-0.767,46.79,2.301,46.79,2.301s-1.151,27.614,3.452,39.119c4.602,11.506,24.162,46.023,28.381,54.46
				c4.219,8.438,7.287,26.463,8.438,26.847c1.151,0.384,1.534,3.835,8.054,1.918c6.52-1.918,13.423-6.904,18.409-8.438
				c4.986-1.534,10.739-3.452,17.259-9.204c6.52-5.753,9.205-9.588,4.986-9.588c-4.219,0-13.807,3.835-21.477,2.685
				c-7.671-1.15-12.656-2.301-14.957-4.602c-2.301-2.301-3.452-4.602-3.452-4.602s-11.889-59.063-17.642-73.253
				c-5.753-14.19-7.287-36.051-11.506-42.188c-4.219-6.136-11.122-5.369-15.724-5.753c-4.602-0.384-52.543-8.054-52.543-8.054
				l2.301-12.656C395.452,263.896,353.265,259.677,336.39,242.802z"/>
			<path style="fill:#FFFFFF;stroke:#263238;stroke-linecap:round;stroke-linejoin:round;stroke-miterlimit:10;" d="
				M525.467,421.908c6.52-5.753,9.205-9.588,4.986-9.588c-4.219,0-13.807,3.835-21.477,2.685
				c-7.671-1.151-12.656-2.301-14.957-4.602c-2.108-2.108-3.239-4.195-3.416-4.533l-16.453,6.761
				c3.784,8.961,6.523,24.644,7.595,25.002c1.151,0.384,1.534,3.835,8.054,1.918s13.423-6.903,18.409-8.438
				C513.194,429.578,518.947,427.661,525.467,421.908z"/>
			<g>
				<path style="fill:#FFFFFF;stroke:#263238;stroke-linecap:round;stroke-linejoin:round;stroke-miterlimit:10;" d="
					M530.453,412.32c-4.219,0-13.807,3.835-21.477,2.685c-7.017-1.052-11.78-2.108-14.304-4.041
					c-0.639,0.606-1.358,1.491-1.488,2.527c-0.24,1.92,0,5.279,0,5.279s-2.279,2.16-9.957,3.119c-2.383,0.298-4.29,0.514-5.79,0.672
					c2.077,7.489,3.579,14.829,4.308,15.072c1.151,0.384,1.534,3.835,8.054,1.918s13.423-6.903,18.409-8.438
					c4.986-1.534,10.739-3.452,17.259-9.205C531.987,416.155,534.671,412.32,530.453,412.32z"/>
				<path style="fill:#FFFFFF;stroke:#263238;stroke-linecap:round;stroke-linejoin:round;stroke-miterlimit:10;" d="
					M525.467,421.908c5.872-5.181,8.614-8.797,6.023-9.466c-6.686,11.159-22.577,13.83-31.756,17.108
					c-6.831,2.44-14.674,4.878-18.844,6.145c0.35,1.15,0.637,1.864,0.855,1.937c1.151,0.384,1.534,3.835,8.054,1.918
					s13.423-6.903,18.409-8.438C513.194,429.578,518.947,427.661,525.467,421.908z"/>
			</g>
		</g>
		<g>
			<path style="fill:#263238;stroke:#263238;stroke-linecap:round;stroke-linejoin:round;stroke-miterlimit:10;" d="M327.952,278.47
				c0,0,14.574-7.287,33.75-4.219c19.176,3.068,66.733,14.19,70.185,18.026c3.452,3.835,0.383,12.273-0.384,15.725
				c-0.767,3.452-44.872,86.293-46.79,91.662c-1.918,5.369-3.068,9.588-3.068,9.588s2.301,8.438,5.753,10.355
				c3.452,1.918,24.929,7.671,24.162,11.122c-0.767,3.452-16.492,4.986-22.244,4.986c-5.753,0-27.997-3.452-31.449-3.452
				c-3.452,0-2.685-5.753-1.534-9.205c1.151-3.452,7.671-20.71,8.821-21.477c1.15-0.767,7.287-23.779,9.588-37.202
				c2.301-13.423,6.52-30.682,8.438-33.367c1.918-2.685,10.355-18.793,10.355-18.793s-30.682,4.602-51.776-0.383
				c-21.094-4.986-26.08-21.477-26.08-23.011"/>
			<path style="fill:#FFFFFF;stroke:#263238;stroke-linecap:round;stroke-linejoin:round;stroke-miterlimit:10;" d="M411.56,430.729
				c0.767-3.452-20.71-9.205-24.162-11.122c-3.452-1.918-5.753-10.355-5.753-10.355s0.544-1.996,1.509-4.99
				c-5.072-0.711-13.145-2.475-17.546-3.473c-0.191,0.445-0.345,0.72-0.454,0.793c-1.151,0.767-7.671,18.026-8.821,21.477
				c-1.151,3.452-1.918,9.205,1.534,9.205c3.452,0,25.696,3.452,31.449,3.452C395.069,435.715,410.793,434.181,411.56,430.729z"/>
			<path style="fill:#FFFFFF;stroke:#263238;stroke-linecap:round;stroke-linejoin:round;stroke-miterlimit:10;" d="
				M387.398,419.607c-3.452-1.918-5.753-10.355-5.753-10.355s-1.151-1.918-3.068,0.767c-1.918,2.685-2.685,6.136-2.685,6.136
				s-3.452,0.767-11.506-2.685c-1.375-0.589-2.653-1.142-3.84-1.659c-1.85,4.694-3.658,9.58-4.214,11.247
				c-1.151,3.452-1.918,9.205,1.534,9.205c3.452,0,25.696,3.452,31.449,3.452c5.753,0,21.477-1.534,22.244-4.986
				C412.327,427.277,390.85,421.524,387.398,419.607z"/>
			<path style="fill:#FFFFFF;stroke:#263238;stroke-linecap:round;stroke-linejoin:round;stroke-miterlimit:10;" d="M380.5,431.572
				c-11.161-1.86-20.796-3.996-24.998-4.968c-0.395,2.863-0.042,5.66,2.365,5.66c3.452,0,25.696,3.452,31.449,3.452
				c5.753,0,21.477-1.534,22.244-4.986C406.12,431.386,395.5,434.072,380.5,431.572z"/>
		</g>
		<g>
			<g>
				<path style="fill:#D6D6D6;stroke:#263238;stroke-linecap:round;stroke-linejoin:round;stroke-miterlimit:10;" d="
					M260.25,114.048c0,0-2.982,3.524-4.879,5.421c-1.897,1.897-4.608,2.44-2.711,3.795c1.898,1.355,4.879-1.084,6.506-1.897
					c1.626-0.813,3.253-1.897,3.253-1.897s-4.337,4.337-2.44,5.15c1.897,0.813,2.711-0.542,3.795-1.084
					c1.084-0.542,4.337-2.711,4.337-2.711s-3.524,3.524-1.897,4.066c1.626,0.542,5.15-1.355,6.235-2.711
					c1.084-1.355,3.795-4.879,3.795-4.879l-13.824-4.879L260.25,114.048z"/>
				<path style="fill:#D6D6D6;stroke:#263238;stroke-linecap:round;stroke-linejoin:round;stroke-miterlimit:10;" d="
					M303.35,128.685c0,0-10.843-17.077-13.282-19.517c-2.44-2.44-11.385-2.982-12.74-2.711c-1.355,0.271-16.535,1.355-17.891,1.626
					c-1.355,0.271-8.945,6.235-10.843,8.403c-1.897,2.169-2.44,2.711-1.084,3.524s5.15-2.711,5.15-2.711l7.59-3.253l9.759,2.44
					c0,0,5.15,2.982,9.216,3.253c4.066,0.271,7.59-1.084,7.59-1.084l6.777,15.18L303.35,128.685z"/>
				<path style="fill:#D6D6D6;stroke:#263238;stroke-linecap:round;stroke-linejoin:round;stroke-miterlimit:10;" d="
					M275.972,110.795l-10.572,2.711c0,0-2.711,5.692-3.524,7.319c-0.813,1.626-5.692,6.234-3.795,7.319
					c1.897,1.084,10.029-7.319,10.029-7.319s6.235,0,9.487-0.542c3.253-0.542,5.693-3.795,5.693-3.795"/>
			</g>
			<g>
				<path style="fill:#FFFFFF;stroke:#263238;stroke-linecap:round;stroke-linejoin:round;stroke-miterlimit:10;" d="
					M407.982,155.25c0,0-21.414-8.674-24.396-8.403c-2.982,0.271-47.708,18.162-47.708,18.162l-33.884-40.118l-10.572,6.506
					c0,0,23.854,50.148,26.565,52.587c2.711,2.44,9.758,2.711,10.572,2.711s37.678-4.608,37.678-4.608s-26.565,51.503-27.92,54.756
					c-1.355,3.253-6.506,4.066-2.711,9.487c3.795,5.421,30.36,22.499,41.202,22.77c10.843,0.271,18.162-2.44,20.33-5.421
					c2.169-2.982,3.253-5.421,3.253-6.234c0-0.813,44.455-57.196,46.082-60.99c1.626-3.795,4.608-11.385,3.524-15.451
					c-1.084-4.066-24.125-18.704-24.125-18.704L407.982,155.25z"/>
				<line style="fill:none;stroke:#263238;stroke-miterlimit:10;" x1="294.767" y1="137.456" x2="306.264" y2="130.401"/>
				
					<line style="fill:none;stroke:#263238;stroke-linecap:round;stroke-linejoin:round;stroke-miterlimit:10;" x1="366.238" y1="182.086" x2="375.125" y2="162.646"/>
				
					<line style="fill:none;stroke:#263238;stroke-linecap:round;stroke-linejoin:round;stroke-miterlimit:10;" x1="367.455" y1="179.137" x2="370.523" y2="162.262"/>
				<path style="fill:none;stroke:#263238;stroke-linecap:round;stroke-linejoin:round;stroke-miterlimit:10;" d="M339.841,249.706
					c0,0,22.244,4.986,41.037,1.534"/>
				<path style="fill:none;stroke:#263238;stroke-linecap:round;stroke-linejoin:round;stroke-miterlimit:10;" d="M364.387,258.91
					c0,0,13.807,0.384,27.997-4.602"/>
			</g>
		</g>
		<g>
			<path style="fill:#263238;stroke:#263238;stroke-linecap:round;stroke-linejoin:round;stroke-miterlimit:10;" d="M399.545,98.749
				c0,0-5.256-5.482-6.186-11.373c-0.93-5.891,8.202-5.411,8.202-5.411s-4.086-6.765,3.679-7.99
				c7.765-1.225,17.403,7.682,17.403,7.682s-2.212-7.06,4.763-4.594c6.975,2.467,14.331,12.557,16.092,20.238
				c1.761,7.68,1.944,12.317-0.142,16.488c-2.086,4.171-13.826,16.726-13.826,16.726s-0.944,0.972-6.412-0.635
				c-5.468-1.607-3.03-5.285-2.832-12.725c0.198-7.441-1.324-11.866-0.901-14.402c0.423-2.537-2.762-5.327-6.468-4.468
				c-3.706,0.859-8.131,2.381-9.512,2.325C402.025,100.553,399.545,98.749,399.545,98.749z"/>
			<polygon style="fill:none;stroke:#263238;stroke-linecap:round;stroke-linejoin:round;stroke-miterlimit:10;" points="
				401.063,155.315 392.128,163.037 384.151,173.352 394.946,166.983 399.469,174.776 408.01,161.079 			"/>
			<g>
				<path style="fill:#D6D6D6;stroke:#263238;stroke-linecap:round;stroke-linejoin:round;stroke-miterlimit:10;" d="
					M403.971,92.013c0,0-15.643,15.641-15.263,18.051c0.38,2.41,0.45,9.808,0.45,9.808s-5.003,6.552-4.285,11.104
					c0.718,4.552,4.945,20.899,7.524,21.59c2.579,0.691,7.976,0.113,7.976,0.113l-0.904,22.096l23.352-15.486l5.737-24.506
					c0,0,4.228-4.509,4.524-7.849c0.296-3.34-2.72-5.059-2.72-5.059s-2.354,4.213-4.496,4.551c-2.142,0.338-3.114-0.606-3.114-0.606
					s4.158-11.908,4.031-12.711c-0.127-0.803-5.397-4.637-4.354-6.722c1.043-2.086,5.313-6.327,5.454-7.172
					c0.141-0.846-5.918-6.201-9.441-5.92c-3.523,0.282-10.372,3.832-12.148,3.015C404.52,95.494,403.971,92.013,403.971,92.013z"/>
				<polygon style="fill:#263238;stroke:#263238;stroke-linecap:round;stroke-linejoin:round;stroke-miterlimit:10;" points="
					400.373,152.68 411.549,149.172 400.542,162.624 				"/>
				<path style="fill:none;stroke:#263238;stroke-linecap:round;stroke-linejoin:round;stroke-miterlimit:10;" d="M396.613,113.207
					l1.296,4.735c0,0-11.035,13.542-8.33,15.036c2.706,1.494,8.371,0.874,8.371,0.874"/>
				<path style="fill:none;stroke:#263238;stroke-linecap:round;stroke-linejoin:round;stroke-miterlimit:10;" d="M391.059,137.135
					c0,0,5.58,4.059,13.289-0.999"/>
				<path style="fill:none;stroke:#263238;stroke-linecap:round;stroke-linejoin:round;stroke-miterlimit:10;" d="M390.568,111.417
					c0,0,3.129-1.043,5.482-0.042"/>
				<path style="fill:none;stroke:#263238;stroke-linecap:round;stroke-linejoin:round;stroke-miterlimit:10;" d="M403.138,111.08
					c0,0,5.891-0.93,9.512,2.89"/>
				<path style="fill:#263238;" d="M407.053,120.55c-0.181,1.411-0.869,2.485-1.538,2.399c-0.668-0.086-1.063-1.299-0.882-2.709
					c0.181-1.411,0.869-2.485,1.538-2.399S407.234,119.14,407.053,120.55z"/>
				<path style="fill:#263238;" d="M393.877,118.788c-0.181,1.411-0.869,2.485-1.538,2.399c-0.668-0.086-1.063-1.299-0.882-2.709
					c0.181-1.411,0.869-2.485,1.538-2.399C393.663,116.164,394.058,117.377,393.877,118.788z"/>
				<path style="fill:#D6D6D6;stroke:#263238;stroke-linecap:round;stroke-linejoin:round;stroke-miterlimit:10;" d="
					M423.218,128.767c0,0,5.637-7.75,8.836-6.609c3.199,1.142,4.763,5.834,1.07,10.259c-3.692,4.425-8.343,6.256-9.09,5.002"/>
			</g>
			<polygon style="fill:#FFFFFF;stroke:#263238;stroke-linecap:round;stroke-linejoin:round;stroke-miterlimit:10;" points="
				404.783,168.449 406.501,181.076 429.613,162.335 425.006,154.006 			"/>
		</g>
		<g>
			<path style="fill:#D6D6D6;stroke:#263238;stroke-linecap:round;stroke-linejoin:round;stroke-miterlimit:10;" d="
				M343.468,173.412c0,0-12.74-16.264-14.909-20.33c-2.169-4.066-4.337-7.59-6.777-7.59c-2.44,0-15.722,2.169-17.62,3.795
				c-1.898,1.626,1.626,2.44,3.524,2.44s7.319-1.626,7.319-1.626l4.608,0.542c0,0-8.403,2.44-10.572,3.524
				c-2.168,1.084-7.319,5.964-7.048,7.319c0.271,1.355,1.355,0.271,2.711,0c1.355-0.271,5.693-2.982,5.693-2.982l7.861-1.897
				c0,0-7.861,5.421-8.403,7.048c-0.542,1.626-2.711,5.964-1.084,6.777c1.626,0.813,4.879-5.15,4.879-5.15l7.048-3.795
				c0,0-4.066,4.879-4.879,6.235c-0.813,1.355-1.626,2.982,0.271,2.982c1.897,0,4.066-2.982,5.15-3.795
				c1.084-0.813,2.982-2.169,2.982-2.169s1.626,3.795,3.524,5.15c1.898,1.355,4.608,1.084,4.608,1.084l3.524,7.861L343.468,173.412z
				"/>
			<g>
				<path style="fill:#FFFFFF;stroke:#263238;stroke-linecap:round;stroke-linejoin:round;stroke-miterlimit:10;" d="
					M416.114,185.61l-37.408,23.041l-35.781-36.865l-8.945,5.964c0,0,28.462,55.569,34.155,56.653
					c5.693,1.084,65.328-23.854,65.328-23.854"/>
				<line style="fill:none;stroke:#263238;stroke-miterlimit:10;" x1="338.664" y1="186.057" x2="348.855" y2="178.218"/>
			</g>
		</g>
	</g>
</g>
<g id="Table">
	<g>
		<path style="fill:#FFFFFF;stroke:#263238;stroke-linecap:round;stroke-linejoin:round;stroke-miterlimit:10;" d="M463.34,255.86
			l-1.53,8.14l-32.73,173.89c-0.12,0.65-0.46,1.21-0.94,1.61c-0.48,0.4-1.09,0.63-1.75,0.63c-1.65,0-2.92-1.45-2.72-3.09
			l17.94-142.15c0.72-6.17-0.34-15.66-3.05-21.25l-3.75-9.64l-3.9-10.04l10.01-0.79l3.44,10.83l0.8,2.5
			c0.55,1.73,3.04,1.6,3.42-0.17l0.49-2.33l1.71-8.14H463.34z"/>
		<path style="fill:#FFFFFF;stroke:#263238;stroke-linecap:round;stroke-linejoin:round;stroke-miterlimit:10;" d="M660.46,440.13
			c-0.66,0-1.27-0.23-1.75-0.63c-0.48-0.4-0.82-0.96-0.94-1.61L625.04,264l-1.53-8.14h12.56l1.71,8.14l0.49,2.33
			c0.38,1.77,2.87,1.9,3.42,0.17l0.8-2.5l3.44-10.83l10.01,0.79l-3.9,10.04l-3.75,9.64c-2.71,5.59-3.77,15.08-3.05,21.25
			l17.94,142.15C663.38,438.68,662.11,440.13,660.46,440.13z"/>
		<polygon style="fill:#263238;stroke:#263238;stroke-linecap:round;stroke-linejoin:round;stroke-miterlimit:10;" points="
			440.92,253.17 444.36,264 434.81,264 430.91,253.96 		"/>
		<polygon style="fill:#263238;stroke:#263238;stroke-linecap:round;stroke-linejoin:round;stroke-miterlimit:10;" points="
			450.78,255.86 463.34,255.86 461.81,264 449.07,264 		"/>
		<polygon style="fill:#263238;stroke:#263238;stroke-linecap:round;stroke-linejoin:round;stroke-miterlimit:10;" points="
			636.07,255.86 637.78,264 625.04,264 623.51,255.86 		"/>
		<polygon style="fill:#263238;stroke:#263238;stroke-linecap:round;stroke-linejoin:round;stroke-miterlimit:10;" points="
			655.94,253.96 652.04,264 642.49,264 645.93,253.17 		"/>
		<g>
			
				<rect x="417.5" y="244.125" style="fill:#92E3A9;stroke:#263238;stroke-linecap:round;stroke-linejoin:round;stroke-miterlimit:10;" width="252.806" height="11.665"/>
		</g>
	</g>
</g>
<g id="Device">
	<g>
		
			<rect x="455.081" y="240.836" transform="matrix(-1 -1.224647e-16 1.224647e-16 -1 966.5804 485.0351)" style="fill:#FFFFFF;stroke:#263238;stroke-linecap:round;stroke-linejoin:round;stroke-miterlimit:10;" width="56.418" height="3.363"/>
		<g>
			<g>
				<path style="fill:#263238;stroke:#263238;stroke-linecap:round;stroke-linejoin:round;stroke-miterlimit:10;" d="M545.5,243.452
					h24.604c4.338,0,7.915-3.393,8.144-7.726c0.047-0.915-0.058-1.823-0.312-2.701l-15.423-44.34
					c-0.326-0.938-1.355-1.434-2.284-1.106c-0.938,0.326-1.432,1.348-1.106,2.284l15.393,44.251
					c0.114,0.403,0.172,0.913,0.146,1.425c-0.128,2.424-2.131,4.324-4.559,4.324H545.5c-0.992,0-1.795,0.803-1.795,1.795
					C543.705,242.649,544.508,243.452,545.5,243.452z"/>
			</g>
			<g>
				<path style="fill:#FFFFFF;stroke:#263238;stroke-linecap:round;stroke-linejoin:round;stroke-miterlimit:10;" d="M551.851,128
					l-27.177,104.055l2.974,2.231c0,0,34.203-26.768,34.203-49.074c0-22.306-5.948-56.509-5.948-56.509L551.851,128z"/>
				<polygon style="fill:#263238;stroke:#263238;stroke-linecap:round;stroke-linejoin:round;stroke-miterlimit:10;" points="
					551.851,128 555.903,128.702 527.649,234.286 524.674,232.055 				"/>
			</g>
		</g>
	</g>
</g>
</svg>
