<?xml version="1.0" encoding="utf-8"?>
<!-- Generator: Adobe Illustrator 27.5.0, SVG Export Plug-In . SVG Version: 6.00 Build 0)  -->
<svg version="1.1" xmlns="http://www.w3.org/2000/svg" xmlns:xlink="http://www.w3.org/1999/xlink" x="0px" y="0px"
	 viewBox="0 0 500 500" style="enable-background:new 0 0 500 500;" xml:space="preserve">
<g id="Clouds">
	<g>
		<path style="opacity:0.19;" d="M249.847,114.273c0,0-3.982-8.407-13.716-9.734c-9.734-1.327-13.716,8.407-16.813,13.716
			c-3.097,5.309-9.734-1.327-17.256-0.885c-7.522,0.442-8.407,4.867-11.061,7.964c-2.655,3.097-10.176-0.442-14.158,1.77
			c-3.982,2.212-4.425,5.309-4.425,5.309h111.497c0,0,3.54-12.389-5.752-13.716c-9.291-1.327-11.946,3.54-15.043,2.655
			c-3.097-0.885-1.77-6.637-6.194-7.964C252.501,112.061,249.847,114.273,249.847,114.273z"/>
		<path style="opacity:0.19;" d="M139.913,142.314c0,0-3.982-8.407-13.716-9.734c-9.734-1.327-13.716,8.407-16.813,13.716
			c-3.097,5.31-9.734-1.327-17.256-0.885c-7.522,0.442-8.407,4.867-11.061,7.964c-2.655,3.097-10.176-0.442-14.158,1.77
			c-3.982,2.212-4.424,5.309-4.424,5.309h111.497c0,0,3.54-12.389-5.752-13.716c-9.291-1.327-11.946,3.54-15.043,2.655
			c-3.097-0.885-1.77-6.637-6.194-7.964S139.913,142.314,139.913,142.314z"/>
		<path style="opacity:0.19;" d="M348.084,142.314c0,0-3.982-8.407-13.716-9.734c-9.734-1.327-13.716,8.407-16.813,13.716
			c-3.097,5.31-9.734-1.327-17.255-0.885c-7.522,0.442-8.407,4.867-11.061,7.964c-2.655,3.097-10.176-0.442-14.158,1.77
			c-3.982,2.212-4.424,5.309-4.424,5.309h111.497c0,0,3.54-12.389-5.752-13.716c-9.291-1.327-11.946,3.54-15.043,2.655
			c-3.097-0.885-1.77-6.637-6.194-7.964S348.084,142.314,348.084,142.314z"/>
		<path style="opacity:0.19;" d="M402.022,229.068c0,0-2.14-4.517-7.37-5.23c-5.23-0.713-7.37,4.517-9.034,7.37
			s-5.23-0.713-9.272-0.476c-4.041,0.238-4.517,2.615-5.943,4.279c-1.426,1.664-5.468-0.238-7.607,0.951
			c-2.14,1.189-2.377,2.853-2.377,2.853h59.909c0,0,1.902-6.657-3.09-7.37c-4.992-0.713-6.419,1.902-8.083,1.426
			c-1.664-0.475-0.951-3.566-3.328-4.279C403.448,227.879,402.022,229.068,402.022,229.068z"/>
		<path style="opacity:0.19;" d="M75.705,229.068c0,0-2.14-4.517-7.37-5.23c-5.23-0.713-7.37,4.517-9.034,7.37
			c-1.664,2.853-5.23-0.713-9.272-0.476c-4.041,0.238-4.517,2.615-5.943,4.279c-1.426,1.664-5.468-0.238-7.607,0.951
			c-2.14,1.189-2.377,2.853-2.377,2.853H94.01c0,0,1.902-6.657-3.09-7.37c-4.992-0.713-6.419,1.902-8.083,1.426
			c-1.664-0.475-0.951-3.566-3.328-4.279C77.131,227.879,75.705,229.068,75.705,229.068z"/>
	</g>
	<g>
		<path style="opacity:0.19;" d="M249.847,472.792c0,0-3.982,8.407-13.716,9.734c-9.734,1.327-13.716-8.407-16.813-13.716
			c-3.097-5.309-9.734,1.327-17.256,0.885c-7.522-0.442-8.407-4.867-11.061-7.964c-2.655-3.097-10.176,0.442-14.158-1.77
			c-3.982-2.212-4.425-5.309-4.425-5.309h111.497c0,0,3.54,12.389-5.752,13.716c-9.291,1.327-11.946-3.54-15.043-2.655
			c-3.097,0.885-1.77,6.637-6.194,7.964C252.501,475.004,249.847,472.792,249.847,472.792z"/>
		<path style="opacity:0.19;" d="M139.913,444.75c0,0-3.982,8.407-13.716,9.734c-9.734,1.327-13.716-8.407-16.813-13.716
			c-3.097-5.31-9.734,1.327-17.256,0.885c-7.522-0.443-8.407-4.867-11.061-7.964c-2.655-3.097-10.176,0.442-14.158-1.77
			c-3.982-2.212-4.424-5.309-4.424-5.309h111.497c0,0,3.54,12.389-5.752,13.716c-9.291,1.327-11.946-3.539-15.043-2.655
			c-3.097,0.885-1.77,6.637-6.194,7.964C142.568,446.963,139.913,444.75,139.913,444.75z"/>
		<path style="opacity:0.19;" d="M348.084,444.75c0,0-3.982,8.407-13.716,9.734c-9.734,1.327-13.716-8.407-16.813-13.716
			c-3.097-5.31-9.734,1.327-17.255,0.885c-7.522-0.443-8.407-4.867-11.061-7.964c-2.655-3.097-10.176,0.442-14.158-1.77
			c-3.982-2.212-4.424-5.309-4.424-5.309h111.497c0,0,3.54,12.389-5.752,13.716c-9.291,1.327-11.946-3.539-15.043-2.655
			c-3.097,0.885-1.77,6.637-6.194,7.964C350.738,446.963,348.084,444.75,348.084,444.75z"/>
		<path style="opacity:0.19;" d="M402.022,357.997c0,0-2.14,4.517-7.37,5.23c-5.23,0.713-7.37-4.517-9.034-7.37
			c-1.664-2.853-5.23,0.713-9.272,0.475c-4.041-0.238-4.517-2.615-5.943-4.279c-1.426-1.664-5.468,0.238-7.607-0.951
			c-2.14-1.189-2.377-2.853-2.377-2.853h59.909c0,0,1.902,6.657-3.09,7.37c-4.992,0.713-6.419-1.902-8.083-1.426
			c-1.664,0.475-0.951,3.566-3.328,4.279C403.448,359.186,402.022,357.997,402.022,357.997z"/>
		<path style="opacity:0.19;" d="M75.705,357.997c0,0-2.14,4.517-7.37,5.23c-5.23,0.713-7.37-4.517-9.034-7.37
			c-1.664-2.853-5.23,0.713-9.272,0.475c-4.041-0.238-4.517-2.615-5.943-4.279c-1.426-1.664-5.468,0.238-7.607-0.951
			c-2.14-1.189-2.377-2.853-2.377-2.853H94.01c0,0,1.902,6.657-3.09,7.37c-4.992,0.713-6.419-1.902-8.083-1.426
			c-1.664,0.475-0.951,3.566-3.328,4.279C77.131,359.186,75.705,357.997,75.705,357.997z"/>
	</g>
</g>
<g id="Nuclear_chimneys">
	<g>
		<g>
			<path style="fill:#BFBFBF;stroke:#263238;stroke-linecap:round;stroke-linejoin:round;stroke-miterlimit:10;" d="M335.22,207.448
				c4.988-9.323,11.384-16.681,13.954-19.465l-5.189-4.329l-5.903-4.925l-5.189-4.329c-2.277,3.027-8.37,10.639-16.647,17.218
				c-10.609,8.43-23.334,17.255-23.334,17.255l11.807,9.849l5.903,4.925l11.807,9.85
				C322.428,233.498,328.828,219.396,335.22,207.448z"/>
			<g>
				<path style="fill:#263238;stroke:#263238;stroke-linecap:round;stroke-linejoin:round;stroke-miterlimit:10;" d="
					M330.438,177.511c-0.528,0.641-1.113,1.335-1.75,2.069l16.145,13.468c0.607-0.758,1.185-1.458,1.721-2.092L330.438,177.511z"/>
				<path style="fill:#263238;stroke:#263238;stroke-linecap:round;stroke-linejoin:round;stroke-miterlimit:10;" d="
					M341.263,197.768c0.544-0.763,1.079-1.492,1.605-2.189l-16.317-13.612c-0.592,0.642-1.213,1.3-1.866,1.971L341.263,197.768z"/>
			</g>
		</g>
		<g>
			<path style="fill:#BFBFBF;stroke:#263238;stroke-linecap:round;stroke-linejoin:round;stroke-miterlimit:10;" d="M312.23,188.269
				c4.988-9.323,11.384-16.681,13.954-19.464l-5.189-4.329l-5.903-4.925l-5.189-4.329c-2.277,3.027-8.369,10.639-16.647,17.217
				c-10.609,8.431-23.334,17.255-23.334,17.255l11.807,9.849l5.903,4.925l11.807,9.849
				C299.438,214.319,305.838,200.217,312.23,188.269z"/>
			<g>
				<path style="fill:#263238;stroke:#263238;stroke-linecap:round;stroke-linejoin:round;stroke-miterlimit:10;" d="
					M307.448,158.332c-0.528,0.641-1.113,1.335-1.75,2.069l16.144,13.468c0.608-0.758,1.185-1.458,1.721-2.092L307.448,158.332z"/>
				<path style="fill:#263238;stroke:#263238;stroke-linecap:round;stroke-linejoin:round;stroke-miterlimit:10;" d="
					M318.273,178.589c0.544-0.763,1.079-1.492,1.605-2.19l-16.317-13.612c-0.592,0.642-1.213,1.3-1.866,1.971L318.273,178.589z"/>
			</g>
		</g>
		<g>
			<path style="fill:#BFBFBF;stroke:#263238;stroke-linecap:round;stroke-linejoin:round;stroke-miterlimit:10;" d="
				M367.215,234.139c4.988-9.323,11.384-16.681,13.954-19.465l-5.189-4.329l-5.903-4.925l-5.189-4.329
				c-2.277,3.027-8.37,10.639-16.647,17.217c-10.609,8.431-23.334,17.256-23.334,17.256l11.807,9.849l5.903,4.925l11.807,9.849
				C354.422,260.188,360.823,246.087,367.215,234.139z"/>
			<g>
				<path style="fill:#263238;stroke:#263238;stroke-linecap:round;stroke-linejoin:round;stroke-miterlimit:10;" d="
					M362.433,204.202c-0.528,0.641-1.113,1.335-1.75,2.069l16.145,13.468c0.607-0.758,1.185-1.458,1.721-2.092L362.433,204.202z"/>
				<path style="fill:#263238;stroke:#263238;stroke-linecap:round;stroke-linejoin:round;stroke-miterlimit:10;" d="
					M373.258,224.459c0.544-0.763,1.079-1.492,1.605-2.19l-16.317-13.612c-0.592,0.642-1.213,1.3-1.866,1.971L373.258,224.459z"/>
			</g>
		</g>
	</g>
	<g>
		<g>
			<path style="fill:#FFFFFF;stroke:#263238;stroke-linecap:round;stroke-linejoin:round;stroke-miterlimit:10;" d="
				M407.726,202.047c-7.399,17.68-26.555,12.626-26.555,12.626l-16.285-13.586c-1.109-1.327-1.956-2.688-2.539-4.083
				c-2.951-6.896,0.354-14.353,7.548-20.86c8.634-7.811-5.341-18.916,3.294-30.844c4.678-6.45,14.753-11.699,23.033-11.711
				c7.022,0,12.74,3.763,12.74,13.769c0,21.798-13.975,17.68-8.223,27.55C406.502,184.778,415.137,184.367,407.726,202.047z"/>
			<path style="fill:#263238;stroke:#263238;stroke-linecap:round;stroke-linejoin:round;stroke-miterlimit:10;" d="
				M396.221,133.589c-1.178,3.248-3.888,8.063-10.007,11.585c-10.133,5.844-15.199,5.455-10.922,17.154
				c4.289,11.688,8.966,24.542,3.511,29.998c-3.625,3.637-11.208,4.849-16.457,4.677c-2.951-6.896,0.354-14.353,7.548-20.86
				c8.634-7.811-5.341-18.916,3.294-30.844C377.866,138.85,387.941,133.601,396.221,133.589z"/>
		</g>
		<g>
			<path style="fill:#FFFFFF;stroke:#263238;stroke-linecap:round;stroke-linejoin:round;stroke-miterlimit:10;" d="
				M349.174,187.983c0,0,14.915,5.066,24.44-3.665c9.525-8.731,2.778-16.668,0.397-30.161s14.287-7.937,20.24-26.59
				c5.953-18.652-8.731-38.496-28.574-40.877c-19.843-2.381-21.43,15.875-25.399,17.859c-3.969,1.984-13.493-10.715-25.399-9.525
				c-11.906,1.191-13.493,19.446-23.812,25.796s-18.016,5.298-21.034,1.588c-3.017-3.711,7.54,17.065,19.446,19.446
				c11.906,2.381,11.694-7.909,21.616-3.543c9.922,4.365,14.102,7.512,22.833,9.496c8.731,1.984,13.011,18.264-1.035,26.594
				L349.174,187.983z"/>
			<g>
				<path style="fill:none;stroke:#263238;stroke-linecap:round;stroke-linejoin:round;stroke-miterlimit:10;" d="M376.995,134.217
					c-6.91,7.725-22.517,9.389-23.956,17.665c-1.645,9.458,16.86,14.804,9.458,26.318c-7.402,11.514-13.323,9.784-13.323,9.784"/>
				<path style="fill:none;stroke:#263238;stroke-linecap:round;stroke-linejoin:round;stroke-miterlimit:10;" d="M363.319,119.807
					c0,0,1.234,9.458-8.636,5.346c-9.869-4.112-2.056-18.916,8.636-19.738c10.692-0.822,20.561,13.981,16.038,25.084"/>
			</g>
		</g>
		<g>
			<path style="fill:#FFFFFF;stroke:#263238;stroke-linecap:round;stroke-linejoin:round;stroke-miterlimit:10;" d="
				M326.184,168.805c0,0,11.943-5.094,14.887-16.235c2.944-11.14-5.541-20.532-17.851-19.989s-15.088-0.251-19.851-10.172
				c-4.762-9.922-10.715-23.018-27.78-20.24c-17.065,2.778-15.875,13.89-21.827,15.478c-5.953,1.588-17.083-19.432-34.082-16.618
				c-16.999,2.814-18.905,9.128-21.082,17.015c-2.644,9.577-17.065,2.381-17.065,2.381s-11.897-7.197-22.177,0.616
				c-3.044,2.314-9.047,9.869-4.112,18.094c5.206,8.676-2.928-20.623,24.609-13.8c10.479,2.597,16.924,19.557,38.429,10.49
				c11.101-4.68,23.192-5.163,27.748,2.814c4.556,7.978,11.799,25.575,27.822,27.69c16.023,2.115,32.589-21.219,36.05-11.107
				L326.184,168.805z"/>
			<path style="fill:none;stroke:#263238;stroke-linecap:round;stroke-linejoin:round;stroke-miterlimit:10;" d="M232.552,116.106
				c-8.224-4.112-16.038,1.234-23.851,8.636c-7.813,7.402-12.748,8.224-17.271,3.701"/>
			<path style="fill:none;stroke:#263238;stroke-linecap:round;stroke-linejoin:round;stroke-miterlimit:10;" d="M286.009,130.088
				c-5.212-9.861-2.256-16.861-13.569-16.861c-10.411,0-10.28,11.925-16.86,13.159c-5.902,1.107-9.811-3.078-19.466-8.407"/>
			<path style="fill:none;stroke:#263238;stroke-linecap:round;stroke-linejoin:round;stroke-miterlimit:10;" d="M320.995,164.476
				c0,0,9.838-8.071,4.904-19.174c-4.935-11.103-21.794,5.757-34.542-7.813c-0.522-0.556-1.01-1.107-1.466-1.653"/>
			<path style="fill:none;stroke:#263238;stroke-linecap:round;stroke-linejoin:round;stroke-miterlimit:10;" d="M274.932,152.664
				c2.068,1.274,4.428,2.048,6.966,1.685c8.636-1.234,25.496-11.925,31.664-6.168c6.168,5.757,2.879,8.636,2.879,8.636"/>
			<path style="fill:none;stroke:#263238;stroke-linecap:round;stroke-linejoin:round;stroke-miterlimit:10;" d="M266.683,143.657
				c0,0,0.82,1.486,2.261,3.355"/>
		</g>
	</g>
</g>
<g id="Factory_2">
	<g>
		<g>
			<g>
				<g>
					<g>
						<polygon style="fill:#92E3A9;stroke:#263238;stroke-miterlimit:10;" points="205.452,89.632 199.184,89.632 196.049,167.668 
							208.587,167.668 						"/>
						<path style="fill:#FFFFFF;stroke:#263238;stroke-miterlimit:10;" d="M205.412,90.318h-6.188c-0.371,0-0.673-0.301-0.673-0.673
							l0,0c0-0.371,0.301-0.673,0.673-0.673h6.188c0.372,0,0.673,0.301,0.673,0.673l0,0
							C206.085,90.017,205.784,90.318,205.412,90.318z"/>
						<g>
							<polygon style="fill:#FFFFFF;stroke:#263238;stroke-miterlimit:10;" points="199.04,93.214 198.927,96.029 205.709,96.029 
								205.596,93.214 							"/>
							<polygon style="fill:#FFFFFF;stroke:#263238;stroke-miterlimit:10;" points="208.155,156.922 208.042,154.108 
								196.594,154.108 196.481,156.922 							"/>
							<polygon style="fill:#FFFFFF;stroke:#263238;stroke-miterlimit:10;" points="197.293,136.71 197.18,139.524 207.456,139.524 
								207.343,136.71 							"/>
							<polygon style="fill:#FFFFFF;stroke:#263238;stroke-miterlimit:10;" points="196.944,145.409 196.83,148.223 
								207.805,148.223 207.692,145.409 							"/>
							<polygon style="fill:#FFFFFF;stroke:#263238;stroke-miterlimit:10;" points="197.642,128.011 197.529,130.825 
								207.107,130.825 206.994,128.011 							"/>
							<polygon style="fill:#FFFFFF;stroke:#263238;stroke-miterlimit:10;" points="198.69,101.913 198.577,104.728 
								206.059,104.728 205.945,101.913 							"/>
							<polygon style="fill:#FFFFFF;stroke:#263238;stroke-miterlimit:10;" points="197.992,119.312 197.879,122.126 
								206.757,122.126 206.644,119.312 							"/>
							<polygon style="fill:#FFFFFF;stroke:#263238;stroke-miterlimit:10;" points="198.341,110.612 198.228,113.427 
								206.408,113.427 206.295,110.612 							"/>
						</g>
					</g>
					<g>
						<polygon style="fill:#92E3A9;stroke:#263238;stroke-miterlimit:10;" points="222.339,89.632 216.07,89.632 212.936,167.668 
							225.473,167.668 						"/>
						<path style="fill:#FFFFFF;stroke:#263238;stroke-miterlimit:10;" d="M222.299,90.318h-6.188c-0.371,0-0.673-0.301-0.673-0.673
							l0,0c0-0.371,0.301-0.673,0.673-0.673h6.188c0.371,0,0.673,0.301,0.673,0.673l0,0
							C222.971,90.017,222.67,90.318,222.299,90.318z"/>
						<g>
							<polygon style="fill:#FFFFFF;stroke:#263238;stroke-miterlimit:10;" points="215.926,93.214 215.813,96.029 222.596,96.029 
								222.483,93.214 							"/>
							<polygon style="fill:#FFFFFF;stroke:#263238;stroke-miterlimit:10;" points="225.041,156.922 224.928,154.108 
								213.481,154.108 213.367,156.922 							"/>
							<polygon style="fill:#FFFFFF;stroke:#263238;stroke-miterlimit:10;" points="214.179,136.71 214.066,139.524 
								224.343,139.524 224.229,136.71 							"/>
							<polygon style="fill:#FFFFFF;stroke:#263238;stroke-miterlimit:10;" points="213.83,145.409 213.717,148.223 
								224.692,148.223 224.579,145.409 							"/>
							<polygon style="fill:#FFFFFF;stroke:#263238;stroke-miterlimit:10;" points="214.529,128.011 214.416,130.825 
								223.993,130.825 223.88,128.011 							"/>
							<polygon style="fill:#FFFFFF;stroke:#263238;stroke-miterlimit:10;" points="215.577,101.913 215.464,104.728 
								222.945,104.728 222.832,101.913 							"/>
							<polygon style="fill:#FFFFFF;stroke:#263238;stroke-miterlimit:10;" points="214.878,119.312 214.765,122.126 
								223.644,122.126 223.531,119.312 							"/>
							<polygon style="fill:#FFFFFF;stroke:#263238;stroke-miterlimit:10;" points="215.228,110.612 215.115,113.427 
								223.294,113.427 223.181,110.612 							"/>
						</g>
					</g>
					<g>
						<polygon style="fill:#92E3A9;stroke:#263238;stroke-miterlimit:10;" points="239.225,89.632 232.957,89.632 229.822,167.668 
							242.359,167.668 						"/>
						<path style="fill:#FFFFFF;stroke:#263238;stroke-miterlimit:10;" d="M239.185,90.318h-6.188c-0.372,0-0.673-0.301-0.673-0.673
							l0,0c0-0.371,0.301-0.673,0.673-0.673h6.188c0.371,0,0.673,0.301,0.673,0.673l0,0
							C239.858,90.017,239.556,90.318,239.185,90.318z"/>
						<g>
							<polygon style="fill:#FFFFFF;stroke:#263238;stroke-miterlimit:10;" points="232.813,93.214 232.7,96.029 239.482,96.029 
								239.369,93.214 							"/>
							<polygon style="fill:#FFFFFF;stroke:#263238;stroke-miterlimit:10;" points="241.928,156.922 241.815,154.108 
								230.367,154.108 230.254,156.922 							"/>
							<polygon style="fill:#FFFFFF;stroke:#263238;stroke-miterlimit:10;" points="231.066,136.71 230.953,139.524 
								241.229,139.524 241.116,136.71 							"/>
							<polygon style="fill:#FFFFFF;stroke:#263238;stroke-miterlimit:10;" points="230.716,145.409 230.603,148.223 
								241.578,148.223 241.465,145.409 							"/>
							<polygon style="fill:#FFFFFF;stroke:#263238;stroke-miterlimit:10;" points="231.415,128.011 231.302,130.825 
								240.88,130.825 240.767,128.011 							"/>
							<polygon style="fill:#FFFFFF;stroke:#263238;stroke-miterlimit:10;" points="232.463,101.913 232.35,104.728 
								239.831,104.728 239.718,101.913 							"/>
							<polygon style="fill:#FFFFFF;stroke:#263238;stroke-miterlimit:10;" points="231.765,119.312 231.652,122.126 
								240.53,122.126 240.417,119.312 							"/>
							<polygon style="fill:#FFFFFF;stroke:#263238;stroke-miterlimit:10;" points="232.114,110.612 232.001,113.427 
								240.181,113.427 240.068,110.612 							"/>
						</g>
					</g>
					
						<rect x="160.674" y="158.09" style="fill:#263238;stroke:#263238;stroke-linecap:round;stroke-linejoin:round;stroke-miterlimit:10;" width="80.653" height="44.947"/>
					
						<rect x="196.17" y="158.09" style="fill:#FFFFFF;stroke:#263238;stroke-linecap:round;stroke-linejoin:round;stroke-miterlimit:10;" width="85.386" height="44.947"/>
					
						<rect x="163.913" y="163.234" style="fill:#FFFFFF;stroke:#263238;stroke-linecap:round;stroke-linejoin:round;stroke-miterlimit:10;" width="7.676" height="7.04"/>
					
						<rect x="174.29" y="163.234" style="fill:#FFFFFF;stroke:#263238;stroke-linecap:round;stroke-linejoin:round;stroke-miterlimit:10;" width="7.676" height="7.04"/>
					
						<rect x="184.667" y="163.234" style="fill:#FFFFFF;stroke:#263238;stroke-linecap:round;stroke-linejoin:round;stroke-miterlimit:10;" width="7.676" height="7.04"/>
					
						<rect x="208.224" y="168.874" style="fill:#FFFFFF;stroke:#263238;stroke-linecap:round;stroke-linejoin:round;stroke-miterlimit:10;" width="11.467" height="7.04"/>
					
						<rect x="207.571" y="168.874" style="fill:#FFFFFF;stroke:#263238;stroke-linecap:round;stroke-linejoin:round;stroke-miterlimit:10;" width="11.467" height="7.04"/>
					
						<rect x="233.405" y="168.874" style="fill:#FFFFFF;stroke:#263238;stroke-linecap:round;stroke-linejoin:round;stroke-miterlimit:10;" width="11.467" height="7.04"/>
					
						<rect x="232.753" y="168.874" style="fill:#FFFFFF;stroke:#263238;stroke-linecap:round;stroke-linejoin:round;stroke-miterlimit:10;" width="11.467" height="7.04"/>
					
						<rect x="258.586" y="168.874" style="fill:#FFFFFF;stroke:#263238;stroke-linecap:round;stroke-linejoin:round;stroke-miterlimit:10;" width="11.467" height="7.04"/>
					
						<rect x="257.934" y="168.874" style="fill:#FFFFFF;stroke:#263238;stroke-linecap:round;stroke-linejoin:round;stroke-miterlimit:10;" width="11.467" height="7.04"/>
					
						<rect x="208.224" y="185.357" style="fill:#FFFFFF;stroke:#263238;stroke-linecap:round;stroke-linejoin:round;stroke-miterlimit:10;" width="11.467" height="7.04"/>
					
						<rect x="207.571" y="185.357" style="fill:#FFFFFF;stroke:#263238;stroke-linecap:round;stroke-linejoin:round;stroke-miterlimit:10;" width="11.467" height="7.04"/>
					
						<rect x="233.405" y="185.357" style="fill:#FFFFFF;stroke:#263238;stroke-linecap:round;stroke-linejoin:round;stroke-miterlimit:10;" width="11.467" height="7.04"/>
					
						<rect x="232.753" y="185.357" style="fill:#FFFFFF;stroke:#263238;stroke-linecap:round;stroke-linejoin:round;stroke-miterlimit:10;" width="11.467" height="7.04"/>
					
						<rect x="258.586" y="185.357" style="fill:#FFFFFF;stroke:#263238;stroke-linecap:round;stroke-linejoin:round;stroke-miterlimit:10;" width="11.467" height="7.04"/>
					
						<rect x="257.934" y="185.357" style="fill:#FFFFFF;stroke:#263238;stroke-linecap:round;stroke-linejoin:round;stroke-miterlimit:10;" width="11.467" height="7.04"/>
					
						<rect x="149.338" y="170.197" style="fill:#92E3A9;stroke:#263238;stroke-linecap:round;stroke-linejoin:round;stroke-miterlimit:10;" width="10.214" height="5.914"/>
					
						<rect x="152.556" y="170.197" style="fill:#92E3A9;stroke:#263238;stroke-linecap:round;stroke-linejoin:round;stroke-miterlimit:10;" width="10.214" height="5.914"/>
					<g>
						
							<rect x="146.855" y="173.523" style="fill:#263238;stroke:#263238;stroke-linecap:round;stroke-linejoin:round;stroke-miterlimit:10;" width="25.181" height="29.514"/>
						
							<rect x="165.538" y="173.523" style="fill:#92E3A9;stroke:#263238;stroke-linecap:round;stroke-linejoin:round;stroke-miterlimit:10;" width="25.181" height="29.514"/>
						
							<rect x="174.744" y="192.206" style="fill:#263238;stroke:#263238;stroke-linecap:round;stroke-linejoin:round;stroke-miterlimit:10;" width="6.769" height="10.83"/>
						<g>
							
								<rect x="158.912" y="177.043" style="fill:#92E3A9;stroke:#263238;stroke-linecap:round;stroke-linejoin:round;stroke-miterlimit:10;" width="4.188" height="20.037"/>
							
								<rect x="153.561" y="177.043" style="fill:#92E3A9;stroke:#263238;stroke-linecap:round;stroke-linejoin:round;stroke-miterlimit:10;" width="4.188" height="20.037"/>
							
								<rect x="148.209" y="177.043" style="fill:#92E3A9;stroke:#263238;stroke-linecap:round;stroke-linejoin:round;stroke-miterlimit:10;" width="4.188" height="20.037"/>
						</g>
					</g>
				</g>
			</g>
		</g>
	</g>
	<g>
		<g>
			<path style="fill:#FFFFFF;stroke:#263238;stroke-linecap:round;stroke-linejoin:round;stroke-miterlimit:10;" d="M239.763,88.95
				c0,0,8.807-2.179,9.189-15.951c0.383-13.772-19.893-14.919-19.893-14.919s0.383-13.007-17.597-23.718
				c-17.98-10.711-32.517,6.886-32.517,6.886s-9.181-15.684-29.456-16.45S119.65,37.422,119.65,37.422s-7.269-6.503-12.624-3.826
				c-5.356,2.678-6.121,10.329-6.121,10.329S79.1,39.335,69.154,45.073c-9.946,5.738-8.034,23.336-8.034,23.336
				s-13.389-3.826-17.98,2.678c-4.59,6.503,1.913,9.946-1.148,11.859c-3.06,1.913-12.242-4.208-16.45,0.382
				c-4.208,4.591-4.208,8.799-4.208,8.799s-0.765,9.946,21.805,5.356c22.57-4.591,26.013-21.805,35.577-19.128
				c9.564,2.678,8.86,18.351,45.577,21.872c33.541,3.216,32.463-18.429,32.463-18.429s2.295,11.859,13.007,12.624
				c10.711,0.765,16.45-5.356,16.45-5.356s5.085-6.5,12.243-0.116h7.534c0,0-1.414-5.622,2.794-4.857
				c4.208,0.765,6.559,4.857,6.559,4.857h7.534c0,0,1.811-9.298,9.353,0H239.763z"/>
			<path style="fill:#FFFFFF;stroke:#263238;stroke-linecap:round;stroke-linejoin:round;stroke-miterlimit:10;" d="M157.376,78.632
				c0,0,0.459-8.73-6.433-16.081c-6.892-7.351-26.649-4.595-29.865,7.811c-3.216,12.405,5.513,19.297,16.081,19.297
				c10.568,0,14.703-13.784,8.73-17.919c-5.973-4.135-13.784-3.216-13.784,3.216c0,6.433,5.514,6.892,8.73,5.054"/>
			<path style="fill:none;stroke:#263238;stroke-linecap:round;stroke-linejoin:round;stroke-miterlimit:10;" d="M204.238,50.264
				c-7.586-0.174-15.553,2.309-20.673,4.016c-9.649,3.216-5.514-7.811-22.054-18.378c-16.541-10.568-35.15-4.57-38.135,5.054
				c-3.283,10.585,0.96,15.407,6.432,16.541"/>
			<path style="fill:none;stroke:#263238;stroke-linecap:round;stroke-linejoin:round;stroke-miterlimit:10;" d="M224.342,76.622
				c1.034-4.193,1.034-10.166-3.101-17.287c-1.712-2.949-3.917-5.031-6.422-6.451"/>
			<path style="fill:none;stroke:#263238;stroke-linecap:round;stroke-linejoin:round;stroke-miterlimit:10;" d="M221.241,83.227
				c0,0,1.073-1.252,2.06-3.52"/>
			<path style="fill:none;stroke:#263238;stroke-linecap:round;stroke-linejoin:round;stroke-miterlimit:10;" d="M94.845,68.779
				c3.796,2.238,7.333,4.396,10.611,5.259c8.73,2.297,15.622-3.676,15.622-3.676"/>
			<path style="fill:none;stroke:#263238;stroke-linecap:round;stroke-linejoin:round;stroke-miterlimit:10;" d="M57.213,78.632
				c0,0,4.135-13.784,16.541-16.081c5.302-0.982,10.268,0.554,14.899,2.814"/>
		</g>
	</g>
</g>
<g id="Earth">
	<g>
		
			<ellipse transform="matrix(0.7071 -0.7071 0.7071 0.7071 -161.8368 250.7124)" style="fill:#92E3A9;" cx="221.718" cy="320.711" rx="143.567" ry="143.567"/>
		<g>
			<polygon style="fill:#FFFFFF;" points="198.108,258.367 212.912,260.428 218.23,265.263 224.786,265.831 227.258,271.853 
				226.02,276.12 221.729,278.44 210.77,277.385 210.387,276.077 215.277,272.162 211.307,265.868 201.521,265.179 196.066,261.094 
							"/>
			<path style="fill:#FFFFFF;" d="M324.705,385.359l-11.709-1.191l-14.093-0.849l-10.138,2.965l-10.058,0.811l-9.796,5.349
				l-5.791,2.049l-3.598,1.052l-5.72,5.933l-5.776,4.529l-10.456-2.977l-0.388-9.826l-6.229-0.664l-6.541,1.913l-1.842-2.656
				l-1.067-6.078l-3.245-2.601l-4.387,1.993l-0.352,3.653l-5.464,1.953l-6.627-4.452l-4.258-7.275l2.228-10.592l9.675-2.119
				l3.285,1.525l3.925-1.148l4.045-4.378l4.634,0.065l8.852,8.417l2.193-0.996l-2.854-7.331l-3.11-3.35l-1.163-6.406l10.57-8.771
				l-1.903-12.579l3.989-5.782l2.052-8.765l3.079-1.611l6.087-7.105l-0.438-2.712l-5.137,1.857l-1.746-2.329l-3.598,1.052
				l-5.177,2.934l1.373-5.016l10.49-6.617l1.755-3.709l6.682,5.856l3.805,2.082l4.196-2.647l-3.205-3.677l-8.303-2.898
				l-10.431-6.535l-9.802-3.169l-8.232,0.987l-5.072-2.777l-5.616,0.222l-0.271,1.499l2.119,9.676l2.264,2.888l0.117,11.326
				l-8.071-3.32l-0.358-4.865l-7.824-1.262l-3.995-2.737l-0.756-8.654l7.476-9.641l-1.641-8.04l-3.502,1.379l-3.15-2.274
				l-2.416-4.618l-2.385,0.342l0.222,5.615l-3.406,1.706l-4.983-10.969l-3.094-0.87l-5.152-0.624l-4.468,4.147l8.358,4.301
				l2.934,5.177l-14.355-5.387l-10.758-6.439l-3.236-8.639l-9.268-0.13l-5.298,6.164c0,0-2.697,2.919-4.141,4.051
				c-1.444,1.132-7.466,3.603-7.466,3.603l0.318,5.942l-7.426,2.527l1.706,3.406l12.674-1.576l8.222,5.051l3.347,11.446
				l-0.633,11.19l3.81,10.601l-4.471,18.703l5.019,24.448l6.96,12.875l7.312,9.222l5.097-0.781l-3.165-4.754l-3.763-3.16
				l-3.74-6.716l2.752-1.515l8.021,10.435l6.331,9.509l2.486,8.503l8.414,5.705l13.51,4.925l18.345-0.395l6.667,3.376l5.454,4.085
				l6.939,1.876l7.769-0.142l7.099-2.43c0,0,0.63,3.366,1.108,5.001c0.478,1.635-2.475,8.534-2.475,8.534l-1.685,7.593l4.72,6.43
				l8.056,0.839l13.198,7.501l5.152,0.623l1.434,4.906l1.239,2.117c24.797-11.807,45.023-30.184,59.149-52.348l-0.524-2.421
				l4.144-18.607l-5.112-1.7L324.705,385.359z"/>
			<path style="fill:#FFFFFF;" d="M320.942,246.233l-5.414-5.161l-6.683-5.856l-4.177-9.429l6.173-0.74l-0.629-3.366l-4.348,0.916
				l3.12-2.687l3.255-3.437l-0.956-3.27l-5.454-4.085l-2.896-6.793c-34.303-23.503-78.484-31.991-121.508-19.41
				c-19.558,5.719-36.965,15.242-51.669,27.517l9.103,3.137l-2.857,7.225l-5.832,3.125l1.928,9.021l-2.329,1.746l-2.218,4.554
				l2.048,5.791l5.751-0.972l-0.663,6.229l5.56-1.626l5.946-14.874l-0.549-5.52l8.965-3.332l1.142-4.594l9.197-3.754l-0.644-5.846
				l6.772-2.336c0,0,4.14-4.051,5.122-4.338c0.981-0.287,6.038,0.01,6.038,0.01l6.053,2.49l6.868-2.008l4.834-5.319l7.713-1.546
				c0,0,2.345,0.734,3.98,0.256c1.635-0.478,5.871-4.202,5.871-4.202l11.206,3.113l4.785,1.796l1.435,4.905l5.097-0.78l0.774-3.421
				l4.825,0.719l0.438,2.712l-9.046,5.486l7.664,5.569l13.686,3.098l6.818,5.106l7.386-1.45l0.679-3.748l2.425-1.419l-10.416-4.055
				l-5.424,0.876l3.869-2.551l-5.55-4.412l5.464-1.953l8.343,1.82l3.93,7.371l4.841,3.2l5.716,8.623l8.725,3.129l3.156,10.792
				l8.956,2.706l0.725,3.693l0.262,4.538l3.684,5.313l1.515,2.752l5.846-0.645l0.99-6.325L320.942,246.233z"/>
			<path style="fill:#FFFFFF;" d="M315.559,212.044l0.549,1.878l-0.105,5.711l2.32,4.292l3.98,0.256l1.817,6.214l-4.403-0.487
				l4.183,17.947l-1.821,8.343l5.294,8.392l5.399,2.681l5.164,17.66l8.268,12.492l7.639,9.127l8.096-0.237l0.704-7.306l0.822-1.146
				c-0.945-5.817-2.254-11.641-3.951-17.443C351.447,252.828,335.822,229.509,315.559,212.044z"/>
			<polygon style="fill:#FFFFFF;" points="230.438,377.425 229.513,379.115 240.185,379.19 245.448,382.62 251.853,381.458 
				253.09,377.191 245.186,378.082 			"/>
			<polygon style="fill:#FFFFFF;" points="261.362,375.127 255.068,379.098 256.814,381.427 265.317,378.94 266.187,375.846 
				263.34,377.034 			"/>
		</g>
		<path style="opacity:0.19;" d="M328.539,405.134c-76.103,22.254-155.837-21.399-178.091-97.502
			c-12.462-42.617-4.252-86.37,18.746-120.533C100.732,213.922,62.889,289.08,83.922,361.005
			c22.254,76.103,101.988,119.756,178.091,97.502c33.486-9.792,60.685-30.716,78.755-57.559
			C336.791,402.507,332.717,403.912,328.539,405.134z"/>
		<g>
			<path style="fill:none;stroke:#263238;stroke-linecap:round;stroke-linejoin:round;stroke-miterlimit:10;" d="M201.709,455.15
				c7.725,1.155,15.601,1.648,23.548,1.436"/>
			<path style="fill:none;stroke:#263238;stroke-linecap:round;stroke-linejoin:round;stroke-miterlimit:10;" d="M183.812,451.222
				c3.976,1.159,8.012,2.138,12.097,2.932"/>
			<path style="fill:none;stroke:#263238;stroke-linecap:round;stroke-linejoin:round;stroke-miterlimit:10;" d="M88.824,292.22
				c-4.602,21.375-4.099,44.17,2.469,66.63c12.991,44.426,46.677,77.168,87.487,90.799"/>
			<path style="fill:none;stroke:#263238;stroke-linecap:round;stroke-linejoin:round;stroke-miterlimit:10;" d="M104.479,252.004
				c-4.415,7.537-8.106,15.493-11.009,23.755"/>
		</g>
		
			<ellipse transform="matrix(0.7071 -0.7071 0.7071 0.7071 -161.8368 250.7124)" style="fill:none;stroke:#263238;stroke-miterlimit:10;" cx="221.718" cy="320.711" rx="143.567" ry="143.567"/>
	</g>
	<g>
		<g>
			<g>
				<path style="fill:#263238;" d="M142.579,331.064c1.458,6.754-2.825,5.555-7.688,6.605c-4.863,1.05-8.465,3.951-9.923-2.803
					c-1.458-6.754,1.302-13.08,6.165-14.13C135.997,319.685,141.121,324.309,142.579,331.064z"/>
				<path style="fill:#FFFFFF;" d="M137.889,326.145c0.882,2.544,0.355,5.037-1.177,5.568c-1.532,0.531-3.488-1.102-4.369-3.647
					c-0.882-2.544-0.355-5.038,1.177-5.568C135.052,321.967,137.008,323.6,137.889,326.145z"/>
			</g>
			<g>
				<path style="fill:#263238;" d="M208.641,320.399c1.458,6.754-1.302,13.081-6.165,14.13c-4.863,1.05-9.987-3.575-11.445-10.329
					s1.302-13.08,6.165-14.13C202.058,309.02,207.182,313.645,208.641,320.399z"/>
				<path style="fill:#FFFFFF;" d="M203.469,314.865c0.882,2.545,0.355,5.038-1.177,5.568c-1.531,0.531-3.488-1.102-4.369-3.647
					c-0.882-2.545-0.355-5.038,1.177-5.568C200.631,310.688,202.587,312.32,203.469,314.865z"/>
			</g>
			<path style="fill:none;stroke:#263238;stroke-width:8;stroke-linecap:round;stroke-linejoin:round;stroke-miterlimit:10;" d="
				M107.885,335.139c0,0,24.404-8.419,37.503-23.253"/>
			<path style="fill:none;stroke:#263238;stroke-width:8;stroke-linecap:round;stroke-linejoin:round;stroke-miterlimit:10;" d="
				M159.787,294.067c0,0,23.528,10.904,45.698,12.945"/>
			<path style="fill:#263238;stroke:#263238;stroke-linecap:round;stroke-linejoin:round;stroke-miterlimit:10;" d="
				M208.581,385.503c1.422,7.833,0.067,12.728-2.494,15.755c-2.859,3.402-7.214,4.482-10.869,4.755
				c-6.896,0.52-9.286-14.176-23.017-11.398c-11.108,2.248-7.983,19.712-19.082,21.083c-3.027,0.379-6.1,0.068-8.944-0.839
				c-7.604-2.405-13.545-9.044-12.419-18.186c2.235-18.246,25.07-26.087,25.07-26.087
				C177.367,363.582,205.538,368.733,208.581,385.503z"/>
			<path style="fill:#263238;" d="M120.358,341.783c0,0,15.519-8.393,26.743-6.287c0,0-13.623,3.34-20.121,7.281
				S118.513,344.199,120.358,341.783z"/>
		</g>
		<g>
			<path style="fill:#FFFFFF;stroke:#263238;stroke-linecap:round;stroke-linejoin:round;stroke-miterlimit:10;" d="
				M184.687,398.631c0,0-6.535-13.07-16.991-15.161c-10.456-2.091-16.207,8.626-16.207,8.626s-3.398-2.875-9.41,1.83
				c-6.012,4.705-10.717,16.729-6.012,26.662c4.705,9.933,16.468,13.593,21.696,6.535c5.228-7.058,6.796-28.754,12.286-31.106
				C175.538,393.665,183.119,397.586,184.687,398.631z"/>
			<path style="fill:none;stroke:#263238;stroke-linecap:round;stroke-linejoin:round;stroke-miterlimit:10;" d="M148.77,403.064
				c-0.032,1.076-0.003,2.215,0.105,3.409"/>
			<path style="fill:none;stroke:#263238;stroke-linecap:round;stroke-linejoin:round;stroke-miterlimit:10;" d="M151.49,392.096
				c0,0-1.813,3.069-2.485,8.086"/>
		</g>
	</g>
</g>
<g id="Tree_stumps">
	<g>
		<g>
			<path style="fill:#263238;stroke:#263238;stroke-linecap:round;stroke-linejoin:round;stroke-miterlimit:10;" d="
				M271.903,187.433c0,0-0.372,4.188-1.754,5.747c-1.382,1.559-4.223-1.516-6.575-1.375c-2.352,0.142-2.69,1.401-5.582,1.398
				c-2.892-0.003-4.57,0.576-4.57,0.576s3.416,0.851,5.264,1.153c1.848,0.302,4.345-0.38,5.016-0.007
				c0.672,0.373,2.362,1.982,4.654,2.789c2.291,0.806,4.499,1.205,5.531,1.674c1.032,0.469,5.229,3.522,9.333,4.042
				c4.104,0.52,6.912,0.115,8.291,1.449c1.379,1.333,5.817,3.486,7.221,3.284c1.404-0.203,4.261-0.788,4.933-0.415
				c0.672,0.373,2.23,1.754,2.23,1.754s-0.129-3.12-2.288-3.699c-2.16-0.578-3.541,0.98-5.016,0.007
				c-1.475-0.974-2.349-2.751-2.349-2.751s5.473-0.27,7.176,0.571c1.703,0.842,4.258,2.104,4.258,2.104s-2.073-3.062-5.576-4.386
				s-4.02-0.112-4.991-1.529c-0.971-1.417-0.772-5.845-0.772-5.845L271.903,187.433z"/>
			<g>
				<path style="fill:#FFFFFF;stroke:#263238;stroke-linecap:round;stroke-linejoin:round;stroke-miterlimit:10;" d="
					M296.336,193.975c-0.603,2.251-6.561,2.612-13.308,0.805c-6.747-1.807-11.728-5.096-11.125-7.348
					c0.603-2.251,6.561-2.612,13.308-0.805C291.958,188.434,296.939,191.723,296.336,193.975z"/>
				<path style="fill:#FFFFFF;stroke:#263238;stroke-linecap:round;stroke-linejoin:round;stroke-miterlimit:10;" d="
					M291.538,192.69c-0.366,1.367-3.984,1.586-8.081,0.489s-7.121-3.094-6.755-4.462c0.366-1.367,3.984-1.586,8.081-0.489
					C288.879,189.326,291.904,191.323,291.538,192.69z"/>
				<path style="fill:#FFFFFF;stroke:#263238;stroke-linecap:round;stroke-linejoin:round;stroke-miterlimit:10;" d="
					M287.741,191.673c-0.179,0.667-1.945,0.774-3.944,0.239c-2-0.535-3.476-1.51-3.297-2.178c0.179-0.667,1.945-0.774,3.944-0.239
					C286.443,190.031,287.919,191.006,287.741,191.673z"/>
			</g>
		</g>
		<g>
			<path style="fill:#263238;stroke:#263238;stroke-linecap:round;stroke-linejoin:round;stroke-miterlimit:10;" d="
				M330.564,218.673c0,0-1.917,2.214-3.579,1.782c-1.662-0.433-1.203-0.752-2.892-2.527c-1.689-1.776-3.87-2.301-5.379-2.84
				c-1.509-0.539-4.827-3.678-4.827-3.678s3.111,5.779,4.527,6.837c1.416,1.057,3.657,1.995,4.933,3.831
				c1.276,1.836,0.345,1.802,1.435,4.675c1.09,2.873,2.546,5.945,2.546,5.945s1.256,3.438,0.245,4.595
				c-1.011,1.157-2.427,0.099-2.694,2.327c-0.266,2.228,0.385,3.817,0.385,3.817s1.856-2.879,3.578-2.034
				c1.722,0.845,4.548,0.014,4.548,0.014s3.045,2.421,4.461,3.479c1.416,1.058,2.187,3.472,2.426,5.121
				c0.239,1.649,3.025,4.023,3.025,4.023s-0.644-3.863-0.152-5.113c0.492-1.25-1.402-5.606-1.402-5.606l3.255-3.879L330.564,218.673
				z"/>
			<g>
				<path style="fill:#FFFFFF;stroke:#263238;stroke-linecap:round;stroke-linejoin:round;stroke-miterlimit:10;" d="
					M345.004,239.44c-1.913,1.331-6.697-2.24-10.685-7.974c-3.988-5.734-5.669-11.462-3.756-12.792
					c1.913-1.331,6.697,2.24,10.685,7.974C345.236,232.382,346.918,238.109,345.004,239.44z"/>
				<path style="fill:#FFFFFF;stroke:#263238;stroke-linecap:round;stroke-linejoin:round;stroke-miterlimit:10;" d="
					M342.168,235.361c-1.162,0.808-4.067-1.36-6.488-4.842c-2.421-3.482-3.442-6.96-2.28-7.768c1.162-0.808,4.067,1.36,6.488,4.842
					C342.309,231.076,343.33,234.553,342.168,235.361z"/>
				<path style="fill:#FFFFFF;stroke:#263238;stroke-linecap:round;stroke-linejoin:round;stroke-miterlimit:10;" d="
					M339.924,232.134c-0.567,0.394-1.985-0.664-3.167-2.363c-1.182-1.699-1.68-3.397-1.113-3.791
					c0.567-0.394,1.985,0.664,3.167,2.363C339.992,230.042,340.491,231.739,339.924,232.134z"/>
			</g>
		</g>
		<g>
			<path style="fill:#263238;stroke:#263238;stroke-linecap:round;stroke-linejoin:round;stroke-miterlimit:10;" d="
				M293.603,222.716c0,0-0.828,2.809-2.52,3.104c-1.692,0.294-1.407-0.186-3.679-1.103c-2.272-0.917-4.475-0.493-6.072-0.359
				c-1.597,0.134-5.917-1.35-5.917-1.35s5.224,3.972,6.951,4.349c1.727,0.376,4.155,0.303,6.077,1.445
				c1.922,1.142,1.06,1.497,3.242,3.661c2.181,2.164,4.779,4.358,4.779,4.358s2.567,2.609,2.125,4.081
				c-0.441,1.472-2.168,1.095-1.488,3.233c0.68,2.138,1.931,3.315,1.931,3.315s0.497-3.389,2.415-3.333
				c1.917,0.056,4.146-1.87,4.146-1.87s3.774,0.943,5.501,1.319c1.727,0.376,3.428,2.254,4.328,3.657
				c0.9,1.402,4.419,2.41,4.419,2.41s-2.186-3.25-2.255-4.592c-0.069-1.342-3.597-4.522-3.597-4.522l1.358-4.878L293.603,222.716z"
				/>
			<g>
				<path style="fill:#FFFFFF;stroke:#263238;stroke-linecap:round;stroke-linejoin:round;stroke-miterlimit:10;" d="
					M315.345,235.641c-1.191,2.003-7.023,0.734-13.028-2.835c-6.004-3.569-9.906-8.086-8.715-10.09
					c1.191-2.003,7.023-0.734,13.027,2.835C312.634,229.12,316.536,233.637,315.345,235.641z"/>
				<path style="fill:#FFFFFF;stroke:#263238;stroke-linecap:round;stroke-linejoin:round;stroke-miterlimit:10;" d="
					M311.075,233.102c-0.723,1.216-4.265,0.446-7.91-1.721c-3.646-2.167-6.015-4.91-5.292-6.127
					c0.723-1.217,4.265-0.446,7.911,1.721C309.429,229.143,311.798,231.886,311.075,233.102z"/>
				<path style="fill:#FFFFFF;stroke:#263238;stroke-linecap:round;stroke-linejoin:round;stroke-miterlimit:10;" d="
					M307.696,231.094c-0.353,0.594-2.082,0.218-3.861-0.84c-1.78-1.058-2.936-2.396-2.583-2.99c0.353-0.594,2.082-0.218,3.861,0.84
					C306.892,229.161,308.049,230.5,307.696,231.094z"/>
			</g>
		</g>
		<g>
			<path style="fill:#263238;stroke:#263238;stroke-linecap:round;stroke-linejoin:round;stroke-miterlimit:10;" d="M196.854,181.29
				c0,0,1.037,2.739-0.133,3.996c-1.171,1.257-1.233,0.702-3.598,1.343c-2.365,0.642-3.864,2.311-5.055,3.383
				c-1.191,1.072-5.53,2.499-5.53,2.499s6.563,0.01,8.167-0.734c1.604-0.743,3.494-2.269,5.715-2.52
				c2.221-0.251,1.75,0.553,4.795,0.959c3.046,0.406,6.441,0.586,6.441,0.586s3.622,0.529,4.159,1.968
				c0.537,1.439-1.066,2.183,0.767,3.476c1.833,1.293,3.541,1.475,3.541,1.475s-1.651-3.001-0.089-4.115
				c1.562-1.114,2.174-3.995,2.174-3.995s3.577-1.528,5.181-2.272c1.604-0.743,4.094-0.274,5.658,0.299
				c1.565,0.574,4.978-0.749,4.978-0.749s-3.705-1.269-4.571-2.297c-0.866-1.027-5.598-1.431-5.598-1.431l-1.865-4.708
				L196.854,181.29z"/>
			<g>
				<path style="fill:#FFFFFF;stroke:#263238;stroke-linecap:round;stroke-linejoin:round;stroke-miterlimit:10;" d="
					M221.989,178.454c0.261,2.316-5.153,4.828-12.094,5.611c-6.941,0.783-12.779-0.46-13.04-2.776
					c-0.261-2.316,5.154-4.828,12.094-5.611C215.889,174.895,221.727,176.138,221.989,178.454z"/>
				<path style="fill:#FFFFFF;stroke:#263238;stroke-linecap:round;stroke-linejoin:round;stroke-miterlimit:10;" d="
					M217.053,179.011c0.159,1.406-3.129,2.932-7.344,3.407c-4.214,0.475-7.76-0.279-7.918-1.685
					c-0.159-1.406,3.129-2.932,7.344-3.407C213.349,176.85,216.894,177.605,217.053,179.011z"/>
				<path style="fill:#FFFFFF;stroke:#263238;stroke-linecap:round;stroke-linejoin:round;stroke-miterlimit:10;" d="
					M213.146,179.452c0.077,0.686-1.527,1.431-3.584,1.663c-2.057,0.232-3.787-0.136-3.865-0.823
					c-0.077-0.686,1.527-1.431,3.584-1.663C211.338,178.397,213.069,178.765,213.146,179.452z"/>
			</g>
		</g>
		<g>
			<path style="fill:#263238;stroke:#263238;stroke-linecap:round;stroke-linejoin:round;stroke-miterlimit:10;" d="
				M193.047,223.179c0,0,1.05,2.734-0.114,3.996c-1.165,1.263-1.23,0.707-3.592,1.361c-2.362,0.653-3.853,2.329-5.039,3.407
				c-1.186,1.078-5.518,2.525-5.518,2.525s6.563-0.022,8.163-0.773c1.6-0.751,3.483-2.286,5.703-2.547
				c2.22-0.261,1.752,0.544,4.8,0.936c3.047,0.392,6.443,0.555,6.443,0.555s3.624,0.512,4.169,1.948
				c0.544,1.437-1.056,2.188,0.784,3.472c1.839,1.284,3.548,1.458,3.548,1.458s-1.665-2.993-0.109-4.114
				c1.556-1.121,2.155-4.005,2.155-4.005s3.57-1.546,5.17-2.296c1.6-0.751,4.092-0.294,5.66,0.272
				c1.567,0.566,4.974-0.773,4.974-0.773s-3.712-1.252-4.582-2.275s-5.605-1.404-5.605-1.404l-1.888-4.699L193.047,223.179z"/>
			<g>
				<path style="fill:#FFFFFF;stroke:#263238;stroke-linecap:round;stroke-linejoin:round;stroke-miterlimit:10;" d="
					M218.167,220.223c0.272,2.315-5.13,4.853-12.067,5.669c-6.937,0.816-12.781-0.399-13.053-2.713
					c-0.272-2.315,5.13-4.853,12.067-5.669C212.051,216.694,217.895,217.909,218.167,220.223z"/>
				<path style="fill:#FFFFFF;stroke:#263238;stroke-linecap:round;stroke-linejoin:round;stroke-miterlimit:10;" d="
					M213.234,220.804c0.165,1.406-3.115,2.947-7.327,3.442c-4.212,0.496-7.761-0.242-7.926-1.647
					c-0.165-1.406,3.115-2.947,7.327-3.442C209.52,218.661,213.068,219.398,213.234,220.804z"/>
				<path style="fill:#FFFFFF;stroke:#263238;stroke-linecap:round;stroke-linejoin:round;stroke-miterlimit:10;" d="
					M209.33,221.263c0.081,0.686-1.52,1.438-3.576,1.68c-2.056,0.242-3.788-0.118-3.869-0.804c-0.081-0.686,1.521-1.438,3.576-1.68
					C207.517,220.217,209.249,220.577,209.33,221.263z"/>
			</g>
		</g>
		<g>
			<path style="fill:#263238;stroke:#263238;stroke-linecap:round;stroke-linejoin:round;stroke-miterlimit:10;" d="M241.19,249.642
				c0,0,0.335,2.523-1.686,4.038c-2.021,1.515-4.294-1.515-7.577-0.758c-3.284,0.758-5.809,3.283-5.809,3.283
				s4.546-1.515,7.072,0.505c2.526,2.021,3.464,5.328,7.252,5.833c3.789,0.505,8.18,0.341,9.695,1.604
				c1.515,1.263,0.505,3.031,3.283,5.052c2.778,2.021,6.989,2.496,6.989,2.496s-2.015-6.311-0.499-7.321
				c1.516-1.01,2.073-0.592,5.356-0.592c3.284,0,6.062-1.263,7.83-3.031c1.768-1.768,5.304-1.768,5.304-1.768
				s-2.021-2.526-5.051-2.778c-3.031-0.253-3.084-0.095-4.799-0.758c-1.788-0.691-2.08-4.989-2.08-4.989L241.19,249.642z"/>
			<g>
				<path style="fill:#FFFFFF;stroke:#263238;stroke-linecap:round;stroke-linejoin:round;stroke-miterlimit:10;" d="
					M266.471,250.459c-0.144,4.454-5.92,7.882-12.901,7.656c-6.981-0.226-12.524-4.02-12.38-8.474
					c0.144-4.454,5.92-7.882,12.901-7.656C261.073,242.211,266.615,246.005,266.471,250.459z"/>
				<path style="fill:#FFFFFF;stroke:#263238;stroke-linecap:round;stroke-linejoin:round;stroke-miterlimit:10;" d="
					M261.506,250.299c-0.087,2.705-3.595,4.786-7.834,4.649s-7.605-2.441-7.517-5.145c0.087-2.705,3.595-4.786,7.834-4.649
					C258.228,245.29,261.593,247.594,261.506,250.299z"/>
				<path style="fill:#FFFFFF;stroke:#263238;stroke-linecap:round;stroke-linejoin:round;stroke-miterlimit:10;" d="
					M257.577,250.172c-0.043,1.32-1.755,2.336-3.824,2.269c-2.069-0.067-3.712-1.191-3.669-2.511
					c0.043-1.32,1.755-2.336,3.824-2.269S257.62,248.852,257.577,250.172z"/>
			</g>
		</g>
		<g>
			<path style="fill:#263238;stroke:#263238;stroke-linecap:round;stroke-linejoin:round;stroke-miterlimit:10;" d="
				M139.357,199.552c0,0,1.897,3.752,3.758,4.688c1.861,0.936,3.361-2.973,5.598-3.712c2.237-0.74,3.017,0.305,5.703-0.769
				c2.685-1.074,4.458-1.158,4.458-1.158s-2.858,2.056-4.463,3.02c-1.605,0.965-4.176,1.257-4.662,1.852
				c-0.486,0.595-1.46,2.717-3.29,4.314c-1.83,1.598-3.733,2.786-4.517,3.603c-0.785,0.818-3.553,5.208-7.172,7.211
				c-3.619,2.003-6.378,2.667-7.165,4.417c-0.787,1.749-4.112,5.393-5.491,5.725s-4.25,0.847-4.736,1.442
				c-0.486,0.595-1.422,2.456-1.422,2.456s-1.036-2.946,0.756-4.283c1.792-1.337,3.653-0.401,4.662-1.852
				c1.01-1.451,1.163-3.425,1.163-3.425s-5.184,1.776-6.454,3.189c-1.27,1.413-3.176,3.532-3.176,3.532s0.791-3.612,3.555-6.139
				c2.763-2.527,3.693-1.593,4.069-3.269c0.377-1.676-1.448-5.715-1.448-5.715L139.357,199.552z"/>
			<g>
				<path style="fill:#FFFFFF;stroke:#263238;stroke-linecap:round;stroke-linejoin:round;stroke-miterlimit:10;" d="
					M119.085,214.679c1.394,1.868,7.062-0.004,12.66-4.181c5.598-4.177,9.006-9.078,7.612-10.946
					c-1.394-1.868-7.062,0.004-12.66,4.181C121.099,207.91,117.691,212.811,119.085,214.679z"/>
				<path style="fill:#FFFFFF;stroke:#263238;stroke-linecap:round;stroke-linejoin:round;stroke-miterlimit:10;" d="
					M123.066,211.708c0.846,1.134,4.288-0.003,7.687-2.539c3.399-2.536,5.469-5.512,4.622-6.646
					c-0.846-1.134-4.288,0.002-7.687,2.539C124.289,207.598,122.22,210.574,123.066,211.708z"/>
				<path style="fill:#FFFFFF;stroke:#263238;stroke-linecap:round;stroke-linejoin:round;stroke-miterlimit:10;" d="
					M126.217,209.357c0.413,0.554,2.093-0.001,3.752-1.239s2.669-2.69,2.256-3.244c-0.413-0.554-2.093,0.001-3.752,1.239
					C126.814,207.351,125.804,208.803,126.217,209.357z"/>
			</g>
		</g>
		<g>
			<path style="fill:#263238;stroke:#263238;stroke-linecap:round;stroke-linejoin:round;stroke-miterlimit:10;" d="M96.333,241.275
				c0,0,2.306,1.805,3.855,1.061c1.548-0.744,1.037-0.969,2.353-3.036c1.316-2.067,3.355-3.002,4.733-3.82
				c1.378-0.819,4.031-4.537,4.031-4.537s-1.943,6.269-3.13,7.579c-1.187,1.31-3.205,2.661-4.106,4.707
				c-0.9,2.047,0.007,1.835-0.511,4.864c-0.518,3.029-1.356,6.323-1.356,6.323s-0.573,3.615,0.642,4.556
				c1.214,0.941,2.401-0.369,3.09,1.766c0.689,2.135,0.355,3.82,0.355,3.82s-2.374-2.469-3.902-1.309
				c-1.528,1.16-4.461,0.887-4.461,0.887s-2.523,2.961-3.71,4.271c-1.187,1.31-1.48,3.827-1.397,5.491
				c0.082,1.664-2.196,4.53-2.196,4.53s-0.11-3.915-0.833-5.047c-0.723-1.132,0.299-5.771,0.299-5.771l-3.94-3.181L96.333,241.275z"
				/>
			<g>
				<path style="fill:#FFFFFF;stroke:#263238;stroke-linecap:round;stroke-linejoin:round;stroke-miterlimit:10;" d="
					M86.149,264.428c2.133,0.938,6.143-3.484,8.954-9.878c2.812-6.394,3.362-12.337,1.229-13.276
					c-2.133-0.938-6.143,3.484-8.955,9.878C84.566,257.546,84.016,263.49,86.149,264.428z"/>
				<path style="fill:#FFFFFF;stroke:#263238;stroke-linecap:round;stroke-linejoin:round;stroke-miterlimit:10;" d="
					M88.149,259.881c1.296,0.57,3.73-2.116,5.437-5.998c1.708-3.882,2.042-7.492,0.746-8.061c-1.296-0.57-3.73,2.116-5.437,5.998
					C87.188,255.702,86.854,259.311,88.149,259.881z"/>
				<path style="fill:#FFFFFF;stroke:#263238;stroke-linecap:round;stroke-linejoin:round;stroke-miterlimit:10;" d="
					M89.732,256.283c0.632,0.278,1.82-1.033,2.654-2.928c0.833-1.895,0.996-3.656,0.364-3.935c-0.632-0.278-1.82,1.033-2.654,2.928
					C89.263,254.243,89.1,256.005,89.732,256.283z"/>
			</g>
		</g>
		<g>
			<path style="fill:#263238;stroke:#263238;stroke-linecap:round;stroke-linejoin:round;stroke-miterlimit:10;" d="
				M133.382,238.144c0,0,1.352,2.598,3.07,2.562c1.717-0.036,1.345-0.453,3.399-1.789c2.054-1.337,4.297-1.343,5.89-1.518
				c1.593-0.175,5.547-2.461,5.547-2.461s-4.364,4.902-5.987,5.603c-1.622,0.701-4.02,1.095-5.686,2.585
				c-1.667,1.49-0.753,1.673-2.479,4.216c-1.725,2.542-3.853,5.194-3.853,5.194s-2.018,3.054-1.302,4.413
				c0.716,1.359,2.338,0.658,2.082,2.887c-0.256,2.229-1.258,3.624-1.258,3.624s-1.139-3.23-3.01-2.807
				c-1.871,0.423-4.428-1.039-4.428-1.039s-3.523,1.65-5.145,2.351c-1.622,0.701-2.931,2.871-3.546,4.42
				c-0.614,1.549-3.874,3.214-3.874,3.214s1.521-3.609,1.332-4.939c-0.189-1.33,2.662-5.129,2.662-5.129l-2.269-4.527
				L133.382,238.144z"/>
			<g>
				<path style="fill:#FFFFFF;stroke:#263238;stroke-linecap:round;stroke-linejoin:round;stroke-miterlimit:10;" d="
					M114.527,255.004c1.553,1.737,7.034-0.628,12.241-5.284c5.207-4.656,8.168-9.838,6.615-11.576s-7.034,0.628-12.241,5.284
					C115.935,248.084,112.973,253.267,114.527,255.004z"/>
				<path style="fill:#FFFFFF;stroke:#263238;stroke-linecap:round;stroke-linejoin:round;stroke-miterlimit:10;" d="
					M118.23,251.693c0.943,1.055,4.271-0.382,7.433-3.209c3.162-2.827,4.96-5.974,4.017-7.029c-0.943-1.055-4.271,0.382-7.433,3.209
					C119.085,247.491,117.286,250.638,118.23,251.693z"/>
				<path style="fill:#FFFFFF;stroke:#263238;stroke-linecap:round;stroke-linejoin:round;stroke-miterlimit:10;" d="
					M121.16,249.072c0.46,0.515,2.085-0.186,3.628-1.566c1.543-1.38,2.421-2.916,1.96-3.431c-0.46-0.515-2.085,0.186-3.628,1.566
					C121.578,247.022,120.7,248.558,121.16,249.072z"/>
			</g>
		</g>
	</g>
</g>
<g id="Factory_1_00000166639275326288069200000008271388349228109193_">
	<g>
		<g>
			
				<rect x="344.088" y="285.168" transform="matrix(-1.836970e-16 1 -1 -1.836970e-16 660.4176 -71.269)" style="fill:#BFBFBF;stroke:#263238;stroke-linecap:round;stroke-linejoin:round;stroke-miterlimit:10;" width="43.511" height="18.814"/>
			<polygon style="fill:#FFFFFF;stroke:#263238;stroke-linecap:round;stroke-linejoin:round;stroke-miterlimit:10;" points="
				377.382,316.33 382.992,294.019 377.382,272.819 369.965,272.819 369.965,316.33 			"/>
			
				<line style="fill:none;stroke:#263238;stroke-linecap:round;stroke-linejoin:round;stroke-miterlimit:10;" x1="377.382" y1="272.819" x2="377.382" y2="316.33"/>
		</g>
		<g>
			<polygon style="fill:#92E3A9;stroke:#263238;stroke-miterlimit:10;" points="434.473,339.125 434.473,332.857 356.436,329.722 
				356.436,342.259 			"/>
			<path style="fill:#FFFFFF;stroke:#263238;stroke-miterlimit:10;" d="M433.787,339.085v-6.188c0-0.372,0.301-0.673,0.673-0.673
				l0,0c0.371,0,0.673,0.301,0.673,0.673v6.188c0,0.371-0.301,0.673-0.673,0.673l0,0
				C434.088,339.757,433.787,339.456,433.787,339.085z"/>
			<g>
				<polygon style="fill:#FFFFFF;stroke:#263238;stroke-miterlimit:10;" points="430.89,332.713 428.076,332.6 428.076,339.382 
					430.89,339.269 				"/>
				<polygon style="fill:#FFFFFF;stroke:#263238;stroke-miterlimit:10;" points="367.182,341.828 369.997,341.715 369.997,330.267 
					367.182,330.154 				"/>
				<polygon style="fill:#FFFFFF;stroke:#263238;stroke-miterlimit:10;" points="387.395,330.966 384.581,330.853 384.581,341.129 
					387.395,341.016 				"/>
				<polygon style="fill:#FFFFFF;stroke:#263238;stroke-miterlimit:10;" points="378.696,330.616 375.882,330.503 375.882,341.478 
					378.696,341.365 				"/>
				<polygon style="fill:#FFFFFF;stroke:#263238;stroke-miterlimit:10;" points="396.094,331.315 393.28,331.202 393.28,340.779 
					396.094,340.666 				"/>
				<polygon style="fill:#FFFFFF;stroke:#263238;stroke-miterlimit:10;" points="422.191,332.363 419.377,332.25 419.377,339.731 
					422.191,339.618 				"/>
				<polygon style="fill:#FFFFFF;stroke:#263238;stroke-miterlimit:10;" points="404.793,331.664 401.979,331.551 401.979,340.43 
					404.793,340.317 				"/>
				<polygon style="fill:#FFFFFF;stroke:#263238;stroke-miterlimit:10;" points="413.492,332.014 410.678,331.901 410.678,340.081 
					413.492,339.968 				"/>
			</g>
		</g>
		<g>
			<polygon style="fill:#92E3A9;stroke:#263238;stroke-miterlimit:10;" points="434.473,317.965 434.473,311.697 356.436,308.563 
				356.436,321.1 			"/>
			<path style="fill:#FFFFFF;stroke:#263238;stroke-miterlimit:10;" d="M433.787,317.925v-6.188c0-0.372,0.301-0.673,0.673-0.673
				l0,0c0.371,0,0.673,0.301,0.673,0.673v6.188c0,0.372-0.301,0.673-0.673,0.673l0,0
				C434.088,318.598,433.787,318.297,433.787,317.925z"/>
			<g>
				<polygon style="fill:#FFFFFF;stroke:#263238;stroke-miterlimit:10;" points="430.89,311.553 428.076,311.44 428.076,318.222 
					430.89,318.109 				"/>
				<polygon style="fill:#FFFFFF;stroke:#263238;stroke-miterlimit:10;" points="367.182,320.668 369.997,320.555 369.997,309.107 
					367.182,308.994 				"/>
				<polygon style="fill:#FFFFFF;stroke:#263238;stroke-miterlimit:10;" points="387.395,309.806 384.581,309.693 384.581,319.969 
					387.395,319.856 				"/>
				<polygon style="fill:#FFFFFF;stroke:#263238;stroke-miterlimit:10;" points="378.696,309.457 375.882,309.344 375.882,320.319 
					378.696,320.206 				"/>
				<polygon style="fill:#FFFFFF;stroke:#263238;stroke-miterlimit:10;" points="396.094,310.156 393.28,310.043 393.28,319.62 
					396.094,319.507 				"/>
				<polygon style="fill:#FFFFFF;stroke:#263238;stroke-miterlimit:10;" points="422.191,311.204 419.377,311.091 419.377,318.572 
					422.191,318.459 				"/>
				<polygon style="fill:#FFFFFF;stroke:#263238;stroke-miterlimit:10;" points="404.793,310.505 401.979,310.392 401.979,319.271 
					404.793,319.158 				"/>
				<polygon style="fill:#FFFFFF;stroke:#263238;stroke-miterlimit:10;" points="413.492,310.854 410.678,310.741 410.678,318.921 
					413.492,318.808 				"/>
			</g>
		</g>
		<g>
			
				<rect x="344.088" y="338.586" transform="matrix(-1.836970e-16 1 -1 -1.836970e-16 713.8365 -17.8501)" style="fill:#BFBFBF;stroke:#263238;stroke-linecap:round;stroke-linejoin:round;stroke-miterlimit:10;" width="43.511" height="18.814"/>
			<polygon style="fill:#FFFFFF;stroke:#263238;stroke-linecap:round;stroke-linejoin:round;stroke-miterlimit:10;" points="
				377.382,369.749 382.992,347.438 377.382,326.238 369.965,326.238 369.965,369.749 			"/>
			
				<line style="fill:none;stroke:#263238;stroke-linecap:round;stroke-linejoin:round;stroke-miterlimit:10;" x1="377.382" y1="326.238" x2="377.382" y2="369.749"/>
		</g>
		<g>
			
				<rect x="344.088" y="306.785" transform="matrix(-1.836970e-16 1 -1 -1.836970e-16 682.035 -49.6516)" style="fill:#BFBFBF;stroke:#263238;stroke-linecap:round;stroke-linejoin:round;stroke-miterlimit:10;" width="43.511" height="18.814"/>
			<polygon style="fill:#FFFFFF;stroke:#263238;stroke-linecap:round;stroke-linejoin:round;stroke-miterlimit:10;" points="
				377.382,337.947 382.992,315.636 377.382,294.436 369.965,294.436 369.965,337.947 			"/>
			
				<line style="fill:none;stroke:#263238;stroke-linecap:round;stroke-linejoin:round;stroke-miterlimit:10;" x1="377.382" y1="294.436" x2="377.382" y2="337.947"/>
		</g>
	</g>
	<g>
		<path style="fill:#FFFFFF;stroke:#263238;stroke-linecap:round;stroke-linejoin:round;stroke-miterlimit:10;" d="M434.46,339.757
			c0,0,10.344,8.893,29.525,2.5c19.181-6.394,23.444-44.756,12.255-58.076c-11.189-13.32-22.911-11.722-22.911-11.722
			s3.73-13.32-6.926-22.911c-10.656-9.591-26.108,2.131-28.239,4.262c-2.131,2.131,18.115,2.664,20.247,17.583
			c2.131,14.919-7.992,22.911-15.984,33.034C414.433,314.551,423.05,334.594,434.46,339.757"/>
		<path style="fill:#FFFFFF;stroke:#263238;stroke-linecap:round;stroke-linejoin:round;stroke-miterlimit:10;" d="M434.46,318.598
			c0,0,10.344,9.806,18.869,6.609c8.525-3.197,19.181-20.247,10.656-30.37c-8.525-10.123-13.853-6.394-13.853-6.394
			s6.394-17.05-12.787-34.1c-19.181-17.05-32.501,0.533-36.231,6.394c-3.73,5.861-19.714-21.312-48.485-15.984
			c-28.772,5.328-18.115,46.354-24.509,52.748c-6.394,6.394-16.517-12.254-29.837-5.861c-13.32,6.394-4.795,33.567-5.328,38.362
			c-0.533,4.795,1.066,14.386-11.189,17.583c-12.255,3.197-25.89-15.164-42.782-4.385c-16.892,10.779-13.163,23.033-17.425,24.099
			c-4.262,1.066-11.189-5.328-17.583,0.533c-6.394,5.861-9.59,12.787-14.386,9.591c-4.795-3.197-6.394-9.591,4.795-11.189
			c0,0-6.389-5.491-11.189,1.598c-6.551,9.676,11.722,29.837,35.165,21.312c23.443-8.525,31.968-18.648,51.149-14.386
			c19.181,4.262,14.756,17.68,43.018,8.706c28.261-8.974,12.15-55.192,37.436-72.11c25.287-16.918,50.318-10.506,61.273-5.328
			C422.191,311.204,431.042,317.85,434.46,318.598"/>
		<path style="fill:#FFFFFF;stroke:#263238;stroke-linecap:round;stroke-linejoin:round;stroke-miterlimit:10;" d="M224.514,335.242
			c-4.118,1.171-7.868,3.826-10.266,7.383c-1.729,2.565-4.691,9.284-1.578,11.88c3.969,3.308,6.74-3.34,8.059-6.016
			c2.281-4.625,5.206-8.507,9.35-11.677c1.003-0.767,2.292-1.505,3.461-1.029C230.709,334.426,227.542,334.381,224.514,335.242z"/>
		<path style="fill:#FFFFFF;stroke:#263238;stroke-linecap:round;stroke-linejoin:round;stroke-miterlimit:10;" d="M339.012,294.321
			c-3.393,3.451-6.491,8.535-7.697,15.968c-3.197,19.714,2.131,35.165-9.59,48.485c-11.722,13.32-29.304,5.328-23.976-6.394
			c5.328-11.722,17.583-7.992,16.517,0.533c-1.066,8.525-11.722,6.394-11.189,1.599"/>
		<path style="fill:#FFFFFF;stroke:#263238;stroke-linecap:round;stroke-linejoin:round;stroke-miterlimit:10;" d="M351.029,287.378
			c0,0-3.318,0.642-7.267,3.125"/>
		<path style="fill:#FFFFFF;stroke:#263238;stroke-linecap:round;stroke-linejoin:round;stroke-miterlimit:10;" d="M444.33,281.29
			c-2.719-2.668-6.77-4.346-12.314-4.568c-13.32-0.533-18.116,11.722-17.05,17.583c1.066,5.861,11.189,12.255,19.181,6.394
			s1.066-12.255-6.394-12.255"/>
		<path style="fill:#FFFFFF;stroke:#263238;stroke-linecap:round;stroke-linejoin:round;stroke-miterlimit:10;" d="M434.46,311.065
			c0,0,12.28-3.442,13.903-13.988c0.676-4.396,0.312-8.475-1.24-11.811"/>
	</g>
</g>
</svg>
