<?xml version="1.0" encoding="utf-8"?>
<!-- Generator: Adobe Illustrator 27.5.0, SVG Export Plug-In . SVG Version: 6.00 Build 0)  -->
<svg version="1.1" xmlns="http://www.w3.org/2000/svg" xmlns:xlink="http://www.w3.org/1999/xlink" x="0px" y="0px"
	 viewBox="0 0 3710 3710" style="enable-background:new 0 0 3710 3710;" xml:space="preserve">
<g id="Illustration">
	<g>
		<linearGradient id="SVGID_1_" gradientUnits="userSpaceOnUse" x1="3547.1313" y1="3932.9229" x2="1144.0554" y2="948.4534">
			<stop  offset="0" style="stop-color:#DAE3FE"/>
			<stop  offset="1" style="stop-color:#E9EFFD"/>
		</linearGradient>
		<path style="fill:url(#SVGID_1_);" d="M2911.368,2738.208c-56.586,57.139-110.128,93.987-152.43,123.1
			c-497.253,342.215-1085.635,242.461-1210.683,218.1c-184.656-35.973-541.593-105.509-799.652-396.588
			c-390.422-440.379-329.627-1134.184-26.79-1592.174c55.394-83.774,347.999-548.741,942.719-623.307
			c359.918-45.126,779.466,45.888,1083.292,290.039C3385.581,1269.874,3340.18,2305.204,2911.368,2738.208z"/>
		<g>
			<path style="fill:#91B3FA;" d="M1997.652,478.62c-0.084-5.211-2.623-10.173-7.039-13.758c-4.418-3.585-10.338-5.489-16.417-5.28
				l-461.961,15.867c-7.929,0.272-14.138,5.941-13.95,12.738l23.45,846.013l467.109-4.882c5.988-0.063,11.701-2.163,15.88-5.837
				c4.179-3.674,6.481-8.622,6.398-13.751L1997.652,478.62z"/>
			<g style="opacity:0.37;">
				<g>
					<polygon style="fill:#FFFFFF;" points="1624.331,610.48 1556.072,610.461 1552.675,525.935 1621.373,525.935 					"/>
					<polygon style="fill:#FFFFFF;" points="1730.703,610.254 1665.766,610.228 1663.073,525.935 1728.424,525.935 					"/>
					<polygon style="fill:#FFFFFF;" points="1839.438,610.024 1771.917,610.003 1769.9,525.935 1837.85,525.935 					"/>
					<polygon style="fill:#FFFFFF;" points="1947.578,609.794 1880.425,609.773 1879.097,525.935 1946.674,525.935 					"/>
				</g>
				<g>
					<polygon style="fill:#FFFFFF;" points="1629.15,747.985 1561.604,748.362 1558.278,665.738 1626.253,665.501 					"/>
					<polygon style="fill:#FFFFFF;" points="1734.415,747.399 1670.153,747.757 1667.515,665.357 1732.183,665.131 					"/>
					<polygon style="fill:#FFFFFF;" points="1842.024,746.799 1775.201,747.171 1773.226,664.987 1840.469,664.752 					"/>
					<polygon style="fill:#FFFFFF;" points="1949.051,746.202 1882.589,746.573 1881.288,664.609 1948.165,664.376 					"/>
				</g>
				<g>
					<polygon style="fill:#FFFFFF;" points="1633.871,882.363 1567.024,882.962 1563.765,802.025 1631.032,801.56 					"/>
					<polygon style="fill:#FFFFFF;" points="1738.052,881.43 1674.45,882 1671.866,801.277 1735.865,800.834 					"/>
					<polygon style="fill:#FFFFFF;" points="1844.558,880.476 1778.419,881.068 1776.484,800.553 1843.035,800.092 					"/>
					<polygon style="fill:#FFFFFF;" points="1950.494,879.527 1884.709,880.116 1883.434,799.813 1949.626,799.354 					"/>
				</g>
				<g>
					<polygon style="fill:#FFFFFF;" points="1638.496,1014.025 1572.333,1014.837 1569.141,935.535 1635.715,934.851 					"/>
					<polygon style="fill:#FFFFFF;" points="1741.615,1012.759 1678.661,1013.532 1676.129,934.436 1739.472,933.785 					"/>
					<polygon style="fill:#FFFFFF;" points="1847.041,1011.466 1781.572,1012.269 1779.676,933.371 1845.548,932.695 					"/>
					<polygon style="fill:#FFFFFF;" points="1951.908,1010.178 1886.786,1010.977 1885.537,932.283 1951.058,931.61 					"/>
				</g>
				<g>
					<polygon style="fill:#FFFFFF;" points="1643.029,1143.052 1577.536,1144.069 1574.407,1066.354 1640.303,1065.459 					"/>
					<polygon style="fill:#FFFFFF;" points="1745.106,1141.468 1682.788,1142.435 1680.307,1064.917 1743.007,1064.066 					"/>
					<polygon style="fill:#FFFFFF;" points="1849.475,1139.848 1784.662,1140.854 1782.804,1063.526 1848.012,1062.641 					"/>
					<polygon style="fill:#FFFFFF;" points="1953.295,1138.236 1888.822,1139.237 1887.598,1062.104 1952.461,1061.224 					"/>
				</g>
				<g>
					<polygon style="fill:#FFFFFF;" points="1647.472,1269.523 1582.636,1270.736 1579.569,1194.56 1644.8,1193.465 					"/>
					<polygon style="fill:#FFFFFF;" points="1748.53,1267.633 1686.834,1268.787 1684.401,1192.8 1746.471,1191.758 					"/>
					<polygon style="fill:#FFFFFF;" points="1851.861,1265.699 1787.691,1266.9 1785.87,1191.096 1850.426,1190.012 					"/>
					<polygon style="fill:#FFFFFF;" points="1954.653,1263.776 1890.818,1264.971 1889.618,1189.354 1953.836,1188.275 					"/>
				</g>
			</g>
		</g>
		<g>
			<path style="fill:#7D97F4;" d="M2366.76,775.574c-0.116-9.553-2.908-18.64-7.75-25.227c-4.842-6.587-11.329-10.124-18.01-9.819
				l-540.646,24.692c-13.761,0.629-24.569,17.06-24.159,36.731l26.677,1279.789c0.405,19.421,11.605,34.811,25.199,34.622
				l533.363-2.367c6.655-0.093,9.423-8.975,14.064-15.791c4.641-6.817,7.187-16,7.071-25.511L2366.76,775.574z"/>
			<g style="opacity:0.45;">
				<polygon style="fill:#FFFFFF;" points="1868.77,888.314 1867.926,856.298 2043.785,845.053 2044.571,877.143 				"/>
				<polygon style="fill:#FFFFFF;" points="1871.135,978.011 1870.293,946.055 2045.993,935.017 2046.778,967.047 				"/>
				<polygon style="fill:#FFFFFF;" points="1873.496,1067.543 1872.656,1035.646 2048.197,1024.814 2048.98,1056.784 				"/>
				<polygon style="fill:#FFFFFF;" points="1875.853,1156.905 1875.015,1125.068 2050.396,1114.442 2051.178,1146.353 				"/>
				<polygon style="fill:#FFFFFF;" points="1878.206,1246.104 1877.369,1214.325 2052.592,1203.902 2053.372,1235.753 				"/>
				<polygon style="fill:#FFFFFF;" points="1882.897,1424.001 1882.064,1392.341 2056.97,1382.324 2057.748,1414.057 				"/>
				<polygon style="fill:#FFFFFF;" points="1889.903,1689.609 1889.073,1658.125 2063.508,1648.714 2064.281,1680.27 				"/>
				<polygon style="fill:#FFFFFF;" points="1880.554,1335.134 1879.719,1303.415 2054.783,1293.198 2055.562,1324.99 				"/>
				<polygon style="fill:#FFFFFF;" points="1885.237,1512.701 1884.405,1481.099 2059.153,1471.288 2059.93,1502.961 				"/>
				<polygon style="fill:#FFFFFF;" points="1887.572,1601.236 1886.741,1569.693 2061.332,1560.083 2062.107,1591.698 				"/>
				<polygon style="fill:#FFFFFF;" points="1892.229,1777.817 1891.401,1746.391 2065.679,1737.182 2066.451,1768.68 				"/>
				<polygon style="fill:#FFFFFF;" points="1894.551,1865.863 1893.725,1834.495 2067.846,1825.484 2068.616,1856.923 				"/>
				<polygon style="fill:#FFFFFF;" points="1896.869,1953.745 1896.044,1922.435 2070.009,1913.625 2070.778,1945.005 				"/>
				<polygon style="fill:#FFFFFF;" points="1899.183,2041.464 1898.359,2010.212 2072.168,2001.6 2072.935,2032.923 				"/>
				<polygon style="fill:#FFFFFF;" points="2098.141,873.737 2097.372,841.625 2274.239,830.315 2274.951,862.502 				"/>
				<polygon style="fill:#FFFFFF;" points="2100.299,963.706 2099.531,931.654 2276.237,920.55 2276.947,952.677 				"/>
				<polygon style="fill:#FFFFFF;" points="2102.452,1053.505 2101.687,1021.512 2278.231,1010.618 2278.94,1042.685 				"/>
				<polygon style="fill:#FFFFFF;" points="2104.602,1143.137 2103.837,1111.204 2280.221,1100.515 2280.929,1132.522 				"/>
				<polygon style="fill:#FFFFFF;" points="2106.748,1232.6 2105.985,1200.727 2282.207,1190.246 2282.914,1222.192 				"/>
				<polygon style="fill:#FFFFFF;" points="2111.027,1411.028 2110.266,1379.274 2286.17,1369.202 2286.873,1401.03 				"/>
				<polygon style="fill:#FFFFFF;" points="2117.416,1677.425 2116.66,1645.848 2292.085,1636.385 2292.785,1668.035 				"/>
				<polygon style="fill:#FFFFFF;" points="2108.889,1321.896 2108.127,1290.083 2284.191,1279.807 2284.896,1311.694 				"/>
				<polygon style="fill:#FFFFFF;" points="2113.161,1499.992 2112.401,1468.296 2288.146,1458.429 2288.848,1490.197 				"/>
				<polygon style="fill:#FFFFFF;" points="2115.291,1588.792 2114.532,1557.156 2290.117,1547.49 2290.818,1579.198 				"/>
				<polygon style="fill:#FFFFFF;" points="2119.538,1765.896 2118.782,1734.377 2294.05,1725.114 2294.749,1756.705 				"/>
				<polygon style="fill:#FFFFFF;" points="2121.656,1854.201 2120.902,1822.74 2296.01,1813.68 2296.708,1845.212 				"/>
				<polygon style="fill:#FFFFFF;" points="2123.769,1942.342 2123.017,1910.939 2297.968,1902.079 2298.664,1933.553 				"/>
				<polygon style="fill:#FFFFFF;" points="2125.879,2030.321 2125.128,1998.976 2299.921,1990.314 2300.616,2021.729 				"/>
			</g>
		</g>
		<g>
			<path style="fill:#7D97F4;" d="M1579.943,690.636c-0.102-8.38-2.551-16.351-6.799-22.129c-4.247-5.778-9.938-8.88-15.799-8.613
				l-474.251,21.66c-12.071,0.552-21.552,14.965-21.192,32.22l23.4,1122.623c0.355,17.036,10.18,30.536,22.104,30.37l467.863-2.077
				c5.837-0.082,8.266-7.873,12.337-13.852c4.071-5.98,6.304-14.035,6.203-22.378L1579.943,690.636z"/>
			<g style="opacity:0.45;">
				<polygon style="fill:#FFFFFF;" points="1143.109,789.531 1142.369,761.446 1296.631,751.583 1297.321,779.732 				"/>
				<polygon style="fill:#FFFFFF;" points="1145.184,868.213 1144.446,840.181 1298.568,830.498 1299.257,858.595 				"/>
				<polygon style="fill:#FFFFFF;" points="1147.255,946.75 1146.518,918.77 1300.501,909.268 1301.189,937.312 				"/>
				<polygon style="fill:#FFFFFF;" points="1149.323,1025.138 1148.587,997.21 1302.43,987.889 1303.117,1015.881 				"/>
				<polygon style="fill:#FFFFFF;" points="1151.386,1103.382 1150.652,1075.506 1304.356,1066.363 1305.041,1094.303 				"/>
				<polygon style="fill:#FFFFFF;" points="1155.502,1259.433 1154.77,1231.661 1308.197,1222.874 1308.88,1250.71 				"/>
				<polygon style="fill:#FFFFFF;" points="1161.647,1492.423 1160.919,1464.805 1313.932,1456.55 1314.61,1484.23 				"/>
				<polygon style="fill:#FFFFFF;" points="1153.446,1181.479 1152.713,1153.655 1306.279,1144.693 1306.962,1172.58 				"/>
				<polygon style="fill:#FFFFFF;" points="1157.554,1337.24 1156.824,1309.519 1310.113,1300.913 1310.793,1328.696 				"/>
				<polygon style="fill:#FFFFFF;" points="1159.602,1414.902 1158.873,1387.233 1312.024,1378.803 1312.704,1406.536 				"/>
				<polygon style="fill:#FFFFFF;" points="1163.687,1569.798 1162.961,1542.231 1315.837,1534.154 1316.514,1561.783 				"/>
				<polygon style="fill:#FFFFFF;" points="1165.724,1647.032 1165,1619.516 1317.737,1611.611 1318.413,1639.189 				"/>
				<polygon style="fill:#FFFFFF;" points="1167.758,1724.121 1167.034,1696.656 1319.635,1688.928 1320.31,1716.455 				"/>
				<polygon style="fill:#FFFFFF;" points="1169.787,1801.068 1169.065,1773.654 1321.529,1766.1 1322.202,1793.575 				"/>
				<polygon style="fill:#FFFFFF;" points="1344.312,776.745 1343.637,748.576 1498.784,738.655 1499.409,766.889 				"/>
				<polygon style="fill:#FFFFFF;" points="1346.205,855.665 1345.532,827.549 1500.537,817.808 1501.16,845.99 				"/>
				<polygon style="fill:#FFFFFF;" points="1348.094,934.435 1347.422,906.371 1502.286,896.815 1502.908,924.944 				"/>
				<polygon style="fill:#FFFFFF;" points="1349.98,1013.061 1349.309,985.049 1504.032,975.673 1504.653,1003.749 				"/>
				<polygon style="fill:#FFFFFF;" points="1351.862,1091.537 1351.192,1063.578 1505.774,1054.384 1506.394,1082.407 				"/>
				<polygon style="fill:#FFFFFF;" points="1355.616,1248.053 1354.948,1220.198 1509.25,1211.364 1509.867,1239.283 				"/>
				<polygon style="fill:#FFFFFF;" points="1361.22,1481.735 1360.557,1454.035 1514.439,1445.735 1515.053,1473.498 				"/>
				<polygon style="fill:#FFFFFF;" points="1353.741,1169.867 1353.072,1141.96 1507.514,1132.946 1508.132,1160.917 				"/>
				<polygon style="fill:#FFFFFF;" points="1357.487,1326.092 1356.821,1298.288 1510.983,1289.633 1511.599,1317.5 				"/>
				<polygon style="fill:#FFFFFF;" points="1359.356,1403.987 1358.691,1376.235 1512.712,1367.756 1513.328,1395.57 				"/>
				<polygon style="fill:#FFFFFF;" points="1363.081,1559.341 1362.419,1531.693 1516.162,1523.568 1516.775,1551.278 				"/>
				<polygon style="fill:#FFFFFF;" points="1364.939,1636.802 1364.278,1609.204 1517.882,1601.257 1518.494,1628.917 				"/>
				<polygon style="fill:#FFFFFF;" points="1366.793,1714.118 1366.133,1686.572 1519.599,1678.8 1520.209,1706.409 				"/>
				<polygon style="fill:#FFFFFF;" points="1368.644,1791.293 1367.985,1763.798 1521.313,1756.2 1521.922,1783.756 				"/>
			</g>
		</g>
		<g>
			<path style="fill:#BDD0FB;" d="M1945.865,974.775c-0.145-6.879-6.476-12.415-14.235-12.415h-470.646
				c-7.864,0-16.216,5.706-16.216,12.679v973.965c0,5.205,3.325,10.196,7.481,13.871c4.156,3.675,10.285,5.733,16.155,5.718
				l475.801-1.151c5.921-0.015,11.71-2.135,15.852-5.887c4.141-3.752,6.473-8.835,6.362-14.084L1945.865,974.775z"/>
			<g style="opacity:0.45;">
				<polygon style="fill:#FFFFFF;" points="1675.58,1031.383 1521.621,1030.911 1521.678,1013.83 1675.465,1014.261 				"/>
				<polygon style="fill:#FFFFFF;" points="1676.002,1094.298 1521.41,1093.673 1521.468,1076.452 1675.886,1077.035 				"/>
				<polygon style="fill:#FFFFFF;" points="1676.428,1157.733 1521.197,1156.952 1521.256,1139.588 1676.311,1140.327 				"/>
				<polygon style="fill:#FFFFFF;" points="1676.857,1221.696 1520.982,1220.757 1521.041,1203.249 1676.739,1204.144 				"/>
				<polygon style="fill:#FFFFFF;" points="1677.29,1286.191 1520.766,1285.09 1520.826,1267.437 1677.171,1268.493 				"/>
				<polygon style="fill:#FFFFFF;" points="1678.166,1416.805 1520.329,1415.375 1520.389,1397.425 1678.045,1398.808 				"/>
				<polygon style="fill:#FFFFFF;" points="1679.508,1616.896 1519.658,1614.952 1519.719,1596.541 1679.385,1598.438 				"/>
				<polygon style="fill:#FFFFFF;" points="1677.726,1351.224 1520.548,1349.961 1520.608,1332.16 1677.606,1333.379 				"/>
				<polygon style="fill:#FFFFFF;" points="1678.609,1482.94 1520.107,1481.342 1520.168,1463.24 1678.488,1464.792 				"/>
				<polygon style="fill:#FFFFFF;" points="1679.057,1549.634 1519.883,1547.864 1519.944,1529.609 1678.934,1531.332 				"/>
				<polygon style="fill:#FFFFFF;" points="1679.963,1684.733 1519.43,1682.611 1519.493,1664.044 1679.838,1666.117 				"/>
				<polygon style="fill:#FFFFFF;" points="1680.422,1753.152 1519.201,1750.849 1519.264,1732.123 1680.296,1734.376 				"/>
				<polygon style="fill:#FFFFFF;" points="1680.885,1822.162 1518.97,1819.677 1519.033,1800.789 1680.759,1803.224 				"/>
				<polygon style="fill:#FFFFFF;" points="1681.353,1891.769 1518.736,1889.097 1518.801,1870.045 1681.224,1872.666 				"/>
				<polygon style="fill:#FFFFFF;" points="1877.432,1032.003 1722.507,1031.527 1722.339,1014.392 1877.09,1014.826 				"/>
				<polygon style="fill:#FFFFFF;" points="1878.688,1095.119 1723.123,1094.489 1722.954,1077.213 1878.344,1077.799 				"/>
				<polygon style="fill:#FFFFFF;" points="1879.956,1158.757 1723.743,1157.971 1723.573,1140.552 1879.608,1141.295 				"/>
				<polygon style="fill:#FFFFFF;" points="1881.233,1222.927 1724.369,1221.982 1724.197,1204.417 1880.883,1205.319 				"/>
				<polygon style="fill:#FFFFFF;" points="1882.522,1287.632 1725,1286.525 1724.827,1268.814 1882.168,1269.877 				"/>
				<polygon style="fill:#FFFFFF;" points="1885.131,1418.679 1726.279,1417.24 1726.103,1399.23 1884.772,1400.623 				"/>
				<polygon style="fill:#FFFFFF;" points="1889.129,1619.445 1728.237,1617.488 1728.056,1599.016 1888.76,1600.924 				"/>
				<polygon style="fill:#FFFFFF;" points="1883.821,1352.88 1725.636,1351.609 1725.462,1333.75 1883.464,1334.976 				"/>
				<polygon style="fill:#FFFFFF;" points="1886.452,1485.035 1726.926,1483.427 1726.748,1465.265 1886.09,1466.827 				"/>
				<polygon style="fill:#FFFFFF;" points="1887.785,1551.955 1727.578,1550.173 1727.399,1531.857 1887.419,1533.591 				"/>
				<polygon style="fill:#FFFFFF;" points="1890.484,1687.516 1728.901,1685.38 1728.718,1666.749 1890.112,1668.835 				"/>
				<polygon style="fill:#FFFFFF;" points="1891.85,1756.171 1729.57,1753.854 1729.386,1735.063 1891.475,1737.33 				"/>
				<polygon style="fill:#FFFFFF;" points="1893.23,1825.422 1730.245,1822.92 1730.06,1803.966 1892.851,1806.417 				"/>
				<polygon style="fill:#FFFFFF;" points="1894.62,1895.273 1730.927,1892.584 1730.74,1873.465 1894.239,1876.103 				"/>
			</g>
		</g>
		<g>
			
				<linearGradient id="SVGID_00000150808545823386357920000000386477689360880267_" gradientUnits="userSpaceOnUse" x1="2592.1465" y1="934.4" x2="2119.0833" y2="2047.8301">
				<stop  offset="0" style="stop-color:#FF928E"/>
				<stop  offset="1" style="stop-color:#FE7062"/>
			</linearGradient>
			<path style="fill:url(#SVGID_00000150808545823386357920000000386477689360880267_);" d="M2461.221,1541.328
				c-11.33,5.445-22.811,10.075-34.256,13.414c-105.435,30.762-268.096,26.068-298.21-83.852
				c-3.733-13.628-4.746-28.11,0.346-41.431c14.982-39.19,81.627-38.949,106.581-72.973c23.872-32.548,5.698-72.753,10.687-108.146
				c5.644-40.045,52.574-65.066,92.882-81.789c47.022-19.508,96.665-35.319,139.722-60.354c43.058-25.035,79.94-61.61,86.42-104.923
				c20.683,29.134,14.451,66.415-0.003,98.033c-14.377,31.451-38.183,61.431-44.752,94.837c-3.488,17.74-14.35,34.421-30.315,46.559
				c-11.591,8.813-26.074,15.609-33.761,26.991c-11.013,16.307-8.828,49.721-1.135,66.95c10.774,24.127,41.173,38.365,67.848,20.845
				c11.771-7.732,19.737-18.645,28.582-28.713c38.243-43.533,97.52-73.937,161.52-82.848
				c-56.861,7.869-61.145,81.204-71.952,116.622c-4.042,13.245-8.098,26.529-14.052,39.266
				c-16.992,36.35-48.555,66.035-84.105,90.835C2519.148,1507.478,2490.697,1527.161,2461.221,1541.328z"/>
			
				<linearGradient id="SVGID_00000081640277607519493600000002444619506769771696_" gradientUnits="userSpaceOnUse" x1="2467.2959" y1="1271.1671" x2="1848.4352" y2="2263.6777">
				<stop  offset="0" style="stop-color:#FEBBBA"/>
				<stop  offset="1" style="stop-color:#FF928E"/>
			</linearGradient>
			<path style="fill:url(#SVGID_00000081640277607519493600000002444619506769771696_);" d="M2202.705,1419.379
				c15.864-17.716,35.554-34.666,50.009-49.874c18.193-19.141,33.838-41.393,40.492-65.345c4.231-15.233,4.792-30.996,7.877-46.418
				s9.13-31.097,22.242-42.316c9.415-8.056,21.902-13.317,31.104-21.542c-9.965,11.458-15.338,25.621-15.079,39.753
				c0.068,3.703,0.804,7.861,4.377,10.075c4.348,2.695,52.818-32.292,61.505-36.927c-29.247,15.605-42.091,47.669-47.132,74.56
				c-6.393,34.108,13.379,68.322-2.858,101.766c-5.856,12.062-17.151,18.745-24.819,29.645
				c-10.083,14.334-14.086,33.59-15.574,49.907c15.208-18.447,42.98-26.935,69.696-29.698s53.927-0.927,80.571-4.133
				c53.512-6.439,102.681-34.314,129.387-73.353c-2.542,9.149-8.737,17.26-14.829,25.17c-10.996,14.279-21.992,28.557-32.988,42.836
				c-13.135,17.057-26.357,34.209-42.818,49.145c-56.525,51.291-167.499,84.655-249.962,64.505
				c-18.244-4.458-37.022-9.155-51.738-19.158c-22.83-15.519-31.987-43.494-21.759-66.474
				C2185.235,1440.662,2193.297,1429.886,2202.705,1419.379z"/>
		</g>
		<g>
			
				<linearGradient id="SVGID_00000103243554337336759570000018113290360233945736_" gradientUnits="userSpaceOnUse" x1="1027.564" y1="330.1523" x2="1034.2582" y2="1347.7898">
				<stop  offset="0" style="stop-color:#FF928E"/>
				<stop  offset="1" style="stop-color:#FE7062"/>
			</linearGradient>
			<path style="fill:url(#SVGID_00000103243554337336759570000018113290360233945736_);" d="M968.627,638.003
				c-10.462-27.998-23.438-64.445-47.923-83.296c8.502,17.568,7.276,38.869-0.57,56.74c-9.799,22.318-28.716,32.726-43.763,51.126
				c-6.476,7.92-12.232,16.535-16.006,26.044c-9.678,24.388-5.318,52.552,5.815,76.311c11.133,23.759,28.451,43.978,45.557,63.873
				c-40.205-18.554-76.015-46-117.441-61.437c29.764,10.891,45.453,42.372,64.697,67.556c32.521,42.56,80.717,72.266,127.738,96.461
				c48.378,24.893,107.168,23.169,159.798,16.406c52.387-6.732,108.472-30.538,118.721-88.381
				c4.974-28.072-1.001-57.09-10.309-84.315c-6.839-20.004-15.544-39.568-27.629-57.19c-19.148-27.921-45.765-49.916-68.424-75.045
				c-19.074-21.154-48.758-49.547-54.787-77.512c-2.169-10.062-1.279-20.432-0.38-30.631c2.224-25.222,4.957-51.815,20.361-72.19
				c-45.037,26.666-75.07,75.141-78.148,126.134c-0.876,14.519,0.291,29.209-2.037,43.56c-2.328,14.352-8.834,28.893-21.459,36.78
				C994.824,686.247,976.805,659.889,968.627,638.003z"/>
			
				<linearGradient id="SVGID_00000056412264390043954190000010151340773516208298_" gradientUnits="userSpaceOnUse" x1="1124.0548" y1="693.3388" x2="668.7955" y2="1945.3022">
				<stop  offset="0" style="stop-color:#FEBBBA"/>
				<stop  offset="1" style="stop-color:#FF928E"/>
			</linearGradient>
			<path style="fill:url(#SVGID_00000056412264390043954190000010151340773516208298_);" d="M1165.855,777.49
				c4.793,9.195,9.444,18.466,13.181,28.485c4.328-2.537,6.104-6.508,7.329-11.513c4.064-16.597,2.767-34.463-3.652-50.299
				c1.304,3.216,13.984,9.303,17.11,12.753c5.564,6.142,8.715,12.983,11.887,20.502c5.942,14.083,11.127,27.452,13.709,42.68
				c6.417,37.845,17.498,92.904-28.196,110.04c-45.622,17.109-104.267,7.704-147.538-13.088
				c-28.732-13.805-54.175-33.746-76.974-56.024c-11.776-11.506-14.014-24.55-21.698-38.266
				c-8.222-14.676-19.298-27.194-22.85-44.175c-6.24-29.836,6.568-60.619,23.003-85.432
				c-28.785,43.461,39.765,95.838,72.696,110.161c18.386,7.997,38.145,12.316,56.964,19.233
				c18.819,6.917,37.36,17.033,48.833,33.476c1.348-23.681-15.381-44.449-20.222-67.669c-8.537-40.948,20.334-85.823,2.637-123.723
				c12.261,26.259,26.264,51.312,37.025,78.342C1153.958,755.181,1160.011,766.279,1165.855,777.49z"/>
		</g>
		<g>
			<path style="fill:#BDD0FB;" d="M1187.907,907.675c-0.114-9.362-2.85-18.267-7.596-24.723c-4.745-6.456-11.103-9.921-17.651-9.623
				l-529.84,24.199c-13.486,0.616-24.078,16.719-23.676,35.997l26.143,1254.211c0.397,19.033,11.374,34.115,24.695,33.93
				l522.703-2.32c6.522-0.091,9.234-8.796,13.783-15.476c4.549-6.681,7.043-15.68,6.93-25.001L1187.907,907.675z"/>
			<g style="opacity:0.45;">
				<polygon style="fill:#FFFFFF;" points="699.87,1018.162 699.043,986.785 871.387,975.765 872.158,1007.214 				"/>
				<polygon style="fill:#FFFFFF;" points="702.188,1106.066 701.363,1074.749 873.551,1063.931 874.32,1095.321 				"/>
				<polygon style="fill:#FFFFFF;" points="704.502,1193.809 703.678,1162.549 875.711,1151.934 876.479,1183.265 				"/>
				<polygon style="fill:#FFFFFF;" points="706.812,1281.385 705.99,1250.184 877.866,1239.77 878.633,1271.043 				"/>
				<polygon style="fill:#FFFFFF;" points="709.117,1368.801 708.297,1337.657 880.018,1327.443 880.783,1358.657 				"/>
				<polygon style="fill:#FFFFFF;" points="713.715,1543.142 712.898,1512.115 884.309,1502.299 885.071,1533.397 				"/>
				<polygon style="fill:#FFFFFF;" points="720.581,1803.442 719.768,1772.588 890.716,1763.365 891.474,1794.29 				"/>
				<polygon style="fill:#FFFFFF;" points="711.419,1456.052 710.6,1424.967 882.166,1414.954 882.929,1446.11 				"/>
				<polygon style="fill:#FFFFFF;" points="716.008,1630.07 715.192,1599.1 886.449,1589.485 887.21,1620.525 				"/>
				<polygon style="fill:#FFFFFF;" points="718.297,1716.835 717.482,1685.923 888.584,1676.505 889.344,1707.488 				"/>
				<polygon style="fill:#FFFFFF;" points="722.861,1889.887 722.049,1859.089 892.844,1850.065 893.6,1880.933 				"/>
				<polygon style="fill:#FFFFFF;" points="725.136,1976.174 724.326,1945.433 894.967,1936.602 895.722,1967.412 				"/>
				<polygon style="fill:#FFFFFF;" points="727.408,2062.299 726.599,2031.615 897.087,2022.981 897.841,2053.735 				"/>
				<polygon style="fill:#FFFFFF;" points="729.675,2148.265 728.868,2117.638 899.203,2109.198 899.955,2139.895 				"/>
				<polygon style="fill:#FFFFFF;" points="924.657,1003.877 923.903,972.406 1097.236,961.322 1097.933,992.866 				"/>
				<polygon style="fill:#FFFFFF;" points="926.772,1092.047 926.019,1060.635 1099.194,1049.754 1099.89,1081.238 				"/>
				<polygon style="fill:#FFFFFF;" points="928.882,1180.051 928.132,1148.697 1101.147,1138.021 1101.843,1169.447 				"/>
				<polygon style="fill:#FFFFFF;" points="930.989,1267.892 930.24,1236.598 1103.098,1226.122 1103.792,1257.489 				"/>
				<polygon style="fill:#FFFFFF;" points="933.092,1355.567 932.344,1324.331 1105.045,1314.06 1105.738,1345.367 				"/>
				<polygon style="fill:#FFFFFF;" points="937.286,1530.429 936.54,1499.309 1108.928,1489.439 1109.618,1520.631 				"/>
				<polygon style="fill:#FFFFFF;" points="943.547,1791.502 942.806,1760.556 1114.726,1751.282 1115.411,1782.3 				"/>
				<polygon style="fill:#FFFFFF;" points="935.191,1443.079 934.444,1411.901 1106.989,1401.83 1107.679,1433.08 				"/>
				<polygon style="fill:#FFFFFF;" points="939.377,1617.615 938.632,1586.553 1110.864,1576.883 1111.552,1608.016 				"/>
				<polygon style="fill:#FFFFFF;" points="941.464,1704.641 940.721,1673.636 1112.796,1664.163 1113.484,1695.238 				"/>
				<polygon style="fill:#FFFFFF;" points="945.626,1878.205 944.886,1847.316 1116.65,1838.238 1117.335,1869.197 				"/>
				<polygon style="fill:#FFFFFF;" points="947.702,1964.745 946.963,1933.912 1118.572,1925.033 1119.255,1955.935 				"/>
				<polygon style="fill:#FFFFFF;" points="949.773,2051.124 949.036,2020.349 1120.49,2011.666 1121.172,2042.511 				"/>
				<polygon style="fill:#FFFFFF;" points="951.841,2137.345 951.105,2106.627 1122.405,2098.138 1123.085,2128.925 				"/>
			</g>
		</g>
		<g>
			<path style="fill:#7D97F4;" d="M3050.351,3126.371c42.374,0,80.323-25.861,96.23-65.135
				c50.667-125.095,81.021-257.709,87.178-397.981c30.946-704.934-560.803-1303.563-1321.709-1336.967
				c-760.908-33.405-1402.83,511.111-1433.777,1216.045c-7.97,181.562,25.379,356.27,92.279,515.835
				c17.332,41.339,57.835,68.203,102.66,68.203H3050.351z"/>
			
				<linearGradient id="SVGID_00000165943200802224787350000013250498684561130896_" gradientUnits="userSpaceOnUse" x1="1443.2656" y1="1488.0706" x2="2187.356" y2="1488.0706">
				<stop  offset="0" style="stop-color:#4F52FF"/>
				<stop  offset="1" style="stop-color:#4042E2"/>
			</linearGradient>
			<path style="fill:url(#SVGID_00000165943200802224787350000013250498684561130896_);" d="M1447.421,1415.688
				c-20.301,37.846,40.073,37.233,46.079,79.758c54.35,5.923,76.671-79.767,130.421-89.769c30.334-5.644,59.746,16.09,76.229,42.172
				c16.484,26.082,24.173,56.706,38.144,84.216c31.304,61.639,95.942,105.02,164.845,110.635
				c14.991,1.222,31.511,0.263,42.795-9.681c32.758-28.866-14.107-83.095-1.932-125.025c13.912-47.914,83.001-40.645,129.697-58.217
				c12.88-4.847,111.94-31.28,113.534-44.949c2.824-24.233-43.132-39.66-94.543-52.88c-87.103-22.398-240.363-21.467-315.275-14.689
				C1677.75,1346.277,1511.7,1338.991,1447.421,1415.688L1447.421,1415.688z"/>
			<g style="opacity:0.68;">
				<path style="fill:#FFFFFF;" d="M1568.751,3126.291c-17.983-153.391-26.329-307.749-27.241-462.047
					c-0.65-154.292,5.231-308.635,19.487-462.266c6.626-76.852,15.273-153.561,26.871-229.875
					c11.585-76.304,25.953-152.262,44.822-227.234c9.546-37.451,20.111-74.684,32.537-111.365
					c12.37-36.687,26.515-72.876,43.583-107.847c17.156-34.847,37.162-68.848,63.893-98.154c3.295-3.689,6.914-7.116,10.402-10.645
					c3.743-3.301,7.261-6.827,11.252-9.878c7.65-6.446,16.12-12.036,25.015-16.909c17.807-9.701,38.611-15.072,59.346-13.977
					c10.317,0.756,20.536,2.813,30.167,6.302c9.591,3.537,18.781,7.983,27.31,13.347c17.068,10.73,31.886,24.218,45.208,38.725
					c26.41,29.335,47.146,62.701,65.312,97.015c9.088,17.183,17.326,34.762,25.132,52.504c7.79,17.748,15.08,35.7,21.847,53.832
					c13.661,36.219,25.521,73.052,36.27,110.163c21.393,74.271,38.055,149.756,51.687,225.702
					c13.632,75.959,23.965,152.454,31.961,229.153c17.46,153.255,25.044,307.61,24.387,461.895
					c-0.674,154.277-8.794,308.633-26.548,462.051c-0.402,3.475-3.547,5.966-7.022,5.564s-5.969-3.545-5.564-7.02l0.007-0.069
					c19.173-152.693,28.774-306.613,30.935-460.597c2.132-153.982-3.89-308.168-19.925-461.416
					c-8.816-76.526-20.127-152.765-34.622-228.377c-14.514-75.594-32.037-150.636-54.21-224.254
					c-11.137-36.781-23.367-73.234-37.342-108.968c-6.927-17.891-14.354-35.574-22.269-53.017
					c-7.921-17.435-16.257-34.676-25.397-51.455c-18.238-33.502-38.98-65.85-64.56-93.565c-12.874-13.69-27.015-26.174-42.723-35.78
					c-7.849-4.808-16.149-8.665-24.658-11.701c-8.536-2.983-17.408-4.616-26.286-5.171c-8.882-1.022-17.875,0.025-26.577,2.026
					c-8.702,2.073-17.264,5.136-25.263,9.519c-8.016,4.312-15.776,9.298-22.909,15.22c-3.704,2.765-7.028,6.061-10.543,9.094
					c-3.302,3.297-6.728,6.467-9.876,9.941c-25.567,27.516-45.463,60.458-62.553,94.488c-17.038,34.164-31.33,69.793-43.89,106.019
					c-12.615,36.221-23.423,73.103-33.23,110.25c-19.402,74.376-34.367,149.935-46.571,225.919
					c-12.197,75.997-21.533,152.47-28.735,229.143c-13.243,153.463-18.12,307.603-16.473,461.584
					c1.903,153.962,11.229,307.881,30.137,460.607c0.435,3.472-2.03,6.638-5.502,7.071c-3.472,0.435-6.636-2.028-7.071-5.5
					L1568.751,3126.291z"/>
				<path style="fill:#FFFFFF;" d="M980.01,3131.052c-2.847-11.419-6.231-22.65-9.16-34.011
					c-2.726-11.422-6.296-22.583-8.983-33.996l-4.302-17.035l-4.188-17.056l-4.269-17.028l-3.939-17.109
					c-1.285-5.709-2.671-11.396-3.867-17.123c-1.239-5.719-2.279-11.479-3.678-17.164c-2.775-11.375-5.07-22.852-7.545-34.299
					l-7.466-34.358c-2.465-11.468-4.55-23.008-6.839-34.526c-8.794-46.134-12.753-93.115-12.661-140.054
					c-0.216-23.464,0.32-46.901,0.5-70.294l0.164-35.087l0.163-17.54l0.461-17.537c2.615-93.513,13.06-186.851,31.902-278.515
					c18.653-91.694,45.809-181.676,81.294-268.292c17.846-43.262,37.855-85.635,59.938-126.906
					c22.197-41.208,46.613-81.227,73.158-119.794c53.37-76.88,115.528-147.996,186.92-208.761
					c71.272-60.745,151.664-111.301,238.771-146.214c86.979-34.995,180.578-53.984,274.442-54.205
					c93.851-0.568,187.669,17.361,275.027,51.589c87.476,34.118,168.427,83.97,240.225,144.244
					c71.759,60.443,134.805,130.915,188.548,207.694c27.022,38.308,51.464,78.387,74.037,119.451
					c22.475,41.129,42.595,83.52,60.761,126.713c72.187,173.077,110.51,359.672,116.8,546.962
					c3.168,93.677-1.399,187.651-14.037,280.588c-12.72,92.916-33.547,184.779-62.71,274.014c-1.245,3.813-5.345,5.894-9.16,4.649
					c-3.812-1.247-5.891-5.347-4.646-9.16l0.013-0.039l0.007-0.021c29.389-88.186,50.637-179.111,63.736-271.216
					c12.946-92.135,17.895-185.4,15.162-278.44c-2.674-93.045-13.432-185.869-32.246-277.048
					c-9.359-45.598-20.82-90.769-34.456-135.28c-13.609-44.514-29.193-88.441-47.104-131.409
					c-17.934-42.952-37.81-85.109-60.023-126.014c-22.311-40.838-46.479-80.701-73.21-118.802
					c-53.158-76.366-115.551-146.459-186.564-206.594c-71.056-59.965-151.167-109.58-237.754-143.609
					c-86.473-34.137-179.352-52.141-272.383-51.823c-93.047,0.081-185.838,18.888-272.154,53.527
					c-86.443,34.577-166.306,84.709-237.175,145.028c-70.994,60.337-132.873,131.022-186.034,207.492
					c-26.443,38.362-50.778,78.182-72.906,119.194c-22.014,41.076-41.968,83.258-59.774,126.335
					c-35.4,86.246-62.52,175.877-81.173,267.24c-18.843,91.332-29.317,184.355-31.988,277.572l-0.471,17.479l-0.173,17.486
					c-0.278,11.659,0.128,23.316,0.369,34.971c0.719,23.308,2.975,46.554,5.296,69.727c5.289,46.321,10.32,92.409,14.815,138.74
					c2.511,23.125,4.959,46.316,8.637,69.328c2.027,11.468,3.877,22.978,6.211,34.394c2.279,11.427,4.949,22.771,7.741,34.08
					c5.355,22.674,11.402,45.19,18.483,67.383c1.67,5.577,3.439,11.123,5.302,16.639c1.788,5.538,3.665,11.049,5.623,16.533
					c3.929,10.958,8.012,21.86,12.295,32.677l0.075,0.183c1.481,3.74-0.35,7.973-4.089,9.454c-3.743,1.483-7.973-0.348-9.457-4.09
					C980.19,3131.681,980.085,3131.346,980.01,3131.052z"/>
				<path style="fill:#FFFFFF;" d="M736.951,2129.561l287.427-1.757l287.427-1.006l574.854-0.807l574.854,0.888l287.427,1.093
					l287.43,1.903c0.353,0.002,0.637,0.292,0.634,0.646c0,0.351-0.284,0.634-0.634,0.636l-287.43,1.904l-287.427,1.093
					l-574.854,0.888l-574.854-0.807l-287.427-1.006l-287.427-1.758c-0.526-0.003-0.951-0.433-0.948-0.96
					C736.006,2129.987,736.427,2129.565,736.951,2129.561z"/>
				<path style="fill:#FFFFFF;" d="M1070.399,1648.145l204.066-1.764l204.063-1c68.022-0.426,136.044-0.38,204.066-0.512
					l204.063-0.295l408.129,0.888l204.066,1.091l204.063,1.904c0.356,0.003,0.637,0.293,0.634,0.647
					c-0.003,0.35-0.284,0.632-0.634,0.635l-204.063,1.904l-204.066,1.092l-408.129,0.888l-204.063-0.295
					c-68.022-0.132-136.044-0.086-204.066-0.512l-204.063-1l-204.066-1.764c-0.526-0.004-0.951-0.436-0.945-0.963
					C1069.457,1648.571,1069.879,1648.15,1070.399,1648.145z"/>
				<path style="fill:#FFFFFF;" d="M637.065,2610.976l312.399-1.757l312.399-1.005l624.795-0.808l624.798,0.888l312.396,1.094
					l312.399,1.903c0.353,0.003,0.641,0.291,0.637,0.646c-0.003,0.352-0.288,0.634-0.637,0.637l-312.399,1.903l-312.396,1.094
					l-624.798,0.888l-624.795-0.808l-312.399-1.005l-312.399-1.757c-0.526-0.003-0.951-0.433-0.948-0.961
					C636.12,2611.403,636.545,2610.979,637.065,2610.976z"/>
				<path style="fill:#FFFFFF;" d="M736.951,3092.393l287.427-1.759l287.427-1.005l574.854-0.806l574.854,0.887l287.427,1.092
					l287.43,1.904c0.353,0.002,0.637,0.291,0.634,0.646c0,0.35-0.284,0.634-0.634,0.636l-287.43,1.904l-287.427,1.092
					l-574.854,0.888l-574.854-0.806l-287.427-1.005l-287.427-1.759c-0.526-0.003-0.951-0.433-0.948-0.961
					C736.006,3092.817,736.427,3092.396,736.951,3092.393z"/>
			</g>
			
				<linearGradient id="SVGID_00000137844694355840323980000000702596721184837279_" gradientUnits="userSpaceOnUse" x1="690.7384" y1="2364.2534" x2="1945.0367" y2="2364.2534">
				<stop  offset="0" style="stop-color:#4F52FF"/>
				<stop  offset="1" style="stop-color:#4042E2"/>
			</linearGradient>
			<path style="fill:url(#SVGID_00000137844694355840323980000000702596721184837279_);" d="M878.491,2652.087
				c27.556-48.086,86.974,202.332,179.787,257.293c49.797,29.489,108.218,48.345,144.032,93.804
				c27.811,35.299,36.71,79.669,37.771,123.186h630.468c-79.402-53.56-131.62-164.785-228.686-170.872
				c-99.353-6.229-182.568,105.677-280.191,86.198c-54.425-10.858-91.677-58.865-132.076-96.915
				c-51.896-48.882-116.302-85.47-157.505-143.649c-41.201-58.181-48.212-151.127,10.404-191.709
				c43.54-30.145,105.405-17.885,148.421,13.007c43.016,30.892,72.313,76.738,103.903,119.244
				c9.756,13.127,20.797,26.737,36.407,31.623c42.004,13.15,72.654-45.942,62.604-88.794
				c-10.052-42.851-40.322-80.54-41.744-124.531c-2.506-77.53,80.985-126.723,154.228-152.271
				c73.243-25.547,159.572-56.004,181.105-130.526c7.607-26.324,5.611-55.289,17.22-80.109
				c38.47-82.253,241.474-123.316,192.95-171.011c-48.526-47.695-202.54-58.063-232.531-154.119
				c-10.737-34.388-21.791-79.844-57.664-83.17c-58.429-5.418-91.768,66.907-140.78,79.322
				c-23.266,5.893-25.505,45.412-24.598,94.007c0.659,35.273-27.398,64.404-62.671,65.071
				c-35.273,0.667-64.413-27.381-65.087-62.654c-0.248-13.092,2.043-26.327,7.429-39.524c9.436-23.129,27.355-41.625,45.422-58.875
				c75.381-71.976,300.313-151.058,253.211-181.696c-47.102-30.638-273.166-115.189-306.886-68.528
				c-33.72,46.661,22.051,7.151,35.654,62.49c13.602,55.34-167.231,47.919-250.845,71.879c-13.807,3.956-29.117,7.809-42.045,1.55
				c-14.448-6.995-20.531-23.812-28.37-37.82c-41.994-75.023-181.665-26.326-181.665-26.326s-43.444,25.061-70.49,68.481
				c-30.271,48.596-53.61,103.303-49.228,160.388c5.075,66.098,38.531,127.996,40.245,194.267
				c2.908,112.391-83.852,206.468-110.917,315.59c-30.25,121.971,83.807,260.943,129.248,329.021
				C870.464,2823.486,850.935,2700.172,878.491,2652.087z"/>
			
				<linearGradient id="SVGID_00000117651193951287240850000006225924464099102107_" gradientUnits="userSpaceOnUse" x1="2567.4246" y1="2460.1885" x2="3125.1387" y2="2460.1885">
				<stop  offset="0" style="stop-color:#4F52FF"/>
				<stop  offset="1" style="stop-color:#4042E2"/>
			</linearGradient>
			<path style="fill:url(#SVGID_00000117651193951287240850000006225924464099102107_);" d="M2697.923,3123.023h94.358
				c1.903-3.348,3.807-1.989,5.69-2.787c38.112-16.169,79.652-49.488,115.078-28.067c11.78,7.122,18.583,17.464,22.414,30.854
				h155.667c8.037-30.127,13.807-57.277,18.362-85.783c22.584-141.373,20.704-286.914-5.531-427.655
				c-6.999-37.545-23.382-82.449-61.188-87.853c-43.732-6.25-97.267,43.91-124.644,9.239c-12.084-15.304-7.262-37.623-0.417-55.881
				c18.053-48.155,46.316-92.471,82.376-129.136c22.403-22.778,48.035-42.978,65.284-69.869
				c36.896-57.513,10.997-141.563-41.223-185.633c-52.218-44.07-119.583,34.958-174.475,3.586
				c-54.892-31.371-56.6-107.48-66.915-169.856c-7.643-46.204-41.685-171.383-79.291-110.42
				c-37.605,60.963,50.162,303.645,148.942,419.975c11.914,14.031,25.072,29.746,24.065,48.127
				c-2.403,43.892-66.363,41.939-109.392,50.926c-53.262,11.125-134.898-17.401-89.846,75.411
				c23.76,48.95,137.257,115.947,106.76,148.706c-30.497,32.757-124.253,127.646-168.246,204.38
				c-43.991,76.737-65.312,172.88-32.136,254.875C2603.657,3065.698,2648.005,3106.286,2697.923,3123.023z"/>
			<path style="opacity:0.1;fill:#FFFFFF;" d="M2646.501,3123.023c136.239-170.722,217.018-382.882,217.018-613.38
				c0-564.59-484.491-1021.894-1082.141-1021.894c-597.652,0-1082.143,457.111-1082.143,1021.701
				c0,230.498,80.78,442.851,217.018,613.573H2646.501z"/>
		</g>
		<g>
			<g>
				<g>
					
						<linearGradient id="SVGID_00000104675260933611629330000006014686981320733628_" gradientUnits="userSpaceOnUse" x1="5917.9458" y1="1415.1577" x2="6365.9131" y2="1569.6292" gradientTransform="matrix(0.994 0.1092 -0.1092 0.994 -3587.8015 45.8821)">
						<stop  offset="0" style="stop-color:#F9B776"/>
						<stop  offset="1" style="stop-color:#F47960"/>
					</linearGradient>
					<path style="fill:url(#SVGID_00000104675260933611629330000006014686981320733628_);" d="M2516.485,2164.574
						c-26.567-18.308-75.403,32.669-75.403,32.669s-127.949,7.016-167.071-7.079c-39.122-14.095-33.076-168.03-33.076-168.03
						s-124.072-61.777-110.845,137.124c11.477,172.587,307.267,71.892,307.267,71.892s74.235,11.294,94.007-1.921
						C2551.136,2216.012,2543.052,2182.881,2516.485,2164.574z"/>
					
						<linearGradient id="SVGID_00000034777710771148084740000015177577022440038530_" gradientUnits="userSpaceOnUse" x1="5945.5063" y1="1340.7551" x2="6391.5234" y2="1494.5541" gradientTransform="matrix(0.994 0.1092 -0.1092 0.994 -3587.8015 45.8821)">
						<stop  offset="0" style="stop-color:#F9B776"/>
						<stop  offset="1" style="stop-color:#F47960"/>
					</linearGradient>
					<path style="fill:url(#SVGID_00000034777710771148084740000015177577022440038530_);" d="M2448.919,2190.613
						c0,0,12.649-33.093,40.436-37.929c27.787-4.836,26.928,0.388,22.245,7.445
						C2506.917,2167.186,2458.106,2207.255,2448.919,2190.613z"/>
					
						<linearGradient id="SVGID_00000097465034427408438380000017376662559447268242_" gradientUnits="userSpaceOnUse" x1="-3723.3215" y1="2140.2737" x2="-3217.4333" y2="2027.8541" gradientTransform="matrix(-1 0 0 1 -1452.5048 0)">
						<stop  offset="0" style="stop-color:#09005D"/>
						<stop  offset="1" style="stop-color:#1A0F91"/>
					</linearGradient>
					<path style="fill:url(#SVGID_00000097465034427408438380000017376662559447268242_);" d="M2274.012,2190.164
						c-39.122-14.096-8.002-177.174-8.002-177.174s-144.121-52.905-135.92,146.267c3.783,91.853,103.95,109.083,181.968,101.093
						c3.895-25.989,2.713-37.69,11.569-62.656C2317.84,2196.649,2278.102,2191.637,2274.012,2190.164z"/>
				</g>
				
					<linearGradient id="SVGID_00000150062911900901453060000017493489155806376617_" gradientUnits="userSpaceOnUse" x1="6307.873" y1="1489.4338" x2="6579.5771" y2="1720.1257" gradientTransform="matrix(0.994 0.1092 -0.1092 0.994 -3587.8015 45.8821)">
					<stop  offset="0" style="stop-color:#F9B776"/>
					<stop  offset="1" style="stop-color:#F47960"/>
				</linearGradient>
				<path style="fill:url(#SVGID_00000150062911900901453060000017493489155806376617_);" d="M2512.601,2165.585
					c0,0-31.162-5.378-32.854,14.465c-1.692,19.844-6.702,47.605,10.061,50.68c16.762,3.074,47.68,9.673,52.974-15.771
					C2548.077,2189.512,2516.506,2156.732,2512.601,2165.585z"/>
			</g>
			<g>
				<g>
					
						<linearGradient id="SVGID_00000025406424135608228260000003915525591012167834_" gradientUnits="userSpaceOnUse" x1="4809.5366" y1="2463.3938" x2="4726.4946" y2="3276.5098" gradientTransform="matrix(1 0 0 1 -2071.8015 0)">
						<stop  offset="0" style="stop-color:#E1473D"/>
						<stop  offset="1" style="stop-color:#E9605A"/>
					</linearGradient>
					<path style="fill:url(#SVGID_00000025406424135608228260000003915525591012167834_);" d="M2560.839,2413.007l351.448,76.747
						l-22.707,336.15c-0.169,2.497-2.485,4.166-4.722,3.403l-325.824-111.182c-3.364-1.148-5.647-4.481-5.647-8.246v-290.392
						C2553.387,2415.301,2556.99,2412.167,2560.839,2413.007z"/>
					
						<linearGradient id="SVGID_00000155107795634267548100000000859111811916033468_" gradientUnits="userSpaceOnUse" x1="3252.8298" y1="2340.3574" x2="2853.3616" y2="2717.5088">
						<stop  offset="0" style="stop-color:#FF928E"/>
						<stop  offset="1" style="stop-color:#FE7062"/>
					</linearGradient>
					<path style="fill:url(#SVGID_00000155107795634267548100000000859111811916033468_);" d="M2958.617,2811.318l-63.983,18.071
						c-2.535,0.716-5.019-1.321-5.019-4.116v-333.583c0-2.855,1.992-5.264,4.649-5.623l65.26-8.81
						c4.387-0.593,8.251,3.091,8.186,7.804l-4.4,319.854C2963.27,2807.928,2961.352,2810.545,2958.617,2811.318z"/>
					
						<linearGradient id="SVGID_00000033328064313784042940000004911195849987074196_" gradientUnits="userSpaceOnUse" x1="4988.4297" y1="2199.7458" x2="4625.3198" y2="2769.3308" gradientTransform="matrix(1 0 0 1 -2071.8015 0)">
						<stop  offset="0" style="stop-color:#FF928E"/>
						<stop  offset="1" style="stop-color:#FE7062"/>
					</linearGradient>
					<path style="fill:url(#SVGID_00000033328064313784042940000004911195849987074196_);" d="M2960.994,2474.543l-351.248-81.691
						l-46.92,15.425c-2.521,0.829-2.354,4.691,0.228,5.269l326.561,73.148l71.273-9.622
						C2962.232,2476.89,2962.317,2474.851,2960.994,2474.543z"/>
					
						<linearGradient id="SVGID_00000181084132959548218330000004182111522174914728_" gradientUnits="userSpaceOnUse" x1="2578.9189" y1="2609.4387" x2="2928.3889" y2="2609.4387">
						<stop  offset="0" style="stop-color:#E1473D"/>
						<stop  offset="1" style="stop-color:#E9605A"/>
					</linearGradient>
					<path style="fill:url(#SVGID_00000181084132959548218330000004182111522174914728_);" d="M2925.042,2821.749
						c-1.85,0-3.347-1.499-3.347-3.347v-334.138l-340.199-80.531c-1.798-0.427-2.913-2.229-2.485-4.029
						c0.422-1.8,2.233-2.905,4.028-2.486l342.775,81.141c1.51,0.358,2.576,1.706,2.576,3.258v336.786
						C2928.389,2820.25,2926.892,2821.749,2925.042,2821.749z"/>
					
						<linearGradient id="SVGID_00000005984537291132903980000010475002630690962592_" gradientUnits="userSpaceOnUse" x1="4976.4565" y1="2082.5886" x2="4774.6455" y2="2399.1548" gradientTransform="matrix(0.9993 0.0371 -0.0371 0.9993 -2046.4529 14.3869)">
						<stop  offset="0" style="stop-color:#E1473D"/>
						<stop  offset="1" style="stop-color:#E9605A"/>
					</linearGradient>
					<path style="fill:url(#SVGID_00000005984537291132903980000010475002630690962592_);" d="M2700.776,2424.002l1.354-38.842
						c0.137-3.927,3.44-6.859,7.088-6.293l101.497,15.743c3.445,0.534,5.802,3.986,5.219,7.644l-7.187,45.164
						c-0.52,3.269-3.233,5.621-6.342,5.498l0,0c-3.212-0.127-5.801-2.85-5.962-6.272l-1.733-36.841
						c-0.153-3.241-2.491-5.885-5.518-6.238l-63.902-7.446c-3.353-0.391-6.384,2.148-6.821,5.713l-2.882,23.517
						c-0.432,3.523-3.401,6.052-6.721,5.723l-2.469-0.244C2703.122,2430.503,2700.654,2427.507,2700.776,2424.002z"/>
				</g>
				
					<linearGradient id="SVGID_00000015327251718709641380000014435242081639851913_" gradientUnits="userSpaceOnUse" x1="4292.2534" y1="1249.8453" x2="3032.0886" y2="3226.5754" gradientTransform="matrix(1 0 0 1 -1383.1743 0)">
					<stop  offset="0" style="stop-color:#E1473D"/>
					<stop  offset="1" style="stop-color:#E9605A"/>
				</linearGradient>
				<path style="fill:url(#SVGID_00000015327251718709641380000014435242081639851913_);" d="M2454.6,1815.336
					c-2.821,0.14-226.524,16.752-226.524,16.752c-22.44,151.824,26.573,339.276,79.972,528.913
					c11.606,41.217,45.42,69.238,83.669,69.238h74.683L2454.6,1815.336z"/>
				
					<linearGradient id="SVGID_00000006679507641399860540000008124888945489636279_" gradientUnits="userSpaceOnUse" x1="4218.3584" y1="1288.9677" x2="3299.8823" y2="2729.7148" gradientTransform="matrix(1 0 0 1 -1383.1743 0)">
					<stop  offset="0" style="stop-color:#E1473D"/>
					<stop  offset="1" style="stop-color:#E9605A"/>
				</linearGradient>
				<path style="fill:url(#SVGID_00000006679507641399860540000008124888945489636279_);" d="M2601.81,1776.115l-335.906,7.772
					c-46.451,9.408-77.51,53.402-70.825,100.322l13.801,96.871c3.041,21.343,19.875,38.333,41.28,40.904
					c69.759,8.379,333.409,45.768,405.812-2.934l9.796-176.886C2667.786,1805.711,2638.31,1775.271,2601.81,1776.115z"/>
				
					<linearGradient id="SVGID_00000053513130845961695690000012256547871090647716_" gradientUnits="userSpaceOnUse" x1="4928.8696" y1="2982.583" x2="4433.5962" y2="3371.4731" gradientTransform="matrix(1 0 0 1 -2150.9429 0)">
					<stop  offset="0" style="stop-color:#09005D"/>
					<stop  offset="1" style="stop-color:#1A0F91"/>
				</linearGradient>
				<path style="fill:url(#SVGID_00000053513130845961695690000012256547871090647716_);" d="M2441.804,3194.999
					c1.232,4.481-0.213,6.888,4.022,7.779c32.447,6.823,96.492,0.559,118.144-2.272c4.777-0.624,8.269-5.042,8.348-10.03
					C2519.283,3196.512,2464.614,3197.037,2441.804,3194.999z"/>
				
					<linearGradient id="SVGID_00000096749584816896530050000001361539022752301224_" gradientUnits="userSpaceOnUse" x1="4991.606" y1="3101.51" x2="4537.4824" y2="3458.0894" gradientTransform="matrix(1 0 0 1 -2150.9429 0)">
					<stop  offset="0" style="stop-color:#09005D"/>
					<stop  offset="1" style="stop-color:#1A0F91"/>
				</linearGradient>
				<path style="fill:url(#SVGID_00000096749584816896530050000001361539022752301224_);" d="M2692.072,3192.578
					c-30.539-0.856-46.334-4.452-54.5-7.79c-0.02,3.036-0.002,6.126,0.096,9.329c0.105,3.42,2.638,6.151,5.754,6.131l167.676-1.082
					c5.351-0.035,8.479-6.241,6.159-11.147C2795.273,3189.834,2739.279,3193.898,2692.072,3192.578z"/>
				
					<linearGradient id="SVGID_00000018931192236164695320000001130788204004049585_" gradientUnits="userSpaceOnUse" x1="4128.3154" y1="2508.2517" x2="4105.7485" y2="3370.3477" gradientTransform="matrix(1 0 0 1 -1383.1743 0)">
					<stop  offset="0" style="stop-color:#4F52FF"/>
					<stop  offset="1" style="stop-color:#4042E2"/>
				</linearGradient>
				<path style="fill:url(#SVGID_00000018931192236164695320000001130788204004049585_);" d="M2816.594,3186.754
					c-13.905-19.43-48.014-56.941-113.828-76.24l-58.679,20.947l0.21-0.074c-3.471,13.055-6.595,30.97-6.726,53.402
					c8.166,3.338,23.961,6.934,54.5,7.789c47.207,1.321,103.201-2.743,125.186-4.559
					C2817.056,3187.591,2816.882,3187.156,2816.594,3186.754z"/>
				
					<linearGradient id="SVGID_00000106835463480536309680000002871820378513541797_" gradientUnits="userSpaceOnUse" x1="3908.0142" y1="2502.4849" x2="3885.447" y2="3364.5801" gradientTransform="matrix(1 0 0 1 -1383.1743 0)">
					<stop  offset="0" style="stop-color:#4F52FF"/>
					<stop  offset="1" style="stop-color:#4042E2"/>
				</linearGradient>
				<path style="fill:url(#SVGID_00000106835463480536309680000002871820378513541797_);" d="M2572.032,3187.656
					c-9.424-37.361-64.971-69.327-64.971-69.327l-55.769,7.974c-6.305,30.386-11.429,58.495-9.488,68.696
					c0.07,0.376,8.296-0.324,8.396,0.04c22.81,2.038,69.083,1.563,122.118-4.473
					C2572.333,3189.636,2572.271,3188.605,2572.032,3187.656z"/>
				
					<linearGradient id="SVGID_00000145017747061419930260000010583094630613009313_" gradientUnits="userSpaceOnUse" x1="2376.9858" y1="2236.4116" x2="2005.828" y2="2574.2603">
					<stop  offset="0" style="stop-color:#A22B25"/>
					<stop  offset="1" style="stop-color:#C0423C"/>
				</linearGradient>
				<path style="fill:url(#SVGID_00000145017747061419930260000010583094630613009313_);" d="M2344.515,2161.609
					c-14.792,16.397-41.777,35.124-57.254,44.101c23.904,28.431,63.673,62.698,106.05,90.208l12.483,26.647l37.5-46.71
					C2443.294,2275.854,2371.204,2232.561,2344.515,2161.609z"/>
				
					<linearGradient id="SVGID_00000115496599028789400530000017093756018657133745_" gradientUnits="userSpaceOnUse" x1="4634.728" y1="2994.9065" x2="4606.792" y2="3238.7109" gradientTransform="matrix(1 0 0 1 -2150.9429 0)">
					<stop  offset="0" style="stop-color:#F9B776"/>
					<stop  offset="1" style="stop-color:#F47960"/>
				</linearGradient>
				<path style="fill:url(#SVGID_00000115496599028789400530000017093756018657133745_);" d="M2449.424,3058.183l11.711,66.385
					c0.858,4.864,4.033,8.507,7.877,8.932c4.706,0.52,11.406,0.825,18.144-0.34c6.042-1.045,10.249-8.275,9.177-16.033l-8.14-58.944
					H2449.424z"/>
				
					<linearGradient id="SVGID_00000063615396079326664450000015363550671171835277_" gradientUnits="userSpaceOnUse" x1="3326.6333" y1="3474.2119" x2="2798.5427" y2="4178.3325" gradientTransform="matrix(1 0 0 1 -1383.1743 0)">
					<stop  offset="0" style="stop-color:#09005D"/>
					<stop  offset="1" style="stop-color:#1A0F91"/>
				</linearGradient>
				<path style="fill:url(#SVGID_00000063615396079326664450000015363550671171835277_);" d="M2636.835,2208.847
					c0,0,70.61,455.643,69.051,902.614c-0.029,8.149-18.224,23.109-25.164,26.076c-15.15,6.478-20.365,5.167-33.56,4.767
					c-7.043-0.214-9.58-2.944-10.765-10.473c-12.091-76.851-79.03-522.484-118.564-592.771c0,0-19.609,384.14-3.639,583.726
					c0.894,11.177-20.758,20.733-25.321,21.305c-6.923,0.868-16.901,4.695-30.996,3.072c-5.35-0.616-9.667-4.999-10.431-10.771
					c-8.613-65.042-58.183-452.193-56.076-731.082c0.119-15.727,8.374-196.463,8.374-196.463H2636.835z"/>
				
					<linearGradient id="SVGID_00000031889633389222974080000017936103407585841050_" gradientUnits="userSpaceOnUse" x1="4113.7891" y1="1859.0254" x2="3960.3274" y2="2242.6794" gradientTransform="matrix(1 0 0 1 -1383.1743 0)">
					<stop  offset="0" style="stop-color:#09005D"/>
					<stop  offset="1" style="stop-color:#1A0F91"/>
				</linearGradient>
				<path style="fill:url(#SVGID_00000031889633389222974080000017936103407585841050_);" d="M2512.214,2516.87
					c-1.444,0-2.766-0.97-3.143-2.436c-7.151-27.58-60.699-57.89-61.239-58.193c-1.565-0.878-2.125-2.86-1.245-4.426
					c0.879-1.566,2.851-2.126,4.427-1.245c2.302,1.291,56.507,31.975,64.35,62.232c0.45,1.738-0.594,3.513-2.331,3.962
					C2512.761,2516.837,2512.484,2516.87,2512.214,2516.87z"/>
				
					<linearGradient id="SVGID_00000008133633331189131350000010809967672908584088_" gradientUnits="userSpaceOnUse" x1="3798.8005" y1="2371.8413" x2="3763.052" y2="2912.8328" gradientTransform="matrix(1 0 0 1 -1383.1743 0)">
					<stop  offset="0" style="stop-color:#09005D"/>
					<stop  offset="1" style="stop-color:#1A0F91"/>
				</linearGradient>
				<path style="fill:url(#SVGID_00000008133633331189131350000010809967672908584088_);" d="M2397.224,2317.201l-1.15-1.367
					c25.768-21.692,41.875-43.866,49.244-67.789l1.709,0.525C2439.552,2272.833,2423.262,2295.282,2397.224,2317.201z"/>
				<path style="fill:#BDD0FB;" d="M2648.963,1819.925l14.505,240.406c33.762,53.541,64.763,179.847,83.568,303.16l52.057,12.833
					C2799.093,2111.05,2745.004,1847.316,2648.963,1819.925z"/>
				
					<linearGradient id="SVGID_00000023239960609632592650000005015793333139704457_" gradientUnits="userSpaceOnUse" x1="1324.5989" y1="3996.0339" x2="1411.5999" y2="3987.4639" gradientTransform="matrix(-0.3461 0.9382 0.8368 0.3087 -142.4779 -47.8712)">
					<stop  offset="0" style="stop-color:#A22B25"/>
					<stop  offset="1" style="stop-color:#C0423C"/>
				</linearGradient>
				<path style="fill:url(#SVGID_00000023239960609632592650000005015793333139704457_);" d="M2798.194,2379.469l-45.679-25.686
					c-7.185-4.04-16.457-1.02-21.059,6.929c-7.203,12.44-16.298,29.788-15.801,37.301c0.749,11.323,88.534,19.313,88.833-7.926
					C2804.538,2385.461,2801.852,2381.525,2798.194,2379.469z"/>
				<path style="fill:#BDD0FB;" d="M2686.024,1891.02c-13.438-16.206,15.458-27.7-1.87-51.602
					c-101.977-70.7-252.777-31.093-311.236-22.604c-19.169,2.784-36.563,12.588-48.948,27.481
					c-49.117,59.058-156.3,220.234-23.579,378.097c16.422-9.525,39.728-24.746,55.423-42.145
					c-15.112-40.177-17.263-91.844,11.611-155.796c1.122,5.005,2.487,9.954,4.123,14.82c43.925,130.521,6.09,335.937,7.905,361.059
					c3.233,44.746,293.819,39.738,289.347-11.62C2657.822,2262.65,2683.258,1893.931,2686.024,1891.02z"/>
				<path style="fill:#91B3FA;" d="M2349.672,2027.495c-23.44-64.148-14.937-141.61-14.848-142.384l6.459,0.738
					c-0.086,0.761-8.408,76.735,14.498,139.414L2349.672,2027.495z"/>
				
					<linearGradient id="SVGID_00000163768688175143795680000003040023333971442577_" gradientUnits="userSpaceOnUse" x1="3728.1165" y1="2107.2588" x2="3471.1606" y2="3277.8311" gradientTransform="matrix(1 0 0 1 -1383.1743 0)">
					<stop  offset="0" style="stop-color:#E1473D"/>
					<stop  offset="1" style="stop-color:#E9605A"/>
				</linearGradient>
				<path style="fill:url(#SVGID_00000163768688175143795680000003040023333971442577_);" d="M2350.177,1807.277
					c28.721,94.505,32.896,210.891,24.825,338.193l14.954,32.866c24.408-130.859,48.378-266.81,31.594-376.455L2350.177,1807.277z"
					/>
				
					<linearGradient id="SVGID_00000013876527381079982670000002102732248019431318_" gradientUnits="userSpaceOnUse" x1="3964.1948" y1="2159.0818" x2="3707.2385" y2="3329.656" gradientTransform="matrix(1 0 0 1 -1383.1743 0)">
					<stop  offset="0" style="stop-color:#E1473D"/>
					<stop  offset="1" style="stop-color:#E9605A"/>
				</linearGradient>
				<path style="fill:url(#SVGID_00000013876527381079982670000002102732248019431318_);" d="M2572.47,1798.097
					c8.268,83.352,73.929,252.049,98.847,349.572c7.402-104.077-31.076-274.705-40.17-337.588
					C2613.124,1798.738,2593.696,1794.116,2572.47,1798.097z"/>
				
					<linearGradient id="SVGID_00000039098287015948699830000003387607393299752627_" gradientUnits="userSpaceOnUse" x1="2520.7468" y1="1928.5393" x2="2495.3494" y2="1639.0071">
					<stop  offset="0" style="stop-color:#A22B25"/>
					<stop  offset="1" style="stop-color:#C0423C"/>
				</linearGradient>
				<path style="fill:url(#SVGID_00000039098287015948699830000003387607393299752627_);" d="M2466.09,1704.261l-11.208,114.515
					c0,0,64.421,19.404,111.277-13.656l-32.938-104.077L2466.09,1704.261z"/>
				<g>
					
						<linearGradient id="SVGID_00000067218377558538681600000000901734485796138129_" gradientUnits="userSpaceOnUse" x1="2175.7107" y1="3609.4685" x2="2311.8467" y2="3145.2671" gradientTransform="matrix(0.9939 0.11 -0.11 0.9939 -210.0694 111.8006)">
						<stop  offset="0" style="stop-color:#A22B25"/>
						<stop  offset="1" style="stop-color:#C0423C"/>
					</linearGradient>
					<path style="fill:url(#SVGID_00000067218377558538681600000000901734485796138129_);" d="M2546.41,1598.285
						c0,0,19.905,64.269,18.135,96.65c-1.77,32.38,2.854,54.03-35.075,56.392c-37.928,2.362-67.224-19.645-80.658-53.582
						c0,0-21.14-52.342-12.933-71.911C2444.088,1606.266,2546.41,1598.285,2546.41,1598.285z"/>
					
						<linearGradient id="SVGID_00000173866755824651571310000006527362367394564266_" gradientUnits="userSpaceOnUse" x1="2800.916" y1="1135.569" x2="2943.8982" y2="1319.6582" gradientTransform="matrix(0.9939 0.11 -0.11 0.9939 -210.0694 111.8006)">
						<stop  offset="0" style="stop-color:#09005D"/>
						<stop  offset="1" style="stop-color:#1A0F91"/>
					</linearGradient>
					<path style="fill:url(#SVGID_00000173866755824651571310000006527362367394564266_);" d="M2464.08,1676.104l2.222-0.699
						c2.828-0.89,4.337-3.973,3.272-6.74c-4.125-10.719-11.783-35.085,2.032-39.041c17.804-5.1,86.787-11.39,103.991-33.716
						c16.535-21.457,7.428-52.526-10.265-63.035c-1.184-0.703-2.703-0.417-3.476,0.722l-1.877,2.766
						c-1.285,1.893-4.221,1.26-4.612-0.995l0,0c-0.375-2.164-3.12-2.88-4.481-1.156c-5.267,6.667-18.63,16.94-51.592,19.326
						c-46.844,3.391-79.251,18.609-83.518,50.247c-0.271,2.01-2.539,2.893-4.144,1.654c-3.161-2.441-8.478-4.011-16.402,1.282
						c-13.781,9.205-11.666,37.276,13.469,62.955c1.194,1.22,0.956,3.268-0.568,4.036c-5.372,2.707-13.7,9.641,4.509,22.129
						c18.833,12.916,33.879,13.693,39.74,13.38c1.458-0.078,2.535-1.362,2.379-2.814l-3.057-28.561
						c-0.174-1.616,1.193-2.978,2.809-2.799L2464.08,1676.104z"/>
					
						<linearGradient id="SVGID_00000171707164875712653430000000446281827776438661_" gradientUnits="userSpaceOnUse" x1="2128.6924" y1="3595.6931" x2="2264.8286" y2="3131.491" gradientTransform="matrix(0.9939 0.11 -0.11 0.9939 -210.0694 111.8006)">
						<stop  offset="0" style="stop-color:#A22B25"/>
						<stop  offset="1" style="stop-color:#C0423C"/>
					</linearGradient>
					<path style="fill:url(#SVGID_00000171707164875712653430000000446281827776438661_);" d="M2464.584,1682.115
						c0,0-5.848-40.294-24.624-31.256c-18.776,9.038,4.255,44.894,18.211,47.922L2464.584,1682.115z"/>
				</g>
			</g>
			<g>
				
					<linearGradient id="SVGID_00000131361496037864598520000012329635194546269832_" gradientUnits="userSpaceOnUse" x1="6350.3711" y1="1750.0154" x2="5652.2383" y2="2521.8386" gradientTransform="matrix(1 0 0 1 -4054.177 0)">
					<stop  offset="0" style="stop-color:#FF928E"/>
					<stop  offset="1" style="stop-color:#FE7062"/>
				</linearGradient>
				<path style="fill:url(#SVGID_00000131361496037864598520000012329635194546269832_);" d="M2136.895,1969.862
					c-8.214,6.41-105.159,14.15-177.017,29.623c-52.121,11.224-87.245,60.11-81.241,113.087l8.591,75.802
					c1.073,9.469,11.078,15.133,19.749,11.179l203.518-92.793L2136.895,1969.862z"/>
				
					<linearGradient id="SVGID_00000010269400531803418730000006948545832230341251_" gradientUnits="userSpaceOnUse" x1="2352.208" y1="1698.8689" x2="2223.5322" y2="1901.0739">
					<stop  offset="0" style="stop-color:#FF928E"/>
					<stop  offset="1" style="stop-color:#FE7062"/>
				</linearGradient>
				<path style="fill:url(#SVGID_00000010269400531803418730000006948545832230341251_);" d="M2123.849,2436.376h-202.66
					c-8.448,0-15.297-6.849-15.297-15.297v-392.913c0-12.508,10.139-22.647,22.647-22.647h195.31V2436.376z"/>
				<g>
					
						<linearGradient id="SVGID_00000061429496384483705680000002011069684287370929_" gradientUnits="userSpaceOnUse" x1="-8363.7793" y1="3531.4646" x2="-8241.791" y2="2105.7258" gradientTransform="matrix(-1 0 0 1 -6194.9082 0)">
						<stop  offset="0" style="stop-color:#A22B25"/>
						<stop  offset="1" style="stop-color:#C0423C"/>
					</linearGradient>
					<path style="fill:url(#SVGID_00000061429496384483705680000002011069684287370929_);" d="M2154.967,2712.529l7.422,43.656
						c0,0-24.853,251.74-29.273,352.436c-0.694,15.787,3.391,31.389,11.676,44.844l43.216,70.177l-109.831-64.81l-2.186-13.403
						l17.979-24.72l-23.549-282.011c-1.384-16.567,2.035-33.182,9.846-47.857l22.717-42.677L2154.967,2712.529z"/>
					
						<linearGradient id="SVGID_00000150782866068386800240000011871928391204737716_" gradientUnits="userSpaceOnUse" x1="2697.543" y1="2520.9409" x2="2472.1448" y2="2587.8909">
						<stop  offset="0" style="stop-color:#FF928E"/>
						<stop  offset="1" style="stop-color:#FE7062"/>
					</linearGradient>
					<path style="fill:url(#SVGID_00000150782866068386800240000011871928391204737716_);" d="M2226.966,2293.434
						c25.36,47.247-2.464,181.188-63.287,455.54l-28.097,316.503c-17.832,14.631-36.424,19.72-55.813,14.79
						c-18.24-157.882-24.796-271.764,17.91-337.116l10.155-262.561l38.706-180.239L2226.966,2293.434z"/>
					
						<linearGradient id="SVGID_00000118360752524326941940000008921216824674303877_" gradientUnits="userSpaceOnUse" x1="6292.6489" y1="2784.0151" x2="6043.4775" y2="3796.2708" gradientTransform="matrix(1 0 0 1 -4054.177 0)">
						<stop  offset="0" style="stop-color:#09005D"/>
						<stop  offset="1" style="stop-color:#1A0F91"/>
					</linearGradient>
					<path style="fill:url(#SVGID_00000118360752524326941940000008921216824674303877_);" d="M2086.005,3131.659
						c0,0-48.4,49.89-11.62,61.196c36.78,11.305,132,49.177,137.823,30.788c7.27-22.956-76.685-91.983-76.685-91.983
						C2121.102,3139.15,2095.814,3140.279,2086.005,3131.659z"/>
				</g>
				<g>
					
						<linearGradient id="SVGID_00000169552723679892823280000018262980731499913389_" gradientUnits="userSpaceOnUse" x1="-7503.9551" y1="1424.2192" x2="-7381.9653" y2="-1.5357" gradientTransform="matrix(-0.9289 -0.3703 -0.3703 0.9289 -4604.8413 -600.6386)">
						<stop  offset="0" style="stop-color:#A22B25"/>
						<stop  offset="1" style="stop-color:#C0423C"/>
					</linearGradient>
					<path style="fill:url(#SVGID_00000169552723679892823280000018262980731499913389_);" d="M2128.033,2735.015l-9.271,43.301
						c0,0-116.302,224.643-157.694,316.544c-6.49,14.409-8.473,30.413-5.759,45.98l14.158,81.191l-78.026-100.872l5.757-10.359
						l23.03-19.206l82.55-270.685c4.849-15.901,14.177-30.07,26.867-40.809l36.905-31.232L2128.033,2735.015z"/>
					
						<linearGradient id="SVGID_00000085940248545466215320000017288603630038187191_" gradientUnits="userSpaceOnUse" x1="1966.8077" y1="2703.5557" x2="1456.0344" y2="2946.2437">
						<stop  offset="0" style="stop-color:#FF928E"/>
						<stop  offset="1" style="stop-color:#FE7062"/>
					</linearGradient>
					<path style="fill:url(#SVGID_00000085940248545466215320000017288603630038187191_);" d="M1925.309,3041.736
						c12.291,23.507,33.128,29.169,56.258,30.046l143.85-301.41l19.312-318.205l17.161-177.732l-100.275,8.835
						c-101.382,59.257-41.741,274.714,0.594,469.272C1992.127,2775.725,1961.778,2910.791,1925.309,3041.736z"/>
					
						<linearGradient id="SVGID_00000112591238024987594630000015023565593083173563_" gradientUnits="userSpaceOnUse" x1="4258.4712" y1="3383.4778" x2="4009.2993" y2="4395.7349" gradientTransform="matrix(0.9436 -0.3311 0.3311 0.9436 -3240.4629 973.2373)">
						<stop  offset="0" style="stop-color:#09005D"/>
						<stop  offset="1" style="stop-color:#1A0F91"/>
					</linearGradient>
					<path style="fill:url(#SVGID_00000112591238024987594630000015023565593083173563_);" d="M1916.609,3090.911
						c0,0-50.816,27.542-23.561,63.195c27.254,35.653,73.487,102.984,94.523,78.893c21.036-24.091-37.982-96.008-31.934-121.137
						C1923.692,3101.064,1916.609,3090.911,1916.609,3090.911z"/>
				</g>
				
					<linearGradient id="SVGID_00000078751899722280118380000011819793559335953854_" gradientUnits="userSpaceOnUse" x1="1871.5519" y1="1558.7749" x2="1983.135" y2="1766.3196">
					<stop  offset="0" style="stop-color:#09005D"/>
					<stop  offset="1" style="stop-color:#1A0F91"/>
				</linearGradient>
				<path style="fill:url(#SVGID_00000078751899722280118380000011819793559335953854_);" d="M2096.511,2280.726
					c37.556-159.145-41.693-278.034-41.693-278.034c45.199-43.385,115.386-46.255,147.315-45.024
					c11.016,0.425,21.55,4.451,30.112,11.395c25.389,20.592,77.517,69.203,68.086,114.692
					c-7.258,35.005-73.365,209.678-73.365,209.678S2165.838,2322.364,2096.511,2280.726z"/>
				
					<linearGradient id="SVGID_00000101813847630436801150000007030918439223670960_" gradientUnits="userSpaceOnUse" x1="6257.6079" y1="1621.9736" x2="6229.0571" y2="2003.5171" gradientTransform="matrix(1 0 0 1 -4054.177 0)">
					<stop  offset="0" style="stop-color:#F9B776"/>
					<stop  offset="1" style="stop-color:#F47960"/>
				</linearGradient>
				<path style="fill:url(#SVGID_00000101813847630436801150000007030918439223670960_);" d="M2167.465,1842.555l-30.57,127.307
					c-2.923,12.081,8.041,15.848,20.339,17.65c28.907,4.237,50.794-6.707,54.402-27.102c0.315-1.784,1.315-3.375,1.562-5.17
					l13.118-95.107c1.041-7.546-3.038-14.869-10.002-17.956L2191,1830.952C2181.253,1826.63,2169.972,1832.192,2167.465,1842.555z"
					/>
				<g>
					
						<linearGradient id="SVGID_00000158720172805006227440000016640223617100850578_" gradientUnits="userSpaceOnUse" x1="1809.95" y1="1668.4274" x2="1872.4365" y2="1835.8019">
						<stop  offset="0" style="stop-color:#09005D"/>
						<stop  offset="1" style="stop-color:#1A0F91"/>
					</linearGradient>
					<path style="fill:url(#SVGID_00000158720172805006227440000016640223617100850578_);" d="M1911.414,2348.846
						c-42.635-182.001,143.404-346.154,143.404-346.154c44.349,10.158,55.712,39.383,43.774,82.076
						c-87.548,82.076-120.378,175.096-127.103,253.351C1959.626,2334.664,1931.059,2329.206,1911.414,2348.846z"/>
					
						<linearGradient id="SVGID_00000088827594055344040110000005242617410020081840_" gradientUnits="userSpaceOnUse" x1="-3587.8176" y1="2413.5615" x2="-3674.0037" y2="2579.3044" gradientTransform="matrix(-1 0 0 1 -1617.2043 0)">
						<stop  offset="0" style="stop-color:#A22B25"/>
						<stop  offset="1" style="stop-color:#C0423C"/>
					</linearGradient>
					<path style="fill:url(#SVGID_00000088827594055344040110000005242617410020081840_);" d="M1971.49,2338.12
						c-8.315,34.352-7.44,59.982-6.176,72.218c0.452,4.372,2.643,7.94,7.269,8.151c2.148,0.098,4.348-0.22,6.421,0.351
						s4.037,2.448,3.715,4.574c-0.153,1.01-0.789,1.887-1.024,2.881c-0.463,1.957,0.744,3.989,2.367,5.176
						c1.623,1.187,3.609,1.739,5.503,2.415c7.515,2.684,15.423,7.563,22.512,11.223c2.077,1.073,2.44,3.904,2.095,6.216
						c-3.062,20.531-31.809,18.579-45.565,11.47c-8.398-4.34-16.018-11.317-21.167-19.272
						c-21.119-32.632-32.037-64.541-36.026-94.677C1931.059,2329.206,1959.626,2334.664,1971.49,2338.12z"/>
				</g>
				
					<linearGradient id="SVGID_00000022558402723121530160000001402130055703904135_" gradientUnits="userSpaceOnUse" x1="2423.844" y1="1816.0039" x2="2341.2725" y2="1891.8805">
					<stop  offset="0" style="stop-color:#E1473D"/>
					<stop  offset="1" style="stop-color:#E9605A"/>
				</linearGradient>
				<path style="fill:url(#SVGID_00000022558402723121530160000001402130055703904135_);" d="M2072.993,1985.915
					c68.868,105.607-13.334,312.288-34.842,320.472c94.41-18.999,129.594-191.38,76.968-338.046
					C2099.665,1967.178,2083.858,1972.333,2072.993,1985.915z"/>
				
					<linearGradient id="SVGID_00000090282533112583225760000012413038530206455462_" gradientUnits="userSpaceOnUse" x1="1678.8232" y1="1662.3912" x2="1790.4064" y2="1869.9359">
					<stop  offset="0" style="stop-color:#09005D"/>
					<stop  offset="1" style="stop-color:#1A0F91"/>
				</linearGradient>
				<path style="fill:url(#SVGID_00000090282533112583225760000012413038530206455462_);" d="M2094.545,2246.253
					c-111.725,56.964-124.198,269.433-131.695,455.714c91.851,23.354,183.038,57.669,279.157,10.562l10.832-493.754
					L2094.545,2246.253z"/>
				
					<linearGradient id="SVGID_00000178181599780179549390000006271081805177518729_" gradientUnits="userSpaceOnUse" x1="2130.3523" y1="2117.4592" x2="2195.0706" y2="1938.9263">
					<stop  offset="0" style="stop-color:#FEBBBA"/>
					<stop  offset="1" style="stop-color:#FF928E"/>
				</linearGradient>
				<path style="fill:url(#SVGID_00000178181599780179549390000006271081805177518729_);" d="M2098.093,1859.407
					c1.729,32.211-26.144,63.477-38.468,88.785c-12.044,24.733-3.293,54.532,20.102,69.005
					c50.51,31.247,113.373,51.746,193.196,39.954c13.937-2.059,21.886-16.947,15.742-29.625
					c-19.387-40.004-42.517-106.102-22.796-173.316L2098.093,1859.407z"/>
				
					<linearGradient id="SVGID_00000047747807513942059830000014794552442710760853_" gradientUnits="userSpaceOnUse" x1="2371.2546" y1="1670.2489" x2="2563.177" y2="1536.3495">
					<stop  offset="0" style="stop-color:#FEBBBA"/>
					<stop  offset="1" style="stop-color:#FF928E"/>
				</linearGradient>
				<path style="fill:url(#SVGID_00000047747807513942059830000014794552442710760853_);" d="M2284.054,1808.361
					c0,73.161-48.981,132.47-109.401,132.47c-25.802,0-98.875-46.632-98.875-119.793s18.177-145.147,98.875-145.147
					C2235.073,1675.891,2284.054,1735.2,2284.054,1808.361z"/>
				<g>
					
						<linearGradient id="SVGID_00000149354510152844299240000003946778940971837605_" gradientUnits="userSpaceOnUse" x1="2257.9402" y1="1614.5073" x2="2178.6479" y2="1931.6772">
						<stop  offset="0" style="stop-color:#A22B25"/>
						<stop  offset="1" style="stop-color:#C0423C"/>
					</linearGradient>
					<path style="fill:url(#SVGID_00000149354510152844299240000003946778940971837605_);" d="M2257.495,1776.43
						c0,0,12.601,32.319-5.362,80.088c-17.963,47.77-50.299,46.285-66.605,33.712c-16.307-12.573-31.497-30.026-32.584-73.937
						C2151.858,1772.382,2240.005,1735.495,2257.495,1776.43z"/>
				</g>
			</g>
			<g>
				
					<linearGradient id="SVGID_00000078723516974218999590000017203837610553515961_" gradientUnits="userSpaceOnUse" x1="1139.1471" y1="2220.2061" x2="1186.012" y2="2436.6775" gradientTransform="matrix(1 0 0 1 265.5923 0)">
					<stop  offset="0" style="stop-color:#09005D"/>
					<stop  offset="1" style="stop-color:#1A0F91"/>
				</linearGradient>
				<path style="fill:url(#SVGID_00000078723516974218999590000017203837610553515961_);" d="M1549.064,2534.387h-58.448
					c-27.583,0-51.449,19.197-57.36,46.14l-34.597,157.683c-8.592,39.161,23.716,75.228,63.583,70.979l32.659-3.48
					c21.787-2.322,40.469-16.579,48.459-36.981l60.385-154.202C1618.829,2576.01,1590.428,2534.387,1549.064,2534.387z"/>
				<g>
					
						<linearGradient id="SVGID_00000023977171394558924290000011298438657104447677_" gradientUnits="userSpaceOnUse" x1="5229.6577" y1="3112.3547" x2="5196.0679" y2="3205.1267" gradientTransform="matrix(1 0 0 1 -3759.0344 0)">
						<stop  offset="0" style="stop-color:#4F52FF"/>
						<stop  offset="1" style="stop-color:#4042E2"/>
					</linearGradient>
					<path style="fill:url(#SVGID_00000023977171394558924290000011298438657104447677_);" d="M1418.493,3127.304
						c0,0-19.194,9.597-4.799,23.993c14.396,14.396,38.388,23.993,71.978,33.59c33.59,9.597-14.396-33.59-33.59-38.388
						C1432.888,3141.7,1418.493,3127.304,1418.493,3127.304z"/>
					
						<linearGradient id="SVGID_00000051380970127207040240000000690923852741309095_" gradientUnits="userSpaceOnUse" x1="5172.9043" y1="2979.1423" x2="5350.2744" y2="2979.1423" gradientTransform="matrix(1 0 0 1 -3759.0344 0)">
						<stop  offset="0" style="stop-color:#09005D"/>
						<stop  offset="1" style="stop-color:#1A0F91"/>
					</linearGradient>
					<path style="fill:url(#SVGID_00000051380970127207040240000000690923852741309095_);" d="M1524.061,2820.197
						c0,0-114.556,241.296-110.062,310.19c0,0,14.091,11.312,33.285,6.513c0,0,119.964-235.128,143.956-254.323L1524.061,2820.197z"
						/>
					
						<linearGradient id="SVGID_00000137119794001552239750000014622862596845267082_" gradientUnits="userSpaceOnUse" x1="5445.5762" y1="3125.9622" x2="5389.5933" y2="3258.7217" gradientTransform="matrix(1 0 0 1 -3759.0344 0)">
						<stop  offset="0" style="stop-color:#4F52FF"/>
						<stop  offset="1" style="stop-color:#4042E2"/>
					</linearGradient>
					<path style="fill:url(#SVGID_00000137119794001552239750000014622862596845267082_);" d="M1620.031,3160.894
						c0,0,0,19.194,9.597,23.993c9.597,4.799,91.172-14.396,95.971-28.791C1730.398,3141.7,1629.628,3156.095,1620.031,3160.894z"/>
					
						<linearGradient id="SVGID_00000044858879903583017580000011060762227315393718_" gradientUnits="userSpaceOnUse" x1="5278.2964" y1="2980.9485" x2="5403.0586" y2="2980.9485" gradientTransform="matrix(1 0 0 1 -3759.0344 0)">
						<stop  offset="0" style="stop-color:#09005D"/>
						<stop  offset="1" style="stop-color:#1A0F91"/>
					</linearGradient>
					<path style="fill:url(#SVGID_00000044858879903583017580000011060762227315393718_);" d="M1519.262,2796.205
						c0,4.799,33.59,249.524,91.172,369.488c0,0,19.194,0,33.59-14.396c0,0-33.59-273.517-33.59-335.898L1519.262,2796.205z"/>
					
						<linearGradient id="SVGID_00000163037105358313170760000000507389531256863915_" gradientUnits="userSpaceOnUse" x1="5571.7319" y1="2466.7881" x2="5239.0332" y2="3063.4067" gradientTransform="matrix(1 0 0 1 -3759.0344 0)">
						<stop  offset="0" style="stop-color:#FF928E"/>
						<stop  offset="1" style="stop-color:#FE7062"/>
					</linearGradient>
					<path style="fill:url(#SVGID_00000163037105358313170760000000507389531256863915_);" d="M1907.944,2435.824
						c0,0-158.352,86.374-235.129,95.971c0,0-4.798,76.777,28.791,110.366c0,0,167.949-105.568,215.934-177.546L1907.944,2435.824z"
						/>
					
						<linearGradient id="SVGID_00000123436477928255383690000013136270962018533823_" gradientUnits="userSpaceOnUse" x1="5665.8286" y1="2424.8499" x2="5724.061" y2="2424.8499" gradientTransform="matrix(1 0 0 1 -3759.0344 0)">
						<stop  offset="0" style="stop-color:#A22B25"/>
						<stop  offset="1" style="stop-color:#C0423C"/>
					</linearGradient>
					<path style="fill:url(#SVGID_00000123436477928255383690000013136270962018533823_);" d="M1914.605,2452.538
						c0,0-16.259-30.619-1.863-35.418c14.396-4.799,38.388-23.993,47.985-19.194
						C1970.325,2402.724,1967.39,2447.739,1914.605,2452.538z"/>
					
						<linearGradient id="SVGID_00000165225105040885806310000003809905346560501142_" gradientUnits="userSpaceOnUse" x1="5530.0327" y1="2435.6099" x2="5174.5674" y2="3073.0557" gradientTransform="matrix(1 0 0 1 -3759.0344 0)">
						<stop  offset="0" style="stop-color:#FF928E"/>
						<stop  offset="1" style="stop-color:#FE7062"/>
					</linearGradient>
					<path style="fill:url(#SVGID_00000165225105040885806310000003809905346560501142_);" d="M1543.255,2550.989
						c0,0,127.769-17.923,162.254-28.156c0,0,15.292,42.551,20.09,71.342c4.586,27.516-105.568,124.511-93.746,382.349
						c1.214,26.491-187.103,7.052-188.484-17.189c-1.737-30.47,5.722-140.871,8.714-158.823
						C1466.478,2714.139,1543.255,2550.989,1543.255,2550.989z"/>
					
						<linearGradient id="SVGID_00000168100692857891862460000008810044630703438479_" gradientUnits="userSpaceOnUse" x1="5336.9102" y1="2499.8948" x2="5417.4541" y2="2499.8948" gradientTransform="matrix(1 0 0 1 -3759.0344 0)">
						<stop  offset="0" style="stop-color:#A22B25"/>
						<stop  offset="1" style="stop-color:#C0423C"/>
					</linearGradient>
					<path style="fill:url(#SVGID_00000168100692857891862460000008810044630703438479_);" d="M1605.636,2450.71l-26.83,76.656
						c-3.679,10.511,4.006,21.517,15.141,21.697c12.46,0.201,28.96-1.333,46.05-8.05c5.466-2.148,9.24-7.24,9.968-13.069
						l8.455-67.637L1605.636,2450.71z"/>
					<g>
						
							<linearGradient id="SVGID_00000034787427693205943470000014632193661476253342_" gradientUnits="userSpaceOnUse" x1="3832.8401" y1="4172.6357" x2="3764.4949" y2="4042.0356" gradientTransform="matrix(0.9011 -0.4336 0.4336 0.9011 -3612.7861 336.2941)">
							<stop  offset="0" style="stop-color:#09005D"/>
							<stop  offset="1" style="stop-color:#1A0F91"/>
						</linearGradient>
						
							<path style="fill-rule:evenodd;clip-rule:evenodd;fill:url(#SVGID_00000034787427693205943470000014632193661476253342_);" d="
							M1701.589,2407.262c-0.225-3.135-1.077-6.31-2.932-9.236c-2.88-4.542-3.659-10.044-3.234-15.405
							c0.505-6.381-0.692-14.89-8.026-22.318c-1.606-1.626-2.884-3.535-3.963-5.551c-6.408-11.971-30.833-49.21-74.705-20.692
							c-4.611,2.998-10.121,4.362-15.604,3.929c-13.838-1.093-41.496,2.017-54.328,40.708c-1.294,3.903-3.471,7.419-6.28,10.423
							c-3.953,4.227-8.752,12.428-5.331,25.617c0.441,1.698,0.758,3.428,0.81,5.182c0.409,13.719,5.764,77.94,70.687,53.774
							c0.803-0.299,1.611-0.65,2.383-1.021l85.743-41.226C1696.066,2426.997,1702.323,2417.507,1701.589,2407.262z"/>
						
							<linearGradient id="SVGID_00000048502519745329008080000008410326517645518749_" gradientUnits="userSpaceOnUse" x1="3878.1396" y1="-5696.4375" x2="3881.4873" y2="-5590.9912" gradientTransform="matrix(0.9402 -0.3405 0.3405 0.9402 -3619 218.113)">
							<stop  offset="0" style="stop-color:#A22B25"/>
							<stop  offset="1" style="stop-color:#C0423C"/>
						</linearGradient>
						
							<path style="fill-rule:evenodd;clip-rule:evenodd;fill:url(#SVGID_00000048502519745329008080000008410326517645518749_);" d="
							M1672.458,2379.626c0,0,62.527,94.217-2.076,123.077c-60.972,27.237-86.664-35.326-86.664-35.326
							s-26.811-27.778-17.805-49.166C1574.919,2396.825,1657.218,2367.919,1672.458,2379.626z"/>
						
							<linearGradient id="SVGID_00000062896001748967785910000009765397817421907328_" gradientUnits="userSpaceOnUse" x1="4199.0337" y1="3876.5115" x2="4133.8452" y2="3751.9431" gradientTransform="matrix(0.9402 -0.3405 0.3405 0.9402 -3619 218.113)">
							<stop  offset="0" style="stop-color:#09005D"/>
							<stop  offset="1" style="stop-color:#1A0F91"/>
						</linearGradient>
						
							<path style="fill-rule:evenodd;clip-rule:evenodd;fill:url(#SVGID_00000062896001748967785910000009765397817421907328_);" d="
							M1577.621,2452.538c0,0,61.197-19.372,55.964-55.514c0,0,10.601,1.059,13.854-11.428c0,0,30.032,27.016,37.946,8.125
							c0,0-5.258-46.778-41.949-31.619c-36.691,15.159-70.203,30.576-80.025,41.368
							C1553.59,2414.262,1545.436,2440.379,1577.621,2452.538z"/>
						
							<linearGradient id="SVGID_00000116216442151425088320000005563591162611532939_" gradientUnits="userSpaceOnUse" x1="3817.2493" y1="-5694.48" x2="3820.5967" y2="-5589.0337" gradientTransform="matrix(0.9402 -0.3405 0.3405 0.9402 -3619 218.113)">
							<stop  offset="0" style="stop-color:#A22B25"/>
							<stop  offset="1" style="stop-color:#C0423C"/>
						</linearGradient>
						
							<path style="fill-rule:evenodd;clip-rule:evenodd;fill:url(#SVGID_00000116216442151425088320000005563591162611532939_);" d="
							M1591.743,2475.788l-10.871-29.885c0,0-21.006-9.652-18.24,6.606C1565.399,2468.767,1584.276,2477.748,1591.743,2475.788z"/>
					</g>
					
						<linearGradient id="SVGID_00000058575219397548713600000001958834945383016366_" gradientUnits="userSpaceOnUse" x1="5176.9717" y1="2843.657" x2="5220.7139" y2="2843.657" gradientTransform="matrix(1 0 0 1 -3759.0344 0)">
						<stop  offset="0" style="stop-color:#A22B25"/>
						<stop  offset="1" style="stop-color:#C0423C"/>
					</linearGradient>
					<path style="fill:url(#SVGID_00000058575219397548713600000001958834945383016366_);" d="M1428.09,2805.802
						c0,0-19.194,47.985-4.799,67.179c14.396,19.194,38.388,0,38.388,0l-9.597-19.194c0,0,0-38.388,0-43.187
						C1452.082,2805.802,1428.09,2805.802,1428.09,2805.802z"/>
					
						<linearGradient id="SVGID_00000015351822311985232940000015729930456101600644_" gradientUnits="userSpaceOnUse" x1="5187.124" y1="2682.2393" x2="5320.9751" y2="2682.2393" gradientTransform="matrix(1 0 0 1 -3759.0344 0)">
						<stop  offset="0" style="stop-color:#FF928E"/>
						<stop  offset="1" style="stop-color:#FE7062"/>
					</linearGradient>
					<path style="fill:url(#SVGID_00000015351822311985232940000015729930456101600644_);" d="M1533.658,2555.55
						c0,0-100.769,57.256-105.568,249.845c0,0,4.798,5.205,23.993,5.205c0,0,43.187-130.127,95.971-192.589
						C1575.567,2585.454,1557.65,2545.14,1533.658,2555.55z"/>
				</g>
				
					<linearGradient id="SVGID_00000112622507172763608940000002759955414416869018_" gradientUnits="userSpaceOnUse" x1="1163.6033" y1="2214.9121" x2="1210.4681" y2="2431.3833" gradientTransform="matrix(1 0 0 1 265.5923 0)">
					<stop  offset="0" style="stop-color:#09005D"/>
					<stop  offset="1" style="stop-color:#1A0F91"/>
				</linearGradient>
				<path style="fill:url(#SVGID_00000112622507172763608940000002759955414416869018_);" d="M1538.295,2552.626
					c10.452,54.706-26.758,130.826-69.314,212.378c68.938-79.375,127.896-154.147,108.082-233.075
					C1544.623,2537.208,1533.833,2545.556,1538.295,2552.626z"/>
				
					<linearGradient id="SVGID_00000091719900565994486550000015548494855788363168_" gradientUnits="userSpaceOnUse" x1="1338.0093" y1="2177.1533" x2="1384.8741" y2="2393.6248" gradientTransform="matrix(1 0 0 1 265.5923 0)">
					<stop  offset="0" style="stop-color:#09005D"/>
					<stop  offset="1" style="stop-color:#1A0F91"/>
				</linearGradient>
				<path style="fill:url(#SVGID_00000091719900565994486550000015548494855788363168_);" d="M1664.927,2523.892
					c2.269,57.383,14.659,121.535,30.477,187.98c3.831-6.227,5.662-13.044,5.555-20.433c-1.397-66.719-2.119-129.769,0-177.403
					C1688.947,2510.751,1676.937,2514.037,1664.927,2523.892z"/>
				
					<linearGradient id="SVGID_00000084525374504893098290000008994534133658060459_" gradientUnits="userSpaceOnUse" x1="1327.1395" y1="2357.4822" x2="1393.9678" y2="2357.4822" gradientTransform="matrix(0.9995 0.0315 -0.0315 0.9995 399.3548 -75.8778)">
					<stop  offset="0" style="stop-color:#09005D"/>
					<stop  offset="1" style="stop-color:#1A0F91"/>
				</linearGradient>
				<path style="fill-rule:evenodd;clip-rule:evenodd;fill:url(#SVGID_00000084525374504893098290000008994534133658060459_);" d="
					M1657.55,2331.723c0,0-21.097-29.126,17.901-47.558c36.639-17.316,52.842,19.811,37.984,38.329
					c-1.053,1.313-0.595,3.273,0.939,3.967c2.625,1.187,4.426,4.439-1.977,13.205c-0.551,0.754-0.639,1.753-0.248,2.602
					c2.767,6.008,11.25,29.522-28.32,24.434c-0.712-0.091-1.363-0.48-1.784-1.063L1657.55,2331.723z"/>
				
					<linearGradient id="SVGID_00000106130755104048059950000002202618045550347147_" gradientUnits="userSpaceOnUse" x1="1138.3645" y1="2425.9053" x2="1222.2273" y2="2425.9053" gradientTransform="matrix(0.9995 0.0315 -0.0315 0.9995 399.3548 -75.8778)">
					<stop  offset="0" style="stop-color:#09005D"/>
					<stop  offset="1" style="stop-color:#1A0F91"/>
				</linearGradient>
				<path style="fill-rule:evenodd;clip-rule:evenodd;fill:url(#SVGID_00000106130755104048059950000002202618045550347147_);" d="
					M1544.205,2390.708c0,0,3.887-30.623-10.133-43.853c-14.02-13.231-43.51-28.213-63.558,1.721
					c-9.563,14.277-9.071,22.142-5.941,26.462c2.854,3.939,2.197,8.981-1.022,12.652c-3.659,4.173-5.258,9.955,1.61,16.969
					c2.026,2.07,3.12,4.718,3.065,7.442c-0.229,11.352,5.375,39.895,71.112,23.955L1544.205,2390.708z"/>
			</g>
		</g>
		<g style="opacity:0.48;">
			
				<linearGradient id="SVGID_00000042702075285109288210000017700601570466539415_" gradientUnits="userSpaceOnUse" x1="2342.5137" y1="771.7602" x2="3651.8237" y2="597.7654">
				<stop  offset="0" style="stop-color:#FF928E"/>
				<stop  offset="1" style="stop-color:#FE7062"/>
			</linearGradient>
			<path style="fill:url(#SVGID_00000042702075285109288210000017700601570466539415_);" d="M2066.44,636.835
				c-4.191-12.617,107.311,3.768,114.277,4.951c48.089,8.17,70.73-0.705,113.592-15.923
				c94.134-33.424,219.582-14.795,310.526,19.082c22.382,8.337,46.715,20.951,52.99,43.996c5.905,21.687-6.919,44.193-22.668,60.229
				c-15.749,16.037-35.058,28.906-47.472,47.643c-8.48,12.8-12.486,31.785-1.271,42.271c4.239,3.964,9.927,5.928,15.476,7.629
				c93.849,28.78,195.265,12.18,292.597,24.926c24.074,3.153,53.5,14.111,54.755,38.358c0.702,13.567-7.552,30.05,2.627,39.047
				c4.814,4.254,11.868,4.479,18.292,4.41c45.895-0.494,93.463-5.046,133.262-27.908c39.798-22.861,69.742-68.281,61.8-113.485
				c-5.837-33.222-30.708-65.917-18.616-97.407c10.277-26.763,43.973-39.935,51.594-67.571c5.124-18.583-3.744-38.859-17.787-52.063
				s-32.489-20.588-50.762-26.725c-98.125-32.956-203.682-38.206-302.539-68.898c-42.025-13.048-83.735-36.452-127.476-37.966
				c-55.651-1.927-117.652,7.639-169.932,26.525c-14.763,5.333-29.147,11.733-44.145,16.364
				c-44.402,13.708-99.227-1.486-138.843,17.951c-31.294,15.354-37.922,53.256-66.993,68.919
				c-31.936,17.206-39.437,18.138-110.191,17.672c-70.765-0.466-106.319,18.258-106.319,18.258S2066.439,636.833,2066.44,636.835z"
				/>
		</g>
	</g>
</g>
</svg>
