<?xml version="1.0" encoding="utf-8"?>
<!-- Generator: Adobe Illustrator 27.5.0, SVG Export Plug-In . SVG Version: 6.00 Build 0)  -->
<svg version="1.1" xmlns="http://www.w3.org/2000/svg" xmlns:xlink="http://www.w3.org/1999/xlink" x="0px" y="0px"
	 viewBox="0 0 3710 3710" style="enable-background:new 0 0 3710 3710;" xml:space="preserve">
<g id="Illustration">
	<g>
		<linearGradient id="SVGID_1_" gradientUnits="userSpaceOnUse" x1="3503.998" y1="3668.0688" x2="1543.6454" y2="1581.2426">
			<stop  offset="0" style="stop-color:#DAE3FE"/>
			<stop  offset="1" style="stop-color:#E9EFFD"/>
		</linearGradient>
		<path style="fill:url(#SVGID_1_);" d="M2915.404,2830.843c-72.368,74.594-137.121,118.444-186.698,151.547
			c-483.512,322.846-1036.221,229.794-1207.104,197.989c-275.7-51.314-508.428-87.513-708.384-268.165
			c-454.359-410.496-432.26-1266.82-85.074-1797.276c41.166-62.897,387.826-576.755,941.73-649.162
			c13.548-1.771,23.656-2.78,32.51-3.717c85.688-9.072,616.678-56.955,1049.647,305.787
			c61.978,51.925,161.717,145.583,254.208,288.428C3344.428,1578.581,3345.5,2387.517,2915.404,2830.843z"/>
		<g>
			<path style="fill:#BDD0FB;" d="M937.538,2347.143c19.932,14.958,48.658,5.67,56.09-18.116
				c18.525-59.285,34.82-174.273-37.954-324.442c-100.489-207.358-390.99-714.806-409.931-942.635
				c-0.839-10.093-14.742-11.98-18.135-2.438c-36.403,102.354-107.428,365.869-18.035,682.906
				C601.75,2069.335,844.112,2277.034,937.538,2347.143z"/>
			<path style="opacity:0.45;fill:#FFFFFF;" d="M554.126,1292.29c-2.072,11.802-2.832,23.789-3.691,35.716l-0.721,17.937
				c-0.191,5.977-0.047,11.967-0.087,17.947c0.016,2.99-0.029,5.98,0.035,8.968l0.371,8.965l0.748,17.919l1.498,17.874
				c0.584,5.948,0.796,11.924,1.643,17.846c5.174,47.511,14.201,94.609,27.325,140.54c12.935,45.948,28.238,91.298,47.281,135.109
				l6.927,16.515l3.488,8.247l3.868,8.078l15.468,32.313c2.615,5.371,5.071,10.8,7.815,16.125l8.206,15.985l16.412,31.969
				c22.268,42.426,44.875,84.675,68.15,126.573c23.226,41.923,46.919,83.596,70.596,125.316
				c23.617,41.75,47.633,83.328,69.735,126.026c5.641,10.606,10.767,21.503,16.066,32.293c2.712,5.363,5.069,10.911,7.546,16.394
				c2.421,5.511,4.989,10.95,7.287,16.514c9.233,22.244,17.081,45.112,22.418,68.631c0.167,0.737-0.294,1.468-1.03,1.635
				c-0.708,0.161-1.413-0.261-1.614-0.949l-0.021-0.072l-4.979-17.2l-1.243-4.295c-0.423-1.429-0.999-2.813-1.491-4.221l-3.07-8.412
				c-3.803-11.312-8.805-22.19-13.39-33.205c-2.41-5.462-5.095-10.813-7.627-16.223c-2.59-5.385-5.052-10.824-7.882-16.1
				c-5.529-10.61-10.871-21.3-16.747-31.737c-22.911-42.029-47.233-83.352-71.495-124.73l-36.335-62.13
				c-11.897-20.844-23.903-41.625-35.576-62.603c-11.806-20.901-23.383-41.935-34.827-63.041
				c-5.796-10.513-11.336-21.165-16.979-31.761l-16.829-31.842l-16.469-32.032l-8.234-16.015
				c-2.753-5.335-5.193-10.861-7.805-16.281l-15.422-32.672l-3.854-8.167l-3.477-8.338l-6.9-16.698l-6.899-16.698
				c-2.26-5.581-4.737-11.078-6.617-16.807l-12.033-34.076c-4.266-11.27-7.309-22.952-10.868-34.456
				c-3.375-11.562-7.189-22.997-9.771-34.779c-12.239-46.598-20.321-94.27-24.502-142.215c-0.726-5.974-0.83-12.006-1.184-18.011
				l-0.898-18.023l-0.145-18.048l-0.068-9.017c0.037-3.006,0.182-6.012,0.268-9.017c0.55-24.023,2.448-48.095,7.299-71.638
				c0.019-0.091,0.108-0.15,0.2-0.132C554.085,1292.106,554.142,1292.201,554.126,1292.29z"/>
		</g>
		<g>
			<path style="fill:#91B3FA;" d="M845.838,730.57c-69.237,125.314-444.609,871.928,140.543,1368.737
				c0,0,364.226-424.528-120.727-1368.611C861.412,722.437,850.361,722.383,845.838,730.57z"/>
			<path style="opacity:0.57;fill:#FFFFFF;" d="M863.773,876.004c-5.654,45.915-10.433,92.005-14.838,138.096
				c-4.385,46.101-8.276,92.25-11.665,138.434c-6.779,92.364-11.64,184.87-13.843,277.403
				c-2.139,92.519-1.774,185.112,3.297,277.328c2.398,46.114,6.352,92.096,11.931,137.778c5.639,45.661,12.963,91.082,23.593,135.51
				l0.006,0.026c0.797,3.327-1.076,6.746-4.181,7.636c-3.105,0.89-6.268-1.084-7.064-4.411l-0.01-0.038
				c-10.515-45.169-17.622-91.073-23.028-137.121c-5.343-46.068-9.037-92.334-11.168-138.668
				c-4.535-92.661-4.337-185.499-1.636-278.199c2.766-92.711,8.192-185.318,15.535-277.75c3.67-46.217,7.844-92.39,12.511-138.511
				c4.688-46.124,9.744-92.185,15.69-138.192c0.187-1.447,1.429-2.469,2.774-2.284c1.34,0.184,2.276,1.498,2.099,2.938
				L863.773,876.004z"/>
		</g>
		
			<linearGradient id="SVGID_00000177484941682219688370000016152235329601991313_" gradientUnits="userSpaceOnUse" x1="1495.1821" y1="3350.1111" x2="2733.6323" y2="284.4389">
			<stop  offset="0" style="stop-color:#4F52FF"/>
			<stop  offset="1" style="stop-color:#4042E2"/>
		</linearGradient>
		<path style="fill:url(#SVGID_00000177484941682219688370000016152235329601991313_);" d="M454.049,2390.026
			c2.625,112.336,34.228,230.874,53.787,326.287c23.442,114.353,55.781,233.169,137.137,316.889
			c78.482,80.758,223.169,119.364,316.043,39.897c69.369-59.36,125.518-120.625,218.561-50.377
			c41.632,31.433,69.659,77.045,101.136,118.644c31.477,41.599,70.291,81.893,120.993,94.318
			c89.147,21.825,165.314-42.977,231.549-92.537c54.731-40.952,123.257-78.156,188.558-57.944
			c80.392,24.883,120.36,105.431,207.741,118.875c97.658,15.024,201.75-31.814,284.291-78.787
			c103.959-59.161,203.708-133.29,321.28-155.302c80.689-15.107,163.677-4.299,245.762-5.257
			c236.156-2.757,348.507-171.48,370.766-390.741c5.848-57.606,7.996-116.59-6.467-172.656
			c-31.926-123.759-143.517-170.577-255.717-204.21c-129.95-38.955-264.739-53.746-397.202-80.984
			c-221.004-45.444-443.018-86.708-666.839-115.883c-266.49-34.737-537.491-59.238-806.415-44.882
			c-188.071,10.04-423.26,32.069-569.346,165.585C473.246,2190.808,451.661,2287.852,454.049,2390.026z"/>
		<g>
			
				<linearGradient id="SVGID_00000072244519021478657020000008325967105587403429_" gradientUnits="userSpaceOnUse" x1="2475.9875" y1="1113.9944" x2="3865.6138" y2="66.7409">
				<stop  offset="0" style="stop-color:#FF928E"/>
				<stop  offset="1" style="stop-color:#FE7062"/>
			</linearGradient>
			
				<circle style="fill:url(#SVGID_00000072244519021478657020000008325967105587403429_);" cx="2746.516" cy="910.119" r="282.074"/>
			<g>
				
					<linearGradient id="SVGID_00000022541177392315632670000012067811760989541540_" gradientUnits="userSpaceOnUse" x1="3367.0801" y1="-331.232" x2="2845.9836" y2="704.1956">
					<stop  offset="0" style="stop-color:#FF928E"/>
					<stop  offset="1" style="stop-color:#FE7062"/>
				</linearGradient>
				
					<circle style="fill:url(#SVGID_00000022541177392315632670000012067811760989541540_);" cx="2742.875" cy="909.073" r="257.381"/>
			</g>
			<g>
				<path style="fill:#FFFFFF;" d="M2744.887,1215.456l-0.727-0.002c-2.802,0-5.075-2.272-5.075-5.076
					c0-2.804,2.273-5.076,5.075-5.076l0.76,0.002c7.478,0,15.065-0.284,22.516-0.843c2.759-0.203,5.231,1.884,5.443,4.681
					c0.208,2.796-1.887,5.231-4.682,5.441C2760.49,1215.162,2752.649,1215.456,2744.887,1215.456z M2720.513,1214.488
					c-0.135,0-0.274-0.005-0.413-0.017c-7.99-0.639-16.03-1.599-23.894-2.853c-2.769-0.443-4.653-3.043-4.213-5.813
					c0.443-2.769,3.037-4.656,5.813-4.213c7.604,1.213,15.375,2.141,23.108,2.761c2.792,0.223,4.877,2.67,4.653,5.464
					C2725.354,1212.474,2723.131,1214.488,2720.513,1214.488z M2791.324,1211.906c-2.462,0-4.623-1.793-5.01-4.302
					c-0.426-2.769,1.47-5.361,4.243-5.789c7.653-1.181,15.336-2.68,22.833-4.454c2.723-0.641,5.466,1.042,6.11,3.772
					c0.644,2.728-1.044,5.462-3.771,6.107c-7.759,1.836-15.706,3.385-23.627,4.608
					C2791.843,1211.887,2791.582,1211.906,2791.324,1211.906z M2673.792,1207.038c-0.393,0-0.793-0.046-1.193-0.144
					c-7.769-1.875-15.561-4.084-23.157-6.568c-2.663-0.871-4.121-3.736-3.248-6.401c0.873-2.663,3.747-4.119,6.401-3.248
					c7.346,2.401,14.877,4.537,22.384,6.349c2.726,0.658,4.402,3.4,3.744,6.125
					C2678.16,1205.477,2676.082,1207.038,2673.792,1207.038z M2837.368,1201.029c-2.148,0-4.14-1.371-4.831-3.524
					c-0.859-2.668,0.608-5.527,3.278-6.386c7.365-2.368,14.725-5.059,21.875-7.998c2.597-1.064,5.555,0.173,6.625,2.764
					c1.064,2.592-0.172,5.558-2.766,6.624c-7.395,3.042-15.009,5.826-22.629,8.276
					C2838.406,1200.95,2837.88,1201.029,2837.368,1201.029z M2628.845,1192.352c-0.648,0-1.309-0.126-1.947-0.392
					c-7.355-3.062-14.701-6.467-21.829-10.12c-2.495-1.279-3.479-4.337-2.201-6.832c1.279-2.497,4.332-3.481,6.833-2.202
					c6.89,3.531,13.988,6.822,21.096,9.783c2.591,1.077,3.813,4.048,2.736,6.637
					C2632.721,1191.175,2630.834,1192.352,2628.845,1192.352z M2881.168,1183.025c-1.85,0-3.635-1.018-4.53-2.782
					c-1.269-2.501-0.268-5.555,2.234-6.822c6.893-3.495,13.74-7.308,20.342-11.336c2.396-1.452,5.518-0.704,6.976,1.692
					c1.46,2.392,0.704,5.517-1.688,6.976c-6.83,4.165-13.912,8.109-21.043,11.722
					C2882.725,1182.848,2881.942,1183.025,2881.168,1183.025z M2586.76,1170.79c-0.909,0-1.831-0.243-2.66-0.755
					c-6.817-4.202-13.538-8.715-19.975-13.414c-2.267-1.652-2.763-4.826-1.11-7.091c1.652-2.265,4.828-2.761,7.091-1.109
					c6.229,4.545,12.729,8.909,19.321,12.973c2.386,1.471,3.129,4.598,1.659,6.984
					C2590.124,1169.934,2588.462,1170.79,2586.76,1170.79z M2921.578,1158.382c-1.573,0-3.123-0.729-4.117-2.102
					c-1.642-2.272-1.13-5.446,1.14-7.088c6.252-4.519,12.418-9.353,18.326-14.368c2.141-1.814,5.34-1.552,7.154,0.585
					c1.814,2.138,1.553,5.34-0.585,7.154c-6.11,5.185-12.484,10.184-18.948,14.857
					C2923.65,1158.07,2922.609,1158.382,2921.578,1158.382z M2548.551,1142.907c-1.167,0-2.343-0.401-3.298-1.221
					c-6.073-5.203-12.015-10.708-17.656-16.362c-1.979-1.984-1.976-5.198,0.007-7.179c1.986-1.978,5.198-1.976,7.177,0.008
					c5.456,5.467,11.202,10.791,17.074,15.823c2.131,1.824,2.376,5.028,0.552,7.157
					C2551.406,1142.306,2549.981,1142.907,2548.551,1142.907z M2957.646,1127.75c-1.305,0-2.61-0.501-3.602-1.499
					c-1.976-1.989-1.963-5.204,0.026-7.179c5.489-5.449,10.825-11.182,15.865-17.036c1.827-2.121,5.033-2.368,7.157-0.535
					c2.125,1.827,2.366,5.033,0.535,7.157c-5.211,6.054-10.729,11.982-16.406,17.618
					C2960.234,1127.259,2958.938,1127.75,2957.646,1127.75z M2515.133,1109.417c-1.434,0-2.862-0.605-3.866-1.781
					c-5.195-6.092-10.207-12.453-14.9-18.91c-1.646-2.269-1.143-5.442,1.124-7.09c2.277-1.646,5.442-1.143,7.091,1.122
					c4.537,6.245,9.385,12.398,14.411,18.288c1.817,2.133,1.563,5.337-0.568,7.156
					C2517.469,1109.019,2516.296,1109.417,2515.133,1109.417z M2988.51,1091.899c-1.044,0-2.095-0.319-2.997-0.983
					c-2.26-1.657-2.75-4.833-1.094-7.095c4.57-6.229,8.948-12.72,13.019-19.29c1.48-2.384,4.613-3.116,6.989-1.641
					c2.383,1.475,3.116,4.605,1.642,6.987c-4.21,6.794-8.74,13.504-13.462,19.947
					C2991.613,1091.18,2990.069,1091.899,2988.51,1091.899z M2487.316,1071.127c-1.705,0-3.371-0.861-4.329-2.422
					c-4.177-6.807-8.139-13.877-11.774-21.013c-1.276-2.496-0.281-5.553,2.214-6.827c2.498-1.274,5.555-0.281,6.827,2.217
					c3.519,6.9,7.349,13.735,11.384,20.316c1.467,2.389,0.717,5.515-1.672,6.981
					C2489.14,1070.886,2488.222,1071.127,2487.316,1071.127z M3013.409,1051.69c-0.783,0-1.58-0.182-2.323-0.567
					c-2.492-1.284-3.47-4.345-2.184-6.837c3.536-6.857,6.844-13.946,9.834-21.076c1.081-2.582,4.058-3.8,6.642-2.718
					c2.584,1.084,3.803,4.058,2.716,6.643c-3.09,7.374-6.513,14.71-10.171,21.803
					C3017.024,1050.686,3015.246,1051.69,3013.409,1051.69z M2465.817,1028.951c-1.996,0-3.886-1.181-4.692-3.138
					c-3.07-7.422-5.872-15.029-8.327-22.609c-0.866-2.667,0.595-5.528,3.261-6.393c2.673-0.862,5.531,0.596,6.394,3.263
					c2.376,7.328,5.085,14.683,8.05,21.859c1.074,2.591-0.159,5.56-2.749,6.63
					C2467.119,1028.827,2466.462,1028.951,2465.817,1028.951z M3031.699,1008.101c-0.525,0-1.061-0.083-1.589-0.256
					c-2.66-0.877-4.107-3.747-3.232-6.409c2.416-7.328,4.57-14.855,6.404-22.374c0.664-2.721,3.414-4.398,6.133-3.727
					c2.723,0.664,4.392,3.41,3.728,6.133c-1.897,7.777-4.124,15.564-6.622,23.144
					C3035.816,1006.748,3033.83,1008.101,3031.699,1008.101z M2451.215,983.928c-2.296,0-4.378-1.568-4.933-3.899
					c-1.857-7.785-3.427-15.731-4.659-23.615c-0.436-2.771,1.457-5.366,4.227-5.801c2.802-0.423,5.37,1.459,5.799,4.228
					c1.196,7.623,2.713,15.305,4.507,22.832c0.651,2.728-1.031,5.466-3.76,6.115
					C2452.002,983.881,2451.605,983.928,2451.215,983.928z M3042.921,962.142c-0.271,0-0.542-0.021-0.816-0.064
					c-2.769-0.449-4.649-3.055-4.2-5.822c1.233-7.622,2.178-15.394,2.812-23.101c0.228-2.797,2.716-4.871,5.475-4.643
					c2.792,0.23,4.871,2.682,4.643,5.476c-0.654,7.97-1.636,16.008-2.911,23.891
					C3047.521,960.369,3045.366,962.142,3042.921,962.142z M2443.883,937.192c-2.624,0-4.848-2.021-5.053-4.681
					c-0.618-7.926-0.932-16.017-0.932-24.045l0.013-2.954c0.03-2.784,2.296-5.023,5.076-5.023c0.016,0,0.033,0,0.053,0
					c2.802,0.03,5.052,2.325,5.023,5.129l-0.013,2.848c0,7.767,0.304,15.59,0.899,23.255c0.218,2.795-1.87,5.237-4.666,5.456
					C2444.15,937.187,2444.015,937.192,2443.883,937.192z M3046.8,914.994c-0.01,0-0.023,0-0.033,0
					c-2.805-0.02-5.062-2.307-5.042-5.11l0.003-1.418c0-7.268-0.264-14.615-0.79-21.836c-0.202-2.796,1.9-5.226,4.696-5.429
					c2.739-0.197,5.224,1.897,5.429,4.696c0.542,7.463,0.816,15.057,0.816,22.569l-0.003,1.487
					C3051.856,912.744,3049.589,914.994,3046.8,914.994z M2444.134,886.997c-0.149,0-0.297-0.007-0.446-0.02
					c-2.796-0.243-4.861-2.705-4.616-5.497c0.694-7.98,1.712-16.013,3.024-23.876c0.459-2.766,3.073-4.649,5.842-4.172
					c2.762,0.461,4.633,3.075,4.17,5.841c-1.266,7.604-2.25,15.372-2.924,23.09C2448.952,885.005,2446.738,886.997,2444.134,886.997
					z M3043.354,867.815c-2.465,0-4.63-1.801-5.013-4.314c-1.156-7.627-2.637-15.316-4.398-22.852
					c-0.638-2.731,1.061-5.461,3.79-6.098c2.739-0.636,5.456,1.061,6.097,3.789c1.821,7.795,3.351,15.749,4.55,23.638
					c0.42,2.771-1.487,5.358-4.256,5.779C3043.865,867.797,3043.608,867.815,3043.354,867.815z M2451.916,840.339
					c-0.406,0-0.82-0.05-1.229-0.152c-2.719-0.677-4.375-3.432-3.698-6.151c1.933-7.77,4.2-15.547,6.731-23.113
					c0.896-2.658,3.777-4.083,6.427-3.2c2.657,0.891,4.091,3.767,3.202,6.425c-2.452,7.313-4.639,14.829-6.513,22.34
					C2456.264,838.795,2454.192,840.339,2451.916,840.339z M3032.597,821.753c-2.151,0-4.147-1.378-4.834-3.536
					c-2.346-7.354-5.02-14.72-7.947-21.897c-1.061-2.596,0.185-5.558,2.782-6.617c2.604-1.059,5.555,0.187,6.615,2.781
					c3.03,7.423,5.796,15.043,8.218,22.65c0.853,2.672-0.621,5.527-3.294,6.378C3033.625,821.675,3033.106,821.753,3032.597,821.753
					z M2466.918,795.501c-0.661,0-1.335-0.13-1.983-0.406c-2.581-1.097-3.78-4.078-2.687-6.657
					c3.126-7.347,6.586-14.667,10.28-21.751c1.295-2.485,4.375-3.442,6.847-2.153c2.488,1.297,3.45,4.364,2.155,6.848
					c-3.575,6.85-6.916,13.925-9.936,21.028C2470.771,794.341,2468.894,795.501,2466.918,795.501z M3014.701,777.916
					c-1.857,0-3.645-1.023-4.537-2.794c-3.483-6.913-7.28-13.766-11.285-20.372c-1.454-2.397-0.691-5.518,1.705-6.972
					c2.389-1.451,5.515-0.691,6.972,1.708c4.144,6.832,8.073,13.92,11.675,21.069c1.259,2.503,0.254,5.555-2.25,6.815
					C3016.247,777.741,3015.471,777.916,3014.701,777.916z M2488.787,753.576c-0.922,0-1.854-0.25-2.69-0.773
					c-2.376-1.487-3.096-4.62-1.609-6.995c4.243-6.779,8.806-13.471,13.558-19.884c1.669-2.252,4.848-2.726,7.098-1.056
					c2.254,1.669,2.726,4.848,1.057,7.1c-4.593,6.203-9.005,12.671-13.109,19.227
					C2492.131,752.731,2490.475,753.576,2488.787,753.576z M2990.159,737.442c-1.576,0-3.133-0.734-4.124-2.112
					c-4.51-6.27-9.332-12.446-14.325-18.358c-1.811-2.141-1.54-5.345,0.601-7.154c2.141-1.808,5.344-1.537,7.151,0.601
					c5.165,6.113,10.148,12.499,14.814,18.982c1.636,2.275,1.12,5.447-1.156,7.085
					C2992.224,737.131,2991.186,737.442,2990.159,737.442z M2516.937,715.561c-1.18,0-2.366-0.41-3.327-1.246
					c-2.115-1.839-2.34-5.044-0.499-7.161c5.254-6.042,10.802-11.942,16.489-17.537c1.999-1.964,5.211-1.941,7.177,0.059
					c1.966,1.997,1.94,5.211-0.059,7.177c-5.502,5.411-10.865,11.116-15.947,16.962
					C2519.766,714.97,2518.358,715.561,2516.937,715.561z M2959.609,701.298c-1.309,0-2.617-0.502-3.608-1.507
					c-5.436-5.497-11.153-10.848-16.998-15.906c-2.121-1.834-2.353-5.039-0.519-7.159c1.834-2.118,5.039-2.356,7.161-0.517
					c6.044,5.228,11.956,10.761,17.573,16.445c1.973,1.994,1.953,5.208-0.04,7.179
					C2962.19,700.81,2960.898,701.298,2959.609,701.298z M2550.675,682.378c-1.447,0-2.885-0.615-3.886-1.807
					c-1.804-2.146-1.53-5.348,0.615-7.152c6.12-5.148,12.517-10.117,19.017-14.768c2.28-1.627,5.449-1.109,7.082,1.173
					c1.632,2.28,1.107,5.451-1.173,7.081c-6.285,4.497-12.471,9.302-18.389,14.282
					C2552.989,681.987,2551.829,682.378,2550.675,682.378z M2923.825,670.344c-1.048,0-2.102-0.322-3.007-0.99
					c-6.219-4.583-12.699-8.978-19.258-13.064c-2.379-1.484-3.106-4.613-1.626-6.992c1.484-2.383,4.613-3.101,6.992-1.626
					c6.784,4.226,13.482,8.772,19.913,13.51c2.257,1.664,2.74,4.841,1.074,7.098C2926.918,669.63,2925.382,670.344,2923.825,670.344
					z M2589.162,654.834c-1.718,0-3.397-0.874-4.349-2.455c-1.447-2.401-0.674-5.52,1.725-6.967
					c6.87-4.141,13.968-8.051,21.096-11.62c2.515-1.254,5.558-0.24,6.81,2.267c1.256,2.506,0.241,5.555-2.263,6.81
					c-6.893,3.451-13.756,7.232-20.402,11.237C2590.96,654.599,2590.054,654.834,2589.162,654.834z M2883.673,645.352
					c-0.79,0-1.586-0.183-2.333-0.572c-6.863-3.559-13.945-6.885-21.052-9.885c-2.584-1.089-3.793-4.066-2.703-6.65
					c1.091-2.583,4.064-3.795,6.648-2.701c7.356,3.103,14.682,6.544,21.78,10.226c2.488,1.29,3.46,4.354,2.168,6.842
					C2887.278,644.352,2885.507,645.352,2883.673,645.352z M2631.495,633.646c-2.006,0-3.906-1.196-4.706-3.171
					c-1.054-2.597,0.198-5.556,2.795-6.611c7.422-3.01,15.049-5.756,22.668-8.165c2.68-0.856,5.528,0.638,6.371,3.309
					c0.843,2.673-0.638,5.525-3.311,6.369c-7.366,2.328-14.738,4.985-21.915,7.894
					C2632.774,633.526,2632.13,633.646,2631.495,633.646z M2840.134,626.959c-0.529,0-1.071-0.084-1.599-0.261
					c-7.343-2.439-14.863-4.61-22.354-6.455c-2.723-0.671-4.385-3.42-3.714-6.143c0.667-2.719,3.407-4.387,6.14-3.714
					c7.752,1.908,15.534,4.157,23.128,6.68c2.66,0.884,4.101,3.755,3.219,6.417C2844.245,625.611,2842.262,626.959,2840.134,626.959
					z M2676.621,619.379c-2.31,0-4.398-1.588-4.943-3.934c-0.631-2.731,1.074-5.457,3.803-6.088
					c7.782-1.799,15.739-3.309,23.646-4.492c2.746-0.423,5.356,1.495,5.77,4.269c0.416,2.772-1.497,5.355-4.269,5.77
					c-7.646,1.143-15.336,2.606-22.86,4.344C2677.381,619.336,2676.997,619.379,2676.621,619.379z M2794.209,615.635
					c-0.274,0-0.552-0.021-0.829-0.068c-7.61-1.249-15.382-2.216-23.095-2.868c-2.792-0.236-4.864-2.693-4.63-5.485
					c0.235-2.796,2.71-4.884,5.489-4.63c7.974,0.676,16.01,1.674,23.881,2.967c2.766,0.454,4.639,3.065,4.187,5.831
					C2798.802,613.869,2796.651,615.635,2794.209,615.635z M2723.402,612.379c-2.64,0-4.867-2.044-5.056-4.719
					c-0.198-2.797,1.91-5.223,4.706-5.419c7.207-0.507,14.556-0.765,21.836-0.765l2.211,0.007c2.805,0.02,5.062,2.307,5.042,5.11
					c-0.02,2.8-2.28,5.185-5.109,5.041l-2.131-0.007c-7.058,0-14.166,0.249-21.135,0.738
					C2723.643,612.375,2723.524,612.379,2723.402,612.379z"/>
			</g>
		</g>
		<g>
			<path style="fill:#BDD0FB;" d="M505.208,2213.315l57.14-393.838l171.177-26.995l45.312-82.701l29.508-216.695l141.832-261.811
				l206.258,93.314l85.589,417.562l120.831-42.399l71.807-296.963l284.087-329.289l232.365,118.693l135.523-27.102l199.584,418.418
				l123.837-245.12l213.793-36.103l108.957,210.584l165.609,34.048l33.872,371.857l93.43,121.536l169.667,249.443
				c11.935,17.547-0.707,41.283-21.927,41.172l-2718.458-14.265L505.208,2213.315z"/>
			<polygon style="fill:#91B3FA;" points="2086.635,1165.091 2203.926,1652.789 2286.219,1583.509 			"/>
			
				<linearGradient id="SVGID_00000044896632347027839450000010881438694895541173_" gradientUnits="userSpaceOnUse" x1="901.1792" y1="1277.932" x2="1156.4336" y2="1277.932">
				<stop  offset="0" style="stop-color:#DAE3FE"/>
				<stop  offset="1" style="stop-color:#E9EFFD"/>
			</linearGradient>
			<polygon style="fill:url(#SVGID_00000044896632347027839450000010881438694895541173_);" points="950.176,1231.275 
				901.179,1321.719 1156.434,1324.589 			"/>
			<polygon style="fill:#91B3FA;" points="2932.287,1918.776 2826.013,1950.407 2898.415,1546.919 			"/>
			<polygon style="fill:#91B3FA;" points="1156.434,1324.589 1081.766,1652.789 1156.434,1784.41 1242.022,1742.151 			"/>
			
				<linearGradient id="SVGID_00000173843360986552279260000013998481361954602625_" gradientUnits="userSpaceOnUse" x1="1785.7621" y1="1815.1031" x2="2109.1931" y2="1815.1031">
				<stop  offset="0" style="stop-color:#DAE3FE"/>
				<stop  offset="1" style="stop-color:#E9EFFD"/>
			</linearGradient>
			<polygon style="fill:url(#SVGID_00000173843360986552279260000013998481361954602625_);" points="1785.762,1499.505 
				2007.286,1742.151 1941.835,1861.224 2109.193,2130.701 2017.355,1866.187 2057.632,1705.578 			"/>
			<polygon style="fill:#91B3FA;" points="808.344,1493.086 939.612,1784.063 873.978,1881.901 1053.641,2268.8 454.998,2316.662 
				562.347,1819.477 733.525,1792.482 838.573,1691.485 			"/>
			
				<linearGradient id="SVGID_00000028284926404875346190000003990455806631138722_" gradientUnits="userSpaceOnUse" x1="1286.4589" y1="1857.7629" x2="1977.0779" y2="1857.7629">
				<stop  offset="0" style="stop-color:#DAE3FE"/>
				<stop  offset="1" style="stop-color:#E9EFFD"/>
			</linearGradient>
			<polygon style="fill:url(#SVGID_00000028284926404875346190000003990455806631138722_);" points="1484.102,1451.962 
				1758.88,1742.539 1977.078,2263.564 1286.459,2263.564 1718.747,2015.534 			"/>
			<polygon style="fill:#91B3FA;" points="1414.535,1486.02 1484.742,1792.482 1324.185,2268.8 1362.853,1699.752 			"/>
			<polygon style="fill:#91B3FA;" points="2641.649,1515.173 2571.431,1836.259 2641.649,1638.788 2757.445,1611.217 
				2826.013,1532.033 			"/>
			<polygon style="fill:#FFFFFF;" points="1718.747,1073.5 1434.661,1402.789 1649.827,1241.095 1672.466,1292.516 
				1773.164,1192.193 2041.071,1238.144 			"/>
			
				<linearGradient id="SVGID_00000003788048853567435250000012717837509095148206_" gradientUnits="userSpaceOnUse" x1="2736.4458" y1="1774.3601" x2="2898.4148" y2="1774.3601">
				<stop  offset="0" style="stop-color:#DAE3FE"/>
				<stop  offset="1" style="stop-color:#E9EFFD"/>
			</linearGradient>
			<polygon style="fill:url(#SVGID_00000003788048853567435250000012717837509095148206_);" points="2898.415,1546.919 
				2736.446,2001.802 2826.013,1950.407 			"/>
			<polygon style="fill:#FFFFFF;" points="2409.689,1338.68 2623.665,1302.432 2718.821,1486.093 2571.431,1382.025 
				2518.326,1515.173 2474.69,1422.304 			"/>
			<path style="fill:#91B3FA;" d="M3137.169,2240.269l-238.754-251.254l33.872-70.239l218.923,309.966
				C3157.725,2237.966,3144.948,2248.455,3137.169,2240.269z"/>
		</g>
		
			<linearGradient id="SVGID_00000121982024169962436840000016048063840795233468_" gradientUnits="userSpaceOnUse" x1="2123.2239" y1="775.8563" x2="1920.1997" y2="1493.2091">
			<stop  offset="0" style="stop-color:#09005D"/>
			<stop  offset="1" style="stop-color:#1A0F91"/>
		</linearGradient>
		<path style="fill:url(#SVGID_00000121982024169962436840000016048063840795233468_);" d="M476.407,2324.536l161.459-119.529
			c22.347-16.544,51.448-20.919,77.671-11.677l108.035,38.073c27.759,9.783,58.616,4.276,81.278-14.504l192.92-159.878
			c25.76-21.348,61.754-25.318,91.547-10.095l455.503,232.729c28.315,14.468,62.381,11.652,87.938-7.267l136.025-100.698
			c22.346-16.543,51.445-20.917,77.667-11.676l123.829,43.639c27.759,9.783,58.616,4.276,81.278-14.504l214.974-178.154
			c25.76-21.348,61.753-25.317,91.547-10.095c0,0,262.757,220.691,435.296,343.283l-2401.919,25.175
			C467.363,2369.609,457.044,2338.871,476.407,2324.536z"/>
		<path style="fill:#FFFFFF;" d="M2031.808,2428.825c-2.72-4.09-8.724-4.09-11.444,0c-18.091,27.201-72.862,112.702-72.862,150.796
			c0,45.629,35.183,82.619,78.583,82.619c43.401,0,78.584-36.99,78.584-82.619
			C2104.67,2541.527,2049.899,2456.026,2031.808,2428.825z"/>
		<path style="fill:#FFFFFF;" d="M2337.408,2425.385c-2.72-4.09-8.724-4.09-11.444,0c-18.091,27.202-72.862,112.702-72.862,150.796
			c0,45.629,35.183,82.619,78.583,82.619c43.401,0,78.584-36.99,78.584-82.619
			C2410.27,2538.087,2355.499,2452.587,2337.408,2425.385z"/>
		<path style="fill:#FFFFFF;" d="M2544.104,2648.195c-2.72-4.09-8.724-4.09-11.444,0c-18.091,27.202-72.862,112.702-72.862,150.796
			c0,45.629,35.183,82.619,78.583,82.619c43.401,0,78.584-36.99,78.584-82.619
			C2616.966,2760.897,2562.195,2675.396,2544.104,2648.195z"/>
		<path style="fill:#FFFFFF;" d="M2176.487,2695.231c-2.72-4.09-8.724-4.09-11.444,0c-18.091,27.201-72.862,112.702-72.862,150.796
			c0,45.629,35.183,82.619,78.584,82.619c43.4,0,78.583-36.99,78.583-82.619C2249.349,2807.933,2194.578,2722.433,2176.487,2695.231
			z"/>
		<g>
			
				<linearGradient id="SVGID_00000003801376774435630600000017172377109056756132_" gradientUnits="userSpaceOnUse" x1="3602.6672" y1="1773.9747" x2="2200.5576" y2="4337.4224">
				<stop  offset="0" style="stop-color:#FEBBBA"/>
				<stop  offset="1" style="stop-color:#FF928E"/>
			</linearGradient>
			
				<circle style="fill:url(#SVGID_00000003801376774435630600000017172377109056756132_);" cx="2906.259" cy="3047.203" r="207.797"/>
			
				<linearGradient id="SVGID_00000161628472533644612060000009159363148832003475_" gradientUnits="userSpaceOnUse" x1="3322.3247" y1="1599.5966" x2="1890.1952" y2="4217.9292">
				<stop  offset="0" style="stop-color:#FEBBBA"/>
				<stop  offset="1" style="stop-color:#FF928E"/>
			</linearGradient>
			<path style="fill:url(#SVGID_00000161628472533644612060000009159363148832003475_);" d="M2969.215,3033.289h-138.959
				c-14.696,0-26.61-11.914-26.61-26.61V1737.738c0-14.696,11.914-26.61,26.61-26.61h138.959c14.696,0,26.61,11.914,26.61,26.61
				v1268.941C2995.825,3021.375,2983.911,3033.289,2969.215,3033.289z"/>
			<path style="opacity:0.66;fill:#FFFFFF;" d="M2944.329,3062.865h-86.681c-9.167,0-16.599-7.432-16.599-16.599V1784.452
				c0-9.167,7.432-16.599,16.599-16.599h86.681c9.167,0,16.599,7.432,16.599,16.599v1261.814
				C2960.928,3055.434,2953.497,3062.865,2944.329,3062.865z"/>
			<path style="opacity:0.66;fill:#FFFFFF;" d="M2974.914,2867.656V1803.947c0-42.501-35.324-76.955-77.826-76.955l0,0
				c-42.5,0-77.826,34.454-77.826,76.955v1067.068c-60.907,30.151-104.968,94.567-104.968,169.181
				c0,103.498,84.783,187.4,188.281,187.4c103.497,0,186.949-83.902,186.949-187.4
				C3089.524,2962.688,3045.973,2896.176,2974.914,2867.656z"/>
			
				<linearGradient id="SVGID_00000133508883394280952730000009745280688955592866_" gradientUnits="userSpaceOnUse" x1="2899.0896" y1="3325.353" x2="2905.8591" y2="2032.479">
				<stop  offset="0" style="stop-color:#E1473D"/>
				<stop  offset="1" style="stop-color:#E9605A"/>
			</linearGradient>
			<path style="fill:url(#SVGID_00000133508883394280952730000009745280688955592866_);" d="M2956.045,3051.938h-105.183
				c-4.058,0-7.348-3.29-7.348-7.348V1939.281c0-4.977,4.035-9.012,9.012-9.012h97.997c7.108,0,12.87,5.762,12.87,12.87v1101.45
				C2963.393,3048.648,2960.103,3051.938,2956.045,3051.938z"/>
			
				<linearGradient id="SVGID_00000125589246971648620740000008467764550770015908_" gradientUnits="userSpaceOnUse" x1="2899.4473" y1="3325.2019" x2="2906.2153" y2="2032.613">
				<stop  offset="0" style="stop-color:#E1473D"/>
				<stop  offset="1" style="stop-color:#E9605A"/>
			</linearGradient>
			
				<circle style="fill:url(#SVGID_00000125589246971648620740000008467764550770015908_);" cx="2900.989" cy="3030.753" r="168.608"/>
			<g>
				
					<linearGradient id="SVGID_00000037682969946262413680000005161196758312103067_" gradientUnits="userSpaceOnUse" x1="4423.8711" y1="872.1595" x2="4015.3091" y2="1466.4321">
					<stop  offset="0" style="stop-color:#09005D"/>
					<stop  offset="1" style="stop-color:#1A0F91"/>
				</linearGradient>
				<path style="fill:url(#SVGID_00000037682969946262413680000005161196758312103067_);" d="M3136.704,2850.453h-122.368
					c-2.597,0-4.723-2.125-4.723-4.723v-24.662c0-2.597,2.125-4.723,4.723-4.723h122.368c2.597,0,4.723,2.125,4.723,4.723v24.662
					C3141.427,2848.327,3139.302,2850.453,3136.704,2850.453z"/>
				
					<linearGradient id="SVGID_00000000185399207082716500000006816432750023226533_" gradientUnits="userSpaceOnUse" x1="4263.9019" y1="792.6676" x2="3855.3396" y2="1386.9402">
					<stop  offset="0" style="stop-color:#09005D"/>
					<stop  offset="1" style="stop-color:#1A0F91"/>
				</linearGradient>
				<path style="fill:url(#SVGID_00000000185399207082716500000006816432750023226533_);" d="M3136.704,2538.278h-122.368
					c-2.597,0-4.723-2.125-4.723-4.722v-24.662c0-2.597,2.125-4.723,4.723-4.723h122.368c2.597,0,4.723,2.125,4.723,4.723v24.662
					C3141.427,2536.153,3139.302,2538.278,3136.704,2538.278z"/>
				
					<linearGradient id="SVGID_00000104681567394768392770000005352311287097780892_" gradientUnits="userSpaceOnUse" x1="4410.5371" y1="783.6168" x2="3989.5518" y2="1395.96">
					<stop  offset="0" style="stop-color:#09005D"/>
					<stop  offset="1" style="stop-color:#1A0F91"/>
				</linearGradient>
				<path style="fill:url(#SVGID_00000104681567394768392770000005352311287097780892_);" d="M3096.121,2772.03h-81.785
					c-2.597,0-4.723-2.125-4.723-4.723v-24.662c0-2.598,2.125-4.723,4.723-4.723h81.785c2.597,0,4.723,2.125,4.723,4.723v24.662
					C3100.844,2769.905,3098.719,2772.03,3096.121,2772.03z"/>
				
					<linearGradient id="SVGID_00000168089961357352163010000014836599708846722186_" gradientUnits="userSpaceOnUse" x1="4368.8042" y1="765.2879" x2="3947.8186" y2="1377.6311">
					<stop  offset="0" style="stop-color:#09005D"/>
					<stop  offset="1" style="stop-color:#1A0F91"/>
				</linearGradient>
				<path style="fill:url(#SVGID_00000168089961357352163010000014836599708846722186_);" d="M3096.121,2692.998h-81.785
					c-2.597,0-4.723-2.125-4.723-4.723v-24.662c0-2.598,2.125-4.723,4.723-4.723h81.785c2.597,0,4.723,2.125,4.723,4.723v24.662
					C3100.844,2690.873,3098.719,2692.998,3096.121,2692.998z"/>
				
					<linearGradient id="SVGID_00000160876681617072181810000015375064337099923843_" gradientUnits="userSpaceOnUse" x1="4327.2896" y1="747.0464" x2="3906.3044" y2="1359.389">
					<stop  offset="0" style="stop-color:#09005D"/>
					<stop  offset="1" style="stop-color:#1A0F91"/>
				</linearGradient>
				<path style="fill:url(#SVGID_00000160876681617072181810000015375064337099923843_);" d="M3096.121,2614.372h-81.785
					c-2.597,0-4.723-2.125-4.723-4.722v-24.662c0-2.597,2.125-4.722,4.723-4.722h81.785c2.597,0,4.723,2.125,4.723,4.722v24.662
					C3100.844,2612.247,3098.719,2614.372,3096.121,2614.372z"/>
				
					<linearGradient id="SVGID_00000168828237725903817570000000027890538153437103_" gradientUnits="userSpaceOnUse" x1="4097.5488" y1="710.2368" x2="3688.9868" y2="1304.5096">
					<stop  offset="0" style="stop-color:#09005D"/>
					<stop  offset="1" style="stop-color:#1A0F91"/>
				</linearGradient>
				<path style="fill:url(#SVGID_00000168828237725903817570000000027890538153437103_);" d="M3137.899,2212.142h-122.368
					c-2.597,0-4.723-2.125-4.723-4.723v-24.662c0-2.597,2.125-4.723,4.723-4.723h122.368c2.597,0,4.723,2.125,4.723,4.723v24.662
					C3142.621,2210.016,3140.496,2212.142,3137.899,2212.142z"/>
				
					<linearGradient id="SVGID_00000111180290366271629380000005815981642417476761_" gradientUnits="userSpaceOnUse" x1="4239.0913" y1="708.5938" x2="3818.106" y2="1320.937">
					<stop  offset="0" style="stop-color:#09005D"/>
					<stop  offset="1" style="stop-color:#1A0F91"/>
				</linearGradient>
				<path style="fill:url(#SVGID_00000111180290366271629380000005815981642417476761_);" d="M3097.316,2445.894h-81.785
					c-2.597,0-4.723-2.125-4.723-4.723v-24.662c0-2.598,2.125-4.723,4.723-4.723h81.785c2.597,0,4.723,2.125,4.723,4.723v24.662
					C3102.038,2443.769,3099.913,2445.894,3097.316,2445.894z"/>
				
					<linearGradient id="SVGID_00000163051288783751822670000001434411933273606795_" gradientUnits="userSpaceOnUse" x1="4197.3623" y1="690.2587" x2="3776.377" y2="1302.6018">
					<stop  offset="0" style="stop-color:#09005D"/>
					<stop  offset="1" style="stop-color:#1A0F91"/>
				</linearGradient>
				<path style="fill:url(#SVGID_00000163051288783751822670000001434411933273606795_);" d="M3097.316,2366.862h-81.785
					c-2.597,0-4.723-2.125-4.723-4.723v-24.662c0-2.598,2.125-4.723,4.723-4.723h81.785c2.597,0,4.723,2.125,4.723,4.723v24.662
					C3102.038,2364.737,3099.913,2366.862,3097.316,2366.862z"/>
				
					<linearGradient id="SVGID_00000113336132991725026650000007449645433693323927_" gradientUnits="userSpaceOnUse" x1="4155.8447" y1="672.0218" x2="3734.8594" y2="1284.365">
					<stop  offset="0" style="stop-color:#09005D"/>
					<stop  offset="1" style="stop-color:#1A0F91"/>
				</linearGradient>
				<path style="fill:url(#SVGID_00000113336132991725026650000007449645433693323927_);" d="M3097.316,2288.236h-81.785
					c-2.597,0-4.723-2.125-4.723-4.723v-24.662c0-2.597,2.125-4.723,4.723-4.723h81.785c2.597,0,4.723,2.125,4.723,4.723v24.662
					C3102.038,2286.111,3099.913,2288.236,3097.316,2288.236z"/>
				
					<linearGradient id="SVGID_00000164489799755432396730000006198455006455741569_" gradientUnits="userSpaceOnUse" x1="3931.7083" y1="627.8265" x2="3523.1458" y2="1222.0996">
					<stop  offset="0" style="stop-color:#09005D"/>
					<stop  offset="1" style="stop-color:#1A0F91"/>
				</linearGradient>
				<path style="fill:url(#SVGID_00000164489799755432396730000006198455006455741569_);" d="M3137.899,1888.508h-122.368
					c-2.597,0-4.723-2.125-4.723-4.723v-24.662c0-2.598,2.125-4.723,4.723-4.723h122.368c2.597,0,4.723,2.125,4.723,4.723v24.662
					C3142.621,1886.383,3140.496,1888.508,3137.899,1888.508z"/>
				
					<linearGradient id="SVGID_00000113315765048699373630000011486328082188443012_" gradientUnits="userSpaceOnUse" x1="4068.2046" y1="633.5233" x2="3647.2195" y2="1245.8658">
					<stop  offset="0" style="stop-color:#09005D"/>
					<stop  offset="1" style="stop-color:#1A0F91"/>
				</linearGradient>
				<path style="fill:url(#SVGID_00000113315765048699373630000011486328082188443012_);" d="M3097.316,2122.26h-81.785
					c-2.597,0-4.723-2.125-4.723-4.723v-24.662c0-2.597,2.125-4.723,4.723-4.723h81.785c2.597,0,4.723,2.125,4.723,4.723v24.662
					C3102.038,2120.135,3099.913,2122.26,3097.316,2122.26z"/>
				
					<linearGradient id="SVGID_00000005244168630957019370000018016337948354386561_" gradientUnits="userSpaceOnUse" x1="4026.4758" y1="615.188" x2="3605.4907" y2="1227.5306">
					<stop  offset="0" style="stop-color:#09005D"/>
					<stop  offset="1" style="stop-color:#1A0F91"/>
				</linearGradient>
				<path style="fill:url(#SVGID_00000005244168630957019370000018016337948354386561_);" d="M3097.316,2043.229h-81.785
					c-2.597,0-4.723-2.125-4.723-4.723v-24.662c0-2.597,2.125-4.723,4.723-4.723h81.785c2.597,0,4.723,2.125,4.723,4.723v24.662
					C3102.038,2041.104,3099.913,2043.229,3097.316,2043.229z"/>
				
					<linearGradient id="SVGID_00000084499139347902632610000013242891567889522105_" gradientUnits="userSpaceOnUse" x1="3984.9592" y1="596.9498" x2="3563.9736" y2="1209.293">
					<stop  offset="0" style="stop-color:#09005D"/>
					<stop  offset="1" style="stop-color:#1A0F91"/>
				</linearGradient>
				<path style="fill:url(#SVGID_00000084499139347902632610000013242891567889522105_);" d="M3097.316,1964.603h-81.785
					c-2.597,0-4.723-2.125-4.723-4.723v-24.662c0-2.598,2.125-4.723,4.723-4.723h81.785c2.597,0,4.723,2.125,4.723,4.723v24.662
					C3102.038,1962.477,3099.913,1964.603,3097.316,1964.603z"/>
			</g>
		</g>
		<g>
			<path style="fill:#FFFFFF;" d="M1713.343,2681.409l-1005.244-5.927l84.042-96.349h40.996
				c5.801,0,124.184-231.097,135.746-257.581v-0.021c1.285-1.599,1.591-3.182,1.591-3.182h59.444l34.936-75.365l90.553-73.902
				l190.667,122.143l9.762,99.587l116.839,40.869L1713.343,2681.409z"/>
			
				<linearGradient id="SVGID_00000138574130922448624070000007308917704553244298_" gradientUnits="userSpaceOnUse" x1="1155.4064" y1="2425.1536" x2="1542.4789" y2="2425.1536">
				<stop  offset="0" style="stop-color:#DAE3FE"/>
				<stop  offset="1" style="stop-color:#E9EFFD"/>
			</linearGradient>
			<polygon style="fill:url(#SVGID_00000138574130922448624070000007308917704553244298_);" points="1542.479,2681.224 
				1457.606,2680.35 1334.764,2511.226 1248.664,2402.451 1276.109,2276.227 1155.406,2169.083 1346.074,2291.226 
				1355.836,2390.832 1472.675,2431.691 			"/>
			
				<linearGradient id="SVGID_00000096772352789735582390000017915114612504370356_" gradientUnits="userSpaceOnUse" x1="1031.1987" y1="2538.9666" x2="1194.9801" y2="2538.9666">
				<stop  offset="0" style="stop-color:#DAE3FE"/>
				<stop  offset="1" style="stop-color:#E9EFFD"/>
			</linearGradient>
			<polygon style="fill:url(#SVGID_00000096772352789735582390000017915114612504370356_);" points="1031.199,2402.451 
				1142.47,2490.89 1194.98,2622.463 1194.98,2675.482 1113.959,2675.482 1113.575,2597.728 1049.049,2503.506 			"/>
			<polygon style="fill:#BDD0FB;" points="1276.109,2276.227 1346.772,2298.383 1355.836,2390.836 1248.664,2397.463 			"/>
			<path style="fill:#BDD0FB;" d="M1002.245,2675.482H708.099l84.042-96.349h40.996c5.801,0,122.742-231.24,136.107-257.723
				l-28.492,162.62l19.473,8.096L1002.245,2675.482z"/>
			
				<linearGradient id="SVGID_00000122708346273780461810000009467111477940967102_" gradientUnits="userSpaceOnUse" x1="1091.7769" y1="2415.1189" x2="1221.5649" y2="2415.1189">
				<stop  offset="0" style="stop-color:#DAE3FE"/>
				<stop  offset="1" style="stop-color:#E9EFFD"/>
			</linearGradient>
			<path style="fill:url(#SVGID_00000122708346273780461810000009467111477940967102_);" d="M1155.406,2197.325
				c-8.805,2.588-63.63,93.216-63.63,93.216l103.203,146.571l26.585,195.801l-10.844-196.92l-112.231-142.095l56.916-91.747
				V2197.325z"/>
		</g>
		
			<linearGradient id="SVGID_00000106129143460806467830000007554405480199634363_" gradientUnits="userSpaceOnUse" x1="912.7505" y1="3606.762" x2="2151.1987" y2="541.0941">
			<stop  offset="0" style="stop-color:#4F52FF"/>
			<stop  offset="1" style="stop-color:#4042E2"/>
		</linearGradient>
		<path style="fill:url(#SVGID_00000106129143460806467830000007554405480199634363_);" d="M685.63,2692.355
			c242.717-36.591,445.346-61.69,509.35-47.036l88.122,47.036c141.075-21.218,284.08-37.865,430.24-47.036
			c47.349,23.837,101.216,44.847,158.281,64.462C1585.81,2767.967,1146.38,2736.389,685.63,2692.355z"/>
		<g style="opacity:0.3;">
			<path style="fill:#BDD0FB;" d="M724.712,2645.93l971.736,0.399c0.256,0,0.379,0.375,0.191,0.582l-58.143,64.226
				c-5.756,5.875-21.839,6.221-28.532,0.614l-4.672-3.915c-6.717-5.627-22.871-5.254-28.576,0.66l-76.567,79.368
				c-4.98,5.163-18.379,6.271-26.266,2.174l-51.706-26.863c-6.357-3.303-16.73-3.326-23.144-0.052l-160.283,67.731
				c-19.851,8.388-48.575,8.229-68.07-0.377l-169.536-74.847c-6.611-2.155-15.269-1.599-20.643,1.325l-38.831,21.13
				c-7.32,3.983-19.989,3.356-25.694-1.271l-70.446-57.155c-5.818-4.72-18.828-5.258-26.042-1.076l0,0
				c-7.244,4.2-20.319,3.637-26.1-1.124L724.712,2645.93z"/>
		</g>
	</g>
</g>
</svg>
